<svg id="Layer_1" data-name="Layer 1" xmlns="http://www.w3.org/2000/svg" viewBox="0 0 600 600"><title>typogram profile small</title><path d="M298.1,282.87h12.66l6-17.12c4.47-13.41,11.17-25.32,15.64-25.32,5.21,0,5.21,5.95,7.44,17.12l28.3,168.3c-12.66,15.64-34.25,29.79-51.38,37.23-6-14.15-21.6-23.83-41-23.83-17.87,0-31.27,11.17-31.27,29.05,0,16.38,11.17,26.06,32.76,26.06,43.19,0,93.09-32.77,129.57-76C442.57,375.21,485,298.51,485,247.13c0-25.32-13.4-38-30.53-38-17.87,0-30.53,8.94-30.53,32,0,24.58,12.66,41.7,29.79,52.13C444.06,321.6,435.12,338.72,418,364l-11.91-108c-4.47-31.27-16.38-46.91-46.91-46.91-26.81,0-42.45,13.4-50.64,40.21ZM154.38,420.64l81.17.74L304.8,157c43.94,0,84.9-8.19,115.43-37.23l-12.66-14.15c-24.58,23.83-90.11,30.53-141.49,27.55-41.7-2.23-67.76-6-86.38-6-32.77,0-66.28,11.91-82.66,39.46l14.15,11.17c20.11-32,59.57-32.76,115.42-26.8Z"/></svg>