<svg width="756" height="550" viewBox="0 0 756 550" fill="none" xmlns="http://www.w3.org/2000/svg">
<g clip-path="url(#clip0_419_577)">
<path d="M507.87 83.55C511.537 83.55 514.104 84.2833 515.57 85.75C517.404 87.2167 518.32 89.4167 518.32 92.35V111.6C518.32 114.9 517.404 117.467 515.57 119.3C514.104 121.133 511.354 121.867 507.32 121.5C501.454 121.5 496.32 121.867 491.92 122.6C487.52 123.333 483.12 124.617 478.72 126.45C469.92 129.75 466.254 133.967 467.72 139.1C469.554 143.133 471.57 148.083 473.77 153.95C475.97 159.45 477.07 166.967 477.07 176.5C477.07 192.633 472.854 207.483 464.42 221.05C455.987 234.25 442.787 244.883 424.82 252.95C407.22 261.017 384.854 265.05 357.72 265.05C339.02 265.05 324.354 266.15 313.72 268.35C303.087 270.55 295.57 273.483 291.17 277.15C286.77 280.817 284.57 284.667 284.57 288.7C284.57 294.567 288.42 298.783 296.12 301.35C304.187 303.917 317.02 305.75 334.62 306.85L405.57 310.7C437.837 312.533 461.487 320.233 476.52 333.8C491.554 347.367 499.07 365.15 499.07 387.15C499.07 414.65 486.787 436.283 462.22 452.05C438.02 468.183 403.37 476.25 358.27 476.25C311.704 476.25 276.137 469.467 251.57 455.9C227.37 442.7 215.27 423.633 215.27 398.7C215.27 385.867 219.67 374.317 228.47 364.05C237.637 353.783 250.47 344.617 266.97 336.55C271.004 334.717 271.004 332.7 266.97 330.5C258.904 326.833 252.67 322.433 248.27 317.3C243.87 311.8 241.67 305.383 241.67 298.05C241.67 292.917 243.32 287.783 246.62 282.65C249.92 277.517 254.687 272.75 260.92 268.35C267.52 263.95 275.404 260.1 284.57 256.8C286.77 256.067 287.87 255.15 287.87 254.05C287.87 252.95 286.954 251.667 285.12 250.2C268.987 242.133 257.07 232.05 249.37 219.95C241.67 207.85 237.82 193.367 237.82 176.5C237.82 147.9 248.637 125.35 270.27 108.85C291.904 92.35 322.52 84.1 362.12 84.1C381.187 84.1 397.32 86.3 410.52 90.7C424.087 95.1 435.454 101.15 444.62 108.85C446.82 110.683 448.837 111.6 450.67 111.6C452.504 111.6 454.337 110.683 456.17 108.85C460.57 104.817 465.52 100.967 471.02 97.3C476.52 93.2667 482.387 89.9667 488.62 87.4C495.22 84.8333 501.637 83.55 507.87 83.55ZM357.72 235.9C383.387 235.9 402.454 230.767 414.92 220.5C427.387 209.867 433.62 195.017 433.62 175.95C433.62 156.517 427.387 141.3 414.92 130.3C402.454 118.933 383.387 113.25 357.72 113.25C333.154 113.25 314.087 118.933 300.52 130.3C287.32 141.3 280.72 156.517 280.72 175.95C280.72 195.017 287.32 209.867 300.52 220.5C314.087 230.767 333.154 235.9 357.72 235.9ZM309.32 344.25C302.72 343.883 295.387 345.9 287.32 350.3C279.254 354.333 272.104 360.017 265.87 367.35C259.637 374.683 256.52 383.3 256.52 393.2C256.52 404.567 260.37 414.283 268.07 422.35C276.137 430.783 288.054 437.017 303.82 441.05C319.954 445.45 339.754 447.65 363.22 447.65C393.654 447.65 416.754 443.067 432.52 433.9C448.287 425.1 456.17 411.35 456.17 392.65C456.17 380.55 451.954 370.65 443.52 362.95C435.454 355.25 421.337 350.85 401.17 349.75L309.32 344.25Z" fill="#FFF0DD"/>
<mask id="mask0_419_577" style="mask-type:alpha" maskUnits="userSpaceOnUse" x="195" y="195" width="185" height="185">
<circle cx="287.5" cy="287.5" r="92.5" fill="#D9D9D9"/>
</mask>
<g mask="url(#mask0_419_577)">
<path d="M507.87 83.55C511.537 83.55 514.104 84.2833 515.57 85.75C517.404 87.2167 518.32 89.4167 518.32 92.35V111.6C518.32 114.9 517.404 117.467 515.57 119.3C514.104 121.133 511.354 121.867 507.32 121.5C501.454 121.5 496.32 121.867 491.92 122.6C487.52 123.333 483.12 124.617 478.72 126.45C469.92 129.75 466.254 133.967 467.72 139.1C469.554 143.133 471.57 148.083 473.77 153.95C475.97 159.45 477.07 166.967 477.07 176.5C477.07 192.633 472.854 207.483 464.42 221.05C455.987 234.25 442.787 244.883 424.82 252.95C407.22 261.017 384.854 265.05 357.72 265.05C339.02 265.05 324.354 266.15 313.72 268.35C303.087 270.55 295.57 273.483 291.17 277.15C286.77 280.817 284.57 284.667 284.57 288.7C284.57 294.567 288.42 298.783 296.12 301.35C304.187 303.917 317.02 305.75 334.62 306.85L405.57 310.7C437.837 312.533 461.487 320.233 476.52 333.8C491.554 347.367 499.07 365.15 499.07 387.15C499.07 414.65 486.787 436.283 462.22 452.05C438.02 468.183 403.37 476.25 358.27 476.25C311.704 476.25 276.137 469.467 251.57 455.9C227.37 442.7 215.27 423.633 215.27 398.7C215.27 385.867 219.67 374.317 228.47 364.05C237.637 353.783 250.47 344.617 266.97 336.55C271.004 334.717 271.004 332.7 266.97 330.5C258.904 326.833 252.67 322.433 248.27 317.3C243.87 311.8 241.67 305.383 241.67 298.05C241.67 292.917 243.32 287.783 246.62 282.65C249.92 277.517 254.687 272.75 260.92 268.35C267.52 263.95 275.404 260.1 284.57 256.8C286.77 256.067 287.87 255.15 287.87 254.05C287.87 252.95 286.954 251.667 285.12 250.2C268.987 242.133 257.07 232.05 249.37 219.95C241.67 207.85 237.82 193.367 237.82 176.5C237.82 147.9 248.637 125.35 270.27 108.85C291.904 92.35 322.52 84.1 362.12 84.1C381.187 84.1 397.32 86.3 410.52 90.7C424.087 95.1 435.454 101.15 444.62 108.85C446.82 110.683 448.837 111.6 450.67 111.6C452.504 111.6 454.337 110.683 456.17 108.85C460.57 104.817 465.52 100.967 471.02 97.3C476.52 93.2667 482.387 89.9667 488.62 87.4C495.22 84.8333 501.637 83.55 507.87 83.55ZM357.72 235.9C383.387 235.9 402.454 230.767 414.92 220.5C427.387 209.867 433.62 195.017 433.62 175.95C433.62 156.517 427.387 141.3 414.92 130.3C402.454 118.933 383.387 113.25 357.72 113.25C333.154 113.25 314.087 118.933 300.52 130.3C287.32 141.3 280.72 156.517 280.72 175.95C280.72 195.017 287.32 209.867 300.52 220.5C314.087 230.767 333.154 235.9 357.72 235.9ZM309.32 344.25C302.72 343.883 295.387 345.9 287.32 350.3C279.254 354.333 272.104 360.017 265.87 367.35C259.637 374.683 256.52 383.3 256.52 393.2C256.52 404.567 260.37 414.283 268.07 422.35C276.137 430.783 288.054 437.017 303.82 441.05C319.954 445.45 339.754 447.65 363.22 447.65C393.654 447.65 416.754 443.067 432.52 433.9C448.287 425.1 456.17 411.35 456.17 392.65C456.17 380.55 451.954 370.65 443.52 362.95C435.454 355.25 421.337 350.85 401.17 349.75L309.32 344.25Z" fill="#FF5E3A"/>
</g>
<mask id="mask1_419_577" style="mask-type:alpha" maskUnits="userSpaceOnUse" x="413" y="53" width="119" height="119">
<circle cx="472.5" cy="112.5" r="59.5" fill="#D9D9D9"/>
</mask>
<g mask="url(#mask1_419_577)">
<path d="M507.87 83.55C511.537 83.55 514.104 84.2833 515.57 85.75C517.404 87.2167 518.32 89.4167 518.32 92.35V111.6C518.32 114.9 517.404 117.467 515.57 119.3C514.104 121.133 511.354 121.867 507.32 121.5C501.454 121.5 496.32 121.867 491.92 122.6C487.52 123.333 483.12 124.617 478.72 126.45C469.92 129.75 466.254 133.967 467.72 139.1C469.554 143.133 471.57 148.083 473.77 153.95C475.97 159.45 477.07 166.967 477.07 176.5C477.07 192.633 472.854 207.483 464.42 221.05C455.987 234.25 442.787 244.883 424.82 252.95C407.22 261.017 384.854 265.05 357.72 265.05C339.02 265.05 324.354 266.15 313.72 268.35C303.087 270.55 295.57 273.483 291.17 277.15C286.77 280.817 284.57 284.667 284.57 288.7C284.57 294.567 288.42 298.783 296.12 301.35C304.187 303.917 317.02 305.75 334.62 306.85L405.57 310.7C437.837 312.533 461.487 320.233 476.52 333.8C491.554 347.367 499.07 365.15 499.07 387.15C499.07 414.65 486.787 436.283 462.22 452.05C438.02 468.183 403.37 476.25 358.27 476.25C311.704 476.25 276.137 469.467 251.57 455.9C227.37 442.7 215.27 423.633 215.27 398.7C215.27 385.867 219.67 374.317 228.47 364.05C237.637 353.783 250.47 344.617 266.97 336.55C271.004 334.717 271.004 332.7 266.97 330.5C258.904 326.833 252.67 322.433 248.27 317.3C243.87 311.8 241.67 305.383 241.67 298.05C241.67 292.917 243.32 287.783 246.62 282.65C249.92 277.517 254.687 272.75 260.92 268.35C267.52 263.95 275.404 260.1 284.57 256.8C286.77 256.067 287.87 255.15 287.87 254.05C287.87 252.95 286.954 251.667 285.12 250.2C268.987 242.133 257.07 232.05 249.37 219.95C241.67 207.85 237.82 193.367 237.82 176.5C237.82 147.9 248.637 125.35 270.27 108.85C291.904 92.35 322.52 84.1 362.12 84.1C381.187 84.1 397.32 86.3 410.52 90.7C424.087 95.1 435.454 101.15 444.62 108.85C446.82 110.683 448.837 111.6 450.67 111.6C452.504 111.6 454.337 110.683 456.17 108.85C460.57 104.817 465.52 100.967 471.02 97.3C476.52 93.2667 482.387 89.9667 488.62 87.4C495.22 84.8333 501.637 83.55 507.87 83.55ZM357.72 235.9C383.387 235.9 402.454 230.767 414.92 220.5C427.387 209.867 433.62 195.017 433.62 175.95C433.62 156.517 427.387 141.3 414.92 130.3C402.454 118.933 383.387 113.25 357.72 113.25C333.154 113.25 314.087 118.933 300.52 130.3C287.32 141.3 280.72 156.517 280.72 175.95C280.72 195.017 287.32 209.867 300.52 220.5C314.087 230.767 333.154 235.9 357.72 235.9ZM309.32 344.25C302.72 343.883 295.387 345.9 287.32 350.3C279.254 354.333 272.104 360.017 265.87 367.35C259.637 374.683 256.52 383.3 256.52 393.2C256.52 404.567 260.37 414.283 268.07 422.35C276.137 430.783 288.054 437.017 303.82 441.05C319.954 445.45 339.754 447.65 363.22 447.65C393.654 447.65 416.754 443.067 432.52 433.9C448.287 425.1 456.17 411.35 456.17 392.65C456.17 380.55 451.954 370.65 443.52 362.95C435.454 355.25 421.337 350.85 401.17 349.75L309.32 344.25Z" fill="#FF5E3A"/>
</g>
<path d="M542.78 238.22V233.76C542.78 230.8 540.96 229 537.96 229H532.6V231.12C532.6 231.26 532.68 231.34 532.82 231.34H533.6V242.78C533.6 242.92 533.68 243 533.82 243H537.98C540.96 243 542.78 241.2 542.78 238.22ZM536.32 240.66V231.34H537.82C538.62 231.34 539.14 231.5 539.5 231.86C539.88 232.24 540.06 232.86 540.06 233.78V238.22C540.06 239.9 539.44 240.66 537.82 240.66H536.32ZM550.392 232.02C547.552 232.02 545.572 233.9 545.572 236.62V238.66C545.572 241.36 547.512 243.24 550.392 243.24C553.232 243.24 555.212 241.36 555.212 238.64V236.58C555.212 233.9 553.252 232.02 550.392 232.02ZM550.432 234.4C551.112 234.4 551.652 234.58 552.012 234.94C552.392 235.32 552.572 235.9 552.572 236.72V238.52C552.572 239.94 551.792 240.84 550.352 240.84C549.712 240.84 549.172 240.64 548.812 240.28C548.412 239.88 548.212 239.28 548.212 238.52V236.74C548.212 235.3 548.992 234.4 550.432 234.4ZM560.744 232.26H558.324V240.22C558.324 242.06 559.484 243.24 561.144 243.24C562.624 243.24 563.504 242.5 564.264 241.26H564.624V242.78C564.624 242.92 564.704 243 564.844 243H567.244V232.48C567.244 232.34 567.164 232.26 567.024 232.26H564.624V239.32C563.824 240.18 562.944 240.56 561.884 240.56C561.324 240.56 560.964 240.2 560.964 239.58V232.48C560.964 232.34 560.884 232.26 560.744 232.26ZM572.657 243C572.657 243 573.017 241.94 573.217 241.34H573.557C574.297 242.56 575.397 243.2 576.657 243.2C578.697 243.2 579.997 241.76 579.997 239.28V235.9C579.997 233.46 578.697 232.02 576.677 232.02C575.417 232.02 574.337 232.7 573.697 233.84H573.357V228.22C573.357 228.08 573.277 228 573.137 228H570.717V242.78C570.717 242.92 570.797 243 570.937 243H572.657ZM575.817 234.56C576.297 234.56 576.677 234.7 576.937 234.96C577.217 235.24 577.377 235.7 577.377 236.34V238.84C577.377 240.02 576.797 240.66 575.817 240.66C575.017 240.66 574.117 240.3 573.357 239.48V236C574.097 235.08 575.017 234.56 575.817 234.56ZM582.849 240.7V242.78C582.849 242.92 582.929 243 583.069 243H592.329V240.92C592.329 240.78 592.249 240.7 592.109 240.7H589.149V228.22C589.149 228.08 589.069 228 588.929 228H583.209V230.08C583.209 230.22 583.289 230.3 583.429 230.3H586.509V240.7H582.849ZM600.001 232.02C597.201 232.02 595.341 233.78 595.341 236.5V238.76C595.341 241.56 597.101 243.24 600.561 243.24C602.161 243.24 603.841 242.84 604.161 242.52C604.221 242.46 604.241 242.42 604.241 242.36V240.36H603.861C602.921 240.7 602.041 240.94 600.581 240.94C599.641 240.94 598.921 240.76 598.461 240.32C598.141 239.98 597.961 239.48 597.961 238.8V238.32H604.281C604.421 238.32 604.501 238.24 604.501 238.12V236.48C604.501 233.78 602.681 232.02 600.001 232.02ZM600.001 234.24C600.641 234.24 601.121 234.38 601.421 234.68C601.781 235.04 601.941 235.58 601.941 236.38V236.68H597.961V236.4C597.961 234.86 598.641 234.24 600.001 234.24ZM624.625 240.72C622.945 240.72 621.865 240.46 620.625 239.9H620.245V242.2C620.245 242.26 620.245 242.3 620.285 242.34C620.605 242.64 622.305 243.18 624.585 243.18C627.665 243.18 629.345 242 629.345 239.76C629.345 238.14 628.405 237.2 626.265 236.88L624.325 236.6C623.385 236.44 623.105 236.18 623.105 235.68C623.105 234.96 623.645 234.54 625.225 234.54C626.425 234.54 627.165 234.68 628.285 235.04H628.665V232.9C628.665 232.8 628.645 232.74 628.605 232.7C628.365 232.48 627.205 232.08 625.225 232.08C622.305 232.08 620.485 233.4 620.485 235.56C620.485 237.04 621.425 237.96 623.385 238.28L625.425 238.58C626.505 238.78 626.765 239.06 626.765 239.58C626.765 240.28 626.265 240.72 624.625 240.72ZM641.137 240.66H639.317C638.637 240.66 638.157 240.56 637.877 240.26C637.557 239.96 637.437 239.46 637.437 238.66V234.54H641.137V232.48C641.137 232.34 641.057 232.26 640.917 232.26H637.437V229.22C637.437 229.08 637.357 229 637.217 229H634.797V232.26H632.417V234.32C632.417 234.46 632.497 234.54 632.637 234.54H634.797V238.72C634.797 241.8 636.477 243 639.197 243H640.917C641.037 243 641.137 242.9 641.137 242.78V240.66ZM649.53 232.02C646.69 232.02 644.71 233.9 644.71 236.62V238.66C644.71 241.36 646.65 243.24 649.53 243.24C652.37 243.24 654.35 241.36 654.35 238.64V236.58C654.35 233.9 652.39 232.02 649.53 232.02ZM649.57 234.4C650.25 234.4 650.79 234.58 651.15 234.94C651.53 235.32 651.71 235.9 651.71 236.72V238.52C651.71 239.94 650.93 240.84 649.49 240.84C648.85 240.84 648.31 240.64 647.95 240.28C647.55 239.88 647.35 239.28 647.35 238.52V236.74C647.35 235.3 648.13 234.4 649.57 234.4ZM657.202 240.7V242.78C657.202 242.92 657.282 243 657.422 243H665.642V240.92C665.642 240.78 665.562 240.7 665.422 240.7H662.282V235.92C663.102 235.16 664.102 234.82 665.102 234.82C665.682 234.82 666.102 234.88 666.682 235.04H667.042V232.54C667.042 232.44 667.022 232.38 666.982 232.32C666.822 232.18 666.442 232.06 665.802 232.06C664.222 232.06 663.122 232.96 662.422 234.3H662.142C661.902 233.56 661.502 232.26 661.502 232.26H657.322V234.32C657.322 234.46 657.402 234.54 657.542 234.54H659.642V240.7H657.202ZM671.714 232.26H669.154C670.234 235.74 672.374 241.9 672.454 242.14C672.494 242.28 672.554 242.34 672.694 242.34H674.374C674.274 242.74 674.194 243.08 674.134 243.32C673.894 244.28 673.354 244.7 672.454 244.7H670.394V246.78C670.394 246.92 670.474 247 670.614 247H672.754C674.854 247 675.974 246.04 676.514 243.84C677.594 239.54 678.434 236.44 679.474 232.58C679.534 232.38 679.374 232.26 679.234 232.26H676.794C676.154 234.98 675.334 238.32 674.774 240.7H674.394C673.794 238.26 673.174 236.68 672.094 232.52C672.034 232.3 671.954 232.26 671.714 232.26ZM538.02 258H535.58C535.48 258 535.42 258.02 535.38 258.14C534.64 260.12 533.96 261.96 533.2 263.96C533.14 264.12 533.2 264.22 533.36 264.22H536.58C537.06 262.14 537.54 260.14 538.02 258ZM542.84 258H540.4C540.3 258 540.24 258.02 540.2 258.14C539.46 260.12 538.78 261.96 538.02 263.96C537.96 264.12 538.02 264.22 538.18 264.22H541.4C541.88 262.14 542.36 260.14 542.84 258ZM550.232 262.04C547.292 262.04 545.672 263.36 545.672 265.54V265.98C545.672 267.62 546.572 268.76 548.252 269.24V269.54C547.212 269.9 546.692 270.58 546.692 271.48C546.692 272 546.912 272.44 547.232 272.78V273.08C545.972 273.28 545.192 274.12 545.192 275.3V275.58C545.192 277.12 546.232 278 548.312 278H552.412C554.732 278 555.832 276.7 555.832 274.88V274.22C555.832 272.38 554.732 271.1 552.412 271.1H549.792C549.472 271.1 549.332 270.98 549.332 270.64C549.332 270.32 549.372 269.98 549.432 269.46C549.692 269.48 549.952 269.5 550.232 269.5C553.172 269.5 554.792 268.16 554.792 265.98V265.54C554.792 264.56 554.472 263.76 553.852 263.16V262.92L554.812 262.76C555.972 262.56 556.052 262.56 556.052 262.16V260.72C556.052 260.58 555.972 260.5 555.832 260.5H553.012V261.44C553.012 261.64 552.992 261.72 552.892 261.86L552.492 262.36C551.852 262.14 551.112 262.04 550.232 262.04ZM550.232 264.06C550.992 264.06 551.532 264.24 551.872 264.54C552.112 264.8 552.232 265.14 552.232 265.54V265.98C552.232 266.96 551.532 267.46 550.232 267.46C549.492 267.46 548.912 267.3 548.592 266.96C548.352 266.72 548.232 266.4 548.232 265.98V265.54C548.232 264.56 548.952 264.06 550.232 264.06ZM548.912 276.02C548.092 276.02 547.792 275.72 547.792 275V274.48C547.792 273.96 547.952 273.56 548.432 273.32H552.112C552.932 273.32 553.232 273.64 553.232 274.4V274.86C553.232 275.24 553.152 275.56 552.972 275.76C552.792 275.94 552.512 276.02 552.112 276.02H548.912ZM562.764 264.22H565.204C565.304 264.22 565.364 264.2 565.404 264.08C566.144 262.08 566.824 260.24 567.584 258.26C567.644 258.1 567.584 258 567.424 258H564.204C563.724 260.08 563.244 262.08 562.764 264.22ZM557.944 264.22H560.384C560.484 264.22 560.544 264.2 560.584 264.08C561.324 262.08 562.004 260.24 562.764 258.26C562.824 258.1 562.764 258 562.604 258H559.384C558.904 260.08 558.424 262.08 557.944 264.22ZM586.489 264.04C586.089 266.06 585.729 268.18 585.489 270.98H585.009C584.949 267.66 584.749 265.16 584.489 262.52C584.469 262.3 584.389 262.26 584.229 262.26H581.869C582.349 265.74 582.849 269.22 583.349 272.72C583.369 272.9 583.489 273 583.669 273H586.549C587.149 270 587.229 269.36 587.369 266.34H587.769C587.929 269.36 588.029 270 588.589 272.72C588.629 272.9 588.729 273 588.909 273H591.729C592.249 269.5 592.749 266.02 593.249 262.52C593.289 262.28 593.229 262.26 593.049 262.26H590.709C590.449 264.92 590.249 267.58 590.169 270.98H589.709C589.429 268.12 589.089 266.18 588.729 264.26C588.689 264.08 588.589 264.04 588.469 264.04H586.489ZM598.281 257.14V259.66C598.281 259.8 598.361 259.88 598.501 259.88H601.681V257.36C601.681 257.22 601.601 257.14 601.461 257.14H598.281ZM595.241 270.7V272.78C595.241 272.92 595.321 273 595.461 273H604.721V270.92C604.721 270.78 604.641 270.7 604.501 270.7H601.541V262.48C601.541 262.34 601.461 262.26 601.321 262.26H595.601V264.32C595.601 264.46 595.681 264.54 595.821 264.54H598.901V270.7H595.241ZM616.353 270.66H614.533C613.853 270.66 613.373 270.56 613.093 270.26C612.773 269.96 612.653 269.46 612.653 268.66V264.54H616.353V262.48C616.353 262.34 616.273 262.26 616.133 262.26H612.653V259.22C612.653 259.08 612.573 259 612.433 259H610.013V262.26H607.633V264.32C607.633 264.46 607.713 264.54 607.853 264.54H610.013V268.72C610.013 271.8 611.693 273 614.413 273H616.133C616.253 273 616.353 272.9 616.353 272.78V270.66ZM620.505 273H622.925V265.92C623.785 265.02 624.865 264.56 625.705 264.56C626.425 264.56 626.745 264.92 626.745 265.66V272.78C626.745 272.92 626.825 273 626.965 273H629.385V265.12C629.385 263.22 628.285 262.02 626.545 262.02C625.205 262.02 624.085 262.82 623.305 263.98H622.925V258.22C622.925 258.08 622.845 258 622.705 258H620.285V272.78C620.285 272.92 620.365 273 620.505 273ZM653.53 270.66H651.71C651.03 270.66 650.55 270.56 650.27 270.26C649.95 269.96 649.83 269.46 649.83 268.66V264.54H653.53V262.48C653.53 262.34 653.45 262.26 653.31 262.26H649.83V259.22C649.83 259.08 649.75 259 649.61 259H647.19V262.26H644.81V264.32C644.81 264.46 644.89 264.54 645.03 264.54H647.19V268.72C647.19 271.8 648.87 273 651.59 273H653.31C653.43 273 653.53 272.9 653.53 272.78V270.66ZM657.682 273H660.102V265.92C660.962 265.02 662.042 264.56 662.882 264.56C663.602 264.56 663.922 264.92 663.922 265.66V272.78C663.922 272.92 664.002 273 664.142 273H666.562V265.12C666.562 263.22 665.462 262.02 663.722 262.02C662.382 262.02 661.262 262.82 660.482 263.98H660.102V258.22C660.102 258.08 660.022 258 659.882 258H657.462V272.78C657.462 272.92 657.542 273 657.682 273ZM672.634 257.14V259.66C672.634 259.8 672.714 259.88 672.854 259.88H676.034V257.36C676.034 257.22 675.954 257.14 675.814 257.14H672.634ZM669.594 270.7V272.78C669.594 272.92 669.674 273 669.814 273H679.074V270.92C679.074 270.78 678.994 270.7 678.854 270.7H675.894V262.48C675.894 262.34 675.814 262.26 675.674 262.26H669.954V264.32C669.954 264.46 670.034 264.54 670.174 264.54H673.254V270.7H669.594ZM687.366 262.02C684.086 262.02 682.126 263.9 682.126 266.74V268.54C682.126 271.32 684.066 273.24 687.286 273.24C689.186 273.24 690.626 272.74 690.966 272.4C691.006 272.36 691.026 272.3 691.026 272.24V270.06H690.646C689.626 270.52 688.686 270.78 687.526 270.78C686.526 270.78 685.866 270.54 685.446 270.12C685.046 269.72 684.846 269.14 684.846 268.38V266.92C684.846 265.18 685.766 264.48 687.546 264.48C688.706 264.48 689.626 264.74 690.646 265.18H691.026V263.02C691.026 262.96 691.006 262.9 690.946 262.84C690.646 262.54 689.246 262.02 687.366 262.02ZM697.278 273V269.8C697.678 269.38 698.058 268.94 698.458 268.5H698.858C699.038 269.42 699.258 269.96 699.818 270.74C700.398 271.52 701.158 272.6 701.318 272.82C701.418 272.96 701.498 273 701.698 273H704.698C703.078 270.94 701.578 268.96 699.978 266.88C701.198 265.54 702.478 264.18 703.818 262.72C703.978 262.54 703.998 262.5 703.998 262.42C703.998 262.32 703.918 262.24 703.778 262.24L700.898 262.26C700.118 263.16 699.558 263.78 699.038 264.38C698.398 265.12 698.018 265.76 697.638 266.88H697.278V258.22C697.278 258.08 697.198 258 697.058 258H694.638V272.78C694.638 272.92 694.718 273 694.858 273H697.278ZM535.76 303.18C537.48 303.18 538.42 302.46 539 301.34H539.42C539.5 301.48 539.6 301.6 539.66 301.68C540.4 302.72 541.16 303.04 542.22 303.04H543.2C543.36 303.04 543.42 302.96 543.42 302.82V300.56H542.54C542.04 300.56 541.86 300.48 541.44 299.96C541.38 299.88 541.3 299.78 541.2 299.64V299.22C542.5 298.52 543.26 297.46 543.26 295.98V294.38C543.26 294.24 543.2 294.16 543.04 294.16H540.76V296.76C540.76 297.42 540.62 297.82 540.2 298.32C539.36 297.2 538.22 295.64 536.92 293.86C536.34 293.08 536.32 292.84 536.32 292.4C536.32 292.02 536.42 291.78 536.6 291.6C536.88 291.34 537.42 291.14 538.14 291.14C539.28 291.14 540.02 291.3 540.96 291.58H541.34V289.54C541.34 289.46 541.32 289.4 541.28 289.36C541.08 289.16 539.98 288.82 538.18 288.82C535.24 288.82 533.76 290.2 533.76 291.98V292.32C533.76 293.44 534.04 294.04 535.08 295.48V295.88C533.68 296.16 532.56 297.16 532.56 299.04V300.08C532.56 302.06 533.8 303.18 535.76 303.18ZM535.18 299.4V298.32C535.18 297.62 535.48 297.1 536.1 296.86C536.94 298 537.82 299.2 538.52 300.14C537.9 300.7 537.38 300.92 536.56 300.92C535.64 300.92 535.18 300.4 535.18 299.4ZM566.784 300.66H564.964C564.284 300.66 563.804 300.56 563.524 300.26C563.204 299.96 563.084 299.46 563.084 298.66V294.54H566.784V292.48C566.784 292.34 566.704 292.26 566.564 292.26H563.084V289.22C563.084 289.08 563.004 289 562.864 289H560.444V292.26H558.064V294.32C558.064 294.46 558.144 294.54 558.284 294.54H560.444V298.72C560.444 301.8 562.124 303 564.844 303H566.564C566.684 303 566.784 302.9 566.784 302.78V300.66ZM570.937 303H573.357V295.92C574.217 295.02 575.297 294.56 576.137 294.56C576.857 294.56 577.177 294.92 577.177 295.66V302.78C577.177 302.92 577.257 303 577.397 303H579.817V295.12C579.817 293.22 578.717 292.02 576.977 292.02C575.637 292.02 574.517 292.82 573.737 293.98H573.357V288.22C573.357 288.08 573.277 288 573.137 288H570.717V302.78C570.717 302.92 570.797 303 570.937 303ZM585.889 287.14V289.66C585.889 289.8 585.969 289.88 586.109 289.88H589.289V287.36C589.289 287.22 589.209 287.14 589.069 287.14H585.889ZM582.849 300.7V302.78C582.849 302.92 582.929 303 583.069 303H592.329V300.92C592.329 300.78 592.249 300.7 592.109 300.7H589.149V292.48C589.149 292.34 589.069 292.26 588.929 292.26H583.209V294.32C583.209 294.46 583.289 294.54 583.429 294.54H586.509V300.7H582.849ZM598.141 303V295.92C599.001 295.02 600.081 294.56 600.921 294.56C601.641 294.56 601.961 294.92 601.961 295.66V302.78C601.961 302.92 602.041 303 602.181 303H604.601V295.12C604.601 293.22 603.501 292.02 601.761 292.02C600.421 292.02 599.301 292.82 598.521 293.98H598.141V292.48C598.141 292.34 598.061 292.26 597.921 292.26H595.501V302.78C595.501 302.92 595.581 303 595.721 303H598.141ZM624.625 300.72C622.945 300.72 621.865 300.46 620.625 299.9H620.245V302.2C620.245 302.26 620.245 302.3 620.285 302.34C620.605 302.64 622.305 303.18 624.585 303.18C627.665 303.18 629.345 302 629.345 299.76C629.345 298.14 628.405 297.2 626.265 296.88L624.325 296.6C623.385 296.44 623.105 296.18 623.105 295.68C623.105 294.96 623.645 294.54 625.225 294.54C626.425 294.54 627.165 294.68 628.285 295.04H628.665V292.9C628.665 292.8 628.645 292.74 628.605 292.7C628.365 292.48 627.205 292.08 625.225 292.08C622.305 292.08 620.485 293.4 620.485 295.56C620.485 297.04 621.425 297.96 623.385 298.28L625.425 298.58C626.505 298.78 626.765 299.06 626.765 299.58C626.765 300.28 626.265 300.72 624.625 300.72ZM641.137 300.66H639.317C638.637 300.66 638.157 300.56 637.877 300.26C637.557 299.96 637.437 299.46 637.437 298.66V294.54H641.137V292.48C641.137 292.34 641.057 292.26 640.917 292.26H637.437V289.22C637.437 289.08 637.357 289 637.217 289H634.797V292.26H632.417V294.32C632.417 294.46 632.497 294.54 632.637 294.54H634.797V298.72C634.797 301.8 636.477 303 639.197 303H640.917C641.037 303 641.137 302.9 641.137 302.78V300.66ZM644.81 300.7V302.78C644.81 302.92 644.89 303 645.03 303H653.25V300.92C653.25 300.78 653.17 300.7 653.03 300.7H649.89V295.92C650.71 295.16 651.71 294.82 652.71 294.82C653.29 294.82 653.71 294.88 654.29 295.04H654.65V292.54C654.65 292.44 654.63 292.38 654.59 292.32C654.43 292.18 654.05 292.06 653.41 292.06C651.83 292.06 650.73 292.96 650.03 294.3H649.75C649.51 293.56 649.11 292.26 649.11 292.26H644.93V294.32C644.93 294.46 645.01 294.54 645.15 294.54H647.25V300.7H644.81ZM661.922 292.02C659.082 292.02 657.102 293.9 657.102 296.62V298.66C657.102 301.36 659.042 303.24 661.922 303.24C664.762 303.24 666.742 301.36 666.742 298.64V296.58C666.742 293.9 664.782 292.02 661.922 292.02ZM661.962 294.4C662.642 294.4 663.182 294.58 663.542 294.94C663.922 295.32 664.102 295.9 664.102 296.72V298.52C664.102 299.94 663.322 300.84 661.882 300.84C661.242 300.84 660.702 300.64 660.342 300.28C659.942 299.88 659.742 299.28 659.742 298.52V296.74C659.742 295.3 660.522 294.4 661.962 294.4ZM672.494 303V299.8C672.894 299.38 673.274 298.94 673.674 298.5H674.074C674.254 299.42 674.474 299.96 675.034 300.74C675.614 301.52 676.374 302.6 676.534 302.82C676.634 302.96 676.714 303 676.914 303H679.914C678.294 300.94 676.794 298.96 675.194 296.88C676.414 295.54 677.694 294.18 679.034 292.72C679.194 292.54 679.214 292.5 679.214 292.42C679.214 292.32 679.134 292.24 678.994 292.24L676.114 292.26C675.334 293.16 674.774 293.78 674.254 294.38C673.614 295.12 673.234 295.76 672.854 296.88H672.494V288.22C672.494 288.08 672.414 288 672.274 288H669.854V302.78C669.854 302.92 669.934 303 670.074 303H672.494ZM686.746 292.02C683.946 292.02 682.086 293.78 682.086 296.5V298.76C682.086 301.56 683.846 303.24 687.306 303.24C688.906 303.24 690.586 302.84 690.906 302.52C690.966 302.46 690.986 302.42 690.986 302.36V300.36H690.606C689.666 300.7 688.786 300.94 687.326 300.94C686.386 300.94 685.666 300.76 685.206 300.32C684.886 299.98 684.706 299.48 684.706 298.8V298.32H691.026C691.166 298.32 691.246 298.24 691.246 298.12V296.48C691.246 293.78 689.426 292.02 686.746 292.02ZM686.746 294.24C687.386 294.24 687.866 294.38 688.166 294.68C688.526 295.04 688.686 295.58 688.686 296.38V296.68H684.706V296.4C684.706 294.86 685.386 294.24 686.746 294.24ZM698.978 300.72C697.298 300.72 696.218 300.46 694.978 299.9H694.598V302.2C694.598 302.26 694.598 302.3 694.638 302.34C694.958 302.64 696.658 303.18 698.938 303.18C702.018 303.18 703.698 302 703.698 299.76C703.698 298.14 702.758 297.2 700.618 296.88L698.678 296.6C697.738 296.44 697.458 296.18 697.458 295.68C697.458 294.96 697.998 294.54 699.578 294.54C700.778 294.54 701.518 294.68 702.638 295.04H703.018V292.9C703.018 292.8 702.998 292.74 702.958 292.7C702.718 292.48 701.558 292.08 699.578 292.08C696.658 292.08 694.838 293.4 694.838 295.56C694.838 297.04 695.778 297.96 697.738 298.28L699.778 298.58C700.858 298.78 701.118 299.06 701.118 299.58C701.118 300.28 700.618 300.72 698.978 300.72Z" fill="#FFF0DD"/>
<path d="M611.538 207.061C612.124 207.646 613.074 207.646 613.659 207.061L623.205 197.515C623.791 196.929 623.791 195.979 623.205 195.393C622.62 194.808 621.67 194.808 621.084 195.393L612.599 203.879L604.113 195.393C603.528 194.808 602.578 194.808 601.992 195.393C601.406 195.979 601.406 196.929 601.992 197.515L611.538 207.061ZM612.599 142.591L611.099 142.591L611.099 142.647L611.103 142.703L612.599 142.591ZM566.447 103.5C581.882 103.5 593.011 107.948 600.274 114.958C607.537 121.968 611.099 131.699 611.099 142.591L614.099 142.591C614.099 131.039 610.309 120.474 602.358 112.8C594.407 105.125 582.46 100.5 566.447 100.5L566.447 103.5ZM611.103 142.703C612 154.728 611.099 188.537 611.099 206L614.099 206C614.099 188.764 615.002 154.649 614.095 142.48L611.103 142.703Z" fill="#FF5E3A"/>
</g>
<defs>
<clipPath id="clip0_419_577">
<rect width="756" height="550" fill="white"/>
</clipPath>
</defs>
</svg>
