<svg width="814" height="400" viewBox="0 0 814 400" fill="none" xmlns="http://www.w3.org/2000/svg">
<g clip-path="url(#clip0_449_146)">
<path d="M196.303 86L293 300H96L196.303 86Z" fill="#FF5E3A"/>
<path d="M508.5 199.5C508.5 257.214 461.438 303 404 303C346.562 303 300 256.214 300 198.5C300 140.786 346.562 96 404 96C461.438 96 508.5 141.786 508.5 199.5Z" fill="#FF5E3A"/>
<rect x="548" y="100" width="147" height="200" fill="#FF5E3A"/>
<path d="M237.103 250.141L238.021 249.744L237.76 249.141H237.103V250.141ZM152.76 250.141V249.141H152.119L151.851 249.724L152.76 250.141ZM130.813 297.99V298.99H131.455L131.722 298.407L130.813 297.99ZM98.7861 297.99L97.8795 297.568L97.2175 298.99H98.7861V297.99ZM196.271 88.6013L197.183 88.1917L196.288 86.1969L195.365 88.1793L196.271 88.6013ZM290.311 297.99V298.99H291.857L291.223 297.581L290.311 297.99ZM257.774 297.99L256.856 298.387L257.116 298.99H257.774V297.99ZM224.981 222.197V223.197H226.508L225.897 221.797L224.981 222.197ZM195.761 155.208L196.677 154.808L195.782 152.756L194.851 154.792L195.761 155.208ZM165.137 222.197L164.228 221.781L163.581 223.197H165.137V222.197ZM237.103 249.141H152.76V251.141H237.103V249.141ZM151.851 249.724L129.904 297.573L131.722 298.407L153.669 250.558L151.851 249.724ZM130.813 296.99H98.7861V298.99H130.813V296.99ZM99.6927 298.412L197.178 89.0234L195.365 88.1793L97.8795 297.568L99.6927 298.412ZM195.359 89.011L289.399 298.4L291.223 297.581L197.183 88.1917L195.359 89.011ZM290.311 296.99H257.774V298.99H290.311V296.99ZM258.692 297.594L238.021 249.744L236.185 250.537L256.856 298.387L258.692 297.594ZM225.897 221.797L196.677 154.808L194.844 155.607L224.064 222.597L225.897 221.797ZM194.851 154.792L164.228 221.781L166.047 222.613L196.67 155.623L194.851 154.792ZM165.137 223.197H224.981V221.197H165.137V223.197ZM332.031 127.136L332.73 127.851L332.732 127.849L332.031 127.136ZM477.238 127.391L476.531 128.098L476.532 128.1L477.238 127.391ZM477.11 271.833L476.412 271.116L476.412 271.117L477.11 271.833ZM334.966 275.15L334.307 275.903L334.309 275.905L334.966 275.15ZM353.467 252.693L354.162 251.973L354.16 251.971L353.467 252.693ZM456.184 252.31L456.893 253.015L456.897 253.011L456.184 252.31ZM456.439 146.659L455.724 147.357L455.728 147.361L456.439 146.659ZM352.702 146.659L353.409 147.366L353.413 147.361L352.702 146.659ZM302.535 198.591C302.535 171.136 312.586 147.573 332.73 127.851L331.331 126.422C310.814 146.509 300.535 170.583 300.535 198.591H302.535ZM332.732 127.849C352.79 108.128 376.867 98.278 405.017 98.278V96.278C376.343 96.278 351.762 106.334 331.33 126.423L332.732 127.849ZM405.017 98.278C432.82 98.278 456.64 108.208 476.531 128.098L477.945 126.684C457.684 106.424 433.357 96.278 405.017 96.278V98.278ZM476.532 128.1C496.506 147.99 506.479 171.852 506.479 199.74H508.479C508.479 171.314 498.29 146.944 477.943 126.683L476.532 128.1ZM506.479 199.74C506.479 227.797 496.464 251.57 476.412 271.116L477.808 272.549C498.247 252.625 508.479 228.335 508.479 199.74H506.479ZM476.412 271.117C456.271 290.752 431.981 300.563 403.486 300.563V302.563C432.495 302.563 457.288 292.554 477.808 272.549L476.412 271.117ZM403.486 300.563C378.306 300.563 355.696 291.855 335.622 274.396L334.309 275.905C354.726 293.662 377.796 302.563 403.486 302.563V300.563ZM335.624 274.397C313.569 255.121 302.535 229.884 302.535 198.591H300.535C300.535 230.417 311.787 256.219 334.307 275.903L335.624 274.397ZM330.52 198.974C330.52 221.001 337.932 239.175 352.775 253.414L354.16 251.971C339.741 238.139 332.52 220.501 332.52 198.974H330.52ZM352.773 253.412C367.493 267.616 384.538 274.747 403.869 274.747V272.747C385.09 272.747 368.534 265.841 354.162 251.973L352.773 253.412ZM403.869 274.747C424.798 274.747 442.494 267.5 456.893 253.015L455.475 251.605C441.462 265.702 424.281 272.747 403.869 272.747V274.747ZM456.897 253.011C471.292 238.358 478.493 220.495 478.493 199.484H476.493C476.493 219.985 469.488 237.34 455.471 251.609L456.897 253.011ZM478.493 199.484C478.493 178.225 471.382 160.359 457.151 145.956L455.728 147.361C469.568 161.37 476.493 178.721 476.493 199.484H478.493ZM457.155 145.96C443.009 131.47 425.48 124.222 404.634 124.222V126.222C424.96 126.222 441.967 133.265 455.724 147.357L457.155 145.96ZM404.634 124.222C383.872 124.222 366.303 131.47 351.99 145.956L353.413 147.361C367.342 133.265 384.395 126.222 404.634 126.222V124.222ZM351.995 145.951C337.678 160.268 330.52 177.964 330.52 198.974H332.52C332.52 178.471 339.484 161.291 353.409 147.366L351.995 145.951ZM579.822 178.048H578.822V179.048H579.822V178.048ZM664.802 178.048V179.048H665.802V178.048H664.802ZM664.802 100.978V99.9784H663.802V100.978H664.802ZM694.533 100.978H695.533V99.9784H694.533V100.978ZM694.533 297.99V298.99H695.533V297.99H694.533ZM664.802 297.99H663.802V298.99H664.802V297.99ZM664.802 205.992H665.802V204.992H664.802V205.992ZM579.822 205.992V204.992H578.822V205.992H579.822ZM579.822 297.99V298.99H580.822V297.99H579.822ZM550.091 297.99H549.091V298.99H550.091V297.99ZM550.091 100.978V99.9784H549.091V100.978H550.091ZM579.822 100.978H580.822V99.9784H579.822V100.978ZM579.822 179.048H664.802V177.048H579.822V179.048ZM665.802 178.048V100.978H663.802V178.048H665.802ZM664.802 101.978H694.533V99.9784H664.802V101.978ZM693.533 100.978V297.99H695.533V100.978H693.533ZM694.533 296.99H664.802V298.99H694.533V296.99ZM665.802 297.99V205.992H663.802V297.99H665.802ZM664.802 204.992H579.822V206.992H664.802V204.992ZM578.822 205.992V297.99H580.822V205.992H578.822ZM579.822 296.99H550.091V298.99H579.822V296.99ZM551.091 297.99V100.978H549.091V297.99H551.091ZM550.091 101.978H579.822V99.9784H550.091V101.978ZM578.822 100.978V178.048H580.822V100.978H578.822Z" fill="#DCEEFC"/>
<line x1="4.37065e-08" y1="298.5" x2="813" y2="298.5" stroke="#DCEEFC"/>
<line x1="4.37065e-08" y1="100.5" x2="813" y2="100.5" stroke="#DCEEFC"/>
</g>
<defs>
<clipPath id="clip0_449_146">
<rect width="813.091" height="400" fill="white"/>
</clipPath>
</defs>
</svg>
