<svg width="756" height="550" viewBox="0 0 756 550" fill="none" xmlns="http://www.w3.org/2000/svg">
<g clip-path="url(#clip0_419_488)">
<path d="M316.686 465.8V436.56H462.206V289.68H460.846C459.939 292.853 457.219 298.293 452.686 306C448.606 313.707 442.486 322.093 434.326 331.16C426.166 340.227 415.512 347.933 402.366 354.28C389.672 360.627 374.259 363.8 356.126 363.8C329.832 363.8 307.392 357.453 288.806 344.76C270.672 332.067 256.846 315.067 247.326 293.76C237.806 272.453 233.046 248.653 233.046 222.36C233.046 195.613 237.806 171.587 247.326 150.28C257.299 128.973 271.352 112.2 289.486 99.96C308.072 87.2667 330.512 80.92 356.806 80.92C375.392 80.92 391.032 84.32 403.726 91.12C416.872 97.4667 427.299 105.173 435.006 114.24C443.166 122.853 449.059 131.24 452.686 139.4C456.766 147.107 459.259 152.547 460.166 155.72H461.526L462.206 80.92H494.166V416.16C494.166 430.667 491.446 442.453 486.006 451.52C481.019 461.04 470.366 465.8 454.046 465.8H316.686ZM360.206 334.56C387.859 334.56 411.432 324.813 430.926 305.32C450.872 285.827 460.846 258.173 460.846 222.36C460.846 187.453 451.552 160.253 432.966 140.76C414.379 120.813 391.486 110.84 364.286 110.84C341.619 110.84 322.806 116.28 307.846 127.16C292.886 137.587 281.779 151.413 274.526 168.64C267.272 185.413 263.646 203.32 263.646 222.36C263.646 241.4 266.819 259.533 273.166 276.76C279.966 293.987 290.392 308.04 304.446 318.92C318.952 329.347 337.539 334.56 360.206 334.56Z" fill="#FFF0DD"/>
<path d="M524.4 226V214.38H527.96V212.22C527.96 212.08 527.88 212 527.74 212H518.04V214.16C518.04 214.3 518.12 214.38 518.26 214.38H521.6V225.78C521.6 225.92 521.68 226 521.82 226H524.4ZM531.152 226H533.572V218.92C534.432 218.02 535.512 217.56 536.352 217.56C537.072 217.56 537.392 217.92 537.392 218.66V225.78C537.392 225.92 537.472 226 537.612 226H540.032V218.12C540.032 216.22 538.932 215.02 537.192 215.02C535.852 215.02 534.732 215.82 533.952 216.98H533.572V211.22C533.572 211.08 533.492 211 533.352 211H530.932V225.78C530.932 225.92 531.012 226 531.152 226ZM546.104 210.14V212.66C546.104 212.8 546.184 212.88 546.324 212.88H549.504V210.36C549.504 210.22 549.424 210.14 549.284 210.14H546.104ZM543.064 223.7V225.78C543.064 225.92 543.144 226 543.284 226H552.544V223.92C552.544 223.78 552.464 223.7 552.324 223.7H549.364V215.48C549.364 215.34 549.284 215.26 549.144 215.26H543.424V217.32C543.424 217.46 543.504 217.54 543.644 217.54H546.724V223.7H543.064ZM560.057 223.72C558.377 223.72 557.297 223.46 556.057 222.9H555.677V225.2C555.677 225.26 555.677 225.3 555.717 225.34C556.037 225.64 557.737 226.18 560.017 226.18C563.097 226.18 564.777 225 564.777 222.76C564.777 221.14 563.837 220.2 561.697 219.88L559.757 219.6C558.817 219.44 558.537 219.18 558.537 218.68C558.537 217.96 559.077 217.54 560.657 217.54C561.857 217.54 562.597 217.68 563.717 218.04H564.097V215.9C564.097 215.8 564.077 215.74 564.037 215.7C563.797 215.48 562.637 215.08 560.657 215.08C557.737 215.08 555.917 216.4 555.917 218.56C555.917 220.04 556.857 220.96 558.817 221.28L560.857 221.58C561.937 221.78 562.197 222.06 562.197 222.58C562.197 223.28 561.697 223.72 560.057 223.72ZM580.241 223.7V225.78C580.241 225.92 580.321 226 580.461 226H589.721V223.92C589.721 223.78 589.641 223.7 589.501 223.7H586.541V211.22C586.541 211.08 586.461 211 586.321 211H580.601V213.08C580.601 213.22 580.681 213.3 580.821 213.3H583.901V223.7H580.241ZM597.393 215.02C594.593 215.02 592.733 216.78 592.733 219.5V221.76C592.733 224.56 594.493 226.24 597.953 226.24C599.553 226.24 601.233 225.84 601.553 225.52C601.613 225.46 601.633 225.42 601.633 225.36V223.36H601.253C600.313 223.7 599.433 223.94 597.973 223.94C597.033 223.94 596.313 223.76 595.853 223.32C595.533 222.98 595.353 222.48 595.353 221.8V221.32H601.673C601.813 221.32 601.893 221.24 601.893 221.12V219.48C601.893 216.78 600.073 215.02 597.393 215.02ZM597.393 217.24C598.033 217.24 598.513 217.38 598.813 217.68C599.173 218.04 599.333 218.58 599.333 219.38V219.68H595.353V219.4C595.353 217.86 596.033 217.24 597.393 217.24ZM613.745 223.66H611.925C611.245 223.66 610.765 223.56 610.485 223.26C610.165 222.96 610.045 222.46 610.045 221.66V217.54H613.745V215.48C613.745 215.34 613.665 215.26 613.525 215.26H610.045V212.22C610.045 212.08 609.965 212 609.825 212H607.405V215.26H605.025V217.32C605.025 217.46 605.105 217.54 605.245 217.54H607.405V221.72C607.405 224.8 609.085 226 611.805 226H613.525C613.645 226 613.745 225.9 613.745 225.78V223.66ZM626.137 223.66H624.317C623.637 223.66 623.157 223.56 622.877 223.26C622.557 222.96 622.437 222.46 622.437 221.66V217.54H626.137V215.48C626.137 215.34 626.057 215.26 625.917 215.26H622.437V212.22C622.437 212.08 622.357 212 622.217 212H619.797V215.26H617.417V217.32C617.417 217.46 617.497 217.54 617.637 217.54H619.797V221.72C619.797 224.8 621.477 226 624.197 226H625.917C626.037 226 626.137 225.9 626.137 225.78V223.66ZM634.57 215.02C631.77 215.02 629.91 216.78 629.91 219.5V221.76C629.91 224.56 631.67 226.24 635.13 226.24C636.73 226.24 638.41 225.84 638.73 225.52C638.79 225.46 638.81 225.42 638.81 225.36V223.36H638.43C637.49 223.7 636.61 223.94 635.15 223.94C634.21 223.94 633.49 223.76 633.03 223.32C632.71 222.98 632.53 222.48 632.53 221.8V221.32H638.85C638.99 221.32 639.07 221.24 639.07 221.12V219.48C639.07 216.78 637.25 215.02 634.57 215.02ZM634.57 217.24C635.21 217.24 635.69 217.38 635.99 217.68C636.35 218.04 636.51 218.58 636.51 219.38V219.68H632.53V219.4C632.53 217.86 633.21 217.24 634.57 217.24ZM642.202 223.7V225.78C642.202 225.92 642.282 226 642.422 226H650.642V223.92C650.642 223.78 650.562 223.7 650.422 223.7H647.282V218.92C648.102 218.16 649.102 217.82 650.102 217.82C650.682 217.82 651.102 217.88 651.682 218.04H652.042V215.54C652.042 215.44 652.022 215.38 651.982 215.32C651.822 215.18 651.442 215.06 650.802 215.06C649.222 215.06 648.122 215.96 647.422 217.3H647.142C646.902 216.56 646.502 215.26 646.502 215.26H642.322V217.32C642.322 217.46 642.402 217.54 642.542 217.54H644.642V223.7H642.202ZM669.666 215.26H667.246V223.22C667.246 225.06 668.406 226.24 670.066 226.24C671.546 226.24 672.426 225.5 673.186 224.26H673.546V225.78C673.546 225.92 673.626 226 673.766 226H676.166V215.48C676.166 215.34 676.086 215.26 675.946 215.26H673.546V222.32C672.746 223.18 671.866 223.56 670.806 223.56C670.246 223.56 669.886 223.2 669.886 222.58V215.48C669.886 215.34 669.806 215.26 669.666 215.26ZM683.978 223.72C682.298 223.72 681.218 223.46 679.978 222.9H679.598V225.2C679.598 225.26 679.598 225.3 679.638 225.34C679.958 225.64 681.658 226.18 683.938 226.18C687.018 226.18 688.698 225 688.698 222.76C688.698 221.14 687.758 220.2 685.618 219.88L683.678 219.6C682.738 219.44 682.458 219.18 682.458 218.68C682.458 217.96 682.998 217.54 684.578 217.54C685.778 217.54 686.518 217.68 687.638 218.04H688.018V215.9C688.018 215.8 687.998 215.74 687.958 215.7C687.718 215.48 686.558 215.08 684.578 215.08C681.658 215.08 679.838 216.4 679.838 218.56C679.838 220.04 680.778 220.96 682.738 221.28L684.778 221.58C685.858 221.78 686.118 222.06 686.118 222.58C686.118 223.28 685.618 223.72 683.978 223.72ZM696.531 215.02C693.731 215.02 691.871 216.78 691.871 219.5V221.76C691.871 224.56 693.631 226.24 697.091 226.24C698.691 226.24 700.371 225.84 700.691 225.52C700.751 225.46 700.771 225.42 700.771 225.36V223.36H700.391C699.451 223.7 698.571 223.94 697.111 223.94C696.171 223.94 695.451 223.76 694.991 223.32C694.671 222.98 694.491 222.48 694.491 221.8V221.32H700.811C700.951 221.32 701.031 221.24 701.031 221.12V219.48C701.031 216.78 699.211 215.02 696.531 215.02ZM696.531 217.24C697.171 217.24 697.651 217.38 697.951 217.68C698.311 218.04 698.471 218.58 698.471 219.38V219.68H694.491V219.4C694.491 217.86 695.171 217.24 696.531 217.24ZM708.763 223.72C707.083 223.72 706.003 223.46 704.763 222.9H704.383V225.2C704.383 225.26 704.383 225.3 704.423 225.34C704.743 225.64 706.443 226.18 708.723 226.18C711.803 226.18 713.483 225 713.483 222.76C713.483 221.14 712.543 220.2 710.403 219.88L708.463 219.6C707.523 219.44 707.243 219.18 707.243 218.68C707.243 217.96 707.783 217.54 709.363 217.54C710.563 217.54 711.303 217.68 712.423 218.04H712.803V215.9C712.803 215.8 712.783 215.74 712.743 215.7C712.503 215.48 711.343 215.08 709.363 215.08C706.443 215.08 704.623 216.4 704.623 218.56C704.623 220.04 705.563 220.96 707.523 221.28L709.563 221.58C710.643 221.78 710.903 222.06 710.903 222.58C710.903 223.28 710.403 223.72 708.763 223.72ZM522.88 253.72C521.2 253.72 520.12 253.46 518.88 252.9H518.5V255.2C518.5 255.26 518.5 255.3 518.54 255.34C518.86 255.64 520.56 256.18 522.84 256.18C525.92 256.18 527.6 255 527.6 252.76C527.6 251.14 526.66 250.2 524.52 249.88L522.58 249.6C521.64 249.44 521.36 249.18 521.36 248.68C521.36 247.96 521.9 247.54 523.48 247.54C524.68 247.54 525.42 247.68 526.54 248.04H526.92V245.9C526.92 245.8 526.9 245.74 526.86 245.7C526.62 245.48 525.46 245.08 523.48 245.08C520.56 245.08 518.74 246.4 518.74 248.56C518.74 250.04 519.68 250.96 521.64 251.28L523.68 251.58C524.76 251.78 525.02 252.06 525.02 252.58C525.02 253.28 524.52 253.72 522.88 253.72ZM539.392 253.66H537.572C536.892 253.66 536.412 253.56 536.132 253.26C535.812 252.96 535.692 252.46 535.692 251.66V247.54H539.392V245.48C539.392 245.34 539.312 245.26 539.172 245.26H535.692V242.22C535.692 242.08 535.612 242 535.472 242H533.052V245.26H530.672V247.32C530.672 247.46 530.752 247.54 530.892 247.54H533.052V251.72C533.052 254.8 534.732 256 537.452 256H539.172C539.292 256 539.392 255.9 539.392 255.78V253.66ZM543.064 253.7V255.78C543.064 255.92 543.144 256 543.284 256H551.504V253.92C551.504 253.78 551.424 253.7 551.284 253.7H548.144V248.92C548.964 248.16 549.964 247.82 550.964 247.82C551.544 247.82 551.964 247.88 552.544 248.04H552.904V245.54C552.904 245.44 552.884 245.38 552.844 245.32C552.684 245.18 552.304 245.06 551.664 245.06C550.084 245.06 548.984 245.96 548.284 247.3H548.004C547.764 246.56 547.364 245.26 547.364 245.26H543.184V247.32C543.184 247.46 543.264 247.54 543.404 247.54H545.504V253.7H543.064ZM558.497 240.14V242.66C558.497 242.8 558.577 242.88 558.717 242.88H561.897V240.36C561.897 240.22 561.817 240.14 561.677 240.14H558.497ZM555.457 253.7V255.78C555.457 255.92 555.537 256 555.677 256H564.937V253.92C564.937 253.78 564.857 253.7 564.717 253.7H561.757V245.48C561.757 245.34 561.677 245.26 561.537 245.26H555.817V247.32C555.817 247.46 555.897 247.54 556.037 247.54H559.117V253.7H555.457ZM572.409 245.04C569.469 245.04 567.849 246.36 567.849 248.54V248.98C567.849 250.62 568.749 251.76 570.429 252.24V252.54C569.389 252.9 568.869 253.58 568.869 254.48C568.869 255 569.089 255.44 569.409 255.78V256.08C568.149 256.28 567.369 257.12 567.369 258.3V258.58C567.369 260.12 568.409 261 570.489 261H574.589C576.909 261 578.009 259.7 578.009 257.88V257.22C578.009 255.38 576.909 254.1 574.589 254.1H571.969C571.649 254.1 571.509 253.98 571.509 253.64C571.509 253.32 571.549 252.98 571.609 252.46C571.869 252.48 572.129 252.5 572.409 252.5C575.349 252.5 576.969 251.16 576.969 248.98V248.54C576.969 247.56 576.649 246.76 576.029 246.16V245.92L576.989 245.76C578.149 245.56 578.229 245.56 578.229 245.16V243.72C578.229 243.58 578.149 243.5 578.009 243.5H575.189V244.44C575.189 244.64 575.169 244.72 575.069 244.86L574.669 245.36C574.029 245.14 573.289 245.04 572.409 245.04ZM572.409 247.06C573.169 247.06 573.709 247.24 574.049 247.54C574.289 247.8 574.409 248.14 574.409 248.54V248.98C574.409 249.96 573.709 250.46 572.409 250.46C571.669 250.46 571.089 250.3 570.769 249.96C570.529 249.72 570.409 249.4 570.409 248.98V248.54C570.409 247.56 571.129 247.06 572.409 247.06ZM571.089 259.02C570.269 259.02 569.969 258.72 569.969 258V257.48C569.969 256.96 570.129 256.56 570.609 256.32H574.289C575.109 256.32 575.409 256.64 575.409 257.4V257.86C575.409 258.24 575.329 258.56 575.149 258.76C574.969 258.94 574.689 259.02 574.289 259.02H571.089ZM580.721 256H583.141V248.92C584.001 248.02 585.081 247.56 585.921 247.56C586.641 247.56 586.961 247.92 586.961 248.66V255.78C586.961 255.92 587.041 256 587.181 256H589.601V248.12C589.601 246.22 588.501 245.02 586.761 245.02C585.421 245.02 584.301 245.82 583.521 246.98H583.141V241.22C583.141 241.08 583.061 241 582.921 241H580.501V255.78C580.501 255.92 580.581 256 580.721 256ZM601.353 253.66H599.533C598.853 253.66 598.373 253.56 598.093 253.26C597.773 252.96 597.653 252.46 597.653 251.66V247.54H601.353V245.48C601.353 245.34 601.273 245.26 601.133 245.26H597.653V242.22C597.653 242.08 597.573 242 597.433 242H595.013V245.26H592.633V247.32C592.633 247.46 592.713 247.54 592.853 247.54H595.013V251.72C595.013 254.8 596.693 256 599.413 256H601.133C601.253 256 601.353 255.9 601.353 255.78V253.66ZM626.317 249.18C626.317 246.22 624.897 245.06 621.577 245.06C620.077 245.06 618.337 245.48 618.097 245.7C618.057 245.74 618.037 245.8 618.037 245.9V247.96H618.417C619.457 247.62 620.417 247.48 621.577 247.48C623.117 247.48 623.677 247.84 623.677 249.02V249.76H620.397C618.477 249.76 617.257 250.9 617.257 252.62V253.34C617.257 255.04 618.417 256.2 620.237 256.2C621.737 256.2 622.897 255.52 623.457 254.28H623.777C624.057 255.36 624.937 256 626.117 256H627.257C627.397 256 627.477 255.92 627.477 255.78V253.7H626.897C626.697 253.7 626.557 253.66 626.457 253.56C626.357 253.46 626.317 253.3 626.317 253.08V249.18ZM619.897 252.98V252.28C619.897 252.04 619.977 251.82 620.137 251.66C620.297 251.5 620.557 251.4 620.877 251.4H623.677V252.86C622.757 253.58 621.857 253.86 620.877 253.86C620.217 253.86 619.897 253.56 619.897 252.98ZM632.71 256V248.92C633.57 248.02 634.65 247.56 635.49 247.56C636.21 247.56 636.53 247.92 636.53 248.66V255.78C636.53 255.92 636.61 256 636.75 256H639.17V248.12C639.17 246.22 638.07 245.02 636.33 245.02C634.99 245.02 633.87 245.82 633.09 246.98H632.71V245.48C632.71 245.34 632.63 245.26 632.49 245.26H630.07V255.78C630.07 255.92 630.15 256 630.29 256H632.71ZM645.442 245.02C643.402 245.02 642.102 246.46 642.102 248.94V252.32C642.102 254.76 643.402 256.2 645.422 256.2C646.682 256.2 647.722 255.56 648.362 254.44H648.742V255.78C648.742 255.92 648.822 256 648.962 256H651.382V241.22C651.382 241.08 651.302 241 651.162 241H648.742V246.74H648.362C647.762 245.68 646.802 245.02 645.442 245.02ZM645.162 253.26C644.882 252.98 644.722 252.52 644.722 251.88V249.38C644.722 248.2 645.302 247.56 646.282 247.56C647.122 247.56 648.002 247.96 648.742 248.74V252.44C647.962 253.32 647.122 253.66 646.282 253.66C645.802 253.66 645.422 253.52 645.162 253.26ZM672.366 245.02C669.086 245.02 667.126 246.9 667.126 249.74V251.54C667.126 254.32 669.066 256.24 672.286 256.24C674.186 256.24 675.626 255.74 675.966 255.4C676.006 255.36 676.026 255.3 676.026 255.24V253.06H675.646C674.626 253.52 673.686 253.78 672.526 253.78C671.526 253.78 670.866 253.54 670.446 253.12C670.046 252.72 669.846 252.14 669.846 251.38V249.92C669.846 248.18 670.766 247.48 672.546 247.48C673.706 247.48 674.626 247.74 675.646 248.18H676.026V246.02C676.026 245.96 676.006 245.9 675.946 245.84C675.646 245.54 674.246 245.02 672.366 245.02ZM682.058 245.26H679.638V253.22C679.638 255.06 680.798 256.24 682.458 256.24C683.938 256.24 684.818 255.5 685.578 254.26H685.938V255.78C685.938 255.92 686.018 256 686.158 256H688.558V245.48C688.558 245.34 688.478 245.26 688.338 245.26H685.938V252.32C685.138 253.18 684.258 253.56 683.198 253.56C682.638 253.56 682.278 253.2 682.278 252.58V245.48C682.278 245.34 682.198 245.26 682.058 245.26ZM691.771 253.7V255.78C691.771 255.92 691.851 256 691.991 256H700.211V253.92C700.211 253.78 700.131 253.7 699.991 253.7H696.851V248.92C697.671 248.16 698.671 247.82 699.671 247.82C700.251 247.82 700.671 247.88 701.251 248.04H701.611V245.54C701.611 245.44 701.591 245.38 701.551 245.32C701.391 245.18 701.011 245.06 700.371 245.06C698.791 245.06 697.691 245.96 696.991 247.3H696.711C696.471 246.56 696.071 245.26 696.071 245.26H691.891V247.32C691.891 247.46 691.971 247.54 692.111 247.54H694.211V253.7H691.771ZM706.243 245.26H703.683C704.743 248.74 705.823 252.22 706.883 255.72C706.943 255.9 707.083 256 707.283 256H710.783C711.843 252.52 712.923 249.08 713.983 245.6C714.043 245.42 713.943 245.26 713.743 245.26H711.303C710.603 247.92 709.863 250.5 709.103 254.1H708.723C707.963 250.48 707.263 248.04 706.563 245.56C706.503 245.36 706.403 245.26 706.243 245.26ZM721.315 245.02C718.515 245.02 716.655 246.78 716.655 249.5V251.76C716.655 254.56 718.415 256.24 721.875 256.24C723.475 256.24 725.155 255.84 725.475 255.52C725.535 255.46 725.555 255.42 725.555 255.36V253.36H725.175C724.235 253.7 723.355 253.94 721.895 253.94C720.955 253.94 720.235 253.76 719.775 253.32C719.455 252.98 719.275 252.48 719.275 251.8V251.32H725.595C725.735 251.32 725.815 251.24 725.815 251.12V249.48C725.815 246.78 723.995 245.02 721.315 245.02ZM721.315 247.24C721.955 247.24 722.435 247.38 722.735 247.68C723.095 248.04 723.255 248.58 723.255 249.38V249.68H719.275V249.4C719.275 247.86 719.955 247.24 721.315 247.24ZM518.28 283.7V285.78C518.28 285.92 518.36 286 518.5 286H527.76V283.92C527.76 283.78 527.68 283.7 527.54 283.7H524.58V271.22C524.58 271.08 524.5 271 524.36 271H518.64V273.08C518.64 273.22 518.72 273.3 518.86 273.3H521.94V283.7H518.28ZM533.712 270.14V272.66C533.712 272.8 533.792 272.88 533.932 272.88H537.112V270.36C537.112 270.22 537.032 270.14 536.892 270.14H533.712ZM530.672 283.7V285.78C530.672 285.92 530.752 286 530.892 286H540.152V283.92C540.152 283.78 540.072 283.7 539.932 283.7H536.972V275.48C536.972 275.34 536.892 275.26 536.752 275.26H531.032V277.32C531.032 277.46 531.112 277.54 531.252 277.54H534.332V283.7H530.672ZM545.964 286V278.92C546.824 278.02 547.904 277.56 548.744 277.56C549.464 277.56 549.784 277.92 549.784 278.66V285.78C549.784 285.92 549.864 286 550.004 286H552.424V278.12C552.424 276.22 551.324 275.02 549.584 275.02C548.244 275.02 547.124 275.82 546.344 276.98H545.964V275.48C545.964 275.34 545.884 275.26 545.744 275.26H543.324V285.78C543.324 285.92 543.404 286 543.544 286H545.964ZM560.217 275.02C557.417 275.02 555.557 276.78 555.557 279.5V281.76C555.557 284.56 557.317 286.24 560.777 286.24C562.377 286.24 564.057 285.84 564.377 285.52C564.437 285.46 564.457 285.42 564.457 285.36V283.36H564.077C563.137 283.7 562.257 283.94 560.797 283.94C559.857 283.94 559.137 283.76 558.677 283.32C558.357 282.98 558.177 282.48 558.177 281.8V281.32H564.497C564.637 281.32 564.717 281.24 564.717 281.12V279.48C564.717 276.78 562.897 275.02 560.217 275.02ZM560.217 277.24C560.857 277.24 561.337 277.38 561.637 277.68C561.997 278.04 562.157 278.58 562.157 279.38V279.68H558.177V279.4C558.177 277.86 558.857 277.24 560.217 277.24ZM572.449 283.72C570.769 283.72 569.689 283.46 568.449 282.9H568.069V285.2C568.069 285.26 568.069 285.3 568.109 285.34C568.429 285.64 570.129 286.18 572.409 286.18C575.489 286.18 577.169 285 577.169 282.76C577.169 281.14 576.229 280.2 574.089 279.88L572.149 279.6C571.209 279.44 570.929 279.18 570.929 278.68C570.929 277.96 571.469 277.54 573.049 277.54C574.249 277.54 574.989 277.68 576.109 278.04H576.489V275.9C576.489 275.8 576.469 275.74 576.429 275.7C576.189 275.48 575.029 275.08 573.049 275.08C570.129 275.08 568.309 276.4 568.309 278.56C568.309 280.04 569.249 280.96 571.209 281.28L573.249 281.58C574.329 281.78 574.589 282.06 574.589 282.58C574.589 283.28 574.089 283.72 572.449 283.72ZM601.353 283.66H599.533C598.853 283.66 598.373 283.56 598.093 283.26C597.773 282.96 597.653 282.46 597.653 281.66V277.54H601.353V275.48C601.353 275.34 601.273 275.26 601.133 275.26H597.653V272.22C597.653 272.08 597.573 272 597.433 272H595.013V275.26H592.633V277.32C592.633 277.46 592.713 277.54 592.853 277.54H595.013V281.72C595.013 284.8 596.693 286 599.413 286H601.133C601.253 286 601.353 285.9 601.353 285.78V283.66ZM609.745 275.02C606.905 275.02 604.925 276.9 604.925 279.62V281.66C604.925 284.36 606.865 286.24 609.745 286.24C612.585 286.24 614.565 284.36 614.565 281.64V279.58C614.565 276.9 612.605 275.02 609.745 275.02ZM609.785 277.4C610.465 277.4 611.005 277.58 611.365 277.94C611.745 278.32 611.925 278.9 611.925 279.72V281.52C611.925 282.94 611.145 283.84 609.705 283.84C609.065 283.84 608.525 283.64 608.165 283.28C607.765 282.88 607.565 282.28 607.565 281.52V279.74C607.565 278.3 608.345 277.4 609.785 277.4ZM635.19 275.02C631.91 275.02 629.95 276.9 629.95 279.74V281.54C629.95 284.32 631.89 286.24 635.11 286.24C637.01 286.24 638.45 285.74 638.79 285.4C638.83 285.36 638.85 285.3 638.85 285.24V283.06H638.47C637.45 283.52 636.51 283.78 635.35 283.78C634.35 283.78 633.69 283.54 633.27 283.12C632.87 282.72 632.67 282.14 632.67 281.38V279.92C632.67 278.18 633.59 277.48 635.37 277.48C636.53 277.48 637.45 277.74 638.47 278.18H638.85V276.02C638.85 275.96 638.83 275.9 638.77 275.84C638.47 275.54 637.07 275.02 635.19 275.02ZM642.202 283.7V285.78C642.202 285.92 642.282 286 642.422 286H650.642V283.92C650.642 283.78 650.562 283.7 650.422 283.7H647.282V278.92C648.102 278.16 649.102 277.82 650.102 277.82C650.682 277.82 651.102 277.88 651.682 278.04H652.042V275.54C652.042 275.44 652.022 275.38 651.982 275.32C651.822 275.18 651.442 275.06 650.802 275.06C649.222 275.06 648.122 275.96 647.422 277.3H647.142C646.902 276.56 646.502 275.26 646.502 275.26H642.322V277.32C642.322 277.46 642.402 277.54 642.542 277.54H644.642V283.7H642.202ZM659.354 275.02C656.554 275.02 654.694 276.78 654.694 279.5V281.76C654.694 284.56 656.454 286.24 659.914 286.24C661.514 286.24 663.194 285.84 663.514 285.52C663.574 285.46 663.594 285.42 663.594 285.36V283.36H663.214C662.274 283.7 661.394 283.94 659.934 283.94C658.994 283.94 658.274 283.76 657.814 283.32C657.494 282.98 657.314 282.48 657.314 281.8V281.32H663.634C663.774 281.32 663.854 281.24 663.854 281.12V279.48C663.854 276.78 662.034 275.02 659.354 275.02ZM659.354 277.24C659.994 277.24 660.474 277.38 660.774 277.68C661.134 278.04 661.294 278.58 661.294 279.38V279.68H657.314V279.4C657.314 277.86 657.994 277.24 659.354 277.24ZM675.886 279.18C675.886 276.22 674.466 275.06 671.146 275.06C669.646 275.06 667.906 275.48 667.666 275.7C667.626 275.74 667.606 275.8 667.606 275.9V277.96H667.986C669.026 277.62 669.986 277.48 671.146 277.48C672.686 277.48 673.246 277.84 673.246 279.02V279.76H669.966C668.046 279.76 666.826 280.9 666.826 282.62V283.34C666.826 285.04 667.986 286.2 669.806 286.2C671.306 286.2 672.466 285.52 673.026 284.28H673.346C673.626 285.36 674.506 286 675.686 286H676.826C676.966 286 677.046 285.92 677.046 285.78V283.7H676.466C676.266 283.7 676.126 283.66 676.026 283.56C675.926 283.46 675.886 283.3 675.886 283.08V279.18ZM669.466 282.98V282.28C669.466 282.04 669.546 281.82 669.706 281.66C669.866 281.5 670.126 281.4 670.446 281.4H673.246V282.86C672.326 283.58 671.426 283.86 670.446 283.86C669.786 283.86 669.466 283.56 669.466 282.98ZM688.098 283.66H686.278C685.598 283.66 685.118 283.56 684.838 283.26C684.518 282.96 684.398 282.46 684.398 281.66V277.54H688.098V275.48C688.098 275.34 688.018 275.26 687.878 275.26H684.398V272.22C684.398 272.08 684.318 272 684.178 272H681.758V275.26H679.378V277.32C679.378 277.46 679.458 277.54 679.598 277.54H681.758V281.72C681.758 284.8 683.438 286 686.158 286H687.878C687.998 286 688.098 285.9 688.098 285.78V283.66ZM696.531 275.02C693.731 275.02 691.871 276.78 691.871 279.5V281.76C691.871 284.56 693.631 286.24 697.091 286.24C698.691 286.24 700.371 285.84 700.691 285.52C700.751 285.46 700.771 285.42 700.771 285.36V283.36H700.391C699.451 283.7 698.571 283.94 697.111 283.94C696.171 283.94 695.451 283.76 694.991 283.32C694.671 282.98 694.491 282.48 694.491 281.8V281.32H700.811C700.951 281.32 701.031 281.24 701.031 281.12V279.48C701.031 276.78 699.211 275.02 696.531 275.02ZM696.531 277.24C697.171 277.24 697.651 277.38 697.951 277.68C698.311 278.04 698.471 278.58 698.471 279.38V279.68H694.491V279.4C694.491 277.86 695.171 277.24 696.531 277.24ZM527.18 309.18C527.18 306.22 525.76 305.06 522.44 305.06C520.94 305.06 519.2 305.48 518.96 305.7C518.92 305.74 518.9 305.8 518.9 305.9V307.96H519.28C520.32 307.62 521.28 307.48 522.44 307.48C523.98 307.48 524.54 307.84 524.54 309.02V309.76H521.26C519.34 309.76 518.12 310.9 518.12 312.62V313.34C518.12 315.04 519.28 316.2 521.1 316.2C522.6 316.2 523.76 315.52 524.32 314.28H524.64C524.92 315.36 525.8 316 526.98 316H528.12C528.26 316 528.34 315.92 528.34 315.78V313.7H527.76C527.56 313.7 527.42 313.66 527.32 313.56C527.22 313.46 527.18 313.3 527.18 313.08V309.18ZM520.76 312.98V312.28C520.76 312.04 520.84 311.82 521 311.66C521.16 311.5 521.42 311.4 521.74 311.4H524.54V312.86C523.62 313.58 522.72 313.86 521.74 313.86C521.08 313.86 520.76 313.56 520.76 312.98ZM548.444 305.02C545.164 305.02 543.204 306.9 543.204 309.74V311.54C543.204 314.32 545.144 316.24 548.364 316.24C550.264 316.24 551.704 315.74 552.044 315.4C552.084 315.36 552.104 315.3 552.104 315.24V313.06H551.724C550.704 313.52 549.764 313.78 548.604 313.78C547.604 313.78 546.944 313.54 546.524 313.12C546.124 312.72 545.924 312.14 545.924 311.38V309.92C545.924 308.18 546.844 307.48 548.624 307.48C549.784 307.48 550.704 307.74 551.724 308.18H552.104V306.02C552.104 305.96 552.084 305.9 552.024 305.84C551.724 305.54 550.324 305.02 548.444 305.02ZM558.137 305.26H555.717V313.22C555.717 315.06 556.877 316.24 558.537 316.24C560.017 316.24 560.897 315.5 561.657 314.26H562.017V315.78C562.017 315.92 562.097 316 562.237 316H564.637V305.48C564.637 305.34 564.557 305.26 564.417 305.26H562.017V312.32C561.217 313.18 560.337 313.56 559.277 313.56C558.717 313.56 558.357 313.2 558.357 312.58V305.48C558.357 305.34 558.277 305.26 558.137 305.26ZM567.849 313.7V315.78C567.849 315.92 567.929 316 568.069 316H576.289V313.92C576.289 313.78 576.209 313.7 576.069 313.7H572.929V308.92C573.749 308.16 574.749 307.82 575.749 307.82C576.329 307.82 576.749 307.88 577.329 308.04H577.689V305.54C577.689 305.44 577.669 305.38 577.629 305.32C577.469 305.18 577.089 305.06 576.449 305.06C574.869 305.06 573.769 305.96 573.069 307.3H572.789C572.549 306.56 572.149 305.26 572.149 305.26H567.969V307.32C567.969 307.46 568.049 307.54 568.189 307.54H570.289V313.7H567.849ZM582.321 305.26H579.761C580.821 308.74 581.901 312.22 582.961 315.72C583.021 315.9 583.161 316 583.361 316H586.861C587.921 312.52 589.001 309.08 590.061 305.6C590.121 305.42 590.021 305.26 589.821 305.26H587.381C586.681 307.92 585.941 310.5 585.181 314.1H584.801C584.041 310.48 583.341 308.04 582.641 305.56C582.581 305.36 582.481 305.26 582.321 305.26ZM597.393 305.02C594.593 305.02 592.733 306.78 592.733 309.5V311.76C592.733 314.56 594.493 316.24 597.953 316.24C599.553 316.24 601.233 315.84 601.553 315.52C601.613 315.46 601.633 315.42 601.633 315.36V313.36H601.253C600.313 313.7 599.433 313.94 597.973 313.94C597.033 313.94 596.313 313.76 595.853 313.32C595.533 312.98 595.353 312.48 595.353 311.8V311.32H601.673C601.813 311.32 601.893 311.24 601.893 311.12V309.48C601.893 306.78 600.073 305.02 597.393 305.02ZM597.393 307.24C598.033 307.24 598.513 307.38 598.813 307.68C599.173 308.04 599.333 308.58 599.333 309.38V309.68H595.353V309.4C595.353 307.86 596.033 307.24 597.393 307.24ZM622.017 313.72C620.337 313.72 619.257 313.46 618.017 312.9H617.637V315.2C617.637 315.26 617.637 315.3 617.677 315.34C617.997 315.64 619.697 316.18 621.977 316.18C625.057 316.18 626.737 315 626.737 312.76C626.737 311.14 625.797 310.2 623.657 309.88L621.717 309.6C620.777 309.44 620.497 309.18 620.497 308.68C620.497 307.96 621.037 307.54 622.617 307.54C623.817 307.54 624.557 307.68 625.677 308.04H626.057V305.9C626.057 305.8 626.037 305.74 625.997 305.7C625.757 305.48 624.597 305.08 622.617 305.08C619.697 305.08 617.877 306.4 617.877 308.56C617.877 310.04 618.817 310.96 620.777 311.28L622.817 311.58C623.897 311.78 624.157 312.06 624.157 312.58C624.157 313.28 623.657 313.72 622.017 313.72ZM638.53 313.66H636.71C636.03 313.66 635.55 313.56 635.27 313.26C634.95 312.96 634.83 312.46 634.83 311.66V307.54H638.53V305.48C638.53 305.34 638.45 305.26 638.31 305.26H634.83V302.22C634.83 302.08 634.75 302 634.61 302H632.19V305.26H629.81V307.32C629.81 307.46 629.89 307.54 630.03 307.54H632.19V311.72C632.19 314.8 633.87 316 636.59 316H638.31C638.43 316 638.53 315.9 638.53 315.78V313.66ZM642.202 313.7V315.78C642.202 315.92 642.282 316 642.422 316H650.642V313.92C650.642 313.78 650.562 313.7 650.422 313.7H647.282V308.92C648.102 308.16 649.102 307.82 650.102 307.82C650.682 307.82 651.102 307.88 651.682 308.04H652.042V305.54C652.042 305.44 652.022 305.38 651.982 305.32C651.822 305.18 651.442 305.06 650.802 305.06C649.222 305.06 648.122 305.96 647.422 307.3H647.142C646.902 306.56 646.502 305.26 646.502 305.26H642.322V307.32C642.322 307.46 642.402 307.54 642.542 307.54H644.642V313.7H642.202ZM659.314 305.02C656.474 305.02 654.494 306.9 654.494 309.62V311.66C654.494 314.36 656.434 316.24 659.314 316.24C662.154 316.24 664.134 314.36 664.134 311.64V309.58C664.134 306.9 662.174 305.02 659.314 305.02ZM659.354 307.4C660.034 307.4 660.574 307.58 660.934 307.94C661.314 308.32 661.494 308.9 661.494 309.72V311.52C661.494 312.94 660.714 313.84 659.274 313.84C658.634 313.84 658.094 313.64 657.734 313.28C657.334 312.88 657.134 312.28 657.134 311.52V309.74C657.134 308.3 657.914 307.4 659.354 307.4ZM669.886 316V312.8C670.286 312.38 670.666 311.94 671.066 311.5H671.466C671.646 312.42 671.866 312.96 672.426 313.74C673.006 314.52 673.766 315.6 673.926 315.82C674.026 315.96 674.106 316 674.306 316H677.306C675.686 313.94 674.186 311.96 672.586 309.88C673.806 308.54 675.086 307.18 676.426 305.72C676.586 305.54 676.606 305.5 676.606 305.42C676.606 305.32 676.526 305.24 676.386 305.24L673.506 305.26C672.726 306.16 672.166 306.78 671.646 307.38C671.006 308.12 670.626 308.76 670.246 309.88H669.886V301.22C669.886 301.08 669.806 301 669.666 301H667.246V315.78C667.246 315.92 667.326 316 667.466 316H669.886ZM684.138 305.02C681.338 305.02 679.478 306.78 679.478 309.5V311.76C679.478 314.56 681.238 316.24 684.698 316.24C686.298 316.24 687.978 315.84 688.298 315.52C688.358 315.46 688.378 315.42 688.378 315.36V313.36H687.998C687.058 313.7 686.178 313.94 684.718 313.94C683.778 313.94 683.058 313.76 682.598 313.32C682.278 312.98 682.098 312.48 682.098 311.8V311.32H688.418C688.558 311.32 688.638 311.24 688.638 311.12V309.48C688.638 306.78 686.818 305.02 684.138 305.02ZM684.138 307.24C684.778 307.24 685.258 307.38 685.558 307.68C685.918 308.04 686.078 308.58 686.078 309.38V309.68H682.098V309.4C682.098 307.86 682.778 307.24 684.138 307.24Z" fill="#FFF0DD"/>
<path d="M530.061 420.939C529.475 420.354 528.525 420.354 527.939 420.939L518.393 430.485C517.808 431.071 517.808 432.021 518.393 432.607C518.979 433.192 519.929 433.192 520.515 432.607L529 424.121L537.485 432.607C538.071 433.192 539.021 433.192 539.607 432.607C540.192 432.021 540.192 431.071 539.607 430.485L530.061 420.939ZM423.939 498.538C423.354 499.124 423.354 500.074 423.939 500.66L433.485 510.206C434.071 510.791 435.021 510.791 435.607 510.206C436.192 509.62 436.192 508.67 435.607 508.084L427.121 499.599L435.607 491.114C436.192 490.528 436.192 489.578 435.607 488.992C435.021 488.407 434.071 488.407 433.485 488.992L423.939 498.538ZM488.409 499.599L488.409 498.099L488.353 498.099L488.297 498.103L488.409 499.599ZM527.5 422C527.5 432.098 527.5 421.989 527.5 453.448L530.5 453.448C530.5 422.008 530.5 432.079 530.5 422L527.5 422ZM527.5 453.448C527.5 468.882 523.052 480.011 516.042 487.274C509.032 494.537 499.301 498.099 488.409 498.099L488.409 501.099C499.961 501.099 510.526 497.309 518.2 489.358C525.875 481.407 530.5 469.46 530.5 453.448L527.5 453.448ZM488.297 498.103C476.272 499 442.463 498.099 425 498.099L425 501.099C442.236 501.099 476.351 502.002 488.52 501.095L488.297 498.103Z" fill="#FF5E3A"/>
<path d="M381.939 405.939C381.354 406.525 381.354 407.475 381.939 408.061L391.485 417.607C392.071 418.192 393.021 418.192 393.607 417.607C394.192 417.021 394.192 416.071 393.607 415.485L385.121 407L393.607 398.515C394.192 397.929 394.192 396.979 393.607 396.393C393.021 395.808 392.071 395.808 391.485 396.393L381.939 405.939ZM425 408.5C425.828 408.5 426.5 407.828 426.5 407C426.5 406.172 425.828 405.5 425 405.5L425 408.5ZM383 408.5L425 408.5L425 405.5L383 405.5L383 408.5Z" fill="#FF5E3A"/>
<path d="M381.939 405.939C381.354 406.525 381.354 407.475 381.939 408.061L391.485 417.607C392.071 418.192 393.021 418.192 393.607 417.607C394.192 417.021 394.192 416.071 393.607 415.485L385.121 407L393.607 398.515C394.192 397.929 394.192 396.979 393.607 396.393C393.021 395.808 392.071 395.808 391.485 396.393L381.939 405.939ZM425 408.5C425.828 408.5 426.5 407.828 426.5 407C426.5 406.172 425.828 405.5 425 405.5L425 408.5ZM383 408.5L425 408.5L425 405.5L383 405.5L383 408.5Z" fill="#FF5E3A"/>
<path d="M381.939 405.939C381.354 406.525 381.354 407.475 381.939 408.061L391.485 417.607C392.071 418.192 393.021 418.192 393.607 417.607C394.192 417.021 394.192 416.071 393.607 415.485L385.121 407L393.607 398.515C394.192 397.929 394.192 396.979 393.607 396.393C393.021 395.808 392.071 395.808 391.485 396.393L381.939 405.939ZM425 408.5C425.828 408.5 426.5 407.828 426.5 407C426.5 406.172 425.828 405.5 425 405.5L425 408.5ZM383 408.5L425 408.5L425 405.5L383 405.5L383 408.5Z" fill="#FF5E3A"/>
<path d="M426.061 363.939C425.475 363.354 424.525 363.354 423.939 363.939L414.393 373.485C413.808 374.071 413.808 375.021 414.393 375.607C414.979 376.192 415.929 376.192 416.515 375.607L425 367.121L433.485 375.607C434.071 376.192 435.021 376.192 435.607 375.607C436.192 375.021 436.192 374.071 435.607 373.485L426.061 363.939ZM423.5 407C423.5 407.828 424.172 408.5 425 408.5C425.828 408.5 426.5 407.828 426.5 407L423.5 407ZM423.5 365L423.5 407L426.5 407L426.5 365L423.5 365Z" fill="#FF5E3A"/>
<path d="M426.061 363.939C425.475 363.354 424.525 363.354 423.939 363.939L414.393 373.485C413.808 374.071 413.808 375.021 414.393 375.607C414.979 376.192 415.929 376.192 416.515 375.607L425 367.121L433.485 375.607C434.071 376.192 435.021 376.192 435.607 375.607C436.192 375.021 436.192 374.071 435.607 373.485L426.061 363.939ZM423.5 407C423.5 407.828 424.172 408.5 425 408.5C425.828 408.5 426.5 407.828 426.5 407L423.5 407ZM423.5 365L423.5 407L426.5 407L426.5 365L423.5 365Z" fill="#FF5E3A"/>
<path d="M426.061 363.939C425.475 363.354 424.525 363.354 423.939 363.939L414.393 373.485C413.808 374.071 413.808 375.021 414.393 375.607C414.979 376.192 415.929 376.192 416.515 375.607L425 367.121L433.485 375.607C434.071 376.192 435.021 376.192 435.607 375.607C436.192 375.021 436.192 374.071 435.607 373.485L426.061 363.939ZM423.5 407C423.5 407.828 424.172 408.5 425 408.5C425.828 408.5 426.5 407.828 426.5 407L423.5 407ZM423.5 365L423.5 407L426.5 407L426.5 365L423.5 365Z" fill="#FF5E3A"/>
<mask id="mask0_419_488" style="mask-type:alpha" maskUnits="userSpaceOnUse" x="378" y="338" width="192" height="192">
<circle cx="474" cy="434" r="96" fill="#FF5E3A"/>
</mask>
<g mask="url(#mask0_419_488)">
<path d="M316.686 465.8V436.56H462.206V289.68H460.846C459.939 292.853 457.219 298.293 452.686 306C448.606 313.707 442.486 322.093 434.326 331.16C426.166 340.227 415.512 347.933 402.366 354.28C389.672 360.627 374.259 363.8 356.126 363.8C329.832 363.8 307.392 357.453 288.806 344.76C270.672 332.067 256.846 315.067 247.326 293.76C237.806 272.453 233.046 248.653 233.046 222.36C233.046 195.613 237.806 171.587 247.326 150.28C257.299 128.973 271.352 112.2 289.486 99.96C308.072 87.2667 330.512 80.92 356.806 80.92C375.392 80.92 391.032 84.32 403.726 91.12C416.872 97.4667 427.299 105.173 435.006 114.24C443.166 122.853 449.059 131.24 452.686 139.4C456.766 147.107 459.259 152.547 460.166 155.72H461.526L462.206 80.92H494.166V416.16C494.166 430.667 491.446 442.453 486.006 451.52C481.019 461.04 470.366 465.8 454.046 465.8H316.686ZM360.206 334.56C387.859 334.56 411.432 324.813 430.926 305.32C450.872 285.827 460.846 258.173 460.846 222.36C460.846 187.453 451.552 160.253 432.966 140.76C414.379 120.813 391.486 110.84 364.286 110.84C341.619 110.84 322.806 116.28 307.846 127.16C292.886 137.587 281.779 151.413 274.526 168.64C267.272 185.413 263.646 203.32 263.646 222.36C263.646 241.4 266.819 259.533 273.166 276.76C279.966 293.987 290.392 308.04 304.446 318.92C318.952 329.347 337.539 334.56 360.206 334.56Z" fill="#FF5E3A"/>
</g>
</g>
<defs>
<clipPath id="clip0_419_488">
<rect width="756" height="550" fill="white"/>
</clipPath>
</defs>
</svg>
