<svg width="756" height="550" viewBox="0 0 756 550" fill="none" xmlns="http://www.w3.org/2000/svg">
<g clip-path="url(#clip0_419_487)">
<path d="M316.686 465.8V436.56H462.206V289.68H460.846C459.939 292.853 457.219 298.293 452.686 306C448.606 313.707 442.486 322.093 434.326 331.16C426.166 340.227 415.512 347.933 402.366 354.28C389.672 360.627 374.259 363.8 356.126 363.8C329.832 363.8 307.392 357.453 288.806 344.76C270.672 332.067 256.846 315.067 247.326 293.76C237.806 272.453 233.046 248.653 233.046 222.36C233.046 195.613 237.806 171.587 247.326 150.28C257.299 128.973 271.352 112.2 289.486 99.96C308.072 87.2667 330.512 80.92 356.806 80.92C375.392 80.92 391.032 84.32 403.726 91.12C416.872 97.4667 427.299 105.173 435.006 114.24C443.166 122.853 449.059 131.24 452.686 139.4C456.766 147.107 459.259 152.547 460.166 155.72H461.526L462.206 80.92H494.166V416.16C494.166 430.667 491.446 442.453 486.006 451.52C481.019 461.04 470.366 465.8 454.046 465.8H316.686ZM360.206 334.56C387.859 334.56 411.432 324.813 430.926 305.32C450.872 285.827 460.846 258.173 460.846 222.36C460.846 187.453 451.552 160.253 432.966 140.76C414.379 120.813 391.486 110.84 364.286 110.84C341.619 110.84 322.806 116.28 307.846 127.16C292.886 137.587 281.779 151.413 274.526 168.64C267.272 185.413 263.646 203.32 263.646 222.36C263.646 241.4 266.819 259.533 273.166 276.76C279.966 293.987 290.392 308.04 304.446 318.92C318.952 329.347 337.539 334.56 360.206 334.56Z" fill="#FFF0DD"/>
</g>
<defs>
<clipPath id="clip0_419_487">
<rect width="756" height="550" fill="white"/>
</clipPath>
</defs>
</svg>
