<svg width="756" height="550" viewBox="0 0 756 550" fill="none" xmlns="http://www.w3.org/2000/svg">
<g clip-path="url(#clip0_419_577)">
<path d="M507.87 83.55C511.537 83.55 514.104 84.2833 515.57 85.75C517.404 87.2167 518.32 89.4167 518.32 92.35V111.6C518.32 114.9 517.404 117.467 515.57 119.3C514.104 121.133 511.354 121.867 507.32 121.5C501.454 121.5 496.32 121.867 491.92 122.6C487.52 123.333 483.12 124.617 478.72 126.45C469.92 129.75 466.254 133.967 467.72 139.1C469.554 143.133 471.57 148.083 473.77 153.95C475.97 159.45 477.07 166.967 477.07 176.5C477.07 192.633 472.854 207.483 464.42 221.05C455.987 234.25 442.787 244.883 424.82 252.95C407.22 261.017 384.854 265.05 357.72 265.05C339.02 265.05 324.354 266.15 313.72 268.35C303.087 270.55 295.57 273.483 291.17 277.15C286.77 280.817 284.57 284.667 284.57 288.7C284.57 294.567 288.42 298.783 296.12 301.35C304.187 303.917 317.02 305.75 334.62 306.85L405.57 310.7C437.837 312.533 461.487 320.233 476.52 333.8C491.554 347.367 499.07 365.15 499.07 387.15C499.07 414.65 486.787 436.283 462.22 452.05C438.02 468.183 403.37 476.25 358.27 476.25C311.704 476.25 276.137 469.467 251.57 455.9C227.37 442.7 215.27 423.633 215.27 398.7C215.27 385.867 219.67 374.317 228.47 364.05C237.637 353.783 250.47 344.617 266.97 336.55C271.004 334.717 271.004 332.7 266.97 330.5C258.904 326.833 252.67 322.433 248.27 317.3C243.87 311.8 241.67 305.383 241.67 298.05C241.67 292.917 243.32 287.783 246.62 282.65C249.92 277.517 254.687 272.75 260.92 268.35C267.52 263.95 275.404 260.1 284.57 256.8C286.77 256.067 287.87 255.15 287.87 254.05C287.87 252.95 286.954 251.667 285.12 250.2C268.987 242.133 257.07 232.05 249.37 219.95C241.67 207.85 237.82 193.367 237.82 176.5C237.82 147.9 248.637 125.35 270.27 108.85C291.904 92.35 322.52 84.1 362.12 84.1C381.187 84.1 397.32 86.3 410.52 90.7C424.087 95.1 435.454 101.15 444.62 108.85C446.82 110.683 448.837 111.6 450.67 111.6C452.504 111.6 454.337 110.683 456.17 108.85C460.57 104.817 465.52 100.967 471.02 97.3C476.52 93.2667 482.387 89.9667 488.62 87.4C495.22 84.8333 501.637 83.55 507.87 83.55ZM357.72 235.9C383.387 235.9 402.454 230.767 414.92 220.5C427.387 209.867 433.62 195.017 433.62 175.95C433.62 156.517 427.387 141.3 414.92 130.3C402.454 118.933 383.387 113.25 357.72 113.25C333.154 113.25 314.087 118.933 300.52 130.3C287.32 141.3 280.72 156.517 280.72 175.95C280.72 195.017 287.32 209.867 300.52 220.5C314.087 230.767 333.154 235.9 357.72 235.9ZM309.32 344.25C302.72 343.883 295.387 345.9 287.32 350.3C279.254 354.333 272.104 360.017 265.87 367.35C259.637 374.683 256.52 383.3 256.52 393.2C256.52 404.567 260.37 414.283 268.07 422.35C276.137 430.783 288.054 437.017 303.82 441.05C319.954 445.45 339.754 447.65 363.22 447.65C393.654 447.65 416.754 443.067 432.52 433.9C448.287 425.1 456.17 411.35 456.17 392.65C456.17 380.55 451.954 370.65 443.52 362.95C435.454 355.25 421.337 350.85 401.17 349.75L309.32 344.25Z" fill="#FFF0DD"/>
</g>
<defs>
<clipPath id="clip0_419_577">
<rect width="756" height="550" fill="white"/>
</clipPath>
</defs>
</svg>
