<svg width="814" height="400" viewBox="0 0 814 400" fill="none" xmlns="http://www.w3.org/2000/svg">
<mask id="mask0_449_71" style="mask-type:alpha" maskUnits="userSpaceOnUse" x="0" y="0" width="813" height="400">
<rect width="813" height="400" fill="#D9D9D9"/>
</mask>
<g mask="url(#mask0_449_71)">
<line x1="4.37065e-08" y1="285.318" x2="813" y2="285.318" stroke="#DCEEFC"/>
<line x1="4.37065e-08" y1="86.0454" x2="813" y2="86.0455" stroke="#DCEEFC" stroke-dasharray="7.27 7.27"/>
<path d="M353.699 353.537V333.212H454.852V231.114H453.906C453.276 233.32 451.385 237.102 448.234 242.459C445.398 247.816 441.144 253.645 435.472 259.948C429.8 266.25 422.395 271.607 413.256 276.018C404.433 280.43 393.719 282.636 381.114 282.636C362.838 282.636 347.239 278.224 334.32 269.401C321.715 260.578 312.104 248.761 305.486 233.95C298.869 219.14 295.56 202.596 295.56 184.32C295.56 165.728 298.869 149.027 305.486 134.216C312.419 119.406 322.188 107.746 334.792 99.2382C347.712 90.415 363.31 86.0034 381.587 86.0034C394.507 86.0034 405.378 88.3667 414.202 93.0935C423.34 97.5051 430.588 102.862 435.945 109.164C441.617 115.152 445.713 120.981 448.234 126.653C451.07 132.01 452.803 135.792 453.434 137.998H454.379L454.852 86.0034H477.067V319.032C477.067 329.116 475.177 337.309 471.395 343.611C467.929 350.228 460.524 353.537 449.179 353.537H353.699ZM383.95 262.311C403.172 262.311 419.559 255.536 433.109 241.986C446.974 228.436 453.906 209.214 453.906 184.32C453.906 160.056 447.446 141.149 434.527 127.599C421.607 113.734 405.693 106.801 386.786 106.801C371.031 106.801 357.953 110.582 347.554 118.145C337.156 125.393 329.435 135.004 324.393 146.978C319.352 158.638 316.831 171.085 316.831 184.32C316.831 197.555 319.036 210.159 323.448 222.134C328.175 234.108 335.422 243.877 345.191 251.439C355.275 258.687 368.195 262.311 383.95 262.311Z" fill="#6899BF"/>
<path d="M353.699 353.537H352.699V354.537H353.699V353.537ZM353.699 333.212V332.212H352.699V333.212H353.699ZM454.852 333.212V334.212H455.852V333.212H454.852ZM454.852 231.114H455.852V230.114H454.852V231.114ZM453.906 231.114V230.114H453.152L452.945 230.84L453.906 231.114ZM448.234 242.459L447.372 241.952L447.361 241.971L447.35 241.991L448.234 242.459ZM435.472 259.948L434.729 259.279L434.729 259.279L435.472 259.948ZM413.256 276.018L412.821 275.118L412.809 275.124L413.256 276.018ZM334.32 269.401L333.746 270.22L333.756 270.227L334.32 269.401ZM305.486 233.95L304.573 234.358L305.486 233.95ZM305.486 134.216L304.581 133.792L304.577 133.8L304.573 133.808L305.486 134.216ZM334.792 99.2382L335.352 100.067L335.356 100.064L334.792 99.2382ZM414.202 93.0935L413.729 93.975L413.748 93.9849L413.767 93.994L414.202 93.0935ZM435.945 109.164L435.183 109.812L435.2 109.833L435.219 109.852L435.945 109.164ZM448.234 126.653L447.32 127.059L447.334 127.091L447.35 127.121L448.234 126.653ZM453.434 137.998L452.472 138.272L452.679 138.998H453.434V137.998ZM454.379 137.998V138.998H455.37L455.379 138.007L454.379 137.998ZM454.852 86.0034V85.0034H453.861L453.852 85.9943L454.852 86.0034ZM477.067 86.0034H478.067V85.0034H477.067V86.0034ZM471.395 343.611L470.538 343.096L470.523 343.121L470.509 343.147L471.395 343.611ZM433.109 241.986L432.41 241.271L432.401 241.279L433.109 241.986ZM434.527 127.599L433.795 128.28L433.803 128.289L434.527 127.599ZM347.554 118.145L348.126 118.966L348.134 118.96L348.143 118.954L347.554 118.145ZM324.393 146.978L325.311 147.375L325.315 147.366L324.393 146.978ZM323.448 222.134L322.51 222.479L322.514 222.49L322.518 222.501L323.448 222.134ZM345.191 251.439L344.579 252.23L344.593 252.241L344.607 252.251L345.191 251.439ZM354.699 353.537V333.212H352.699V353.537H354.699ZM353.699 334.212H454.852V332.212H353.699V334.212ZM455.852 333.212V231.114H453.852V333.212H455.852ZM454.852 230.114H453.906V232.114H454.852V230.114ZM452.945 230.84C452.354 232.906 450.53 236.584 447.372 241.952L449.096 242.966C452.241 237.619 454.198 233.735 454.868 231.389L452.945 230.84ZM447.35 241.991C444.565 247.253 440.366 253.015 434.729 259.279L436.215 260.617C441.922 254.275 446.232 248.378 449.118 242.926L447.35 241.991ZM434.729 259.279C429.159 265.467 421.865 270.752 412.821 275.118L413.691 276.919C422.924 272.462 430.441 267.032 436.215 260.617L434.729 259.279ZM412.809 275.124C404.158 279.45 393.606 281.636 381.114 281.636V283.636C393.832 283.636 404.708 281.411 413.703 276.913L412.809 275.124ZM381.114 281.636C363.004 281.636 347.611 277.267 334.884 268.575L333.756 270.227C346.868 279.182 362.671 283.636 381.114 283.636V281.636ZM334.893 268.582C322.445 259.868 312.947 248.197 306.399 233.543L304.573 234.358C311.261 249.325 320.985 261.287 333.746 270.22L334.893 268.582ZM306.399 233.543C299.846 218.876 296.56 202.474 296.56 184.32H294.56C294.56 202.719 297.892 219.404 304.573 234.358L306.399 233.543ZM296.56 184.32C296.56 165.848 299.847 149.289 306.399 134.624L304.573 133.808C297.891 148.764 294.56 165.608 294.56 184.32H296.56ZM306.392 134.64C313.254 119.981 322.908 108.466 335.352 100.067L334.233 98.4094C321.467 107.026 311.584 118.831 304.581 133.792L306.392 134.64ZM335.356 100.064C348.083 91.3724 363.477 87.0034 381.587 87.0034V85.0034C363.144 85.0034 347.341 89.4576 334.228 98.4124L335.356 100.064ZM381.587 87.0034C394.389 87.0034 405.087 89.3454 413.729 93.975L414.674 92.212C405.669 87.3881 394.625 85.0034 381.587 85.0034V87.0034ZM413.767 93.994C422.807 98.3585 429.934 103.637 435.183 109.812L436.707 108.517C431.241 102.087 423.872 96.6517 414.636 92.1929L413.767 93.994ZM435.219 109.852C440.837 115.782 444.858 121.519 447.32 127.059L449.148 126.247C446.568 120.443 442.397 114.521 436.671 108.477L435.219 109.852ZM447.35 127.121C450.19 132.485 451.874 136.18 452.472 138.272L454.395 137.723C453.732 135.403 451.95 131.536 449.118 126.185L447.35 127.121ZM453.434 138.998H454.379V136.998H453.434V138.998ZM455.379 138.007L455.851 86.0125L453.852 85.9943L453.379 137.988L455.379 138.007ZM454.852 87.0034H477.067V85.0034H454.852V87.0034ZM476.067 86.0034V319.032H478.067V86.0034H476.067ZM476.067 319.032C476.067 328.999 474.197 336.997 470.538 343.096L472.253 344.125C476.156 337.62 478.067 329.232 478.067 319.032H476.067ZM470.509 343.147C467.296 349.282 460.364 352.537 449.179 352.537V354.537C460.683 354.537 468.562 351.175 472.281 344.075L470.509 343.147ZM449.179 352.537H353.699V354.537H449.179V352.537ZM383.95 263.311C403.437 263.311 420.077 256.431 433.816 242.693L432.401 241.279C419.04 254.641 402.908 261.311 383.95 261.311V263.311ZM433.807 242.701C447.916 228.913 454.906 209.403 454.906 184.32H452.906C452.906 209.025 446.031 227.958 432.41 241.271L433.807 242.701ZM454.906 184.32C454.906 159.878 448.395 140.695 435.25 126.909L433.803 128.289C446.497 141.603 452.906 160.234 452.906 184.32H454.906ZM435.258 126.917C422.15 112.849 405.972 105.801 386.786 105.801V107.801C405.415 107.801 421.064 114.618 433.795 128.28L435.258 126.917ZM386.786 105.801C370.868 105.801 357.571 109.624 346.966 117.336L348.143 118.954C358.335 111.541 371.193 107.801 386.786 107.801V105.801ZM346.983 117.325C336.425 124.683 328.585 134.446 323.472 146.59L325.315 147.366C330.285 135.562 337.887 126.102 348.126 118.966L346.983 117.325ZM323.476 146.581C318.377 158.371 315.831 170.954 315.831 184.32H317.831C317.831 171.215 320.326 158.904 325.311 147.375L323.476 146.581ZM315.831 184.32C315.831 197.668 318.056 210.39 322.51 222.479L324.386 221.788C320.017 209.928 317.831 197.441 317.831 184.32H315.831ZM322.518 222.501C327.308 234.635 334.662 244.553 344.579 252.23L345.803 250.649C336.183 243.201 329.042 233.581 324.378 221.766L322.518 222.501ZM344.607 252.251C354.902 259.651 368.042 263.311 383.95 263.311V261.311C368.347 261.311 355.648 257.724 345.775 250.627L344.607 252.251Z" fill="#DCEEFC"/>
</g>
</svg>
