<svg width="813" height="400" viewBox="0 0 813 400" fill="none" xmlns="http://www.w3.org/2000/svg">
<g clip-path="url(#clip0_461_99)">
<mask id="mask0_461_99" style="mask-type:alpha" maskUnits="userSpaceOnUse" x="0" y="0" width="813" height="400">
<rect width="813" height="400" fill="#D9D9D9"/>
</mask>
<g mask="url(#mask0_461_99)">
<line x1="4.37065e-08" y1="285.318" x2="813" y2="285.318" stroke="#DCEEFC"/>
<line x1="4.37065e-08" y1="86.0454" x2="813" y2="86.0455" stroke="#DCEEFC" stroke-dasharray="7.27 7.27"/>
<path d="M168.985 354.628V334.303H270.138V232.205H269.192C268.562 234.411 266.672 238.192 263.52 243.549C260.684 248.906 256.43 254.736 250.758 261.038C245.086 267.341 237.681 272.698 228.542 277.109C219.719 281.521 209.005 283.727 196.401 283.727C178.124 283.727 162.526 279.315 149.606 270.492C137.001 261.669 127.39 249.852 120.773 235.041C114.155 220.231 110.847 203.687 110.847 185.41C110.847 166.819 114.155 150.117 120.773 135.307C127.705 120.497 137.474 108.837 150.078 100.329C162.998 91.5058 178.597 87.0942 196.873 87.0942C209.793 87.0942 220.665 89.4576 229.488 94.1843C238.626 98.5959 245.874 103.953 251.231 110.255C256.903 116.242 260.999 122.072 263.52 127.744C266.356 133.101 268.09 136.883 268.72 139.088H269.665L270.138 87.0942H292.353V320.123C292.353 330.206 290.463 338.399 286.681 344.702C283.215 351.319 275.81 354.628 264.466 354.628H168.985ZM199.237 263.402C218.459 263.402 234.845 256.627 248.395 243.077C262.26 229.527 269.192 210.305 269.192 185.41C269.192 161.147 262.733 142.24 249.813 128.69C236.893 114.824 220.98 107.892 202.073 107.892C186.317 107.892 173.24 111.673 162.841 119.236C152.442 126.484 144.722 136.095 139.68 148.069C134.638 159.728 132.117 172.176 132.117 185.41C132.117 198.645 134.323 211.25 138.734 223.224C143.461 235.199 150.709 244.967 160.477 252.53C170.561 259.778 183.481 263.402 199.237 263.402Z" fill="#6899BF"/>
<path d="M168.985 354.628H167.985V355.628H168.985V354.628ZM168.985 334.303V333.303H167.985V334.303H168.985ZM270.138 334.303V335.303H271.138V334.303H270.138ZM270.138 232.205H271.138V231.205H270.138V232.205ZM269.192 232.205V231.205H268.438L268.231 231.931L269.192 232.205ZM263.52 243.549L262.658 243.042L262.647 243.062L262.637 243.082L263.52 243.549ZM250.758 261.038L250.015 260.369L250.758 261.038ZM228.542 277.109L228.108 276.209L228.095 276.215L228.542 277.109ZM149.606 270.492L149.032 271.311L149.042 271.318L149.606 270.492ZM120.773 235.041L119.86 235.449L120.773 235.041ZM120.773 135.307L119.867 134.883L119.863 134.891L119.86 134.899L120.773 135.307ZM150.078 100.329L150.638 101.158L150.642 101.155L150.078 100.329ZM229.488 94.1843L229.016 95.0658L229.034 95.0757L229.053 95.0848L229.488 94.1843ZM251.231 110.255L250.469 110.903L250.486 110.923L250.505 110.943L251.231 110.255ZM263.52 127.744L262.607 128.15L262.62 128.182L262.637 128.212L263.52 127.744ZM268.72 139.088L267.758 139.363L267.965 140.088H268.72V139.088ZM269.665 139.088V140.088H270.656L270.665 139.097L269.665 139.088ZM270.138 87.0942V86.0942H269.147L269.138 87.0851L270.138 87.0942ZM292.353 87.0942H293.353V86.0942H292.353V87.0942ZM286.681 344.702L285.824 344.187L285.809 344.212L285.796 344.238L286.681 344.702ZM248.395 243.077L247.696 242.362L247.688 242.37L248.395 243.077ZM249.813 128.69L249.081 129.371L249.089 129.38L249.813 128.69ZM162.841 119.236L163.412 120.056L163.421 120.051L163.429 120.045L162.841 119.236ZM139.68 148.069L140.598 148.466L140.601 148.457L139.68 148.069ZM138.734 223.224L137.796 223.57L137.8 223.581L137.804 223.592L138.734 223.224ZM160.477 252.53L159.865 253.321L159.879 253.332L159.894 253.342L160.477 252.53ZM169.985 354.628V334.303H167.985V354.628H169.985ZM168.985 335.303H270.138V333.303H168.985V335.303ZM271.138 334.303V232.205H269.138V334.303H271.138ZM270.138 231.205H269.192V233.205H270.138V231.205ZM268.231 231.931C267.641 233.997 265.816 237.675 262.658 243.042L264.382 244.056C267.527 238.71 269.484 234.825 270.154 232.48L268.231 231.931ZM262.637 243.082C259.851 248.344 255.652 254.106 250.015 260.369L251.501 261.707C257.208 255.366 261.518 249.469 264.404 244.017L262.637 243.082ZM250.015 260.369C244.445 266.558 237.152 271.843 228.108 276.209L228.977 278.01C238.21 273.553 245.727 268.123 251.501 261.707L250.015 260.369ZM228.095 276.215C219.444 280.541 208.892 282.727 196.401 282.727V284.727C209.119 284.727 219.994 282.501 228.99 278.004L228.095 276.215ZM196.401 282.727C178.29 282.727 162.897 278.358 150.17 269.666L149.042 271.318C162.154 280.273 177.957 284.727 196.401 284.727V282.727ZM150.179 269.673C137.731 260.959 128.233 249.288 121.686 234.633L119.86 235.449C126.547 250.416 136.271 262.378 149.032 271.311L150.179 269.673ZM121.686 234.633C115.132 219.967 111.847 203.564 111.847 185.41H109.847C109.847 203.81 113.178 220.495 119.86 235.449L121.686 234.633ZM111.847 185.41C111.847 166.939 115.133 150.38 121.686 135.715L119.86 134.899C113.177 149.855 109.847 166.698 109.847 185.41H111.847ZM121.678 135.731C128.54 121.071 138.194 109.557 150.638 101.158L149.519 99.5002C136.753 108.117 126.87 119.922 119.867 134.883L121.678 135.731ZM150.642 101.155C163.37 92.4632 178.763 88.0942 196.873 88.0942V86.0942C178.43 86.0942 162.627 90.5484 149.515 99.5033L150.642 101.155ZM196.873 88.0942C209.675 88.0942 220.374 90.4362 229.016 95.0658L229.96 93.3028C220.955 88.4789 209.911 86.0942 196.873 86.0942V88.0942ZM229.053 95.0848C238.094 99.4493 245.22 104.728 250.469 110.903L251.993 109.608C246.527 103.178 239.159 97.7426 229.923 93.2837L229.053 95.0848ZM250.505 110.943C256.123 116.873 260.144 122.61 262.607 128.15L264.434 127.338C261.855 121.534 257.683 115.612 251.957 109.567L250.505 110.943ZM262.637 128.212C265.476 133.576 267.161 137.271 267.758 139.363L269.681 138.814C269.018 136.494 267.237 132.626 264.404 127.276L262.637 128.212ZM268.72 140.088H269.665V138.088H268.72V140.088ZM270.665 139.097L271.138 87.1033L269.138 87.0851L268.665 139.079L270.665 139.097ZM270.138 88.0942H292.353V86.0942H270.138V88.0942ZM291.353 87.0942V320.123H293.353V87.0942H291.353ZM291.353 320.123C291.353 330.09 289.484 338.088 285.824 344.187L287.539 345.216C291.442 338.711 293.353 330.323 293.353 320.123H291.353ZM285.796 344.238C282.582 350.372 275.65 353.628 264.466 353.628V355.628C275.969 355.628 283.848 352.266 287.567 345.166L285.796 344.238ZM264.466 353.628H168.985V355.628H264.466V353.628ZM199.237 264.402C218.723 264.402 235.364 257.522 249.102 243.784L247.688 242.37C234.326 255.731 218.194 262.402 199.237 262.402V264.402ZM249.094 243.792C263.202 230.004 270.192 210.494 270.192 185.41H268.192C268.192 210.116 261.318 229.049 247.696 242.362L249.094 243.792ZM270.192 185.41C270.192 160.968 263.681 141.786 250.537 127.999L249.089 129.38C261.784 142.693 268.192 161.325 268.192 185.41H270.192ZM250.544 128.008C237.436 113.94 221.258 106.892 202.073 106.892V108.892C220.701 108.892 236.35 115.709 249.081 129.371L250.544 128.008ZM202.073 106.892C186.154 106.892 172.858 110.714 162.253 118.427L163.429 120.045C173.621 112.632 186.48 108.892 202.073 108.892V106.892ZM162.269 118.416C151.711 125.774 143.871 135.537 138.758 147.681L140.601 148.457C145.572 136.653 153.173 127.193 163.412 120.056L162.269 118.416ZM138.762 147.672C133.663 159.462 131.117 172.045 131.117 185.41H133.117C133.117 172.306 135.612 159.995 140.598 148.466L138.762 147.672ZM131.117 185.41C131.117 198.759 133.342 211.481 137.796 223.57L139.673 222.879C135.303 211.019 133.117 198.532 133.117 185.41H131.117ZM137.804 223.592C142.594 235.726 149.948 245.643 159.865 253.321L161.089 251.74C151.469 244.292 144.328 234.672 139.664 222.857L137.804 223.592ZM159.894 253.342C170.188 260.741 183.328 264.402 199.237 264.402V262.402C183.634 262.402 170.934 258.814 161.061 251.718L159.894 253.342Z" fill="#DCEEFC"/>
<path d="M623.511 179V177.137C623.511 176.219 623.457 175.098 623.052 172.533H623.268C623.795 174.099 624.335 175.719 624.794 177.016C624.821 177.11 624.875 177.123 624.956 177.123H625.172C625.725 175.611 626.265 174.099 626.832 172.533H627.062C626.643 175.125 626.589 176.246 626.589 177.137V178.851C626.589 178.946 626.643 179 626.738 179H628.371V169.698C628.371 169.604 628.317 169.55 628.223 169.55H626.535C625.806 171.345 625.509 172.183 625.172 174.045H624.942C624.605 172.196 624.281 171.373 623.619 169.685C623.592 169.604 623.525 169.55 623.43 169.55H621.729V178.851C621.729 178.946 621.783 179 621.878 179H623.511ZM633.415 171.588C631.498 171.588 630.161 172.857 630.161 174.693V176.07C630.161 177.893 631.471 179.162 633.415 179.162C635.332 179.162 636.668 177.893 636.668 176.057V174.666C636.668 172.857 635.345 171.588 633.415 171.588ZM633.442 173.195C633.901 173.195 634.265 173.316 634.508 173.559C634.765 173.816 634.886 174.207 634.886 174.761V175.976C634.886 176.934 634.36 177.542 633.388 177.542C632.956 177.542 632.591 177.407 632.348 177.164C632.078 176.894 631.943 176.489 631.943 175.976V174.774C631.943 173.802 632.47 173.195 633.442 173.195ZM638.593 177.447V178.851C638.593 178.946 638.647 179 638.742 179H644.29V177.596C644.29 177.501 644.236 177.447 644.142 177.447H642.022V174.221C642.576 173.708 643.251 173.478 643.926 173.478C644.317 173.478 644.601 173.519 644.992 173.627H645.235V171.939C645.235 171.872 645.222 171.831 645.195 171.791C645.087 171.696 644.83 171.615 644.398 171.615C643.332 171.615 642.589 172.223 642.117 173.127H641.928C641.766 172.628 641.496 171.75 641.496 171.75H638.674V173.141C638.674 173.235 638.728 173.289 638.823 173.289H640.24V177.447H638.593ZM650.171 171.588C648.281 171.588 647.026 172.776 647.026 174.612V176.138C647.026 178.028 648.214 179.162 650.549 179.162C651.629 179.162 652.763 178.892 652.979 178.676C653.02 178.635 653.033 178.608 653.033 178.568V177.218H652.777C652.142 177.447 651.548 177.609 650.563 177.609C649.928 177.609 649.442 177.488 649.132 177.191C648.916 176.961 648.794 176.624 648.794 176.165V175.841H653.06C653.155 175.841 653.209 175.787 653.209 175.706V174.599C653.209 172.776 651.98 171.588 650.171 171.588ZM650.171 173.087C650.603 173.087 650.927 173.181 651.13 173.384C651.373 173.627 651.481 173.991 651.481 174.531V174.734H648.794V174.545C648.794 173.505 649.253 173.087 650.171 173.087ZM666.793 177.461C665.659 177.461 664.93 177.285 664.093 176.907H663.836V178.46C663.836 178.5 663.836 178.527 663.863 178.555C664.079 178.757 665.227 179.122 666.766 179.122C668.845 179.122 669.979 178.325 669.979 176.813C669.979 175.719 669.344 175.085 667.9 174.869L666.59 174.68C665.956 174.572 665.767 174.396 665.767 174.059C665.767 173.573 666.131 173.289 667.198 173.289C668.008 173.289 668.507 173.384 669.263 173.627H669.52V172.183C669.52 172.115 669.506 172.074 669.479 172.047C669.317 171.899 668.534 171.629 667.198 171.629C665.227 171.629 663.998 172.52 663.998 173.978C663.998 174.977 664.633 175.598 665.956 175.814L667.333 176.016C668.062 176.151 668.237 176.34 668.237 176.691C668.237 177.164 667.9 177.461 666.793 177.461ZM677.938 177.42H676.71C676.251 177.42 675.927 177.353 675.738 177.15C675.522 176.948 675.441 176.61 675.441 176.07V173.289H677.938V171.899C677.938 171.804 677.884 171.75 677.79 171.75H675.441V169.698C675.441 169.604 675.387 169.55 675.292 169.55H673.659V171.75H672.052V173.141C672.052 173.235 672.106 173.289 672.201 173.289H673.659V176.111C673.659 178.19 674.793 179 676.629 179H677.79C677.871 179 677.938 178.932 677.938 178.851V177.42ZM680.417 177.447V178.851C680.417 178.946 680.471 179 680.566 179H686.114V177.596C686.114 177.501 686.06 177.447 685.966 177.447H683.846V174.221C684.4 173.708 685.075 173.478 685.75 173.478C686.141 173.478 686.425 173.519 686.816 173.627H687.059V171.939C687.059 171.872 687.046 171.831 687.019 171.791C686.911 171.696 686.654 171.615 686.222 171.615C685.156 171.615 684.413 172.223 683.941 173.127H683.752C683.59 172.628 683.32 171.75 683.32 171.75H680.498V173.141C680.498 173.235 680.552 173.289 680.647 173.289H682.064V177.447H680.417ZM691.995 171.588C690.105 171.588 688.849 172.776 688.849 174.612V176.138C688.849 178.028 690.037 179.162 692.373 179.162C693.453 179.162 694.587 178.892 694.803 178.676C694.843 178.635 694.857 178.608 694.857 178.568V177.218H694.6C693.966 177.447 693.372 177.609 692.386 177.609C691.752 177.609 691.266 177.488 690.955 177.191C690.739 176.961 690.618 176.624 690.618 176.165V175.841H694.884C694.978 175.841 695.032 175.787 695.032 175.706V174.599C695.032 172.776 693.804 171.588 691.995 171.588ZM691.995 173.087C692.427 173.087 692.751 173.181 692.953 173.384C693.196 173.627 693.304 173.991 693.304 174.531V174.734H690.618V174.545C690.618 173.505 691.077 173.087 691.995 173.087ZM703.154 174.396C703.154 172.398 702.196 171.615 699.955 171.615C698.942 171.615 697.768 171.899 697.606 172.047C697.579 172.074 697.565 172.115 697.565 172.183V173.573H697.822C698.524 173.343 699.172 173.249 699.955 173.249C700.994 173.249 701.372 173.492 701.372 174.288V174.788H699.158C697.862 174.788 697.039 175.557 697.039 176.718V177.204C697.039 178.352 697.822 179.135 699.05 179.135C700.063 179.135 700.846 178.676 701.224 177.839H701.44C701.629 178.568 702.223 179 703.019 179H703.789C703.883 179 703.937 178.946 703.937 178.851V177.447H703.546C703.411 177.447 703.316 177.42 703.249 177.353C703.181 177.285 703.154 177.177 703.154 177.029V174.396ZM698.821 176.961V176.489C698.821 176.327 698.875 176.178 698.983 176.07C699.091 175.962 699.266 175.895 699.482 175.895H701.372V176.88C700.751 177.366 700.144 177.555 699.482 177.555C699.037 177.555 698.821 177.353 698.821 176.961ZM706.713 179V173.816C707.037 173.465 707.334 173.343 707.604 173.343C707.847 173.343 708.009 173.438 708.009 173.802V178.851C708.009 178.946 708.063 179 708.157 179H709.386V173.829C709.723 173.478 710.007 173.343 710.277 173.343C710.52 173.343 710.682 173.438 710.682 173.802V178.851C710.682 178.946 710.736 179 710.83 179H712.275V172.898C712.275 172.074 711.775 171.588 711.073 171.588C710.412 171.588 709.966 172.047 709.642 172.763H709.386C709.332 172.034 708.873 171.588 708.238 171.588C707.563 171.588 707.104 171.993 706.794 172.763H706.551C706.429 172.317 706.254 171.75 706.254 171.75H705.12V178.851C705.12 178.946 705.174 179 705.268 179H706.713ZM713.876 177.447V178.851C713.876 178.946 713.93 179 714.024 179H720.275V177.596C720.275 177.501 720.221 177.447 720.126 177.447H718.128V169.023C718.128 168.929 718.074 168.875 717.98 168.875H714.119V170.279C714.119 170.373 714.173 170.427 714.267 170.427H716.346V177.447H713.876ZM724.293 168.294V169.995C724.293 170.09 724.347 170.144 724.441 170.144H726.588V168.443C726.588 168.348 726.534 168.294 726.439 168.294H724.293ZM722.241 177.447V178.851C722.241 178.946 722.295 179 722.389 179H728.64V177.596C728.64 177.501 728.586 177.447 728.491 177.447H726.493V171.899C726.493 171.804 726.439 171.75 726.345 171.75H722.484V173.141C722.484 173.235 722.538 173.289 722.632 173.289H724.711V177.447H722.241ZM732.563 179V174.221C733.143 173.613 733.872 173.303 734.439 173.303C734.925 173.303 735.141 173.546 735.141 174.045V178.851C735.141 178.946 735.195 179 735.29 179H736.923V173.681C736.923 172.398 736.181 171.588 735.006 171.588C734.102 171.588 733.346 172.128 732.819 172.911H732.563V171.899C732.563 171.804 732.509 171.75 732.414 171.75H730.781V178.851C730.781 178.946 730.835 179 730.929 179H732.563ZM742.183 171.588C740.293 171.588 739.038 172.776 739.038 174.612V176.138C739.038 178.028 740.226 179.162 742.561 179.162C743.641 179.162 744.775 178.892 744.991 178.676C745.032 178.635 745.045 178.608 745.045 178.568V177.218H744.789C744.154 177.447 743.56 177.609 742.575 177.609C741.94 177.609 741.454 177.488 741.144 177.191C740.928 176.961 740.806 176.624 740.806 176.165V175.841H745.072C745.167 175.841 745.221 175.787 745.221 175.706V174.599C745.221 172.776 743.992 171.588 742.183 171.588ZM742.183 173.087C742.615 173.087 742.939 173.181 743.142 173.384C743.385 173.627 743.493 173.991 743.493 174.531V174.734H740.806V174.545C740.806 173.505 741.265 173.087 742.183 173.087ZM749.522 171.588C748.145 171.588 747.267 172.56 747.267 174.234V176.516C747.267 178.163 748.145 179.135 749.508 179.135C750.359 179.135 751.061 178.703 751.493 177.947H751.749V178.851C751.749 178.946 751.803 179 751.898 179H753.531V169.023C753.531 168.929 753.477 168.875 753.383 168.875H751.749V172.749H751.493C751.088 172.034 750.44 171.588 749.522 171.588ZM749.333 177.15C749.144 176.961 749.036 176.651 749.036 176.219V174.531C749.036 173.735 749.427 173.303 750.089 173.303C750.656 173.303 751.25 173.573 751.749 174.099V176.597C751.223 177.191 750.656 177.42 750.089 177.42C749.765 177.42 749.508 177.326 749.333 177.15ZM624.969 198.461C623.835 198.461 623.106 198.285 622.269 197.907H622.013V199.46C622.013 199.5 622.013 199.527 622.04 199.555C622.256 199.757 623.403 200.122 624.942 200.122C627.021 200.122 628.155 199.325 628.155 197.813C628.155 196.719 627.521 196.085 626.076 195.869L624.767 195.68C624.132 195.572 623.943 195.396 623.943 195.059C623.943 194.573 624.308 194.289 625.374 194.289C626.184 194.289 626.684 194.384 627.44 194.627H627.696V193.183C627.696 193.115 627.683 193.074 627.656 193.047C627.494 192.899 626.711 192.629 625.374 192.629C623.403 192.629 622.175 193.52 622.175 194.978C622.175 195.977 622.809 196.598 624.132 196.814L625.509 197.016C626.238 197.151 626.414 197.34 626.414 197.691C626.414 198.164 626.076 198.461 624.969 198.461ZM636.115 198.42H634.886C634.427 198.42 634.103 198.353 633.914 198.15C633.698 197.948 633.617 197.61 633.617 197.07V194.289H636.115V192.899C636.115 192.804 636.061 192.75 635.966 192.75H633.617V190.698C633.617 190.604 633.563 190.55 633.469 190.55H631.835V192.75H630.229V194.141C630.229 194.235 630.283 194.289 630.377 194.289H631.835V197.111C631.835 199.19 632.969 200 634.805 200H635.966C636.047 200 636.115 199.932 636.115 199.851V198.42ZM638.593 198.447V199.851C638.593 199.946 638.647 200 638.742 200H644.29V198.596C644.29 198.501 644.236 198.447 644.142 198.447H642.022V195.221C642.576 194.708 643.251 194.478 643.926 194.478C644.317 194.478 644.601 194.519 644.992 194.627H645.235V192.939C645.235 192.872 645.222 192.831 645.195 192.791C645.087 192.696 644.83 192.615 644.398 192.615C643.332 192.615 642.589 193.223 642.117 194.127H641.928C641.766 193.628 641.496 192.75 641.496 192.75H638.674V194.141C638.674 194.235 638.728 194.289 638.823 194.289H640.24V198.447H638.593ZM650.144 192.588C648.227 192.588 646.891 193.857 646.891 195.693V197.07C646.891 198.893 648.2 200.162 650.144 200.162C652.061 200.162 653.398 198.893 653.398 197.057V195.666C653.398 193.857 652.075 192.588 650.144 192.588ZM650.171 194.195C650.63 194.195 650.995 194.316 651.238 194.559C651.494 194.816 651.616 195.207 651.616 195.761V196.976C651.616 197.934 651.089 198.542 650.117 198.542C649.685 198.542 649.321 198.407 649.078 198.164C648.808 197.894 648.673 197.489 648.673 196.976V195.774C648.673 194.802 649.199 194.195 650.171 194.195ZM657.28 200V197.84C657.55 197.556 657.807 197.259 658.077 196.962H658.347C658.468 197.583 658.617 197.948 658.995 198.474C659.386 199.001 659.899 199.73 660.007 199.878C660.075 199.973 660.129 200 660.264 200H662.289C661.195 198.609 660.183 197.273 659.103 195.869C659.926 194.964 660.79 194.046 661.695 193.061C661.803 192.939 661.816 192.912 661.816 192.858C661.816 192.791 661.762 192.737 661.668 192.737L659.724 192.75C659.197 193.358 658.819 193.776 658.468 194.181C658.036 194.681 657.78 195.113 657.523 195.869H657.28V190.023C657.28 189.929 657.226 189.875 657.132 189.875H655.498V199.851C655.498 199.946 655.552 200 655.647 200H657.28ZM666.901 192.588C665.011 192.588 663.755 193.776 663.755 195.612V197.138C663.755 199.028 664.943 200.162 667.279 200.162C668.359 200.162 669.493 199.892 669.709 199.676C669.749 199.635 669.763 199.608 669.763 199.568V198.218H669.506C668.872 198.447 668.278 198.609 667.292 198.609C666.658 198.609 666.172 198.488 665.861 198.191C665.645 197.961 665.524 197.624 665.524 197.165V196.841H669.79C669.884 196.841 669.938 196.787 669.938 196.706V195.599C669.938 193.776 668.71 192.588 666.901 192.588ZM666.901 194.087C667.333 194.087 667.657 194.181 667.859 194.384C668.102 194.627 668.21 194.991 668.21 195.531V195.734H665.524V195.545C665.524 194.505 665.983 194.087 666.901 194.087ZM682.874 193.952C682.604 195.315 682.361 196.746 682.199 198.636H681.875C681.835 196.395 681.7 194.708 681.524 192.926C681.511 192.777 681.457 192.75 681.349 192.75H679.756C680.08 195.099 680.417 197.448 680.755 199.811C680.768 199.932 680.849 200 680.971 200H682.915C683.32 197.975 683.374 197.543 683.468 195.504H683.738C683.846 197.543 683.914 197.975 684.292 199.811C684.319 199.932 684.386 200 684.508 200H686.411C686.762 197.637 687.1 195.288 687.437 192.926C687.464 192.764 687.424 192.75 687.302 192.75H685.723C685.547 194.546 685.412 196.341 685.358 198.636H685.048C684.859 196.706 684.629 195.396 684.386 194.1C684.359 193.979 684.292 193.952 684.211 193.952H682.874ZM690.834 189.294V190.995C690.834 191.09 690.888 191.144 690.982 191.144H693.129V189.443C693.129 189.348 693.075 189.294 692.98 189.294H690.834ZM688.782 198.447V199.851C688.782 199.946 688.836 200 688.93 200H695.181V198.596C695.181 198.501 695.127 198.447 695.032 198.447H693.034V192.899C693.034 192.804 692.98 192.75 692.886 192.75H689.025V194.141C689.025 194.235 689.079 194.289 689.173 194.289H691.252V198.447H688.782ZM699.334 192.588C697.957 192.588 697.079 193.56 697.079 195.234V197.516C697.079 199.163 697.957 200.135 699.32 200.135C700.171 200.135 700.873 199.703 701.305 198.947H701.561V199.851C701.561 199.946 701.615 200 701.71 200H703.343V190.023C703.343 189.929 703.289 189.875 703.195 189.875H701.561V193.749H701.305C700.9 193.034 700.252 192.588 699.334 192.588ZM699.145 198.15C698.956 197.961 698.848 197.651 698.848 197.219V195.531C698.848 194.735 699.239 194.303 699.901 194.303C700.468 194.303 701.062 194.573 701.561 195.099V197.597C701.035 198.191 700.468 198.42 699.901 198.42C699.577 198.42 699.32 198.326 699.145 198.15ZM711.397 198.42H710.169C709.71 198.42 709.386 198.353 709.197 198.15C708.981 197.948 708.9 197.61 708.9 197.07V194.289H711.397V192.899C711.397 192.804 711.343 192.75 711.249 192.75H708.9V190.698C708.9 190.604 708.846 190.55 708.751 190.55H707.118V192.75H705.511V194.141C705.511 194.235 705.565 194.289 705.66 194.289H707.118V197.111C707.118 199.19 708.252 200 710.088 200H711.249C711.33 200 711.397 199.932 711.397 199.851V198.42ZM714.2 200H715.833V195.221C716.414 194.613 717.143 194.303 717.71 194.303C718.196 194.303 718.412 194.546 718.412 195.045V199.851C718.412 199.946 718.466 200 718.56 200H720.194V194.681C720.194 193.398 719.451 192.588 718.277 192.588C717.372 192.588 716.616 193.128 716.09 193.911H715.833V190.023C715.833 189.929 715.779 189.875 715.685 189.875H714.051V199.851C714.051 199.946 714.105 200 714.2 200ZM736.613 195.396C736.613 193.398 735.654 192.615 733.413 192.615C732.401 192.615 731.226 192.899 731.064 193.047C731.037 193.074 731.024 193.115 731.024 193.183V194.573H731.28C731.982 194.343 732.63 194.249 733.413 194.249C734.453 194.249 734.831 194.492 734.831 195.288V195.788H732.617C731.321 195.788 730.497 196.557 730.497 197.718V198.204C730.497 199.352 731.28 200.135 732.509 200.135C733.521 200.135 734.304 199.676 734.682 198.839H734.898C735.087 199.568 735.681 200 736.478 200H737.247C737.342 200 737.396 199.946 737.396 199.851V198.447H737.004C736.869 198.447 736.775 198.42 736.707 198.353C736.64 198.285 736.613 198.177 736.613 198.029V195.396ZM732.279 197.961V197.489C732.279 197.327 732.333 197.178 732.441 197.07C732.549 196.962 732.725 196.895 732.941 196.895H734.831V197.88C734.21 198.366 733.602 198.555 732.941 198.555C732.495 198.555 732.279 198.353 732.279 197.961ZM740.928 200V195.221C741.508 194.613 742.237 194.303 742.804 194.303C743.29 194.303 743.506 194.546 743.506 195.045V199.851C743.506 199.946 743.56 200 743.655 200H745.288V194.681C745.288 193.398 744.546 192.588 743.371 192.588C742.467 192.588 741.711 193.128 741.184 193.911H740.928V192.899C740.928 192.804 740.874 192.75 740.779 192.75H739.146V199.851C739.146 199.946 739.2 200 739.294 200H740.928ZM749.522 192.588C748.145 192.588 747.267 193.56 747.267 195.234V197.516C747.267 199.163 748.145 200.135 749.508 200.135C750.359 200.135 751.061 199.703 751.493 198.947H751.749V199.851C751.749 199.946 751.803 200 751.898 200H753.531V190.023C753.531 189.929 753.477 189.875 753.383 189.875H751.749V193.749H751.493C751.088 193.034 750.44 192.588 749.522 192.588ZM749.333 198.15C749.144 197.961 749.036 197.651 749.036 197.219V195.531C749.036 194.735 749.427 194.303 750.089 194.303C750.656 194.303 751.25 194.573 751.749 195.099V197.597C751.223 198.191 750.656 198.42 750.089 198.42C749.765 198.42 749.508 198.326 749.333 198.15ZM625.496 213.588C623.282 213.588 621.959 214.857 621.959 216.774V217.989C621.959 219.866 623.268 221.162 625.442 221.162C626.724 221.162 627.696 220.824 627.926 220.595C627.953 220.568 627.966 220.527 627.966 220.487V219.016H627.71C627.021 219.326 626.387 219.501 625.604 219.501C624.929 219.501 624.483 219.339 624.2 219.056C623.93 218.786 623.795 218.394 623.795 217.881V216.896C623.795 215.721 624.416 215.249 625.617 215.249C626.4 215.249 627.021 215.424 627.71 215.721H627.966V214.263C627.966 214.223 627.953 214.183 627.912 214.142C627.71 213.939 626.765 213.588 625.496 213.588ZM632.038 213.75H630.404V219.123C630.404 220.365 631.187 221.162 632.308 221.162C633.307 221.162 633.901 220.662 634.414 219.825H634.657V220.851C634.657 220.946 634.711 221 634.805 221H636.425V213.899C636.425 213.804 636.371 213.75 636.277 213.75H634.657V218.516C634.117 219.096 633.523 219.353 632.807 219.353C632.429 219.353 632.186 219.11 632.186 218.691V213.899C632.186 213.804 632.132 213.75 632.038 213.75ZM638.593 219.447V220.851C638.593 220.946 638.647 221 638.742 221H644.29V219.596C644.29 219.501 644.236 219.447 644.142 219.447H642.022V216.221C642.576 215.708 643.251 215.478 643.926 215.478C644.317 215.478 644.601 215.519 644.992 215.627H645.235V213.939C645.235 213.872 645.222 213.831 645.195 213.791C645.087 213.696 644.83 213.615 644.398 213.615C643.332 213.615 642.589 214.223 642.117 215.127H641.928C641.766 214.628 641.496 213.75 641.496 213.75H638.674V215.141C638.674 215.235 638.728 215.289 638.823 215.289H640.24V219.447H638.593ZM648.362 213.75H646.634C647.35 216.099 648.079 218.448 648.794 220.811C648.835 220.932 648.929 221 649.064 221H651.427C652.142 218.651 652.871 216.329 653.587 213.98C653.627 213.858 653.56 213.75 653.425 213.75H651.778C651.305 215.546 650.806 217.287 650.293 219.717H650.036C649.523 217.274 649.051 215.627 648.578 213.953C648.538 213.818 648.47 213.75 648.362 213.75ZM658.536 213.588C656.646 213.588 655.39 214.776 655.39 216.612V218.138C655.39 220.028 656.578 221.162 658.914 221.162C659.994 221.162 661.128 220.892 661.344 220.676C661.384 220.635 661.398 220.608 661.398 220.568V219.218H661.141C660.507 219.447 659.913 219.609 658.927 219.609C658.293 219.609 657.807 219.488 657.496 219.191C657.28 218.961 657.159 218.624 657.159 218.165V217.841H661.425C661.519 217.841 661.573 217.787 661.573 217.706V216.599C661.573 214.776 660.345 213.588 658.536 213.588ZM658.536 215.087C658.968 215.087 659.292 215.181 659.494 215.384C659.737 215.627 659.845 215.991 659.845 216.531V216.734H657.159V216.545C657.159 215.505 657.618 215.087 658.536 215.087ZM666.793 219.461C665.659 219.461 664.93 219.285 664.093 218.907H663.836V220.46C663.836 220.5 663.836 220.527 663.863 220.555C664.079 220.757 665.227 221.122 666.766 221.122C668.845 221.122 669.979 220.325 669.979 218.813C669.979 217.719 669.344 217.085 667.9 216.869L666.59 216.68C665.956 216.572 665.767 216.396 665.767 216.059C665.767 215.573 666.131 215.289 667.198 215.289C668.008 215.289 668.507 215.384 669.263 215.627H669.52V214.183C669.52 214.115 669.506 214.074 669.479 214.047C669.317 213.899 668.534 213.629 667.198 213.629C665.227 213.629 663.998 214.52 663.998 215.978C663.998 216.977 664.633 217.598 665.956 217.814L667.333 218.016C668.062 218.151 668.237 218.34 668.237 218.691C668.237 219.164 667.9 219.461 666.793 219.461Z" fill="#FFF0DD"/>
</g>
<path d="M429.391 50C429.391 48.92 429.371 47.76 429.391 46.76C429.391 44.16 429.291 42.36 428.831 39.1H429.171C430.671 42.96 432.071 46.42 433.531 49.84C433.571 49.98 433.651 50 433.771 50H436.391V36.22C436.391 36.08 436.311 36 436.171 36H434.111V39.04C434.111 41.32 434.171 43.14 434.691 46.72H434.351C432.691 42.38 430.931 38.22 430.171 36.2C430.091 36.02 430.051 36 429.831 36H427.111V49.78C427.111 49.92 427.191 50 427.331 50H429.391ZM440.443 50H449.263V48.16C449.263 48.02 449.183 47.94 449.043 47.94H442.623V43.94H448.143V42.16C448.143 42.02 448.063 41.94 447.923 41.94H442.623V38.06H449.263V36.22C449.263 36.08 449.183 36 449.043 36H439.143V37.84C439.143 37.98 439.223 38.06 439.363 38.06H440.223V49.78C440.223 49.92 440.303 50 440.443 50ZM457.335 35.6C454.455 35.6 452.515 37.26 452.515 40.44V45.56C452.515 48.74 454.455 50.4 457.335 50.4C460.215 50.4 462.155 48.74 462.155 45.56V40.44C462.155 37.26 460.215 35.6 457.335 35.6ZM454.795 45.54V40.46C454.795 38.72 455.575 37.66 457.335 37.66C458.195 37.66 458.755 37.88 459.175 38.3C459.655 38.78 459.875 39.54 459.875 40.46V45.54C459.875 47.28 459.095 48.34 457.335 48.34C456.475 48.34 455.895 48.1 455.495 47.7C454.995 47.22 454.795 46.46 454.795 45.54ZM466.447 42.92V44.88C466.447 45.02 466.527 45.1 466.667 45.1H473.807V43.14C473.807 43 473.727 42.92 473.587 42.92H466.447ZM483.14 42.56V44.34C483.14 44.48 483.22 44.56 483.36 44.56H485.3V47.82C485.3 47.84 484.6 48.28 483.26 48.28C482.44 48.28 481.8 48.06 481.3 47.56C480.78 47.04 480.52 46.26 480.52 45.18V40.94C480.52 38.78 481.64 37.76 483.46 37.76C484.2 37.76 484.78 37.88 485.34 38.16V39.78C485.34 39.92 485.42 40 485.56 40H487.48V37.18C487.48 37.06 487.46 36.96 487.38 36.88C486.72 36.24 485.44 35.6 483.5 35.6C480.06 35.6 478.1 37.7 478.1 40.88V45.24C478.1 48.4 479.86 50.4 483.32 50.4C485.16 50.4 486.78 49.78 487.4 49.16C487.46 49.1 487.46 49.04 487.46 48.96V44.56H488.26V42.78C488.26 42.64 488.18 42.56 488.04 42.56H483.14ZM493.732 50V44.9H495.632C496.272 46.14 496.892 47.4 497.532 48.64C498.092 49.7 498.712 50 499.952 50H500.692C500.832 50 500.912 49.92 500.912 49.78V47.94H500.272C499.892 47.94 499.692 47.8 499.432 47.32C498.932 46.38 498.452 45.52 497.972 44.62C499.432 44.08 500.272 42.84 500.272 41.06V40C500.272 37.54 498.952 36 495.892 36H490.312V37.84C490.312 37.98 490.392 38.06 490.532 38.06H491.392V49.78C491.392 49.92 491.472 50 491.612 50H493.732ZM495.952 38.06C496.652 38.06 497.132 38.24 497.452 38.56C497.772 38.86 497.912 39.32 497.912 39.92V41.04C497.912 42.28 497.272 42.9 495.952 42.9H493.732V38.06H495.952ZM508.504 35.6C505.624 35.6 503.684 37.26 503.684 40.44V45.56C503.684 48.74 505.624 50.4 508.504 50.4C511.384 50.4 513.324 48.74 513.324 45.56V40.44C513.324 37.26 511.384 35.6 508.504 35.6ZM505.964 45.54V40.46C505.964 38.72 506.744 37.66 508.504 37.66C509.364 37.66 509.924 37.88 510.344 38.3C510.824 38.78 511.044 39.54 511.044 40.46V45.54C511.044 47.28 510.264 48.34 508.504 48.34C507.644 48.34 507.064 48.1 506.664 47.7C506.164 47.22 505.964 46.46 505.964 45.54ZM522.496 50V38.06H526.216V36.22C526.216 36.08 526.136 36 525.996 36H516.376V37.84C516.376 37.98 516.456 38.06 516.596 38.06H520.096V49.78C520.096 49.92 520.176 50 520.316 50H522.496ZM529.988 50H538.808V48.16C538.808 48.02 538.728 47.94 538.588 47.94H532.168V43.94H537.688V42.16C537.688 42.02 537.608 41.94 537.468 41.94H532.168V38.06H538.808V36.22C538.808 36.08 538.728 36 538.588 36H528.688V37.84C528.688 37.98 528.768 38.06 528.908 38.06H529.768V49.78C529.768 49.92 529.848 50 529.988 50ZM547.28 35.62C544.34 35.62 542.38 37.18 542.38 39.34V40.2C542.38 41.78 543.06 42.94 545.64 43.72L547.54 44.3C549.12 44.78 549.42 45.16 549.42 45.96V46.58C549.42 47.58 548.52 48.3 546.74 48.3C544.94 48.3 543.74 47.94 542.54 47.06H542.2V48.9C542.2 49.1 542.24 49.18 542.32 49.26C543 49.94 544.66 50.38 546.6 50.38C549.8 50.38 551.66 48.94 551.66 46.62V45.78C551.66 43.94 550.86 43.04 548.38 42.32L546.48 41.74C544.96 41.28 544.62 40.84 544.62 39.92V39.52C544.62 38.3 545.6 37.68 547.28 37.68C548.02 37.68 548.6 37.78 549.1 37.98V39.56C549.1 39.7 549.18 39.78 549.32 39.78H551.28V37.1C551.28 36.94 551.24 36.86 551.14 36.76C550.5 36.12 549.12 35.62 547.28 35.62ZM559.673 35.6C556.793 35.6 554.853 37.26 554.853 40.44V45.56C554.853 48.74 556.793 50.4 559.673 50.4C560.133 50.4 560.593 50.36 560.993 50.26C561.273 50.72 561.533 51.18 561.813 51.68C562.373 52.64 562.913 52.94 564.113 52.94H564.833C564.973 52.94 565.053 52.86 565.053 52.72V50.86H564.413C564.073 50.86 563.913 50.78 563.633 50.4C563.393 50.02 563.193 49.68 562.973 49.34C563.933 48.54 564.493 47.26 564.493 45.56V40.44C564.493 37.26 562.553 35.6 559.673 35.6ZM557.133 45.54V40.46C557.133 38.72 557.913 37.66 559.673 37.66C560.533 37.66 561.093 37.88 561.513 38.3C561.993 38.78 562.213 39.54 562.213 40.46V45.54C562.213 47.28 561.433 48.34 559.673 48.34C558.813 48.34 558.233 48.1 557.833 47.7C557.333 47.22 557.133 46.46 557.133 45.54ZM570.825 50.28C572.325 50.28 573.485 49.6 574.365 48.24H574.705V49.78C574.705 49.92 574.785 50 574.925 50H577.105V36.22C577.105 36.08 577.025 36 576.885 36H574.705V46.42C573.585 47.66 572.525 48.14 571.545 48.14C570.705 48.14 570.185 47.6 570.185 46.64V36.22C570.185 36.08 570.105 36 569.965 36H567.785V46.98C567.785 48.88 568.805 50.28 570.825 50.28ZM581.157 50H589.977V48.16C589.977 48.02 589.897 47.94 589.757 47.94H583.337V43.94H588.857V42.16C588.857 42.02 588.777 41.94 588.637 41.94H583.337V38.06H589.977V36.22C589.977 36.08 589.897 36 589.757 36H579.857V37.84C579.857 37.98 579.937 38.06 580.077 38.06H580.937V49.78C580.937 49.92 581.017 50 581.157 50Z" fill="#DCEEFC"/>
<path d="M157.055 42.56V44.34C157.055 44.48 157.135 44.56 157.275 44.56H159.215V47.82C159.215 47.84 158.515 48.28 157.175 48.28C156.355 48.28 155.715 48.06 155.215 47.56C154.695 47.04 154.435 46.26 154.435 45.18V40.94C154.435 38.78 155.555 37.76 157.375 37.76C158.115 37.76 158.695 37.88 159.255 38.16V39.78C159.255 39.92 159.335 40 159.475 40H161.395V37.18C161.395 37.06 161.375 36.96 161.295 36.88C160.635 36.24 159.355 35.6 157.415 35.6C153.975 35.6 152.015 37.7 152.015 40.88V45.24C152.015 48.4 153.775 50.4 157.235 50.4C159.075 50.4 160.695 49.78 161.315 49.16C161.375 49.1 161.375 49.04 161.375 48.96V44.56H162.175V42.78C162.175 42.64 162.095 42.56 161.955 42.56H157.055ZM167.647 50V44.9H169.547C170.187 46.14 170.807 47.4 171.447 48.64C172.007 49.7 172.627 50 173.867 50H174.607C174.747 50 174.827 49.92 174.827 49.78V47.94H174.187C173.807 47.94 173.607 47.8 173.347 47.32C172.847 46.38 172.367 45.52 171.887 44.62C173.347 44.08 174.187 42.84 174.187 41.06V40C174.187 37.54 172.867 36 169.807 36H164.227V37.84C164.227 37.98 164.307 38.06 164.447 38.06H165.307V49.78C165.307 49.92 165.387 50 165.527 50H167.647ZM169.867 38.06C170.567 38.06 171.047 38.24 171.367 38.56C171.687 38.86 171.827 39.32 171.827 39.92V41.04C171.827 42.28 171.187 42.9 169.867 42.9H167.647V38.06H169.867ZM182.42 35.6C179.54 35.6 177.6 37.26 177.6 40.44V45.56C177.6 48.74 179.54 50.4 182.42 50.4C185.3 50.4 187.24 48.74 187.24 45.56V40.44C187.24 37.26 185.3 35.6 182.42 35.6ZM179.88 45.54V40.46C179.88 38.72 180.66 37.66 182.42 37.66C183.28 37.66 183.84 37.88 184.26 38.3C184.74 38.78 184.96 39.54 184.96 40.46V45.54C184.96 47.28 184.18 48.34 182.42 48.34C181.56 48.34 180.98 48.1 180.58 47.7C180.08 47.22 179.88 46.46 179.88 45.54ZM196.412 50V38.06H200.132V36.22C200.132 36.08 200.052 36 199.912 36H190.292V37.84C190.292 37.98 190.372 38.06 190.512 38.06H194.012V49.78C194.012 49.92 194.092 50 194.232 50H196.412ZM203.904 50H212.724V48.16C212.724 48.02 212.644 47.94 212.504 47.94H206.084V43.94H211.604V42.16C211.604 42.02 211.524 41.94 211.384 41.94H206.084V38.06H212.724V36.22C212.724 36.08 212.644 36 212.504 36H202.604V37.84C202.604 37.98 202.684 38.06 202.824 38.06H203.684V49.78C203.684 49.92 203.764 50 203.904 50ZM221.196 35.62C218.256 35.62 216.296 37.18 216.296 39.34V40.2C216.296 41.78 216.976 42.94 219.556 43.72L221.456 44.3C223.036 44.78 223.336 45.16 223.336 45.96V46.58C223.336 47.58 222.436 48.3 220.656 48.3C218.856 48.3 217.656 47.94 216.456 47.06H216.116V48.9C216.116 49.1 216.156 49.18 216.236 49.26C216.916 49.94 218.576 50.38 220.516 50.38C223.716 50.38 225.576 48.94 225.576 46.62V45.78C225.576 43.94 224.776 43.04 222.296 42.32L220.396 41.74C218.876 41.28 218.536 40.84 218.536 39.92V39.52C218.536 38.3 219.516 37.68 221.196 37.68C221.936 37.68 222.516 37.78 223.016 37.98V39.56C223.016 39.7 223.096 39.78 223.236 39.78H225.196V37.1C225.196 36.94 225.156 36.86 225.056 36.76C224.416 36.12 223.036 35.62 221.196 35.62ZM233.588 35.6C230.708 35.6 228.768 37.26 228.768 40.44V45.56C228.768 48.74 230.708 50.4 233.588 50.4C234.048 50.4 234.508 50.36 234.908 50.26C235.188 50.72 235.448 51.18 235.728 51.68C236.288 52.64 236.828 52.94 238.028 52.94H238.748C238.888 52.94 238.968 52.86 238.968 52.72V50.86H238.328C237.988 50.86 237.828 50.78 237.548 50.4C237.308 50.02 237.108 49.68 236.888 49.34C237.848 48.54 238.408 47.26 238.408 45.56V40.44C238.408 37.26 236.468 35.6 233.588 35.6ZM231.048 45.54V40.46C231.048 38.72 231.828 37.66 233.588 37.66C234.448 37.66 235.008 37.88 235.428 38.3C235.908 38.78 236.128 39.54 236.128 40.46V45.54C236.128 47.28 235.348 48.34 233.588 48.34C232.728 48.34 232.148 48.1 231.748 47.7C231.248 47.22 231.048 46.46 231.048 45.54ZM244.74 50.28C246.24 50.28 247.4 49.6 248.28 48.24H248.62V49.78C248.62 49.92 248.7 50 248.84 50H251.02V36.22C251.02 36.08 250.94 36 250.8 36H248.62V46.42C247.5 47.66 246.44 48.14 245.46 48.14C244.62 48.14 244.1 47.6 244.1 46.64V36.22C244.1 36.08 244.02 36 243.88 36H241.7V46.98C241.7 48.88 242.72 50.28 244.74 50.28ZM255.073 50H263.893V48.16C263.893 48.02 263.813 47.94 263.673 47.94H257.253V43.94H262.773V42.16C262.773 42.02 262.693 41.94 262.553 41.94H257.253V38.06H263.893V36.22C263.893 36.08 263.813 36 263.673 36H253.773V37.84C253.773 37.98 253.853 38.06 253.993 38.06H254.853V49.78C254.853 49.92 254.933 50 255.073 50Z" fill="#DCEEFC"/>
<path d="M496.052 84.1172C511.379 84.1172 524.76 87.888 536.194 95.4298C542.397 99.6872 548.723 105.891 555.17 114.041V89.4086H585.458V267.126C585.458 291.941 581.809 311.525 574.511 325.878C560.887 352.396 535.16 365.655 497.33 365.655C476.286 365.655 458.587 360.911 444.233 351.423C429.88 342.057 421.851 327.338 420.148 307.267H453.539C455.12 316.025 458.283 322.777 463.027 327.521C470.447 334.819 482.124 338.468 498.059 338.468C523.239 338.468 539.721 329.588 547.506 311.829C552.129 301.368 554.257 282.696 553.893 255.813C547.324 265.788 539.417 273.208 530.173 278.074C520.928 282.939 508.703 285.372 493.498 285.372C472.332 285.372 453.782 277.891 437.847 262.929C422.034 247.846 414.127 222.97 414.127 188.303C414.127 155.581 422.095 130.037 438.03 111.669C454.086 93.3011 473.427 84.1172 496.052 84.1172ZM555.17 184.471C555.17 160.264 550.183 142.322 540.208 130.645C530.233 118.967 517.522 113.129 502.074 113.129C478.962 113.129 463.148 123.955 454.634 145.607C450.133 157.163 447.883 172.307 447.883 191.04C447.883 213.056 452.322 229.843 461.202 241.399C470.204 252.833 482.246 258.55 497.33 258.55C520.928 258.55 537.532 247.907 547.141 226.619C552.494 214.577 555.17 200.527 555.17 184.471Z" fill="#FFF0DD"/>
<path d="M536.194 95.4298L536.76 94.6053L536.752 94.6001L536.744 94.595L536.194 95.4298ZM555.17 114.041L554.386 114.661L556.17 116.917V114.041H555.17ZM555.17 89.4086V88.4086H554.17V89.4086H555.17ZM585.458 89.4086H586.458V88.4086H585.458V89.4086ZM574.511 325.878L575.4 326.335L575.402 326.332L574.511 325.878ZM444.233 351.423L444.785 350.589L444.78 350.586L444.233 351.423ZM420.148 307.267V306.267H419.06L419.152 307.352L420.148 307.267ZM453.539 307.267L454.523 307.09L454.374 306.267H453.539V307.267ZM463.027 327.521L462.32 328.228L462.326 328.233L463.027 327.521ZM547.506 311.829L546.592 311.425L546.591 311.427L547.506 311.829ZM553.893 255.813L554.892 255.8L554.848 252.544L553.057 255.263L553.893 255.813ZM437.847 262.929L437.157 263.653L437.163 263.658L437.847 262.929ZM438.03 111.669L437.277 111.011L437.274 111.014L438.03 111.669ZM454.634 145.607L453.703 145.241L453.702 145.244L454.634 145.607ZM461.202 241.399L460.409 242.008L460.416 242.017L461.202 241.399ZM547.141 226.619L548.053 227.031L548.055 227.026L547.141 226.619ZM496.052 85.1172C511.207 85.1172 524.391 88.8431 535.643 96.2645L536.744 94.595C525.128 86.9329 511.551 83.1172 496.052 83.1172V85.1172ZM535.628 96.2543C541.724 100.438 547.979 106.562 554.386 114.661L555.954 113.42C549.467 105.22 543.071 98.9364 536.76 94.6053L535.628 96.2543ZM556.17 114.041V89.4086H554.17V114.041H556.17ZM555.17 90.4086H585.458V88.4086H555.17V90.4086ZM584.458 89.4086V267.126H586.458V89.4086H584.458ZM584.458 267.126C584.458 291.86 580.818 311.268 573.619 325.425L575.402 326.332C582.8 311.782 586.458 292.021 586.458 267.126H584.458ZM573.621 325.421C560.217 351.511 534.904 364.655 497.33 364.655V366.655C535.415 366.655 561.557 353.281 575.4 326.335L573.621 325.421ZM497.33 364.655C476.438 364.655 458.942 359.947 444.785 350.589L443.682 352.257C458.232 361.875 476.134 366.655 497.33 366.655V364.655ZM444.78 350.586C430.731 341.418 422.827 327.007 421.145 307.183L419.152 307.352C420.876 327.669 429.028 342.695 443.687 352.26L444.78 350.586ZM420.148 308.267H453.539V306.267H420.148V308.267ZM452.555 307.445C454.161 316.339 457.391 323.299 462.32 328.228L463.734 326.813C459.174 322.254 456.08 315.712 454.523 307.09L452.555 307.445ZM462.326 328.233C470.011 335.793 481.998 339.468 498.059 339.468V337.468C482.251 337.468 470.882 333.845 463.728 326.808L462.326 328.233ZM498.059 339.468C510.76 339.468 521.352 337.23 529.78 332.689C538.225 328.139 544.444 321.307 548.422 312.23L546.591 311.427C542.784 320.111 536.869 326.598 528.832 330.928C520.778 335.267 510.538 337.468 498.059 337.468V339.468ZM548.421 312.233C553.14 301.553 555.257 282.682 554.892 255.8L552.893 255.827C553.258 282.709 551.117 301.182 546.592 311.425L548.421 312.233ZM553.057 255.263C546.568 265.117 538.782 272.412 529.707 277.189L530.638 278.958C540.053 274.004 548.08 266.458 554.728 256.363L553.057 255.263ZM529.707 277.189C520.656 281.952 508.609 284.372 493.498 284.372V286.372C508.797 286.372 521.2 283.926 530.638 278.958L529.707 277.189ZM493.498 284.372C472.596 284.372 454.288 276.994 438.532 262.2L437.163 263.658C453.276 278.788 472.069 286.372 493.498 286.372V284.372ZM438.537 262.206C423.012 247.397 415.127 222.853 415.127 188.303H413.127C413.127 223.088 421.056 248.295 437.157 263.653L438.537 262.206ZM415.127 188.303C415.127 155.738 423.055 130.455 438.785 112.324L437.274 111.014C421.134 129.618 413.127 155.424 413.127 188.303H415.127ZM438.783 112.327C454.666 94.1572 473.74 85.1172 496.052 85.1172V83.1172C473.114 83.1172 453.506 92.4449 437.277 111.011L438.783 112.327ZM556.17 184.471C556.17 160.156 551.165 141.933 540.968 129.995L539.448 131.294C549.2 142.712 554.17 160.373 554.17 184.471H556.17ZM540.968 129.995C530.802 118.094 517.812 112.129 502.074 112.129V114.129C517.231 114.129 529.664 119.841 539.448 131.294L540.968 129.995ZM502.074 112.129C490.358 112.129 480.42 114.874 472.315 120.423C464.211 125.971 458.018 134.269 453.703 145.241L455.564 145.973C459.764 135.292 465.736 127.351 473.445 122.073C481.153 116.796 490.677 114.129 502.074 114.129V112.129ZM453.702 145.244C449.139 156.959 446.883 172.24 446.883 191.04H448.883C448.883 172.374 451.127 157.366 455.565 145.97L453.702 145.244ZM446.883 191.04C446.883 213.17 451.342 230.208 460.409 242.008L461.995 240.79C453.303 229.478 448.883 212.943 448.883 191.04H446.883ZM460.416 242.017C469.615 253.703 481.953 259.55 497.33 259.55V257.55C482.54 257.55 470.792 251.964 461.988 240.78L460.416 242.017ZM497.33 259.55C509.282 259.55 519.529 256.853 528.021 251.409C536.514 245.965 543.183 237.818 548.053 227.031L546.23 226.208C541.49 236.708 535.053 244.526 526.942 249.726C518.83 254.925 508.975 257.55 497.33 257.55V259.55ZM548.055 227.026C553.475 214.831 556.17 200.638 556.17 184.471H554.17C554.17 200.417 551.512 214.323 546.228 226.213L548.055 227.026Z" fill="#FFF0DD"/>
<mask id="mask1_461_99" style="mask-type:alpha" maskUnits="userSpaceOnUse" x="398" y="301" width="203" height="71">
<rect x="399.387" y="302.463" width="200.715" height="68.657" fill="#D9D9D9" stroke="#FFF0DD"/>
</mask>
<g mask="url(#mask1_461_99)">
<path d="M496.052 84.1172C511.379 84.1172 524.76 87.888 536.194 95.4298C542.397 99.6872 548.723 105.891 555.17 114.041V89.4086H585.458V267.126C585.458 291.941 581.809 311.525 574.511 325.878C560.887 352.396 535.16 365.655 497.33 365.655C476.286 365.655 458.587 360.911 444.233 351.423C429.88 342.057 421.851 327.338 420.148 307.267H453.539C455.12 316.025 458.283 322.777 463.027 327.521C470.447 334.819 482.124 338.468 498.059 338.468C523.239 338.468 539.721 329.588 547.506 311.829C552.129 301.368 554.257 282.696 553.893 255.813C547.324 265.788 539.417 273.208 530.173 278.074C520.928 282.939 508.703 285.372 493.498 285.372C472.332 285.372 453.782 277.891 437.847 262.929C422.034 247.846 414.127 222.97 414.127 188.303C414.127 155.581 422.095 130.037 438.03 111.669C454.086 93.3011 473.427 84.1172 496.052 84.1172ZM555.17 184.471C555.17 160.264 550.183 142.322 540.208 130.645C530.233 118.967 517.522 113.129 502.074 113.129C478.962 113.129 463.148 123.955 454.634 145.607C450.133 157.163 447.883 172.307 447.883 191.04C447.883 213.056 452.322 229.843 461.202 241.399C470.204 252.833 482.246 258.55 497.33 258.55C520.928 258.55 537.532 247.907 547.141 226.619C552.494 214.577 555.17 200.527 555.17 184.471Z" fill="#FF5E3A"/>
</g>
<mask id="mask2_461_99" style="mask-type:alpha" maskUnits="userSpaceOnUse" x="517" y="85" width="95" height="67">
<rect x="517.658" y="86.2361" width="93.3272" height="64.3034" fill="#D9D9D9" stroke="#FFF0DD"/>
</mask>
<g mask="url(#mask2_461_99)">
<path d="M496.052 84.1172C511.379 84.1172 524.76 87.888 536.194 95.4298C542.397 99.6872 548.723 105.891 555.17 114.041V89.4086H585.458V267.126C585.458 291.941 581.809 311.525 574.511 325.878C560.887 352.396 535.16 365.655 497.33 365.655C476.286 365.655 458.587 360.911 444.233 351.423C429.88 342.057 421.851 327.338 420.148 307.267H453.539C455.12 316.025 458.283 322.777 463.027 327.521C470.447 334.819 482.124 338.468 498.059 338.468C523.239 338.468 539.721 329.588 547.506 311.829C552.129 301.368 554.257 282.696 553.893 255.813C547.324 265.788 539.417 273.208 530.173 278.074C520.928 282.939 508.703 285.372 493.498 285.372C472.332 285.372 453.782 277.891 437.847 262.929C422.034 247.846 414.127 222.97 414.127 188.303C414.127 155.581 422.095 130.037 438.03 111.669C454.086 93.3011 473.427 84.1172 496.052 84.1172ZM555.17 184.471C555.17 160.264 550.183 142.322 540.208 130.645C530.233 118.967 517.522 113.129 502.074 113.129C478.962 113.129 463.148 123.955 454.634 145.607C450.133 157.163 447.883 172.307 447.883 191.04C447.883 213.056 452.322 229.843 461.202 241.399C470.204 252.833 482.246 258.55 497.33 258.55C520.928 258.55 537.532 247.907 547.141 226.619C552.494 214.577 555.17 200.527 555.17 184.471Z" fill="#FF5E3A"/>
</g>
<path d="M688.444 151.707C688.835 152.098 689.468 152.098 689.859 151.707L696.223 145.343C696.613 144.953 696.613 144.319 696.223 143.929C695.832 143.538 695.199 143.538 694.808 143.929L689.151 149.586L683.495 143.929C683.104 143.538 682.471 143.538 682.08 143.929C681.69 144.319 681.69 144.953 682.08 145.343L688.444 151.707ZM689.151 87.5912H688.151V87.6285L688.154 87.6656L689.151 87.5912ZM643 48C658.531 48 669.796 52.4775 677.174 59.5985C684.552 66.7193 688.151 76.589 688.151 87.5912H690.151C690.151 76.149 686.399 65.723 678.563 58.1594C670.727 50.5959 658.916 46 643 46L643 48ZM688.154 87.6656C689.053 99.7147 688.151 133.575 688.151 151H690.151C690.151 133.726 691.055 99.6619 690.149 87.5168L688.154 87.6656Z" fill="#FF5E3A"/>
</g>
<defs>
<clipPath id="clip0_461_99">
<rect width="813" height="399.955" fill="white"/>
</clipPath>
</defs>
</svg>
