<svg width="1456" height="761" viewBox="0 0 1456 761" fill="none" xmlns="http://www.w3.org/2000/svg">
<rect width="1456" height="761" fill="#013662"/>
<rect x="764" y="70" width="622" height="622" fill="#FFF0DD"/>
<path d="M937.298 220C937.238 220 937.178 219.985 937.118 219.955C937.058 219.925 936.998 219.895 936.938 219.865C936.908 219.805 936.878 219.745 936.848 219.685C936.818 219.625 936.803 219.565 936.803 219.505C936.803 217.195 936.803 214.87 936.803 212.53C936.803 210.19 936.803 207.865 936.803 205.555C936.803 203.245 936.803 200.98 936.803 198.76C936.803 196.51 936.803 194.335 936.803 192.235C936.803 191.605 936.803 190.99 936.803 190.39C936.803 189.76 936.803 189.13 936.803 188.5C937.823 188.5 938.828 188.5 939.818 188.5C940.808 188.5 941.798 188.5 942.788 188.5C942.878 188.5 942.953 188.53 943.013 188.59C943.103 188.62 943.163 188.68 943.193 188.77C943.253 188.83 943.283 188.905 943.283 188.995C943.283 191.095 943.283 193.21 943.283 195.34C943.283 197.47 943.283 199.615 943.283 201.775C943.283 203.905 943.283 206.035 943.283 208.165C943.283 210.295 943.283 212.41 943.283 214.51H951.113C951.893 214.51 952.553 214.615 953.093 214.825C953.663 215.005 954.128 215.32 954.488 215.77C954.848 216.22 955.133 216.79 955.343 217.48C955.583 218.17 955.793 219.01 955.973 220H937.298ZM950.258 211.045C950.858 211.045 951.443 211.045 952.013 211.045C952.583 211.045 953.138 211.045 953.678 211.045C954.248 211.045 954.848 211.045 955.478 211.045C955.568 211.045 955.643 211.075 955.703 211.135C955.793 211.165 955.853 211.225 955.883 211.315C955.943 211.375 955.973 211.45 955.973 211.54C955.973 212.11 955.973 212.755 955.973 213.475C955.973 214.195 955.973 214.96 955.973 215.77C955.973 216.55 955.973 217.315 955.973 218.065C955.973 218.785 955.973 219.43 955.973 220C954.503 219.88 953.348 219.61 952.508 219.19C951.668 218.77 951.083 218.215 950.753 217.525C950.423 216.835 950.258 216.04 950.258 215.14C950.258 214.72 950.258 214.27 950.258 213.79C950.258 213.31 950.258 212.83 950.258 212.35C950.258 211.84 950.258 211.405 950.258 211.045ZM981.209 204.655C981.209 205.405 981.209 206.14 981.209 206.86C981.209 207.55 981.209 208.27 981.209 209.02C981.209 209.74 981.209 210.475 981.209 211.225C981.209 211.945 981.209 212.65 981.209 213.34C981.209 213.58 981.224 213.79 981.254 213.97C981.314 214.15 981.404 214.3 981.524 214.42C981.614 214.51 981.734 214.585 981.884 214.645C982.064 214.675 982.259 214.69 982.469 214.69C982.559 214.69 982.634 214.69 982.694 214.69C982.784 214.69 982.874 214.69 982.964 214.69H983.819C983.819 215.5 983.819 216.31 983.819 217.12C983.819 217.9 983.819 218.695 983.819 219.505C983.819 219.655 983.774 219.775 983.684 219.865C983.594 219.955 983.474 220 983.324 220C983.174 220 982.799 220 982.199 220C981.629 220 981.119 220 980.669 220C979.829 220 979.079 219.865 978.419 219.595C977.759 219.325 977.174 218.95 976.664 218.47C976.154 217.96 975.764 217.36 975.494 216.67C975.224 215.98 975.089 215.2 975.089 214.33C975.089 213.4 975.089 212.455 975.089 211.495C975.089 210.535 975.089 209.59 975.089 208.66C975.089 208.15 975.089 207.67 975.089 207.22C975.089 206.74 975.089 206.26 975.089 205.78C975.089 205.3 975.089 204.82 975.089 204.34C975.089 203.47 974.939 202.795 974.639 202.315C974.339 201.805 973.844 201.445 973.154 201.235C972.494 201.025 971.594 200.92 970.454 200.92C969.614 200.92 968.789 200.965 967.979 201.055C967.199 201.145 966.419 201.265 965.639 201.415C964.889 201.565 964.124 201.775 963.344 202.045H962.489C962.489 201.235 962.489 200.425 962.489 199.615C962.489 198.805 962.489 198.01 962.489 197.23C962.489 197.11 962.504 197.02 962.534 196.96C962.564 196.9 962.594 196.855 962.624 196.825C962.804 196.645 963.299 196.435 964.109 196.195C964.949 195.955 965.939 195.76 967.079 195.61C968.219 195.43 969.344 195.34 970.454 195.34C972.344 195.34 973.964 195.52 975.314 195.88C976.664 196.21 977.774 196.75 978.644 197.5C979.514 198.25 980.159 199.225 980.579 200.425C980.999 201.595 981.209 203.005 981.209 204.655ZM966.809 213.16C966.809 213.79 966.974 214.27 967.304 214.6C967.664 214.9 968.204 215.05 968.924 215.05C969.734 215.05 970.529 214.96 971.309 214.78C972.089 214.6 972.854 214.3 973.604 213.88C974.384 213.46 975.164 212.92 975.944 212.26V216.13H974.594C974.204 217.03 973.649 217.81 972.929 218.47C972.239 219.1 971.429 219.595 970.499 219.955C969.569 220.285 968.549 220.45 967.439 220.45C966.059 220.45 964.859 220.18 963.839 219.64C962.849 219.1 962.084 218.35 961.544 217.39C961.004 216.4 960.734 215.26 960.734 213.97V212.395C960.734 211.405 960.899 210.52 961.229 209.74C961.559 208.96 962.024 208.285 962.624 207.715C963.254 207.145 964.004 206.71 964.874 206.41C965.744 206.08 966.719 205.915 967.799 205.915C968.849 205.915 969.869 205.915 970.859 205.915C971.879 205.915 972.839 205.915 973.739 205.915C974.669 205.915 975.539 205.915 976.349 205.915C976.619 205.915 976.814 206.155 976.934 206.635C977.084 207.115 977.174 207.655 977.204 208.255C977.234 208.825 977.249 209.305 977.249 209.695C976.289 209.695 975.359 209.695 974.459 209.695C973.559 209.695 972.644 209.695 971.714 209.695C970.814 209.695 969.884 209.695 968.924 209.695C968.564 209.695 968.249 209.74 967.979 209.83C967.739 209.92 967.529 210.055 967.349 210.235C967.199 210.415 967.064 210.625 966.944 210.865C966.854 211.075 966.809 211.315 966.809 211.585V213.16ZM994.287 200.11H996.087C996.447 199 996.867 198.1 997.347 197.41C997.827 196.69 998.412 196.165 999.102 195.835C999.822 195.505 1000.63 195.34 1001.53 195.34C1002.01 195.34 1002.4 195.385 1002.7 195.475C1003.03 195.565 1003.26 195.655 1003.38 195.745C1003.5 195.835 1003.57 195.925 1003.6 196.015C1003.63 196.075 1003.65 196.18 1003.65 196.33C1003.65 196.81 1003.65 197.29 1003.65 197.77C1003.65 198.22 1003.65 198.67 1003.65 199.12C1003.65 199.57 1003.65 200.035 1003.65 200.515C1003.65 200.965 1003.65 201.43 1003.65 201.91H1002.79C1002.49 201.82 1002.16 201.745 1001.8 201.685C1001.44 201.625 1001.04 201.595 1000.59 201.595C999.657 201.595 998.832 201.775 998.112 202.135C997.422 202.495 996.777 203.005 996.177 203.665C995.577 204.295 994.947 205.045 994.287 205.915V200.11ZM995.142 220C994.482 220 993.807 220 993.117 220C992.457 220 991.797 220 991.137 220C990.477 220 989.817 220 989.157 220C989.067 220 988.992 220 988.932 220C988.872 219.97 988.812 219.94 988.752 219.91C988.722 219.85 988.692 219.79 988.662 219.73C988.662 219.67 988.662 219.595 988.662 219.505C988.662 218.395 988.662 217.225 988.662 215.995C988.662 214.735 988.662 213.445 988.662 212.125C988.662 210.805 988.662 209.485 988.662 208.165C988.662 206.815 988.662 205.48 988.662 204.16C988.662 202.81 988.662 201.49 988.662 200.2C988.662 199.36 988.662 198.565 988.662 197.815C988.662 197.065 988.662 196.39 988.662 195.79C989.412 195.79 990.117 195.79 990.777 195.79C991.467 195.79 992.127 195.79 992.757 195.79C993.417 195.79 994.047 195.79 994.647 195.79C994.767 195.79 994.857 195.82 994.917 195.88C994.977 195.91 995.022 195.955 995.052 196.015C995.112 196.075 995.142 196.165 995.142 196.285C995.142 197.665 995.142 199.12 995.142 200.65C995.142 202.18 995.142 203.74 995.142 205.33C995.142 206.92 995.142 208.555 995.142 210.235C995.142 211.885 995.142 213.535 995.142 215.185C995.142 216.805 995.142 218.41 995.142 220ZM1009.56 216.535C1009.56 215.845 1009.68 215.23 1009.92 214.69C1010.16 214.12 1010.54 213.625 1011.05 213.205C1011.59 212.785 1012.26 212.455 1013.07 212.215V210.775L1015.91 211.855C1015.82 212.305 1015.74 212.77 1015.68 213.25C1015.65 213.7 1015.64 214.18 1015.64 214.69C1015.64 215.05 1015.71 215.305 1015.86 215.455C1016.01 215.575 1016.27 215.635 1016.63 215.635H1022.43C1024.2 215.635 1025.66 215.935 1026.8 216.535C1027.94 217.135 1028.78 217.975 1029.32 219.055C1029.89 220.105 1030.17 221.32 1030.17 222.7V224.365C1030.17 225.385 1030.01 226.315 1029.68 227.155C1029.38 227.995 1028.9 228.715 1028.24 229.315C1027.58 229.945 1026.75 230.425 1025.76 230.755C1024.8 231.085 1023.66 231.25 1022.34 231.25H1013.16C1011.6 231.25 1010.3 231.04 1009.25 230.62C1008.23 230.23 1007.45 229.645 1006.91 228.865C1006.4 228.115 1006.14 227.17 1006.14 226.03V225.22C1006.14 224.32 1006.32 223.525 1006.68 222.835C1007.07 222.145 1007.61 221.575 1008.3 221.125C1008.99 220.675 1009.8 220.375 1010.73 220.225V218.515L1014.06 220.54C1013.55 220.69 1013.16 220.9 1012.89 221.17C1012.65 221.44 1012.46 221.74 1012.31 222.07C1012.19 222.43 1012.13 222.835 1012.13 223.285V224.68C1012.13 225.19 1012.2 225.61 1012.35 225.94C1012.53 226.27 1012.8 226.51 1013.16 226.66C1013.52 226.81 1014 226.885 1014.6 226.885H1021.71C1022.16 226.885 1022.54 226.825 1022.84 226.705C1023.14 226.615 1023.38 226.48 1023.56 226.3C1023.77 226.09 1023.92 225.805 1024.01 225.445C1024.1 225.115 1024.14 224.74 1024.14 224.32V223.105C1024.14 222.265 1023.96 221.665 1023.6 221.305C1023.24 220.945 1022.61 220.765 1021.71 220.765H1013.61C1012.92 220.765 1012.26 220.57 1011.63 220.18C1011.03 219.82 1010.54 219.31 1010.15 218.65C1009.76 217.99 1009.56 217.285 1009.56 216.535ZM1020.32 200.245L1024.55 199.93V201.145C1025.6 201.505 1026.36 202 1026.84 202.63C1027.32 203.26 1027.56 204.085 1027.56 205.105V205.78C1027.56 207.1 1027.19 208.225 1026.44 209.155C1025.72 210.085 1024.61 210.82 1023.11 211.36C1021.64 211.87 1019.79 212.125 1017.57 212.125C1015.35 212.125 1013.46 211.825 1011.9 211.225C1010.37 210.595 1009.22 209.695 1008.44 208.525C1007.66 207.355 1007.27 205.96 1007.27 204.34V203.35C1007.27 201.7 1007.66 200.29 1008.44 199.12C1009.22 197.92 1010.37 197.005 1011.9 196.375C1013.46 195.715 1015.35 195.385 1017.57 195.385C1019.61 195.385 1021.65 195.385 1023.69 195.385C1025.73 195.385 1027.77 195.385 1029.81 195.385C1029.81 196.135 1029.81 196.9 1029.81 197.68C1029.81 198.43 1029.81 199.195 1029.81 199.975C1029.81 200.095 1029.77 200.215 1029.68 200.335C1029.59 200.425 1029.47 200.47 1029.32 200.47C1028.03 200.47 1026.77 200.47 1025.54 200.47C1024.31 200.47 1023.05 200.47 1021.76 200.47C1020.47 200.47 1019.07 200.47 1017.57 200.47C1016.13 200.47 1015.04 200.725 1014.29 201.235C1013.54 201.745 1013.16 202.54 1013.16 203.62V204.385C1013.16 204.835 1013.22 205.21 1013.34 205.51C1013.49 205.81 1013.69 206.095 1013.93 206.365C1014.29 206.725 1014.77 206.995 1015.37 207.175C1015.97 207.355 1016.7 207.445 1017.57 207.445C1019.01 207.445 1020.06 207.19 1020.72 206.68C1021.38 206.14 1021.71 205.33 1021.71 204.25V203.305C1021.71 202.885 1021.67 202.51 1021.58 202.18C1021.49 201.82 1021.34 201.49 1021.13 201.19C1020.95 200.89 1020.68 200.575 1020.32 200.245ZM1044.27 195.25C1046.31 195.25 1048.08 195.67 1049.58 196.51C1051.11 197.35 1052.3 198.52 1053.14 200.02C1053.98 201.52 1054.4 203.275 1054.4 205.285V209.02C1054.4 209.11 1054.38 209.2 1054.35 209.29C1054.32 209.35 1054.26 209.395 1054.17 209.425C1054.11 209.455 1054.04 209.47 1053.95 209.47H1043.6C1043.09 209.47 1042.56 209.47 1042.02 209.47C1041.51 209.47 1041 209.47 1040.49 209.47H1038.65L1038.51 205.69H1048.5C1048.5 205.57 1048.5 205.465 1048.5 205.375C1048.5 205.285 1048.5 205.18 1048.5 205.06C1048.5 204.19 1048.41 203.455 1048.23 202.855C1048.05 202.225 1047.77 201.73 1047.38 201.37C1047.05 201.01 1046.63 200.755 1046.12 200.605C1045.61 200.455 1044.99 200.38 1044.27 200.38C1042.77 200.38 1041.65 200.755 1040.9 201.505C1040.18 202.225 1039.82 203.41 1039.82 205.06V210.55C1039.82 211.27 1039.91 211.915 1040.09 212.485C1040.3 213.025 1040.58 213.49 1040.94 213.88C1041.42 214.36 1042.05 214.705 1042.83 214.915C1043.64 215.125 1044.57 215.23 1045.62 215.23C1046.7 215.23 1047.66 215.185 1048.5 215.095C1049.34 214.975 1050.12 214.825 1050.84 214.645C1051.56 214.435 1052.27 214.21 1052.96 213.97H1053.81C1053.81 214.72 1053.81 215.485 1053.81 216.265C1053.81 217.015 1053.81 217.78 1053.81 218.56C1053.81 218.62 1053.8 218.68 1053.77 218.74C1053.74 218.8 1053.69 218.86 1053.63 218.92C1053.39 219.16 1052.85 219.4 1052.01 219.64C1051.2 219.88 1050.21 220.09 1049.04 220.27C1047.9 220.45 1046.73 220.54 1045.53 220.54C1043.58 220.54 1041.86 220.315 1040.36 219.865C1038.89 219.385 1037.66 218.71 1036.67 217.84C1035.71 216.97 1034.97 215.92 1034.46 214.69C1033.98 213.43 1033.74 212.02 1033.74 210.46V205.33C1033.74 203.8 1033.98 202.42 1034.46 201.19C1034.97 199.96 1035.69 198.91 1036.62 198.04C1037.55 197.14 1038.66 196.45 1039.95 195.97C1041.24 195.49 1042.68 195.25 1044.27 195.25ZM1083.21 214.555C1085.01 214.555 1086.24 214.36 1086.9 213.97C1087.56 213.55 1087.89 213.07 1087.89 212.53C1087.89 212.2 1087.8 211.9 1087.62 211.63C1087.47 211.36 1087.19 211.135 1086.77 210.955C1086.38 210.745 1085.81 210.58 1085.06 210.46L1080.42 209.785C1078.98 209.545 1077.78 209.14 1076.82 208.57C1075.86 207.97 1075.14 207.22 1074.66 206.32C1074.21 205.42 1073.99 204.415 1073.99 203.305C1073.99 202.045 1074.23 200.935 1074.71 199.975C1075.22 198.985 1075.95 198.145 1076.91 197.455C1077.87 196.765 1079.06 196.24 1080.47 195.88C1081.88 195.52 1083.48 195.34 1085.28 195.34C1086.24 195.34 1087.13 195.385 1087.94 195.475C1088.75 195.535 1089.48 195.625 1090.14 195.745C1090.8 195.865 1091.39 196 1091.9 196.15C1092.11 196.21 1092.26 196.285 1092.35 196.375C1092.47 196.435 1092.53 196.525 1092.53 196.645C1092.56 196.765 1092.57 196.945 1092.57 197.185C1092.57 197.815 1092.57 198.61 1092.57 199.57C1092.57 200.5 1092.57 201.37 1092.57 202.18H1091.76C1090.95 201.97 1090.17 201.79 1089.42 201.64C1088.67 201.49 1087.91 201.385 1087.13 201.325C1086.35 201.265 1085.52 201.235 1084.65 201.235C1083.45 201.235 1082.51 201.325 1081.82 201.505C1081.16 201.655 1080.69 201.865 1080.42 202.135C1080.15 202.405 1080.02 202.72 1080.02 203.08C1080.02 203.41 1080.09 203.71 1080.24 203.98C1080.42 204.22 1080.71 204.415 1081.1 204.565C1081.49 204.715 1082.03 204.85 1082.72 204.97L1086.95 205.6C1088.42 205.78 1089.66 206.17 1090.68 206.77C1091.7 207.34 1092.48 208.105 1093.02 209.065C1093.59 209.995 1093.88 211.12 1093.88 212.44C1093.88 214.06 1093.46 215.47 1092.62 216.67C1091.81 217.87 1090.61 218.8 1089.02 219.46C1087.43 220.12 1085.48 220.45 1083.17 220.45C1082.09 220.45 1081.08 220.405 1080.15 220.315C1079.22 220.255 1078.35 220.15 1077.54 220C1076.76 219.88 1076.06 219.73 1075.43 219.55C1074.8 219.37 1074.26 219.175 1073.81 218.965C1073.63 218.905 1073.51 218.83 1073.45 218.74C1073.42 218.65 1073.4 218.485 1073.4 218.245C1073.4 217.555 1073.4 216.73 1073.4 215.77C1073.4 214.81 1073.4 213.88 1073.4 212.98H1074.21C1074.93 213.28 1075.62 213.535 1076.28 213.745C1076.97 213.925 1077.66 214.075 1078.35 214.195C1079.07 214.315 1079.82 214.405 1080.6 214.465C1081.41 214.525 1082.28 214.555 1083.21 214.555ZM1096.86 195.79H1114.23C1114.41 195.79 1114.55 195.835 1114.64 195.925C1114.73 196.015 1114.77 196.135 1114.77 196.285C1114.77 196.915 1114.77 197.5 1114.77 198.04C1114.77 198.58 1114.77 199.135 1114.77 199.705C1114.77 200.275 1114.77 200.86 1114.77 201.46H1097.4C1097.34 201.46 1097.28 201.445 1097.22 201.415C1097.16 201.385 1097.1 201.355 1097.04 201.325C1096.98 201.265 1096.94 201.205 1096.91 201.145C1096.88 201.085 1096.86 201.025 1096.86 200.965C1096.86 200.365 1096.86 199.78 1096.86 199.21C1096.86 198.64 1096.86 198.085 1096.86 197.545C1096.86 197.005 1096.86 196.42 1096.86 195.79ZM1114.77 214.195C1114.77 215.095 1114.77 215.995 1114.77 216.895C1114.77 217.765 1114.77 218.635 1114.77 219.505C1114.77 219.625 1114.73 219.745 1114.64 219.865C1114.55 219.955 1114.43 220 1114.28 220C1113.98 220 1113.66 220 1113.33 220C1113.03 220 1112.72 220 1112.39 220C1112.09 220 1111.79 220 1111.49 220C1111.19 220 1110.87 220 1110.54 220C1108.98 220 1107.59 219.82 1106.36 219.46C1105.13 219.07 1104.08 218.485 1103.21 217.705C1102.34 216.925 1101.68 215.92 1101.23 214.69C1100.78 213.46 1100.55 212.005 1100.55 210.325C1100.55 208.855 1100.55 207.4 1100.55 205.96C1100.55 204.52 1100.55 203.08 1100.55 201.64C1100.55 200.2 1100.55 198.76 1100.55 197.32C1100.55 195.88 1100.55 194.44 1100.55 193C1100.55 192.22 1100.55 191.47 1100.55 190.75C1100.55 190 1100.55 189.25 1100.55 188.5C1101.48 188.5 1102.41 188.5 1103.34 188.5C1104.3 188.5 1105.23 188.5 1106.13 188.5C1106.22 188.5 1106.3 188.53 1106.36 188.59C1106.45 188.62 1106.51 188.68 1106.54 188.77C1106.6 188.83 1106.63 188.905 1106.63 188.995C1106.63 190.735 1106.63 192.475 1106.63 194.215C1106.63 195.925 1106.63 197.65 1106.63 199.39C1106.63 201.13 1106.63 202.87 1106.63 204.61C1106.63 206.32 1106.63 208.045 1106.63 209.785C1106.63 210.685 1106.72 211.42 1106.9 211.99C1107.08 212.56 1107.35 213.025 1107.71 213.385C1108.04 213.685 1108.44 213.895 1108.92 214.015C1109.43 214.135 1110.05 214.195 1110.77 214.195C1111.16 214.195 1111.53 214.195 1111.89 214.195C1112.28 214.195 1112.67 214.195 1113.06 214.195C1113.45 214.195 1113.84 214.195 1114.23 214.195H1114.77ZM1126.56 200.11H1128.36C1128.72 199 1129.14 198.1 1129.62 197.41C1130.1 196.69 1130.69 196.165 1131.38 195.835C1132.1 195.505 1132.91 195.34 1133.81 195.34C1134.29 195.34 1134.68 195.385 1134.98 195.475C1135.31 195.565 1135.53 195.655 1135.65 195.745C1135.77 195.835 1135.85 195.925 1135.88 196.015C1135.91 196.075 1135.92 196.18 1135.92 196.33C1135.92 196.81 1135.92 197.29 1135.92 197.77C1135.92 198.22 1135.92 198.67 1135.92 199.12C1135.92 199.57 1135.92 200.035 1135.92 200.515C1135.92 200.965 1135.92 201.43 1135.92 201.91H1135.07C1134.77 201.82 1134.44 201.745 1134.08 201.685C1133.72 201.625 1133.31 201.595 1132.86 201.595C1131.93 201.595 1131.11 201.775 1130.39 202.135C1129.7 202.495 1129.05 203.005 1128.45 203.665C1127.85 204.295 1127.22 205.045 1126.56 205.915V200.11ZM1127.42 220C1126.76 220 1126.08 220 1125.39 220C1124.73 220 1124.07 220 1123.41 220C1122.75 220 1122.09 220 1121.43 220C1121.34 220 1121.27 220 1121.21 220C1121.15 219.97 1121.09 219.94 1121.03 219.91C1121 219.85 1120.97 219.79 1120.94 219.73C1120.94 219.67 1120.94 219.595 1120.94 219.505C1120.94 218.395 1120.94 217.225 1120.94 215.995C1120.94 214.735 1120.94 213.445 1120.94 212.125C1120.94 210.805 1120.94 209.485 1120.94 208.165C1120.94 206.815 1120.94 205.48 1120.94 204.16C1120.94 202.81 1120.94 201.49 1120.94 200.2C1120.94 199.36 1120.94 198.565 1120.94 197.815C1120.94 197.065 1120.94 196.39 1120.94 195.79C1121.69 195.79 1122.39 195.79 1123.05 195.79C1123.74 195.79 1124.4 195.79 1125.03 195.79C1125.69 195.79 1126.32 195.79 1126.92 195.79C1127.04 195.79 1127.13 195.82 1127.19 195.88C1127.25 195.91 1127.3 195.955 1127.33 196.015C1127.39 196.075 1127.42 196.165 1127.42 196.285C1127.42 197.665 1127.42 199.12 1127.42 200.65C1127.42 202.18 1127.42 203.74 1127.42 205.33C1127.42 206.92 1127.42 208.555 1127.42 210.235C1127.42 211.885 1127.42 213.535 1127.42 215.185C1127.42 216.805 1127.42 218.41 1127.42 220ZM1150.84 195.25C1152.46 195.25 1153.93 195.505 1155.25 196.015C1156.6 196.525 1157.75 197.245 1158.71 198.175C1159.67 199.075 1160.41 200.155 1160.92 201.415C1161.46 202.675 1161.73 204.07 1161.73 205.6V210.145C1161.73 212.185 1161.26 213.985 1160.33 215.545C1159.43 217.105 1158.16 218.335 1156.51 219.235C1154.89 220.105 1153 220.54 1150.84 220.54C1149.22 220.54 1147.73 220.285 1146.38 219.775C1145.06 219.265 1143.92 218.56 1142.96 217.66C1142 216.73 1141.25 215.635 1140.71 214.375C1140.2 213.115 1139.95 211.72 1139.95 210.19V205.645C1139.95 203.605 1140.4 201.805 1141.3 200.245C1142.23 198.685 1143.52 197.47 1145.17 196.6C1146.82 195.7 1148.71 195.25 1150.84 195.25ZM1150.88 200.785C1149.86 200.785 1148.99 200.995 1148.27 201.415C1147.55 201.805 1147 202.39 1146.61 203.17C1146.22 203.92 1146.02 204.835 1146.02 205.915V209.875C1146.02 210.715 1146.14 211.465 1146.38 212.125C1146.62 212.755 1146.95 213.31 1147.37 213.79C1147.76 214.18 1148.24 214.48 1148.81 214.69C1149.41 214.9 1150.07 215.005 1150.79 215.005C1151.81 215.005 1152.68 214.81 1153.4 214.42C1154.15 214 1154.71 213.4 1155.07 212.62C1155.46 211.84 1155.65 210.925 1155.65 209.875V205.915C1155.65 204.985 1155.55 204.205 1155.34 203.575C1155.13 202.915 1154.81 202.375 1154.39 201.955C1154 201.535 1153.51 201.235 1152.91 201.055C1152.34 200.875 1151.66 200.785 1150.88 200.785ZM1173.81 220C1173.15 220 1172.52 220 1171.92 220C1171.35 220 1170.75 220 1170.12 220C1169.52 220 1168.89 220 1168.23 220C1168.14 220 1168.05 219.985 1167.96 219.955C1167.9 219.895 1167.84 219.835 1167.78 219.775C1167.75 219.715 1167.74 219.625 1167.74 219.505C1167.74 217.105 1167.74 214.705 1167.74 212.305C1167.74 209.905 1167.74 207.505 1167.74 205.105C1167.74 202.675 1167.74 200.26 1167.74 197.86C1167.74 195.46 1167.74 193.06 1167.74 190.66C1167.74 189.82 1167.74 189.025 1167.74 188.275C1167.74 187.525 1167.74 186.85 1167.74 186.25C1168.49 186.25 1169.16 186.25 1169.76 186.25C1170.39 186.25 1170.99 186.25 1171.56 186.25C1172.16 186.25 1172.75 186.25 1173.32 186.25C1173.44 186.25 1173.53 186.28 1173.59 186.34C1173.65 186.37 1173.69 186.415 1173.72 186.475C1173.78 186.535 1173.81 186.625 1173.81 186.745C1173.81 189.505 1173.81 192.28 1173.81 195.07C1173.81 197.83 1173.81 200.605 1173.81 203.395C1173.81 206.155 1173.81 208.93 1173.81 211.72C1173.81 214.48 1173.81 217.24 1173.81 220ZM1183.85 220C1183.49 220 1183.22 219.955 1183.04 219.865C1182.86 219.775 1182.68 219.61 1182.5 219.37C1182.38 219.22 1182.21 218.995 1182 218.695C1181.79 218.365 1181.54 218.005 1181.24 217.615C1180.97 217.195 1180.67 216.76 1180.34 216.31C1180.04 215.86 1179.74 215.425 1179.44 215.005C1179.05 214.435 1178.72 213.91 1178.45 213.43C1178.18 212.92 1177.95 212.395 1177.77 211.855C1177.59 211.285 1177.44 210.67 1177.32 210.01H1175.48L1179.21 205.24C1180.47 206.92 1181.72 208.585 1182.95 210.235C1184.21 211.855 1185.45 213.475 1186.68 215.095C1187.94 216.715 1189.2 218.35 1190.46 220C1189.8 220 1189.16 220 1188.53 220C1187.93 220 1187.25 220 1186.5 220C1185.78 220 1184.9 220 1183.85 220ZM1172.96 206.095H1174.67C1174.88 205.465 1175.09 204.895 1175.3 204.385C1175.51 203.875 1175.73 203.395 1175.97 202.945C1176.21 202.495 1176.47 202.075 1176.74 201.685C1177.04 201.295 1177.37 200.89 1177.73 200.47C1178.12 199.99 1178.51 199.525 1178.9 199.075C1179.29 198.625 1179.71 198.13 1180.16 197.59C1180.64 197.05 1181.15 196.45 1181.69 195.79H1188.39C1188.48 195.79 1188.56 195.805 1188.62 195.835C1188.71 195.865 1188.77 195.91 1188.8 195.97C1188.83 196.03 1188.84 196.105 1188.84 196.195C1188.84 196.285 1188.83 196.375 1188.8 196.465C1188.77 196.525 1188.66 196.645 1188.48 196.825C1187.55 197.875 1186.62 198.895 1185.69 199.885C1184.79 200.845 1183.91 201.82 1183.04 202.81C1182.17 203.77 1181.3 204.715 1180.43 205.645C1179.59 206.545 1178.73 207.46 1177.86 208.39C1177.02 209.32 1176.2 210.235 1175.39 211.135C1174.61 212.035 1173.8 212.92 1172.96 213.79V206.095ZM1203.09 195.25C1205.13 195.25 1206.9 195.67 1208.4 196.51C1209.93 197.35 1211.11 198.52 1211.95 200.02C1212.79 201.52 1213.21 203.275 1213.21 205.285V209.02C1213.21 209.11 1213.2 209.2 1213.17 209.29C1213.14 209.35 1213.08 209.395 1212.99 209.425C1212.93 209.455 1212.85 209.47 1212.76 209.47H1202.41C1201.9 209.47 1201.38 209.47 1200.84 209.47C1200.33 209.47 1199.82 209.47 1199.31 209.47H1197.46L1197.33 205.69H1207.32C1207.32 205.57 1207.32 205.465 1207.32 205.375C1207.32 205.285 1207.32 205.18 1207.32 205.06C1207.32 204.19 1207.23 203.455 1207.05 202.855C1206.87 202.225 1206.58 201.73 1206.19 201.37C1205.86 201.01 1205.44 200.755 1204.93 200.605C1204.42 200.455 1203.81 200.38 1203.09 200.38C1201.59 200.38 1200.46 200.755 1199.71 201.505C1198.99 202.225 1198.63 203.41 1198.63 205.06V210.55C1198.63 211.27 1198.72 211.915 1198.9 212.485C1199.11 213.025 1199.4 213.49 1199.76 213.88C1200.24 214.36 1200.87 214.705 1201.65 214.915C1202.46 215.125 1203.39 215.23 1204.44 215.23C1205.52 215.23 1206.48 215.185 1207.32 215.095C1208.16 214.975 1208.94 214.825 1209.66 214.645C1210.38 214.435 1211.08 214.21 1211.77 213.97H1212.63C1212.63 214.72 1212.63 215.485 1212.63 216.265C1212.63 217.015 1212.63 217.78 1212.63 218.56C1212.63 218.62 1212.61 218.68 1212.58 218.74C1212.55 218.8 1212.51 218.86 1212.45 218.92C1212.21 219.16 1211.67 219.4 1210.83 219.64C1210.02 219.88 1209.03 220.09 1207.86 220.27C1206.72 220.45 1205.55 220.54 1204.35 220.54C1202.4 220.54 1200.67 220.315 1199.17 219.865C1197.7 219.385 1196.47 218.71 1195.48 217.84C1194.52 216.97 1193.79 215.92 1193.28 214.69C1192.8 213.43 1192.56 212.02 1192.56 210.46V205.33C1192.56 203.8 1192.8 202.42 1193.28 201.19C1193.79 199.96 1194.51 198.91 1195.44 198.04C1196.37 197.14 1197.48 196.45 1198.77 195.97C1200.06 195.49 1201.5 195.25 1203.09 195.25ZM993.876 260.25C994.986 260.25 995.961 260.325 996.801 260.475C997.641 260.595 998.316 260.76 998.826 260.97C999.366 261.15 999.726 261.33 999.906 261.51C999.966 261.54 999.996 261.6 999.996 261.69C1000.03 261.75 1000.04 261.825 1000.04 261.915C1000.04 262.755 1000.04 263.61 1000.04 264.48C1000.04 265.35 1000.04 266.22 1000.04 267.09H999.186C998.376 266.73 997.536 266.46 996.666 266.28C995.796 266.1 994.851 266.01 993.831 266.01C992.841 266.01 991.956 266.205 991.176 266.595C990.396 266.955 989.796 267.54 989.376 268.35C988.956 269.16 988.746 270.21 988.746 271.5V274.335C988.746 275.295 988.866 276.135 989.106 276.855C989.346 277.545 989.721 278.115 990.231 278.565C990.651 278.985 991.161 279.3 991.761 279.51C992.361 279.69 993.051 279.78 993.831 279.78C994.521 279.78 995.166 279.75 995.766 279.69C996.366 279.6 996.951 279.48 997.521 279.33C998.091 279.18 998.646 278.985 999.186 278.745H1000.04C1000.04 279.615 1000.04 280.485 1000.04 281.355C1000.04 282.225 1000.04 283.095 1000.04 283.965C1000.04 284.025 1000.03 284.085 999.996 284.145C999.996 284.205 999.966 284.265 999.906 284.325C999.756 284.475 999.411 284.655 998.871 284.865C998.361 285.045 997.671 285.195 996.801 285.315C995.961 285.465 994.986 285.54 993.876 285.54C992.076 285.54 990.471 285.3 989.061 284.82C987.651 284.34 986.451 283.635 985.461 282.705C984.471 281.745 983.721 280.59 983.211 279.24C982.701 277.89 982.446 276.36 982.446 274.65V271.41C982.446 269.19 982.926 267.255 983.886 265.605C984.846 263.925 986.181 262.62 987.891 261.69C989.601 260.73 991.596 260.25 993.876 260.25ZM1015.84 260.25C1017.46 260.25 1018.93 260.505 1020.25 261.015C1021.6 261.525 1022.75 262.245 1023.71 263.175C1024.67 264.075 1025.41 265.155 1025.92 266.415C1026.46 267.675 1026.73 269.07 1026.73 270.6V275.145C1026.73 277.185 1026.26 278.985 1025.33 280.545C1024.43 282.105 1023.16 283.335 1021.51 284.235C1019.89 285.105 1018 285.54 1015.84 285.54C1014.22 285.54 1012.73 285.285 1011.38 284.775C1010.06 284.265 1008.92 283.56 1007.96 282.66C1007 281.73 1006.25 280.635 1005.71 279.375C1005.2 278.115 1004.95 276.72 1004.95 275.19V270.645C1004.95 268.605 1005.4 266.805 1006.3 265.245C1007.23 263.685 1008.52 262.47 1010.17 261.6C1011.82 260.7 1013.71 260.25 1015.84 260.25ZM1015.88 265.785C1014.86 265.785 1013.99 265.995 1013.27 266.415C1012.55 266.805 1012 267.39 1011.61 268.17C1011.22 268.92 1011.02 269.835 1011.02 270.915V274.875C1011.02 275.715 1011.14 276.465 1011.38 277.125C1011.62 277.755 1011.95 278.31 1012.37 278.79C1012.76 279.18 1013.24 279.48 1013.81 279.69C1014.41 279.9 1015.07 280.005 1015.79 280.005C1016.81 280.005 1017.68 279.81 1018.4 279.42C1019.15 279 1019.71 278.4 1020.07 277.62C1020.46 276.84 1020.65 275.925 1020.65 274.875V270.915C1020.65 269.985 1020.55 269.205 1020.34 268.575C1020.13 267.915 1019.81 267.375 1019.39 266.955C1019 266.535 1018.51 266.235 1017.91 266.055C1017.34 265.875 1016.66 265.785 1015.88 265.785ZM1053.3 285C1052.31 285 1051.38 285 1050.51 285C1049.67 285 1048.74 285 1047.72 285C1047.63 285 1047.54 284.985 1047.45 284.955C1047.39 284.895 1047.33 284.835 1047.27 284.775C1047.24 284.715 1047.23 284.625 1047.23 284.505C1047.23 282.735 1047.23 280.965 1047.23 279.195C1047.23 277.395 1047.23 275.61 1047.23 273.84C1047.23 272.07 1047.23 270.3 1047.23 268.53C1047.23 267.72 1047.05 267.12 1046.69 266.73C1046.33 266.34 1045.76 266.145 1044.98 266.145C1044.47 266.145 1043.9 266.235 1043.27 266.415C1042.67 266.565 1042.05 266.805 1041.42 267.135C1040.82 267.435 1040.24 267.825 1039.67 268.305C1039.1 268.785 1038.57 269.355 1038.09 270.015V264.705H1039.67C1040.27 263.805 1040.93 263.025 1041.65 262.365C1042.4 261.705 1043.21 261.195 1044.08 260.835C1044.98 260.445 1045.94 260.25 1046.96 260.25C1047.92 260.25 1048.79 260.415 1049.57 260.745C1050.38 261.045 1051.05 261.51 1051.59 262.14C1052.16 262.74 1052.58 263.475 1052.85 264.345C1053.15 265.215 1053.3 266.19 1053.3 267.27C1053.3 268.71 1053.3 270.165 1053.3 271.635C1053.3 273.105 1053.3 274.575 1053.3 276.045C1053.3 277.515 1053.3 279 1053.3 280.5C1053.3 281.25 1053.3 282 1053.3 282.75C1053.3 283.5 1053.3 284.25 1053.3 285ZM1038.81 285C1038.15 285 1037.52 285 1036.92 285C1036.35 285 1035.75 285 1035.12 285C1034.52 285 1033.89 285 1033.23 285C1033.14 285 1033.07 285 1033.01 285C1032.95 284.97 1032.89 284.94 1032.83 284.91C1032.8 284.85 1032.77 284.79 1032.74 284.73C1032.74 284.67 1032.74 284.595 1032.74 284.505C1032.74 282.885 1032.74 281.28 1032.74 279.69C1032.74 278.07 1032.74 276.465 1032.74 274.875C1032.74 273.255 1032.74 271.65 1032.74 270.06C1032.74 268.44 1032.74 266.82 1032.74 265.2C1032.74 264.36 1032.74 263.565 1032.74 262.815C1032.74 262.065 1032.74 261.39 1032.74 260.79C1033.49 260.79 1034.16 260.79 1034.76 260.79C1035.39 260.79 1035.99 260.79 1036.56 260.79C1037.16 260.79 1037.75 260.79 1038.32 260.79C1038.44 260.79 1038.53 260.82 1038.59 260.88C1038.65 260.91 1038.69 260.955 1038.72 261.015C1038.78 261.075 1038.81 261.165 1038.81 261.285C1038.81 263.895 1038.81 266.52 1038.81 269.16C1038.81 271.8 1038.81 274.44 1038.81 277.08C1038.81 279.72 1038.81 282.36 1038.81 285ZM1057.27 260.79H1074.64C1074.82 260.79 1074.95 260.835 1075.04 260.925C1075.13 261.015 1075.18 261.135 1075.18 261.285C1075.18 261.915 1075.18 262.5 1075.18 263.04C1075.18 263.58 1075.18 264.135 1075.18 264.705C1075.18 265.275 1075.18 265.86 1075.18 266.46H1057.81C1057.75 266.46 1057.69 266.445 1057.63 266.415C1057.57 266.385 1057.51 266.355 1057.45 266.325C1057.39 266.265 1057.34 266.205 1057.31 266.145C1057.28 266.085 1057.27 266.025 1057.27 265.965C1057.27 265.365 1057.27 264.78 1057.27 264.21C1057.27 263.64 1057.27 263.085 1057.27 262.545C1057.27 262.005 1057.27 261.42 1057.27 260.79ZM1075.18 279.195C1075.18 280.095 1075.18 280.995 1075.18 281.895C1075.18 282.765 1075.18 283.635 1075.18 284.505C1075.18 284.625 1075.13 284.745 1075.04 284.865C1074.95 284.955 1074.83 285 1074.68 285C1074.38 285 1074.07 285 1073.74 285C1073.44 285 1073.12 285 1072.79 285C1072.49 285 1072.19 285 1071.89 285C1071.59 285 1071.28 285 1070.95 285C1069.39 285 1067.99 284.82 1066.76 284.46C1065.53 284.07 1064.48 283.485 1063.61 282.705C1062.74 281.925 1062.08 280.92 1061.63 279.69C1061.18 278.46 1060.96 277.005 1060.96 275.325C1060.96 273.855 1060.96 272.4 1060.96 270.96C1060.96 269.52 1060.96 268.08 1060.96 266.64C1060.96 265.2 1060.96 263.76 1060.96 262.32C1060.96 260.88 1060.96 259.44 1060.96 258C1060.96 257.22 1060.96 256.47 1060.96 255.75C1060.96 255 1060.96 254.25 1060.96 253.5C1061.89 253.5 1062.82 253.5 1063.75 253.5C1064.71 253.5 1065.64 253.5 1066.54 253.5C1066.63 253.5 1066.7 253.53 1066.76 253.59C1066.85 253.62 1066.91 253.68 1066.94 253.77C1067 253.83 1067.03 253.905 1067.03 253.995C1067.03 255.735 1067.03 257.475 1067.03 259.215C1067.03 260.925 1067.03 262.65 1067.03 264.39C1067.03 266.13 1067.03 267.87 1067.03 269.61C1067.03 271.32 1067.03 273.045 1067.03 274.785C1067.03 275.685 1067.12 276.42 1067.3 276.99C1067.48 277.56 1067.75 278.025 1068.11 278.385C1068.44 278.685 1068.85 278.895 1069.33 279.015C1069.84 279.135 1070.45 279.195 1071.17 279.195C1071.56 279.195 1071.94 279.195 1072.3 279.195C1072.69 279.195 1073.08 279.195 1073.47 279.195C1073.86 279.195 1074.25 279.195 1074.64 279.195H1075.18ZM1086.97 265.11H1088.77C1089.13 264 1089.55 263.1 1090.03 262.41C1090.51 261.69 1091.09 261.165 1091.78 260.835C1092.5 260.505 1093.31 260.34 1094.21 260.34C1094.69 260.34 1095.08 260.385 1095.38 260.475C1095.71 260.565 1095.94 260.655 1096.06 260.745C1096.18 260.835 1096.25 260.925 1096.28 261.015C1096.31 261.075 1096.33 261.18 1096.33 261.33C1096.33 261.81 1096.33 262.29 1096.33 262.77C1096.33 263.22 1096.33 263.67 1096.33 264.12C1096.33 264.57 1096.33 265.035 1096.33 265.515C1096.33 265.965 1096.33 266.43 1096.33 266.91H1095.47C1095.17 266.82 1094.84 266.745 1094.48 266.685C1094.12 266.625 1093.72 266.595 1093.27 266.595C1092.34 266.595 1091.51 266.775 1090.79 267.135C1090.1 267.495 1089.46 268.005 1088.86 268.665C1088.26 269.295 1087.63 270.045 1086.97 270.915V265.11ZM1087.82 285C1087.16 285 1086.49 285 1085.8 285C1085.14 285 1084.48 285 1083.82 285C1083.16 285 1082.5 285 1081.84 285C1081.75 285 1081.67 285 1081.61 285C1081.55 284.97 1081.49 284.94 1081.43 284.91C1081.4 284.85 1081.37 284.79 1081.34 284.73C1081.34 284.67 1081.34 284.595 1081.34 284.505C1081.34 283.395 1081.34 282.225 1081.34 280.995C1081.34 279.735 1081.34 278.445 1081.34 277.125C1081.34 275.805 1081.34 274.485 1081.34 273.165C1081.34 271.815 1081.34 270.48 1081.34 269.16C1081.34 267.81 1081.34 266.49 1081.34 265.2C1081.34 264.36 1081.34 263.565 1081.34 262.815C1081.34 262.065 1081.34 261.39 1081.34 260.79C1082.09 260.79 1082.8 260.79 1083.46 260.79C1084.15 260.79 1084.81 260.79 1085.44 260.79C1086.1 260.79 1086.73 260.79 1087.33 260.79C1087.45 260.79 1087.54 260.82 1087.6 260.88C1087.66 260.91 1087.7 260.955 1087.73 261.015C1087.79 261.075 1087.82 261.165 1087.82 261.285C1087.82 262.665 1087.82 264.12 1087.82 265.65C1087.82 267.18 1087.82 268.74 1087.82 270.33C1087.82 271.92 1087.82 273.555 1087.82 275.235C1087.82 276.885 1087.82 278.535 1087.82 280.185C1087.82 281.805 1087.82 283.41 1087.82 285ZM1119.77 269.655C1119.77 270.405 1119.77 271.14 1119.77 271.86C1119.77 272.55 1119.77 273.27 1119.77 274.02C1119.77 274.74 1119.77 275.475 1119.77 276.225C1119.77 276.945 1119.77 277.65 1119.77 278.34C1119.77 278.58 1119.78 278.79 1119.81 278.97C1119.87 279.15 1119.96 279.3 1120.08 279.42C1120.17 279.51 1120.29 279.585 1120.44 279.645C1120.62 279.675 1120.82 279.69 1121.03 279.69C1121.12 279.69 1121.19 279.69 1121.25 279.69C1121.34 279.69 1121.43 279.69 1121.52 279.69H1122.38C1122.38 280.5 1122.38 281.31 1122.38 282.12C1122.38 282.9 1122.38 283.695 1122.38 284.505C1122.38 284.655 1122.33 284.775 1122.24 284.865C1122.15 284.955 1122.03 285 1121.88 285C1121.73 285 1121.36 285 1120.76 285C1120.19 285 1119.68 285 1119.23 285C1118.39 285 1117.64 284.865 1116.98 284.595C1116.32 284.325 1115.73 283.95 1115.22 283.47C1114.71 282.96 1114.32 282.36 1114.05 281.67C1113.78 280.98 1113.65 280.2 1113.65 279.33C1113.65 278.4 1113.65 277.455 1113.65 276.495C1113.65 275.535 1113.65 274.59 1113.65 273.66C1113.65 273.15 1113.65 272.67 1113.65 272.22C1113.65 271.74 1113.65 271.26 1113.65 270.78C1113.65 270.3 1113.65 269.82 1113.65 269.34C1113.65 268.47 1113.5 267.795 1113.2 267.315C1112.9 266.805 1112.4 266.445 1111.71 266.235C1111.05 266.025 1110.15 265.92 1109.01 265.92C1108.17 265.92 1107.35 265.965 1106.54 266.055C1105.76 266.145 1104.98 266.265 1104.2 266.415C1103.45 266.565 1102.68 266.775 1101.9 267.045H1101.05C1101.05 266.235 1101.05 265.425 1101.05 264.615C1101.05 263.805 1101.05 263.01 1101.05 262.23C1101.05 262.11 1101.06 262.02 1101.09 261.96C1101.12 261.9 1101.15 261.855 1101.18 261.825C1101.36 261.645 1101.86 261.435 1102.67 261.195C1103.51 260.955 1104.5 260.76 1105.64 260.61C1106.78 260.43 1107.9 260.34 1109.01 260.34C1110.9 260.34 1112.52 260.52 1113.87 260.88C1115.22 261.21 1116.33 261.75 1117.2 262.5C1118.07 263.25 1118.72 264.225 1119.14 265.425C1119.56 266.595 1119.77 268.005 1119.77 269.655ZM1105.37 278.16C1105.37 278.79 1105.53 279.27 1105.86 279.6C1106.22 279.9 1106.76 280.05 1107.48 280.05C1108.29 280.05 1109.09 279.96 1109.87 279.78C1110.65 279.6 1111.41 279.3 1112.16 278.88C1112.94 278.46 1113.72 277.92 1114.5 277.26V281.13H1113.15C1112.76 282.03 1112.21 282.81 1111.49 283.47C1110.8 284.1 1109.99 284.595 1109.06 284.955C1108.13 285.285 1107.11 285.45 1106 285.45C1104.62 285.45 1103.42 285.18 1102.4 284.64C1101.41 284.1 1100.64 283.35 1100.1 282.39C1099.56 281.4 1099.29 280.26 1099.29 278.97V277.395C1099.29 276.405 1099.46 275.52 1099.79 274.74C1100.12 273.96 1100.58 273.285 1101.18 272.715C1101.81 272.145 1102.56 271.71 1103.43 271.41C1104.3 271.08 1105.28 270.915 1106.36 270.915C1107.41 270.915 1108.43 270.915 1109.42 270.915C1110.44 270.915 1111.4 270.915 1112.3 270.915C1113.23 270.915 1114.1 270.915 1114.91 270.915C1115.18 270.915 1115.37 271.155 1115.49 271.635C1115.64 272.115 1115.73 272.655 1115.76 273.255C1115.79 273.825 1115.81 274.305 1115.81 274.695C1114.85 274.695 1113.92 274.695 1113.02 274.695C1112.12 274.695 1111.2 274.695 1110.27 274.695C1109.37 274.695 1108.44 274.695 1107.48 274.695C1107.12 274.695 1106.81 274.74 1106.54 274.83C1106.3 274.92 1106.09 275.055 1105.91 275.235C1105.76 275.415 1105.62 275.625 1105.5 275.865C1105.41 276.075 1105.37 276.315 1105.37 276.585V278.16ZM1135.86 279.555C1137.66 279.555 1138.89 279.36 1139.55 278.97C1140.21 278.55 1140.54 278.07 1140.54 277.53C1140.54 277.2 1140.45 276.9 1140.27 276.63C1140.12 276.36 1139.84 276.135 1139.42 275.955C1139.03 275.745 1138.46 275.58 1137.71 275.46L1133.07 274.785C1131.63 274.545 1130.43 274.14 1129.47 273.57C1128.51 272.97 1127.79 272.22 1127.31 271.32C1126.86 270.42 1126.64 269.415 1126.64 268.305C1126.64 267.045 1126.88 265.935 1127.36 264.975C1127.87 263.985 1128.6 263.145 1129.56 262.455C1130.52 261.765 1131.71 261.24 1133.12 260.88C1134.53 260.52 1136.13 260.34 1137.93 260.34C1138.89 260.34 1139.78 260.385 1140.59 260.475C1141.4 260.535 1142.13 260.625 1142.79 260.745C1143.45 260.865 1144.04 261 1144.55 261.15C1144.76 261.21 1144.91 261.285 1145 261.375C1145.12 261.435 1145.18 261.525 1145.18 261.645C1145.21 261.765 1145.22 261.945 1145.22 262.185C1145.22 262.815 1145.22 263.61 1145.22 264.57C1145.22 265.5 1145.22 266.37 1145.22 267.18H1144.41C1143.6 266.97 1142.82 266.79 1142.07 266.64C1141.32 266.49 1140.56 266.385 1139.78 266.325C1139 266.265 1138.17 266.235 1137.3 266.235C1136.1 266.235 1135.16 266.325 1134.47 266.505C1133.81 266.655 1133.34 266.865 1133.07 267.135C1132.8 267.405 1132.67 267.72 1132.67 268.08C1132.67 268.41 1132.74 268.71 1132.89 268.98C1133.07 269.22 1133.36 269.415 1133.75 269.565C1134.14 269.715 1134.68 269.85 1135.37 269.97L1139.6 270.6C1141.07 270.78 1142.31 271.17 1143.33 271.77C1144.35 272.34 1145.13 273.105 1145.67 274.065C1146.24 274.995 1146.53 276.12 1146.53 277.44C1146.53 279.06 1146.11 280.47 1145.27 281.67C1144.46 282.87 1143.26 283.8 1141.67 284.46C1140.08 285.12 1138.13 285.45 1135.82 285.45C1134.74 285.45 1133.73 285.405 1132.8 285.315C1131.87 285.255 1131 285.15 1130.19 285C1129.41 284.88 1128.71 284.73 1128.08 284.55C1127.45 284.37 1126.91 284.175 1126.46 283.965C1126.28 283.905 1126.16 283.83 1126.1 283.74C1126.07 283.65 1126.05 283.485 1126.05 283.245C1126.05 282.555 1126.05 281.73 1126.05 280.77C1126.05 279.81 1126.05 278.88 1126.05 277.98H1126.86C1127.58 278.28 1128.27 278.535 1128.93 278.745C1129.62 278.925 1130.31 279.075 1131 279.195C1131.72 279.315 1132.47 279.405 1133.25 279.465C1134.06 279.525 1134.93 279.555 1135.86 279.555ZM1149.51 260.79H1166.88C1167.06 260.79 1167.19 260.835 1167.28 260.925C1167.37 261.015 1167.42 261.135 1167.42 261.285C1167.42 261.915 1167.42 262.5 1167.42 263.04C1167.42 263.58 1167.42 264.135 1167.42 264.705C1167.42 265.275 1167.42 265.86 1167.42 266.46H1150.05C1149.99 266.46 1149.93 266.445 1149.87 266.415C1149.81 266.385 1149.75 266.355 1149.69 266.325C1149.63 266.265 1149.58 266.205 1149.55 266.145C1149.52 266.085 1149.51 266.025 1149.51 265.965C1149.51 265.365 1149.51 264.78 1149.51 264.21C1149.51 263.64 1149.51 263.085 1149.51 262.545C1149.51 262.005 1149.51 261.42 1149.51 260.79ZM1167.42 279.195C1167.42 280.095 1167.42 280.995 1167.42 281.895C1167.42 282.765 1167.42 283.635 1167.42 284.505C1167.42 284.625 1167.37 284.745 1167.28 284.865C1167.19 284.955 1167.07 285 1166.92 285C1166.62 285 1166.31 285 1165.98 285C1165.68 285 1165.36 285 1165.03 285C1164.73 285 1164.43 285 1164.13 285C1163.83 285 1163.52 285 1163.19 285C1161.63 285 1160.23 284.82 1159 284.46C1157.77 284.07 1156.72 283.485 1155.85 282.705C1154.98 281.925 1154.32 280.92 1153.87 279.69C1153.42 278.46 1153.2 277.005 1153.2 275.325C1153.2 273.855 1153.2 272.4 1153.2 270.96C1153.2 269.52 1153.2 268.08 1153.2 266.64C1153.2 265.2 1153.2 263.76 1153.2 262.32C1153.2 260.88 1153.2 259.44 1153.2 258C1153.2 257.22 1153.2 256.47 1153.2 255.75C1153.2 255 1153.2 254.25 1153.2 253.5C1154.13 253.5 1155.06 253.5 1155.99 253.5C1156.95 253.5 1157.88 253.5 1158.78 253.5C1158.87 253.5 1158.94 253.53 1159 253.59C1159.09 253.62 1159.15 253.68 1159.18 253.77C1159.24 253.83 1159.27 253.905 1159.27 253.995C1159.27 255.735 1159.27 257.475 1159.27 259.215C1159.27 260.925 1159.27 262.65 1159.27 264.39C1159.27 266.13 1159.27 267.87 1159.27 269.61C1159.27 271.32 1159.27 273.045 1159.27 274.785C1159.27 275.685 1159.36 276.42 1159.54 276.99C1159.72 277.56 1159.99 278.025 1160.35 278.385C1160.68 278.685 1161.09 278.895 1161.57 279.015C1162.08 279.135 1162.69 279.195 1163.41 279.195C1163.8 279.195 1164.18 279.195 1164.54 279.195C1164.93 279.195 1165.32 279.195 1165.71 279.195C1166.1 279.195 1166.49 279.195 1166.88 279.195H1167.42Z" fill="#013662"/>
<path d="M986.338 467.5C986.488 467.5 986.608 467.53 986.698 467.59C986.788 467.65 986.863 467.755 986.923 467.905C987.013 468.025 987.103 468.265 987.193 468.625C988.003 472.075 988.708 475.12 989.308 477.76C989.938 480.37 990.478 482.695 990.928 484.735C991.408 486.745 991.843 488.605 992.233 490.315C992.623 492.025 992.998 493.69 993.358 495.31L991.828 494.14H995.338L993.763 495.31C994.033 494.05 994.318 492.745 994.618 491.395C994.948 490.045 995.293 488.605 995.653 487.075C996.043 485.515 996.478 483.805 996.958 481.945C997.438 480.055 997.963 477.925 998.533 475.555C999.133 473.185 999.793 470.5 1000.51 467.5C1001.47 467.5 1002.43 467.5 1003.39 467.5C1004.38 467.5 1005.34 467.5 1006.27 467.5C1006.33 467.5 1006.39 467.515 1006.45 467.545C1006.54 467.575 1006.6 467.635 1006.63 467.725C1006.66 467.815 1006.66 467.935 1006.63 468.085C1006.42 468.865 1006.11 470.05 1005.69 471.64C1005.27 473.2 1004.8 475 1004.29 477.04C1003.78 479.05 1003.26 481.15 1002.72 483.34C1002.18 485.5 1001.64 487.615 1001.1 489.685C1000.59 491.725 1000.12 493.57 999.703 495.22C999.283 496.87 998.953 498.145 998.713 499.045C997.003 499.045 995.308 499.045 993.628 499.045C991.948 499.045 990.463 499.045 989.173 499.045C988.873 499.045 988.663 498.985 988.543 498.865C988.423 498.745 988.303 498.46 988.183 498.01C987.883 496.84 987.553 495.58 987.193 494.23C986.863 492.85 986.503 491.395 986.113 489.865C985.753 488.335 985.363 486.745 984.943 485.095C984.523 483.415 984.088 481.69 983.638 479.92C983.218 478.15 982.768 476.32 982.288 474.43C982.108 473.68 981.913 472.93 981.703 472.18C981.523 471.4 981.328 470.62 981.118 469.84C980.938 469.06 980.743 468.28 980.533 467.5C981.523 467.5 982.513 467.5 983.503 467.5C984.493 467.5 985.438 467.5 986.338 467.5ZM1020.45 474.25C1022.49 474.25 1024.26 474.67 1025.76 475.51C1027.29 476.35 1028.48 477.52 1029.32 479.02C1030.16 480.52 1030.58 482.275 1030.58 484.285V488.02C1030.58 488.11 1030.56 488.2 1030.53 488.29C1030.5 488.35 1030.44 488.395 1030.35 488.425C1030.29 488.455 1030.22 488.47 1030.13 488.47H1019.78C1019.27 488.47 1018.74 488.47 1018.2 488.47C1017.69 488.47 1017.18 488.47 1016.67 488.47H1014.83L1014.69 484.69H1024.68C1024.68 484.57 1024.68 484.465 1024.68 484.375C1024.68 484.285 1024.68 484.18 1024.68 484.06C1024.68 483.19 1024.59 482.455 1024.41 481.855C1024.23 481.225 1023.95 480.73 1023.56 480.37C1023.23 480.01 1022.81 479.755 1022.3 479.605C1021.79 479.455 1021.17 479.38 1020.45 479.38C1018.95 479.38 1017.83 479.755 1017.08 480.505C1016.36 481.225 1016 482.41 1016 484.06V489.55C1016 490.27 1016.09 490.915 1016.27 491.485C1016.48 492.025 1016.76 492.49 1017.12 492.88C1017.6 493.36 1018.23 493.705 1019.01 493.915C1019.82 494.125 1020.75 494.23 1021.8 494.23C1022.88 494.23 1023.84 494.185 1024.68 494.095C1025.52 493.975 1026.3 493.825 1027.02 493.645C1027.74 493.435 1028.45 493.21 1029.14 492.97H1029.99C1029.99 493.72 1029.99 494.485 1029.99 495.265C1029.99 496.015 1029.99 496.78 1029.99 497.56C1029.99 497.62 1029.98 497.68 1029.95 497.74C1029.92 497.8 1029.87 497.86 1029.81 497.92C1029.57 498.16 1029.03 498.4 1028.19 498.64C1027.38 498.88 1026.39 499.09 1025.22 499.27C1024.08 499.45 1022.91 499.54 1021.71 499.54C1019.76 499.54 1018.04 499.315 1016.54 498.865C1015.07 498.385 1013.84 497.71 1012.85 496.84C1011.89 495.97 1011.15 494.92 1010.64 493.69C1010.16 492.43 1009.92 491.02 1009.92 489.46V484.33C1009.92 482.8 1010.16 481.42 1010.64 480.19C1011.15 478.96 1011.87 477.91 1012.8 477.04C1013.73 476.14 1014.84 475.45 1016.13 474.97C1017.42 474.49 1018.86 474.25 1020.45 474.25ZM1042.89 479.11H1044.69C1045.05 478 1045.47 477.1 1045.95 476.41C1046.43 475.69 1047.02 475.165 1047.71 474.835C1048.43 474.505 1049.24 474.34 1050.14 474.34C1050.62 474.34 1051.01 474.385 1051.31 474.475C1051.64 474.565 1051.86 474.655 1051.98 474.745C1052.1 474.835 1052.18 474.925 1052.21 475.015C1052.24 475.075 1052.25 475.18 1052.25 475.33C1052.25 475.81 1052.25 476.29 1052.25 476.77C1052.25 477.22 1052.25 477.67 1052.25 478.12C1052.25 478.57 1052.25 479.035 1052.25 479.515C1052.25 479.965 1052.25 480.43 1052.25 480.91H1051.4C1051.1 480.82 1050.77 480.745 1050.41 480.685C1050.05 480.625 1049.64 480.595 1049.19 480.595C1048.26 480.595 1047.44 480.775 1046.72 481.135C1046.03 481.495 1045.38 482.005 1044.78 482.665C1044.18 483.295 1043.55 484.045 1042.89 484.915V479.11ZM1043.75 499C1043.09 499 1042.41 499 1041.72 499C1041.06 499 1040.4 499 1039.74 499C1039.08 499 1038.42 499 1037.76 499C1037.67 499 1037.6 499 1037.54 499C1037.48 498.97 1037.42 498.94 1037.36 498.91C1037.33 498.85 1037.3 498.79 1037.27 498.73C1037.27 498.67 1037.27 498.595 1037.27 498.505C1037.27 497.395 1037.27 496.225 1037.27 494.995C1037.27 493.735 1037.27 492.445 1037.27 491.125C1037.27 489.805 1037.27 488.485 1037.27 487.165C1037.27 485.815 1037.27 484.48 1037.27 483.16C1037.27 481.81 1037.27 480.49 1037.27 479.2C1037.27 478.36 1037.27 477.565 1037.27 476.815C1037.27 476.065 1037.27 475.39 1037.27 474.79C1038.02 474.79 1038.72 474.79 1039.38 474.79C1040.07 474.79 1040.73 474.79 1041.36 474.79C1042.02 474.79 1042.65 474.79 1043.25 474.79C1043.37 474.79 1043.46 474.82 1043.52 474.88C1043.58 474.91 1043.63 474.955 1043.66 475.015C1043.72 475.075 1043.75 475.165 1043.75 475.285C1043.75 476.665 1043.75 478.12 1043.75 479.65C1043.75 481.18 1043.75 482.74 1043.75 484.33C1043.75 485.92 1043.75 487.555 1043.75 489.235C1043.75 490.885 1043.75 492.535 1043.75 494.185C1043.75 495.805 1043.75 497.41 1043.75 499ZM1056.83 474.79H1074.2C1074.38 474.79 1074.51 474.835 1074.6 474.925C1074.69 475.015 1074.74 475.135 1074.74 475.285C1074.74 475.915 1074.74 476.5 1074.74 477.04C1074.74 477.58 1074.74 478.135 1074.74 478.705C1074.74 479.275 1074.74 479.86 1074.74 480.46H1057.37C1057.31 480.46 1057.25 480.445 1057.19 480.415C1057.13 480.385 1057.07 480.355 1057.01 480.325C1056.95 480.265 1056.9 480.205 1056.87 480.145C1056.84 480.085 1056.83 480.025 1056.83 479.965C1056.83 479.365 1056.83 478.78 1056.83 478.21C1056.83 477.64 1056.83 477.085 1056.83 476.545C1056.83 476.005 1056.83 475.42 1056.83 474.79ZM1074.74 493.195C1074.74 494.095 1074.74 494.995 1074.74 495.895C1074.74 496.765 1074.74 497.635 1074.74 498.505C1074.74 498.625 1074.69 498.745 1074.6 498.865C1074.51 498.955 1074.39 499 1074.24 499C1073.94 499 1073.63 499 1073.3 499C1073 499 1072.68 499 1072.35 499C1072.05 499 1071.75 499 1071.45 499C1071.15 499 1070.84 499 1070.51 499C1068.95 499 1067.55 498.82 1066.32 498.46C1065.09 498.07 1064.04 497.485 1063.17 496.705C1062.3 495.925 1061.64 494.92 1061.19 493.69C1060.74 492.46 1060.52 491.005 1060.52 489.325C1060.52 487.855 1060.52 486.4 1060.52 484.96C1060.52 483.52 1060.52 482.08 1060.52 480.64C1060.52 479.2 1060.52 477.76 1060.52 476.32C1060.52 474.88 1060.52 473.44 1060.52 472C1060.52 471.22 1060.52 470.47 1060.52 469.75C1060.52 469 1060.52 468.25 1060.52 467.5C1061.45 467.5 1062.38 467.5 1063.31 467.5C1064.27 467.5 1065.2 467.5 1066.1 467.5C1066.19 467.5 1066.26 467.53 1066.32 467.59C1066.41 467.62 1066.47 467.68 1066.5 467.77C1066.56 467.83 1066.59 467.905 1066.59 467.995C1066.59 469.735 1066.59 471.475 1066.59 473.215C1066.59 474.925 1066.59 476.65 1066.59 478.39C1066.59 480.13 1066.59 481.87 1066.59 483.61C1066.59 485.32 1066.59 487.045 1066.59 488.785C1066.59 489.685 1066.68 490.42 1066.86 490.99C1067.04 491.56 1067.31 492.025 1067.67 492.385C1068 492.685 1068.41 492.895 1068.89 493.015C1069.4 493.135 1070.01 493.195 1070.73 493.195C1071.12 493.195 1071.5 493.195 1071.86 493.195C1072.25 493.195 1072.64 493.195 1073.03 493.195C1073.42 493.195 1073.81 493.195 1074.2 493.195H1074.74ZM1082.14 498.505C1082.14 497.695 1082.14 496.69 1082.14 495.49C1082.14 494.26 1082.14 492.94 1082.14 491.53C1082.14 490.12 1082.14 488.71 1082.14 487.3C1082.14 485.89 1082.14 484.57 1082.14 483.34C1082.14 482.11 1082.14 481.075 1082.14 480.235H1081.82C1081.64 480.235 1081.43 480.235 1081.19 480.235C1080.98 480.235 1080.74 480.235 1080.47 480.235C1080.23 480.235 1079.98 480.235 1079.71 480.235C1079.47 480.235 1079.23 480.235 1078.99 480.235C1078.84 480.235 1078.72 480.19 1078.63 480.1C1078.54 480.01 1078.49 479.89 1078.49 479.74C1078.49 478.93 1078.49 478.105 1078.49 477.265C1078.49 476.425 1078.49 475.6 1078.49 474.79C1079 474.79 1079.57 474.79 1080.2 474.79C1080.86 474.79 1081.55 474.79 1082.27 474.79C1082.99 474.79 1083.7 474.79 1084.39 474.79C1085.08 474.79 1085.71 474.79 1086.28 474.79C1086.88 474.79 1087.36 474.79 1087.72 474.79C1087.84 474.79 1087.93 474.82 1087.99 474.88C1088.05 474.91 1088.09 474.955 1088.12 475.015C1088.18 475.075 1088.21 475.165 1088.21 475.285C1088.21 476.695 1088.21 478.24 1088.21 479.92C1088.21 481.57 1088.21 483.25 1088.21 484.96C1088.21 486.67 1088.21 488.35 1088.21 490C1088.21 491.65 1088.21 493.195 1088.21 494.635C1088.21 495.085 1088.21 495.565 1088.21 496.075C1088.21 496.555 1088.21 497.035 1088.21 497.515C1088.21 497.995 1088.21 498.49 1088.21 499C1087.22 499 1086.29 499 1085.42 499C1084.58 499 1083.65 499 1082.63 499C1082.48 499 1082.36 498.955 1082.27 498.865C1082.18 498.775 1082.14 498.655 1082.14 498.505ZM1081.06 463.27C1081.63 463.27 1082.21 463.27 1082.81 463.27C1083.44 463.27 1084.07 463.27 1084.7 463.27C1085.36 463.27 1085.99 463.27 1086.59 463.27C1087.22 463.27 1087.82 463.27 1088.39 463.27C1088.54 463.27 1088.66 463.315 1088.75 463.405C1088.84 463.495 1088.89 463.615 1088.89 463.765V469.57C1088.32 469.57 1087.72 469.57 1087.09 469.57C1086.49 469.57 1085.86 469.57 1085.2 469.57C1084.57 469.57 1083.94 469.57 1083.31 469.57C1082.71 469.57 1082.12 469.57 1081.55 469.57C1081.4 469.57 1081.28 469.525 1081.19 469.435C1081.1 469.345 1081.06 469.225 1081.06 469.075V463.27ZM1106.38 474.25C1107.49 474.25 1108.46 474.325 1109.3 474.475C1110.14 474.595 1110.82 474.76 1111.33 474.97C1111.87 475.15 1112.23 475.33 1112.41 475.51C1112.47 475.54 1112.5 475.6 1112.5 475.69C1112.53 475.75 1112.54 475.825 1112.54 475.915C1112.54 476.755 1112.54 477.61 1112.54 478.48C1112.54 479.35 1112.54 480.22 1112.54 481.09H1111.69C1110.88 480.73 1110.04 480.46 1109.17 480.28C1108.3 480.1 1107.35 480.01 1106.33 480.01C1105.34 480.01 1104.46 480.205 1103.68 480.595C1102.9 480.955 1102.3 481.54 1101.88 482.35C1101.46 483.16 1101.25 484.21 1101.25 485.5V488.335C1101.25 489.295 1101.37 490.135 1101.61 490.855C1101.85 491.545 1102.22 492.115 1102.73 492.565C1103.15 492.985 1103.66 493.3 1104.26 493.51C1104.86 493.69 1105.55 493.78 1106.33 493.78C1107.02 493.78 1107.67 493.75 1108.27 493.69C1108.87 493.6 1109.45 493.48 1110.02 493.33C1110.59 493.18 1111.15 492.985 1111.69 492.745H1112.54C1112.54 493.615 1112.54 494.485 1112.54 495.355C1112.54 496.225 1112.54 497.095 1112.54 497.965C1112.54 498.025 1112.53 498.085 1112.5 498.145C1112.5 498.205 1112.47 498.265 1112.41 498.325C1112.26 498.475 1111.91 498.655 1111.37 498.865C1110.86 499.045 1110.17 499.195 1109.3 499.315C1108.46 499.465 1107.49 499.54 1106.38 499.54C1104.58 499.54 1102.97 499.3 1101.56 498.82C1100.15 498.34 1098.95 497.635 1097.96 496.705C1096.97 495.745 1096.22 494.59 1095.71 493.24C1095.2 491.89 1094.95 490.36 1094.95 488.65V485.41C1094.95 483.19 1095.43 481.255 1096.39 479.605C1097.35 477.925 1098.68 476.62 1100.39 475.69C1102.1 474.73 1104.1 474.25 1106.38 474.25ZM1137.79 483.655C1137.79 484.405 1137.79 485.14 1137.79 485.86C1137.79 486.55 1137.79 487.27 1137.79 488.02C1137.79 488.74 1137.79 489.475 1137.79 490.225C1137.79 490.945 1137.79 491.65 1137.79 492.34C1137.79 492.58 1137.8 492.79 1137.83 492.97C1137.89 493.15 1137.98 493.3 1138.1 493.42C1138.19 493.51 1138.31 493.585 1138.46 493.645C1138.64 493.675 1138.84 493.69 1139.05 493.69C1139.14 493.69 1139.21 493.69 1139.27 493.69C1139.36 493.69 1139.45 493.69 1139.54 493.69H1140.4C1140.4 494.5 1140.4 495.31 1140.4 496.12C1140.4 496.9 1140.4 497.695 1140.4 498.505C1140.4 498.655 1140.35 498.775 1140.26 498.865C1140.17 498.955 1140.05 499 1139.9 499C1139.75 499 1139.38 499 1138.78 499C1138.21 499 1137.7 499 1137.25 499C1136.41 499 1135.66 498.865 1135 498.595C1134.34 498.325 1133.75 497.95 1133.24 497.47C1132.73 496.96 1132.34 496.36 1132.07 495.67C1131.8 494.98 1131.67 494.2 1131.67 493.33C1131.67 492.4 1131.67 491.455 1131.67 490.495C1131.67 489.535 1131.67 488.59 1131.67 487.66C1131.67 487.15 1131.67 486.67 1131.67 486.22C1131.67 485.74 1131.67 485.26 1131.67 484.78C1131.67 484.3 1131.67 483.82 1131.67 483.34C1131.67 482.47 1131.52 481.795 1131.22 481.315C1130.92 480.805 1130.42 480.445 1129.73 480.235C1129.07 480.025 1128.17 479.92 1127.03 479.92C1126.19 479.92 1125.37 479.965 1124.56 480.055C1123.78 480.145 1123 480.265 1122.22 480.415C1121.47 480.565 1120.7 480.775 1119.92 481.045H1119.07C1119.07 480.235 1119.07 479.425 1119.07 478.615C1119.07 477.805 1119.07 477.01 1119.07 476.23C1119.07 476.11 1119.08 476.02 1119.11 475.96C1119.14 475.9 1119.17 475.855 1119.2 475.825C1119.38 475.645 1119.88 475.435 1120.69 475.195C1121.53 474.955 1122.52 474.76 1123.66 474.61C1124.8 474.43 1125.92 474.34 1127.03 474.34C1128.92 474.34 1130.54 474.52 1131.89 474.88C1133.24 475.21 1134.35 475.75 1135.22 476.5C1136.09 477.25 1136.74 478.225 1137.16 479.425C1137.58 480.595 1137.79 482.005 1137.79 483.655ZM1123.39 492.16C1123.39 492.79 1123.55 493.27 1123.88 493.6C1124.24 493.9 1124.78 494.05 1125.5 494.05C1126.31 494.05 1127.11 493.96 1127.89 493.78C1128.67 493.6 1129.43 493.3 1130.18 492.88C1130.96 492.46 1131.74 491.92 1132.52 491.26V495.13H1131.17C1130.78 496.03 1130.23 496.81 1129.51 497.47C1128.82 498.1 1128.01 498.595 1127.08 498.955C1126.15 499.285 1125.13 499.45 1124.02 499.45C1122.64 499.45 1121.44 499.18 1120.42 498.64C1119.43 498.1 1118.66 497.35 1118.12 496.39C1117.58 495.4 1117.31 494.26 1117.31 492.97V491.395C1117.31 490.405 1117.48 489.52 1117.81 488.74C1118.14 487.96 1118.6 487.285 1119.2 486.715C1119.83 486.145 1120.58 485.71 1121.45 485.41C1122.32 485.08 1123.3 484.915 1124.38 484.915C1125.43 484.915 1126.45 484.915 1127.44 484.915C1128.46 484.915 1129.42 484.915 1130.32 484.915C1131.25 484.915 1132.12 484.915 1132.93 484.915C1133.2 484.915 1133.39 485.155 1133.51 485.635C1133.66 486.115 1133.75 486.655 1133.78 487.255C1133.81 487.825 1133.83 488.305 1133.83 488.695C1132.87 488.695 1131.94 488.695 1131.04 488.695C1130.14 488.695 1129.22 488.695 1128.29 488.695C1127.39 488.695 1126.46 488.695 1125.5 488.695C1125.14 488.695 1124.83 488.74 1124.56 488.83C1124.32 488.92 1124.11 489.055 1123.93 489.235C1123.78 489.415 1123.64 489.625 1123.52 489.865C1123.43 490.075 1123.39 490.315 1123.39 490.585V492.16ZM1145.6 471.055C1145.6 469.945 1145.6 468.925 1145.6 467.995C1145.6 467.065 1145.6 466.15 1145.6 465.25C1146.44 465.25 1147.04 465.25 1147.4 465.25C1147.76 465.25 1148.01 465.25 1148.16 465.25C1148.34 465.25 1148.49 465.25 1148.61 465.25C1148.76 465.25 1149.02 465.25 1149.38 465.25C1149.74 465.25 1150.34 465.25 1151.18 465.25C1151.3 465.25 1151.39 465.28 1151.45 465.34C1151.51 465.37 1151.55 465.415 1151.58 465.475C1151.64 465.535 1151.67 465.625 1151.67 465.745C1151.67 467.485 1151.67 469.225 1151.67 470.965C1151.67 472.675 1151.67 474.385 1151.67 476.095C1151.67 477.805 1151.67 479.53 1151.67 481.27C1151.67 482.98 1151.67 484.705 1151.67 486.445C1151.67 488.155 1151.67 489.88 1151.67 491.62C1151.67 491.92 1151.69 492.16 1151.72 492.34C1151.78 492.52 1151.88 492.685 1152.03 492.835C1152.18 492.985 1152.36 493.09 1152.57 493.15C1152.78 493.21 1153.05 493.24 1153.38 493.24C1153.5 493.24 1153.65 493.24 1153.83 493.24C1154.04 493.24 1154.24 493.24 1154.42 493.24C1154.63 493.24 1154.81 493.24 1154.96 493.24C1155.14 493.24 1155.26 493.24 1155.32 493.24H1155.72C1155.72 494.05 1155.72 494.935 1155.72 495.895C1155.72 496.825 1155.72 497.695 1155.72 498.505C1155.72 498.655 1155.68 498.775 1155.59 498.865C1155.5 498.955 1155.38 499 1155.23 499C1155.14 499 1155.03 499 1154.91 499C1154.82 499 1154.66 499 1154.42 499C1154.21 499 1153.89 499 1153.47 499C1153.05 499 1152.47 499 1151.72 499C1150.7 499 1149.81 498.865 1149.06 498.595C1148.31 498.295 1147.67 497.875 1147.13 497.335C1146.62 496.765 1146.23 496.06 1145.96 495.22C1145.72 494.35 1145.6 493.33 1145.6 492.16C1145.6 490.42 1145.6 488.68 1145.6 486.94C1145.6 485.17 1145.6 483.4 1145.6 481.63C1145.6 479.86 1145.6 478.105 1145.6 476.365C1145.6 474.595 1145.6 472.825 1145.6 471.055ZM961.992 558.555C963.792 558.555 965.022 558.36 965.682 557.97C966.342 557.55 966.672 557.07 966.672 556.53C966.672 556.2 966.582 555.9 966.402 555.63C966.252 555.36 965.967 555.135 965.547 554.955C965.157 554.745 964.587 554.58 963.837 554.46L959.202 553.785C957.762 553.545 956.562 553.14 955.602 552.57C954.642 551.97 953.922 551.22 953.442 550.32C952.992 549.42 952.767 548.415 952.767 547.305C952.767 546.045 953.007 544.935 953.487 543.975C953.997 542.985 954.732 542.145 955.692 541.455C956.652 540.765 957.837 540.24 959.247 539.88C960.657 539.52 962.262 539.34 964.062 539.34C965.022 539.34 965.907 539.385 966.717 539.475C967.527 539.535 968.262 539.625 968.922 539.745C969.582 539.865 970.167 540 970.677 540.15C970.887 540.21 971.037 540.285 971.127 540.375C971.247 540.435 971.307 540.525 971.307 540.645C971.337 540.765 971.352 540.945 971.352 541.185C971.352 541.815 971.352 542.61 971.352 543.57C971.352 544.5 971.352 545.37 971.352 546.18H970.542C969.732 545.97 968.952 545.79 968.202 545.64C967.452 545.49 966.687 545.385 965.907 545.325C965.127 545.265 964.302 545.235 963.432 545.235C962.232 545.235 961.287 545.325 960.597 545.505C959.937 545.655 959.472 545.865 959.202 546.135C958.932 546.405 958.797 546.72 958.797 547.08C958.797 547.41 958.872 547.71 959.022 547.98C959.202 548.22 959.487 548.415 959.877 548.565C960.267 548.715 960.807 548.85 961.497 548.97L965.727 549.6C967.197 549.78 968.442 550.17 969.462 550.77C970.482 551.34 971.262 552.105 971.802 553.065C972.372 553.995 972.657 555.12 972.657 556.44C972.657 558.06 972.237 559.47 971.397 560.67C970.587 561.87 969.387 562.8 967.797 563.46C966.207 564.12 964.257 564.45 961.947 564.45C960.867 564.45 959.862 564.405 958.932 564.315C958.002 564.255 957.132 564.15 956.322 564C955.542 563.88 954.837 563.73 954.207 563.55C953.577 563.37 953.037 563.175 952.587 562.965C952.407 562.905 952.287 562.83 952.227 562.74C952.197 562.65 952.182 562.485 952.182 562.245C952.182 561.555 952.182 560.73 952.182 559.77C952.182 558.81 952.182 557.88 952.182 556.98H952.992C953.712 557.28 954.402 557.535 955.062 557.745C955.752 557.925 956.442 558.075 957.132 558.195C957.852 558.315 958.602 558.405 959.382 558.465C960.192 558.525 961.062 558.555 961.992 558.555ZM975.639 539.79H993.009C993.189 539.79 993.324 539.835 993.414 539.925C993.504 540.015 993.549 540.135 993.549 540.285C993.549 540.915 993.549 541.5 993.549 542.04C993.549 542.58 993.549 543.135 993.549 543.705C993.549 544.275 993.549 544.86 993.549 545.46H976.179C976.119 545.46 976.059 545.445 975.999 545.415C975.939 545.385 975.879 545.355 975.819 545.325C975.759 545.265 975.714 545.205 975.684 545.145C975.654 545.085 975.639 545.025 975.639 544.965C975.639 544.365 975.639 543.78 975.639 543.21C975.639 542.64 975.639 542.085 975.639 541.545C975.639 541.005 975.639 540.42 975.639 539.79ZM993.549 558.195C993.549 559.095 993.549 559.995 993.549 560.895C993.549 561.765 993.549 562.635 993.549 563.505C993.549 563.625 993.504 563.745 993.414 563.865C993.324 563.955 993.204 564 993.054 564C992.754 564 992.439 564 992.109 564C991.809 564 991.494 564 991.164 564C990.864 564 990.564 564 990.264 564C989.964 564 989.649 564 989.319 564C987.759 564 986.364 563.82 985.134 563.46C983.904 563.07 982.854 562.485 981.984 561.705C981.114 560.925 980.454 559.92 980.004 558.69C979.554 557.46 979.329 556.005 979.329 554.325C979.329 552.855 979.329 551.4 979.329 549.96C979.329 548.52 979.329 547.08 979.329 545.64C979.329 544.2 979.329 542.76 979.329 541.32C979.329 539.88 979.329 538.44 979.329 537C979.329 536.22 979.329 535.47 979.329 534.75C979.329 534 979.329 533.25 979.329 532.5C980.259 532.5 981.189 532.5 982.119 532.5C983.079 532.5 984.009 532.5 984.909 532.5C984.999 532.5 985.074 532.53 985.134 532.59C985.224 532.62 985.284 532.68 985.314 532.77C985.374 532.83 985.404 532.905 985.404 532.995C985.404 534.735 985.404 536.475 985.404 538.215C985.404 539.925 985.404 541.65 985.404 543.39C985.404 545.13 985.404 546.87 985.404 548.61C985.404 550.32 985.404 552.045 985.404 553.785C985.404 554.685 985.494 555.42 985.674 555.99C985.854 556.56 986.124 557.025 986.484 557.385C986.814 557.685 987.219 557.895 987.699 558.015C988.209 558.135 988.824 558.195 989.544 558.195C989.934 558.195 990.309 558.195 990.669 558.195C991.059 558.195 991.449 558.195 991.839 558.195C992.229 558.195 992.619 558.195 993.009 558.195H993.549ZM1005.34 544.11H1007.14C1007.5 543 1007.92 542.1 1008.4 541.41C1008.88 540.69 1009.46 540.165 1010.15 539.835C1010.87 539.505 1011.68 539.34 1012.58 539.34C1013.06 539.34 1013.45 539.385 1013.75 539.475C1014.08 539.565 1014.31 539.655 1014.43 539.745C1014.55 539.835 1014.62 539.925 1014.65 540.015C1014.68 540.075 1014.7 540.18 1014.7 540.33C1014.7 540.81 1014.7 541.29 1014.7 541.77C1014.7 542.22 1014.7 542.67 1014.7 543.12C1014.7 543.57 1014.7 544.035 1014.7 544.515C1014.7 544.965 1014.7 545.43 1014.7 545.91H1013.84C1013.54 545.82 1013.21 545.745 1012.85 545.685C1012.49 545.625 1012.09 545.595 1011.64 545.595C1010.71 545.595 1009.88 545.775 1009.16 546.135C1008.47 546.495 1007.83 547.005 1007.23 547.665C1006.63 548.295 1006 549.045 1005.34 549.915V544.11ZM1006.19 564C1005.53 564 1004.86 564 1004.17 564C1003.51 564 1002.85 564 1002.19 564C1001.53 564 1000.87 564 1000.21 564C1000.12 564 1000.04 564 999.984 564C999.924 563.97 999.864 563.94 999.804 563.91C999.774 563.85 999.744 563.79 999.714 563.73C999.714 563.67 999.714 563.595 999.714 563.505C999.714 562.395 999.714 561.225 999.714 559.995C999.714 558.735 999.714 557.445 999.714 556.125C999.714 554.805 999.714 553.485 999.714 552.165C999.714 550.815 999.714 549.48 999.714 548.16C999.714 546.81 999.714 545.49 999.714 544.2C999.714 543.36 999.714 542.565 999.714 541.815C999.714 541.065 999.714 540.39 999.714 539.79C1000.46 539.79 1001.17 539.79 1001.83 539.79C1002.52 539.79 1003.18 539.79 1003.81 539.79C1004.47 539.79 1005.1 539.79 1005.7 539.79C1005.82 539.79 1005.91 539.82 1005.97 539.88C1006.03 539.91 1006.07 539.955 1006.1 540.015C1006.16 540.075 1006.19 540.165 1006.19 540.285C1006.19 541.665 1006.19 543.12 1006.19 544.65C1006.19 546.18 1006.19 547.74 1006.19 549.33C1006.19 550.92 1006.19 552.555 1006.19 554.235C1006.19 555.885 1006.19 557.535 1006.19 559.185C1006.19 560.805 1006.19 562.41 1006.19 564ZM1029.26 539.25C1031.3 539.25 1033.07 539.67 1034.57 540.51C1036.1 541.35 1037.29 542.52 1038.13 544.02C1038.97 545.52 1039.39 547.275 1039.39 549.285V553.02C1039.39 553.11 1039.37 553.2 1039.34 553.29C1039.31 553.35 1039.25 553.395 1039.16 553.425C1039.1 553.455 1039.03 553.47 1038.94 553.47H1028.59C1028.08 553.47 1027.55 553.47 1027.01 553.47C1026.5 553.47 1025.99 553.47 1025.48 553.47H1023.64L1023.5 549.69H1033.49C1033.49 549.57 1033.49 549.465 1033.49 549.375C1033.49 549.285 1033.49 549.18 1033.49 549.06C1033.49 548.19 1033.4 547.455 1033.22 546.855C1033.04 546.225 1032.76 545.73 1032.37 545.37C1032.04 545.01 1031.62 544.755 1031.11 544.605C1030.6 544.455 1029.98 544.38 1029.26 544.38C1027.76 544.38 1026.64 544.755 1025.89 545.505C1025.17 546.225 1024.81 547.41 1024.81 549.06V554.55C1024.81 555.27 1024.9 555.915 1025.08 556.485C1025.29 557.025 1025.57 557.49 1025.93 557.88C1026.41 558.36 1027.04 558.705 1027.82 558.915C1028.63 559.125 1029.56 559.23 1030.61 559.23C1031.69 559.23 1032.65 559.185 1033.49 559.095C1034.33 558.975 1035.11 558.825 1035.83 558.645C1036.55 558.435 1037.26 558.21 1037.95 557.97H1038.8C1038.8 558.72 1038.8 559.485 1038.8 560.265C1038.8 561.015 1038.8 561.78 1038.8 562.56C1038.8 562.62 1038.79 562.68 1038.76 562.74C1038.73 562.8 1038.68 562.86 1038.62 562.92C1038.38 563.16 1037.84 563.4 1037 563.64C1036.19 563.88 1035.2 564.09 1034.03 564.27C1032.89 564.45 1031.72 564.54 1030.52 564.54C1028.57 564.54 1026.85 564.315 1025.35 563.865C1023.88 563.385 1022.65 562.71 1021.66 561.84C1020.7 560.97 1019.96 559.92 1019.45 558.69C1018.97 557.43 1018.73 556.02 1018.73 554.46V549.33C1018.73 547.8 1018.97 546.42 1019.45 545.19C1019.96 543.96 1020.68 542.91 1021.61 542.04C1022.54 541.14 1023.65 540.45 1024.94 539.97C1026.23 539.49 1027.67 539.25 1029.26 539.25ZM1054.72 558.555C1056.52 558.555 1057.75 558.36 1058.41 557.97C1059.07 557.55 1059.4 557.07 1059.4 556.53C1059.4 556.2 1059.31 555.9 1059.13 555.63C1058.98 555.36 1058.69 555.135 1058.27 554.955C1057.88 554.745 1057.31 554.58 1056.56 554.46L1051.93 553.785C1050.49 553.545 1049.29 553.14 1048.33 552.57C1047.37 551.97 1046.65 551.22 1046.17 550.32C1045.72 549.42 1045.49 548.415 1045.49 547.305C1045.49 546.045 1045.73 544.935 1046.21 543.975C1046.72 542.985 1047.46 542.145 1048.42 541.455C1049.38 540.765 1050.56 540.24 1051.97 539.88C1053.38 539.52 1054.99 539.34 1056.79 539.34C1057.75 539.34 1058.63 539.385 1059.44 539.475C1060.25 539.535 1060.99 539.625 1061.65 539.745C1062.31 539.865 1062.89 540 1063.4 540.15C1063.61 540.21 1063.76 540.285 1063.85 540.375C1063.97 540.435 1064.03 540.525 1064.03 540.645C1064.06 540.765 1064.08 540.945 1064.08 541.185C1064.08 541.815 1064.08 542.61 1064.08 543.57C1064.08 544.5 1064.08 545.37 1064.08 546.18H1063.27C1062.46 545.97 1061.68 545.79 1060.93 545.64C1060.18 545.49 1059.41 545.385 1058.63 545.325C1057.85 545.265 1057.03 545.235 1056.16 545.235C1054.96 545.235 1054.01 545.325 1053.32 545.505C1052.66 545.655 1052.2 545.865 1051.93 546.135C1051.66 546.405 1051.52 546.72 1051.52 547.08C1051.52 547.41 1051.6 547.71 1051.75 547.98C1051.93 548.22 1052.21 548.415 1052.6 548.565C1052.99 548.715 1053.53 548.85 1054.22 548.97L1058.45 549.6C1059.92 549.78 1061.17 550.17 1062.19 550.77C1063.21 551.34 1063.99 552.105 1064.53 553.065C1065.1 553.995 1065.38 555.12 1065.38 556.44C1065.38 558.06 1064.96 559.47 1064.12 560.67C1063.31 561.87 1062.11 562.8 1060.52 563.46C1058.93 564.12 1056.98 564.45 1054.67 564.45C1053.59 564.45 1052.59 564.405 1051.66 564.315C1050.73 564.255 1049.86 564.15 1049.05 564C1048.27 563.88 1047.56 563.73 1046.93 563.55C1046.3 563.37 1045.76 563.175 1045.31 562.965C1045.13 562.905 1045.01 562.83 1044.95 562.74C1044.92 562.65 1044.91 562.485 1044.91 562.245C1044.91 561.555 1044.91 560.73 1044.91 559.77C1044.91 558.81 1044.91 557.88 1044.91 556.98H1045.72C1046.44 557.28 1047.13 557.535 1047.79 557.745C1048.48 557.925 1049.17 558.075 1049.86 558.195C1050.58 558.315 1051.33 558.405 1052.11 558.465C1052.92 558.525 1053.79 558.555 1054.72 558.555ZM1079.46 558.555C1081.26 558.555 1082.49 558.36 1083.15 557.97C1083.81 557.55 1084.14 557.07 1084.14 556.53C1084.14 556.2 1084.05 555.9 1083.87 555.63C1083.72 555.36 1083.43 555.135 1083.01 554.955C1082.62 554.745 1082.05 554.58 1081.3 554.46L1076.67 553.785C1075.23 553.545 1074.03 553.14 1073.07 552.57C1072.11 551.97 1071.39 551.22 1070.91 550.32C1070.46 549.42 1070.23 548.415 1070.23 547.305C1070.23 546.045 1070.47 544.935 1070.95 543.975C1071.46 542.985 1072.2 542.145 1073.16 541.455C1074.12 540.765 1075.3 540.24 1076.71 539.88C1078.12 539.52 1079.73 539.34 1081.53 539.34C1082.49 539.34 1083.37 539.385 1084.18 539.475C1084.99 539.535 1085.73 539.625 1086.39 539.745C1087.05 539.865 1087.63 540 1088.14 540.15C1088.35 540.21 1088.5 540.285 1088.59 540.375C1088.71 540.435 1088.77 540.525 1088.77 540.645C1088.8 540.765 1088.82 540.945 1088.82 541.185C1088.82 541.815 1088.82 542.61 1088.82 543.57C1088.82 544.5 1088.82 545.37 1088.82 546.18H1088.01C1087.2 545.97 1086.42 545.79 1085.67 545.64C1084.92 545.49 1084.15 545.385 1083.37 545.325C1082.59 545.265 1081.77 545.235 1080.9 545.235C1079.7 545.235 1078.75 545.325 1078.06 545.505C1077.4 545.655 1076.94 545.865 1076.67 546.135C1076.4 546.405 1076.26 546.72 1076.26 547.08C1076.26 547.41 1076.34 547.71 1076.49 547.98C1076.67 548.22 1076.95 548.415 1077.34 548.565C1077.73 548.715 1078.27 548.85 1078.96 548.97L1083.19 549.6C1084.66 549.78 1085.91 550.17 1086.93 550.77C1087.95 551.34 1088.73 552.105 1089.27 553.065C1089.84 553.995 1090.12 555.12 1090.12 556.44C1090.12 558.06 1089.7 559.47 1088.86 560.67C1088.05 561.87 1086.85 562.8 1085.26 563.46C1083.67 564.12 1081.72 564.45 1079.41 564.45C1078.33 564.45 1077.33 564.405 1076.4 564.315C1075.47 564.255 1074.6 564.15 1073.79 564C1073.01 563.88 1072.3 563.73 1071.67 563.55C1071.04 563.37 1070.5 563.175 1070.05 562.965C1069.87 562.905 1069.75 562.83 1069.69 562.74C1069.66 562.65 1069.65 562.485 1069.65 562.245C1069.65 561.555 1069.65 560.73 1069.65 559.77C1069.65 558.81 1069.65 557.88 1069.65 556.98H1070.46C1071.18 557.28 1071.87 557.535 1072.53 557.745C1073.22 557.925 1073.91 558.075 1074.6 558.195C1075.32 558.315 1076.07 558.405 1076.85 558.465C1077.66 558.525 1078.53 558.555 1079.46 558.555ZM1128.58 548.655C1128.58 549.405 1128.58 550.14 1128.58 550.86C1128.58 551.55 1128.58 552.27 1128.58 553.02C1128.58 553.74 1128.58 554.475 1128.58 555.225C1128.58 555.945 1128.58 556.65 1128.58 557.34C1128.58 557.58 1128.59 557.79 1128.62 557.97C1128.68 558.15 1128.77 558.3 1128.89 558.42C1128.98 558.51 1129.1 558.585 1129.25 558.645C1129.43 558.675 1129.63 558.69 1129.84 558.69C1129.93 558.69 1130 558.69 1130.06 558.69C1130.15 558.69 1130.24 558.69 1130.33 558.69H1131.19C1131.19 559.5 1131.19 560.31 1131.19 561.12C1131.19 561.9 1131.19 562.695 1131.19 563.505C1131.19 563.655 1131.14 563.775 1131.05 563.865C1130.96 563.955 1130.84 564 1130.69 564C1130.54 564 1130.17 564 1129.57 564C1129 564 1128.49 564 1128.04 564C1127.2 564 1126.45 563.865 1125.79 563.595C1125.13 563.325 1124.54 562.95 1124.03 562.47C1123.52 561.96 1123.13 561.36 1122.86 560.67C1122.59 559.98 1122.46 559.2 1122.46 558.33C1122.46 557.4 1122.46 556.455 1122.46 555.495C1122.46 554.535 1122.46 553.59 1122.46 552.66C1122.46 552.15 1122.46 551.67 1122.46 551.22C1122.46 550.74 1122.46 550.26 1122.46 549.78C1122.46 549.3 1122.46 548.82 1122.46 548.34C1122.46 547.47 1122.31 546.795 1122.01 546.315C1121.71 545.805 1121.21 545.445 1120.52 545.235C1119.86 545.025 1118.96 544.92 1117.82 544.92C1116.98 544.92 1116.16 544.965 1115.35 545.055C1114.57 545.145 1113.79 545.265 1113.01 545.415C1112.26 545.565 1111.49 545.775 1110.71 546.045H1109.86C1109.86 545.235 1109.86 544.425 1109.86 543.615C1109.86 542.805 1109.86 542.01 1109.86 541.23C1109.86 541.11 1109.87 541.02 1109.9 540.96C1109.93 540.9 1109.96 540.855 1109.99 540.825C1110.17 540.645 1110.67 540.435 1111.48 540.195C1112.32 539.955 1113.31 539.76 1114.45 539.61C1115.59 539.43 1116.71 539.34 1117.82 539.34C1119.71 539.34 1121.33 539.52 1122.68 539.88C1124.03 540.21 1125.14 540.75 1126.01 541.5C1126.88 542.25 1127.53 543.225 1127.95 544.425C1128.37 545.595 1128.58 547.005 1128.58 548.655ZM1114.18 557.16C1114.18 557.79 1114.34 558.27 1114.67 558.6C1115.03 558.9 1115.57 559.05 1116.29 559.05C1117.1 559.05 1117.9 558.96 1118.68 558.78C1119.46 558.6 1120.22 558.3 1120.97 557.88C1121.75 557.46 1122.53 556.92 1123.31 556.26V560.13H1121.96C1121.57 561.03 1121.02 561.81 1120.3 562.47C1119.61 563.1 1118.8 563.595 1117.87 563.955C1116.94 564.285 1115.92 564.45 1114.81 564.45C1113.43 564.45 1112.23 564.18 1111.21 563.64C1110.22 563.1 1109.45 562.35 1108.91 561.39C1108.37 560.4 1108.1 559.26 1108.1 557.97V556.395C1108.1 555.405 1108.27 554.52 1108.6 553.74C1108.93 552.96 1109.39 552.285 1109.99 551.715C1110.62 551.145 1111.37 550.71 1112.24 550.41C1113.11 550.08 1114.09 549.915 1115.17 549.915C1116.22 549.915 1117.24 549.915 1118.23 549.915C1119.25 549.915 1120.21 549.915 1121.11 549.915C1122.04 549.915 1122.91 549.915 1123.72 549.915C1123.99 549.915 1124.18 550.155 1124.3 550.635C1124.45 551.115 1124.54 551.655 1124.57 552.255C1124.6 552.825 1124.62 553.305 1124.62 553.695C1123.66 553.695 1122.73 553.695 1121.83 553.695C1120.93 553.695 1120.01 553.695 1119.08 553.695C1118.18 553.695 1117.25 553.695 1116.29 553.695C1115.93 553.695 1115.62 553.74 1115.35 553.83C1115.11 553.92 1114.9 554.055 1114.72 554.235C1114.57 554.415 1114.43 554.625 1114.31 554.865C1114.22 555.075 1114.18 555.315 1114.18 555.585V557.16ZM1134.91 539.79C1135.96 539.79 1137.04 539.79 1138.15 539.79C1139.26 539.79 1140.34 539.79 1141.39 539.79C1141.6 539.79 1141.76 539.835 1141.88 539.925C1142 539.985 1142.12 540.09 1142.24 540.24C1143.02 541.77 1143.79 543.315 1144.54 544.875C1145.32 546.435 1146.1 547.965 1146.88 549.465L1148.99 550.275C1150.43 552.555 1151.87 554.835 1153.31 557.115C1154.78 559.395 1156.24 561.69 1157.68 564C1157.14 564 1156.6 564 1156.06 564C1155.52 564 1154.99 564 1154.48 564C1154 564 1153.54 564 1153.09 564C1152.64 564 1152.23 564 1151.87 564C1151.36 564 1151 563.94 1150.79 563.82C1150.58 563.7 1150.36 563.445 1150.12 563.055C1149.88 562.635 1149.49 561.915 1148.95 560.895C1148.41 559.845 1147.81 558.705 1147.15 557.475C1146.52 556.245 1145.92 555.09 1145.35 554.01L1143.14 553.065C1141.76 550.845 1140.38 548.64 1139 546.45C1137.65 544.23 1136.29 542.01 1134.91 539.79ZM1143.28 550.23L1147.96 555.765H1145.53C1145.11 556.695 1144.67 557.61 1144.22 558.51C1143.77 559.41 1143.32 560.325 1142.87 561.255C1142.42 562.155 1141.97 563.07 1141.52 564H1135.4C1135.22 564 1135.09 563.955 1135 563.865C1134.91 563.775 1134.86 563.655 1134.86 563.505C1134.86 563.415 1134.88 563.325 1134.91 563.235C1134.97 563.115 1135.06 562.965 1135.18 562.785C1136.53 560.685 1137.88 558.585 1139.23 556.485C1140.58 554.385 1141.93 552.3 1143.28 550.23ZM1156.78 539.79C1156.93 539.79 1157.05 539.835 1157.14 539.925C1157.26 539.985 1157.32 540.12 1157.32 540.33C1157.32 540.36 1157.3 540.42 1157.27 540.51C1157.24 540.57 1157.2 540.66 1157.14 540.78C1155.82 542.85 1154.47 544.935 1153.09 547.035C1151.74 549.135 1150.4 551.235 1149.08 553.335L1144.63 548.16H1146.88C1147.3 547.23 1147.7 546.3 1148.09 545.37C1148.48 544.44 1148.87 543.51 1149.26 542.58C1149.68 541.65 1150.1 540.72 1150.52 539.79H1156.78ZM1165.13 563.505C1165.13 562.695 1165.13 561.69 1165.13 560.49C1165.13 559.26 1165.13 557.94 1165.13 556.53C1165.13 555.12 1165.13 553.71 1165.13 552.3C1165.13 550.89 1165.13 549.57 1165.13 548.34C1165.13 547.11 1165.13 546.075 1165.13 545.235H1164.81C1164.63 545.235 1164.42 545.235 1164.18 545.235C1163.97 545.235 1163.73 545.235 1163.46 545.235C1163.22 545.235 1162.97 545.235 1162.7 545.235C1162.46 545.235 1162.22 545.235 1161.98 545.235C1161.83 545.235 1161.71 545.19 1161.62 545.1C1161.53 545.01 1161.48 544.89 1161.48 544.74C1161.48 543.93 1161.48 543.105 1161.48 542.265C1161.48 541.425 1161.48 540.6 1161.48 539.79C1161.99 539.79 1162.56 539.79 1163.19 539.79C1163.85 539.79 1164.54 539.79 1165.26 539.79C1165.98 539.79 1166.69 539.79 1167.38 539.79C1168.07 539.79 1168.7 539.79 1169.27 539.79C1169.87 539.79 1170.35 539.79 1170.71 539.79C1170.83 539.79 1170.92 539.82 1170.98 539.88C1171.04 539.91 1171.08 539.955 1171.11 540.015C1171.17 540.075 1171.2 540.165 1171.2 540.285C1171.2 541.695 1171.2 543.24 1171.2 544.92C1171.2 546.57 1171.2 548.25 1171.2 549.96C1171.2 551.67 1171.2 553.35 1171.2 555C1171.2 556.65 1171.2 558.195 1171.2 559.635C1171.2 560.085 1171.2 560.565 1171.2 561.075C1171.2 561.555 1171.2 562.035 1171.2 562.515C1171.2 562.995 1171.2 563.49 1171.2 564C1170.21 564 1169.28 564 1168.41 564C1167.57 564 1166.64 564 1165.62 564C1165.47 564 1165.35 563.955 1165.26 563.865C1165.17 563.775 1165.13 563.655 1165.13 563.505ZM1164.05 528.27C1164.62 528.27 1165.2 528.27 1165.8 528.27C1166.43 528.27 1167.06 528.27 1167.69 528.27C1168.35 528.27 1168.98 528.27 1169.58 528.27C1170.21 528.27 1170.81 528.27 1171.38 528.27C1171.53 528.27 1171.65 528.315 1171.74 528.405C1171.83 528.495 1171.88 528.615 1171.88 528.765V534.57C1171.31 534.57 1170.71 534.57 1170.08 534.57C1169.48 534.57 1168.85 534.57 1168.19 534.57C1167.56 534.57 1166.93 534.57 1166.3 534.57C1165.7 534.57 1165.11 534.57 1164.54 534.57C1164.39 534.57 1164.27 534.525 1164.18 534.435C1164.09 534.345 1164.05 534.225 1164.05 534.075V528.27ZM1187.39 558.555C1189.19 558.555 1190.42 558.36 1191.08 557.97C1191.74 557.55 1192.07 557.07 1192.07 556.53C1192.07 556.2 1191.98 555.9 1191.8 555.63C1191.65 555.36 1191.36 555.135 1190.94 554.955C1190.55 554.745 1189.98 554.58 1189.23 554.46L1184.6 553.785C1183.16 553.545 1181.96 553.14 1181 552.57C1180.04 551.97 1179.32 551.22 1178.84 550.32C1178.39 549.42 1178.16 548.415 1178.16 547.305C1178.16 546.045 1178.4 544.935 1178.88 543.975C1179.39 542.985 1180.13 542.145 1181.09 541.455C1182.05 540.765 1183.23 540.24 1184.64 539.88C1186.05 539.52 1187.66 539.34 1189.46 539.34C1190.42 539.34 1191.3 539.385 1192.11 539.475C1192.92 539.535 1193.66 539.625 1194.32 539.745C1194.98 539.865 1195.56 540 1196.07 540.15C1196.28 540.21 1196.43 540.285 1196.52 540.375C1196.64 540.435 1196.7 540.525 1196.7 540.645C1196.73 540.765 1196.75 540.945 1196.75 541.185C1196.75 541.815 1196.75 542.61 1196.75 543.57C1196.75 544.5 1196.75 545.37 1196.75 546.18H1195.94C1195.13 545.97 1194.35 545.79 1193.6 545.64C1192.85 545.49 1192.08 545.385 1191.3 545.325C1190.52 545.265 1189.7 545.235 1188.83 545.235C1187.63 545.235 1186.68 545.325 1185.99 545.505C1185.33 545.655 1184.87 545.865 1184.6 546.135C1184.33 546.405 1184.19 546.72 1184.19 547.08C1184.19 547.41 1184.27 547.71 1184.42 547.98C1184.6 548.22 1184.88 548.415 1185.27 548.565C1185.66 548.715 1186.2 548.85 1186.89 548.97L1191.12 549.6C1192.59 549.78 1193.84 550.17 1194.86 550.77C1195.88 551.34 1196.66 552.105 1197.2 553.065C1197.77 553.995 1198.05 555.12 1198.05 556.44C1198.05 558.06 1197.63 559.47 1196.79 560.67C1195.98 561.87 1194.78 562.8 1193.19 563.46C1191.6 564.12 1189.65 564.45 1187.34 564.45C1186.26 564.45 1185.26 564.405 1184.33 564.315C1183.4 564.255 1182.53 564.15 1181.72 564C1180.94 563.88 1180.23 563.73 1179.6 563.55C1178.97 563.37 1178.43 563.175 1177.98 562.965C1177.8 562.905 1177.68 562.83 1177.62 562.74C1177.59 562.65 1177.58 562.485 1177.58 562.245C1177.58 561.555 1177.58 560.73 1177.58 559.77C1177.58 558.81 1177.58 557.88 1177.58 556.98H1178.39C1179.11 557.28 1179.8 557.535 1180.46 557.745C1181.15 557.925 1181.84 558.075 1182.53 558.195C1183.25 558.315 1184 558.405 1184.78 558.465C1185.59 558.525 1186.46 558.555 1187.39 558.555Z" fill="#013662"/>
<rect x="851" y="137" width="448" height="10" fill="#013662"/>
<rect x="851" y="612" width="448" height="10" fill="#013662"/>
<path d="M381.796 118.5C429.296 118.5 470.796 129.25 506.296 150.75C542.296 172.25 570.046 203.25 589.546 243.75C609.546 283.75 619.546 332.5 619.546 390C619.546 446 609.296 495 588.796 537C568.796 579 540.796 611.75 504.796 635.25C468.796 658.75 427.546 670.5 381.046 670.5C333.546 670.5 291.796 659.75 255.796 638.25C220.296 616.75 192.546 585.75 172.546 545.25C153.046 504.75 143.296 456 143.296 399C143.296 343 153.546 294 174.046 252C194.546 210 222.546 177.25 258.046 153.75C294.046 130.25 335.296 118.5 381.796 118.5ZM378.796 132C346.296 132 318.046 143.25 294.046 165.75C270.046 188.25 251.296 219.25 237.796 258.75C224.796 298.25 218.296 344 218.296 396C218.296 449 225.546 495.25 240.046 534.75C255.046 573.75 275.046 604 300.046 625.5C325.546 646.5 353.546 657 384.046 657C416.546 657 444.796 645.75 468.796 623.25C492.796 600.75 511.296 569.75 524.296 530.25C537.796 490.25 544.546 444.5 544.546 393C544.546 339.5 537.046 293.25 522.046 254.25C507.546 215.25 487.796 185.25 462.796 164.25C437.796 142.75 409.796 132 378.796 132Z" fill="#FFF0DD"/>
<line x1="379" y1="67" x2="379" y2="697" stroke="#FFF0DD" stroke-width="4" stroke-dasharray="20 20"/>
</svg>
