<svg width="1456" height="761" viewBox="0 0 1456 761" fill="none" xmlns="http://www.w3.org/2000/svg">
<g clip-path="url(#clip0_297_1133)">
<rect width="1456" height="761" fill="#FFF0DD"/>
<rect x="764" y="70" width="622" height="622" fill="#6899BF"/>
<rect x="851" y="137" width="448" height="10" fill="#FFF0DD"/>
<rect x="851" y="612" width="448" height="10" fill="#FFF0DD"/>
<path d="M381.796 103.5C429.296 103.5 470.796 114.25 506.296 135.75C542.296 157.25 570.046 188.25 589.546 228.75C609.546 268.75 619.546 317.5 619.546 375C619.546 431 609.296 480 588.796 522C568.796 564 540.796 596.75 504.796 620.25C468.796 643.75 427.546 655.5 381.046 655.5C333.546 655.5 291.796 644.75 255.796 623.25C220.296 601.75 192.546 570.75 172.546 530.25C153.046 489.75 143.296 441 143.296 384C143.296 328 153.546 279 174.046 237C194.546 195 222.546 162.25 258.046 138.75C294.046 115.25 335.296 103.5 381.796 103.5ZM378.796 117C346.296 117 318.046 128.25 294.046 150.75C270.046 173.25 251.296 204.25 237.796 243.75C224.796 283.25 218.296 329 218.296 381C218.296 434 225.546 480.25 240.046 519.75C255.046 558.75 275.046 589 300.046 610.5C325.546 631.5 353.546 642 384.046 642C416.546 642 444.796 630.75 468.796 608.25C492.796 585.75 511.296 554.75 524.296 515.25C537.796 475.25 544.546 429.5 544.546 378C544.546 324.5 537.046 278.25 522.046 239.25C507.546 200.25 487.796 170.25 462.796 149.25C437.796 127.75 409.796 117 378.796 117Z" fill="#FF5E3A"/>
<line x1="379" y1="67" x2="379" y2="689" stroke="#013662" stroke-width="4" stroke-dasharray="20 20"/>
<path d="M976.38 290.2V292.2C974.247 292.267 972.647 292.533 971.58 293C970.514 293.4 969.78 294.2 969.38 295.4C969.047 296.533 968.88 298.333 968.88 300.8V350.4C968.88 352.8 969.047 354.6 969.38 355.8C969.78 357 970.514 357.8 971.58 358.2C972.647 358.6 974.247 358.867 976.38 359V361C974.514 360.867 972.147 360.8 969.28 360.8C966.48 360.733 963.614 360.7 960.68 360.7C957.48 360.7 954.48 360.733 951.68 360.8C948.88 360.8 946.614 360.867 944.88 361V359C947.147 358.867 948.847 358.6 949.98 358.2C951.18 357.8 951.98 357 952.38 355.8C952.78 354.6 952.98 352.8 952.98 350.4V296.3H953.68L928.88 361.1H927.28L900.28 296.7V344.6C900.28 348.267 900.48 351.1 900.88 353.1C901.28 355.033 902.147 356.433 903.48 357.3C904.88 358.1 907.047 358.667 909.98 359V361C908.714 360.867 907.047 360.8 904.98 360.8C902.914 360.733 900.98 360.7 899.18 360.7C897.647 360.7 896.08 360.733 894.48 360.8C892.88 360.8 891.547 360.867 890.48 361V359C892.614 358.667 894.214 358.1 895.28 357.3C896.347 356.5 897.047 355.2 897.38 353.4C897.78 351.533 897.98 349 897.98 345.8V300.8C897.98 298.333 897.78 296.533 897.38 295.4C897.047 294.2 896.314 293.4 895.18 293C894.114 292.533 892.547 292.267 890.48 292.2V290.2C891.547 290.267 892.88 290.333 894.48 290.4C896.08 290.467 897.647 290.5 899.18 290.5C902.047 290.5 904.847 290.467 907.58 290.4C910.38 290.333 912.847 290.267 914.98 290.2L935.98 340.9L933.48 343.2L953.58 290.5C954.714 290.5 955.88 290.5 957.08 290.5C958.28 290.5 959.48 290.5 960.68 290.5C963.614 290.5 966.48 290.467 969.28 290.4C972.147 290.333 974.514 290.267 976.38 290.2ZM1006 307.9C1010.87 307.9 1015.13 308.8 1018.8 310.6C1022.47 312.4 1025.33 315.3 1027.4 319.3C1029.47 323.3 1030.5 328.6 1030.5 335.2C1030.5 341.8 1029.47 347.1 1027.4 351.1C1025.33 355.033 1022.47 357.9 1018.8 359.7C1015.13 361.5 1010.87 362.4 1006 362.4C1001.27 362.4 997.034 361.5 993.301 359.7C989.634 357.9 986.734 355.033 984.601 351.1C982.534 347.1 981.501 341.8 981.501 335.2C981.501 328.6 982.534 323.3 984.601 319.3C986.734 315.3 989.634 312.4 993.301 310.6C997.034 308.8 1001.27 307.9 1006 307.9ZM1006 309.9C1003.33 309.9 1001.1 311.9 999.301 315.9C997.501 319.833 996.601 326.267 996.601 335.2C996.601 344.133 997.501 350.567 999.301 354.5C1001.1 358.433 1003.33 360.4 1006 360.4C1008.73 360.4 1010.97 358.433 1012.7 354.5C1014.5 350.567 1015.4 344.133 1015.4 335.2C1015.4 326.267 1014.5 319.833 1012.7 315.9C1010.97 311.9 1008.73 309.9 1006 309.9ZM1085.94 282.7V350C1085.94 353 1086.41 355.233 1087.34 356.7C1088.28 358.1 1089.94 358.8 1092.34 358.8V360.9C1090.28 360.7 1088.21 360.6 1086.14 360.6C1083.34 360.6 1080.71 360.7 1078.24 360.9C1075.84 361.1 1073.61 361.467 1071.54 362V294.7C1071.54 291.7 1071.08 289.5 1070.14 288.1C1069.28 286.633 1067.61 285.9 1065.14 285.9V283.8C1067.28 284 1069.34 284.1 1071.34 284.1C1074.08 284.1 1076.68 284 1079.14 283.8C1081.61 283.533 1083.88 283.167 1085.94 282.7ZM1060.44 307.9C1063.38 307.9 1065.94 308.4 1068.14 309.4C1070.41 310.333 1072.18 311.933 1073.44 314.2L1072.24 315.3C1071.38 313.7 1070.21 312.567 1068.74 311.9C1067.34 311.167 1065.84 310.8 1064.24 310.8C1060.84 310.8 1058.14 312.8 1056.14 316.8C1054.14 320.733 1053.18 326.833 1053.24 335.1C1053.24 340.767 1053.61 345.3 1054.34 348.7C1055.14 352.033 1056.24 354.433 1057.64 355.9C1059.11 357.367 1060.78 358.1 1062.64 358.1C1064.91 358.1 1066.94 357.2 1068.74 355.4C1070.54 353.6 1071.51 351.167 1071.64 348.1L1072.14 351.6C1071.14 355.133 1069.51 357.833 1067.24 359.7C1065.04 361.5 1062.14 362.4 1058.54 362.4C1054.61 362.4 1051.08 361.433 1047.94 359.5C1044.88 357.567 1042.48 354.6 1040.74 350.6C1039.01 346.533 1038.14 341.3 1038.14 334.9C1038.14 328.833 1039.11 323.833 1041.04 319.9C1042.98 315.9 1045.61 312.9 1048.94 310.9C1052.34 308.9 1056.18 307.9 1060.44 307.9ZM1122.31 307.9C1128.18 307.9 1132.78 309.633 1136.11 313.1C1139.44 316.567 1141.11 322.233 1141.11 330.1H1108.21L1108.01 328.2H1128.51C1128.58 324.933 1128.38 321.933 1127.91 319.2C1127.44 316.4 1126.71 314.167 1125.71 312.5C1124.71 310.833 1123.38 310 1121.71 310C1119.38 310 1117.38 311.467 1115.71 314.4C1114.11 317.333 1113.14 322.2 1112.81 329L1113.11 329.6C1113.04 330.4 1112.98 331.233 1112.91 332.1C1112.91 332.967 1112.91 333.867 1112.91 334.8C1112.91 339.4 1113.54 343.133 1114.81 346C1116.14 348.867 1117.81 350.967 1119.81 352.3C1121.81 353.567 1123.84 354.2 1125.91 354.2C1127.31 354.2 1128.74 354 1130.21 353.6C1131.74 353.133 1133.28 352.333 1134.81 351.2C1136.34 350 1137.78 348.333 1139.11 346.2L1140.91 346.8C1140.11 349.333 1138.84 351.8 1137.11 354.2C1135.38 356.6 1133.18 358.567 1130.51 360.1C1127.84 361.633 1124.64 362.4 1120.91 362.4C1116.38 362.4 1112.38 361.433 1108.91 359.5C1105.44 357.567 1102.71 354.633 1100.71 350.7C1098.78 346.767 1097.81 341.767 1097.81 335.7C1097.81 329.5 1098.84 324.333 1100.91 320.2C1103.04 316.067 1105.94 313 1109.61 311C1113.34 308.933 1117.58 307.9 1122.31 307.9ZM1180.71 307.9C1182.85 307.9 1184.58 308.367 1185.91 309.3C1187.25 310.167 1188.21 311.3 1188.81 312.7C1189.48 314.1 1189.81 315.567 1189.81 317.1C1189.81 319.567 1189.08 321.6 1187.61 323.2C1186.21 324.733 1184.35 325.5 1182.01 325.5C1179.68 325.5 1177.85 324.933 1176.51 323.8C1175.25 322.6 1174.61 321.033 1174.61 319.1C1174.61 317.233 1175.01 315.7 1175.81 314.5C1176.68 313.233 1177.75 312.167 1179.01 311.3C1178.08 311.033 1177.15 311.067 1176.21 311.4C1174.95 311.6 1173.75 312.133 1172.61 313C1171.48 313.8 1170.51 314.833 1169.71 316.1C1168.91 317.3 1168.28 318.633 1167.81 320.1C1167.35 321.5 1167.11 322.867 1167.11 324.2V350.7C1167.11 353.9 1167.88 356.067 1169.41 357.2C1171.01 358.333 1173.38 358.9 1176.51 358.9V361C1174.98 360.933 1172.75 360.867 1169.81 360.8C1166.88 360.667 1163.81 360.6 1160.61 360.6C1157.95 360.6 1155.25 360.667 1152.51 360.8C1149.78 360.867 1147.71 360.933 1146.31 361V358.9C1148.65 358.9 1150.28 358.4 1151.21 357.4C1152.21 356.4 1152.71 354.5 1152.71 351.7V320.2C1152.71 317.2 1152.25 315 1151.31 313.6C1150.45 312.133 1148.78 311.4 1146.31 311.4V309.3C1148.45 309.5 1150.51 309.6 1152.51 309.6C1155.31 309.6 1157.91 309.5 1160.31 309.3C1162.78 309.033 1165.05 308.667 1167.11 308.2V317.5C1167.91 315.7 1168.98 314.067 1170.31 312.6C1171.65 311.133 1173.18 310 1174.91 309.2C1176.65 308.333 1178.58 307.9 1180.71 307.9ZM1230.19 307.9C1232.99 307.9 1235.26 308.267 1236.99 309C1238.79 309.667 1240.19 310.6 1241.19 311.8C1242.26 313.067 1243.03 314.7 1243.49 316.7C1244.03 318.7 1244.29 321.4 1244.29 324.8V351.7C1244.29 354.5 1244.76 356.4 1245.69 357.4C1246.69 358.4 1248.36 358.9 1250.69 358.9V361C1249.43 360.933 1247.53 360.867 1244.99 360.8C1242.46 360.667 1239.96 360.6 1237.49 360.6C1234.96 360.6 1232.46 360.667 1229.99 360.8C1227.59 360.867 1225.76 360.933 1224.49 361V358.9C1226.49 358.9 1227.89 358.4 1228.69 357.4C1229.49 356.4 1229.89 354.5 1229.89 351.7V320.6C1229.89 318.933 1229.73 317.5 1229.39 316.3C1229.06 315.033 1228.46 314.067 1227.59 313.4C1226.73 312.667 1225.43 312.3 1223.69 312.3C1221.89 312.3 1220.23 312.8 1218.69 313.8C1217.23 314.8 1216.03 316.2 1215.09 318C1214.23 319.733 1213.79 321.7 1213.79 323.9V351.7C1213.79 354.5 1214.19 356.4 1214.99 357.4C1215.86 358.4 1217.26 358.9 1219.19 358.9V361C1217.99 360.933 1216.23 360.867 1213.89 360.8C1211.63 360.667 1209.26 360.6 1206.79 360.6C1204.26 360.6 1201.66 360.667 1198.99 360.8C1196.33 360.867 1194.33 360.933 1192.99 361V358.9C1195.33 358.9 1196.96 358.4 1197.89 357.4C1198.89 356.4 1199.39 354.5 1199.39 351.7V320.2C1199.39 317.2 1198.93 315 1197.99 313.6C1197.13 312.133 1195.46 311.4 1192.99 311.4V309.3C1195.13 309.5 1197.19 309.6 1199.19 309.6C1201.99 309.6 1204.59 309.5 1206.99 309.3C1209.46 309.033 1211.73 308.667 1213.79 308.2V317.2C1215.46 313.8 1217.73 311.4 1220.59 310C1223.46 308.6 1226.66 307.9 1230.19 307.9ZM987.109 408.9C991.042 408.9 994.076 409.333 996.209 410.2C998.342 411 1000.18 411.867 1001.71 412.8C1002.51 413.267 1003.14 413.633 1003.61 413.9C1004.14 414.1 1004.64 414.2 1005.11 414.2C1005.78 414.2 1006.24 413.833 1006.51 413.1C1006.84 412.367 1007.11 411.267 1007.31 409.8H1009.61C1009.54 411.067 1009.44 412.6 1009.31 414.4C1009.24 416.133 1009.18 418.433 1009.11 421.3C1009.11 424.167 1009.11 427.933 1009.11 432.6H1006.81C1006.54 429.133 1005.74 425.767 1004.41 422.5C1003.08 419.233 1001.18 416.567 998.709 414.5C996.309 412.367 993.342 411.3 989.809 411.3C986.609 411.3 983.976 412.2 981.909 414C979.842 415.8 978.809 418.3 978.809 421.5C978.809 424.167 979.476 426.467 980.809 428.4C982.142 430.267 984.076 432.1 986.609 433.9C989.209 435.7 992.342 437.867 996.009 440.4C999.209 442.467 1002.08 444.533 1004.61 446.6C1007.14 448.667 1009.18 451 1010.71 453.6C1012.24 456.2 1013.01 459.3 1013.01 462.9C1013.01 467.3 1011.84 470.933 1009.51 473.8C1007.24 476.667 1004.24 478.833 1000.51 480.3C996.776 481.7 992.676 482.4 988.209 482.4C984.076 482.4 980.776 482 978.309 481.2C975.842 480.4 973.776 479.567 972.109 478.7C970.642 477.767 969.509 477.3 968.709 477.3C968.042 477.3 967.542 477.667 967.209 478.4C966.942 479.133 966.709 480.233 966.509 481.7H964.209C964.342 480.1 964.409 478.233 964.409 476.1C964.476 473.967 964.509 471.2 964.509 467.8C964.576 464.333 964.609 459.967 964.609 454.7H966.909C967.176 459.1 967.909 463.233 969.109 467.1C970.376 470.9 972.276 473.967 974.809 476.3C977.409 478.633 980.842 479.8 985.109 479.8C987.442 479.8 989.509 479.4 991.309 478.6C993.176 477.733 994.676 476.467 995.809 474.8C996.942 473.133 997.509 471.067 997.509 468.6C997.509 465.8 996.842 463.367 995.509 461.3C994.242 459.233 992.476 457.3 990.209 455.5C988.009 453.7 985.442 451.867 982.509 450C979.376 447.933 976.442 445.867 973.709 443.8C970.976 441.733 968.776 439.367 967.109 436.7C965.509 434.033 964.709 430.867 964.709 427.2C964.709 423 965.742 419.567 967.809 416.9C969.942 414.167 972.709 412.167 976.109 410.9C979.576 409.567 983.242 408.9 987.109 408.9ZM1045.31 427.9C1051.17 427.9 1055.77 429.633 1059.11 433.1C1062.44 436.567 1064.11 442.233 1064.11 450.1H1031.21L1031.01 448.2H1051.51C1051.57 444.933 1051.37 441.933 1050.91 439.2C1050.44 436.4 1049.71 434.167 1048.71 432.5C1047.71 430.833 1046.37 430 1044.71 430C1042.37 430 1040.37 431.467 1038.71 434.4C1037.11 437.333 1036.14 442.2 1035.81 449L1036.11 449.6C1036.04 450.4 1035.97 451.233 1035.91 452.1C1035.91 452.967 1035.91 453.867 1035.91 454.8C1035.91 459.4 1036.54 463.133 1037.81 466C1039.14 468.867 1040.81 470.967 1042.81 472.3C1044.81 473.567 1046.84 474.2 1048.91 474.2C1050.31 474.2 1051.74 474 1053.21 473.6C1054.74 473.133 1056.27 472.333 1057.81 471.2C1059.34 470 1060.77 468.333 1062.11 466.2L1063.91 466.8C1063.11 469.333 1061.84 471.8 1060.11 474.2C1058.37 476.6 1056.17 478.567 1053.51 480.1C1050.84 481.633 1047.64 482.4 1043.91 482.4C1039.37 482.4 1035.37 481.433 1031.91 479.5C1028.44 477.567 1025.71 474.633 1023.71 470.7C1021.77 466.767 1020.81 461.767 1020.81 455.7C1020.81 449.5 1021.84 444.333 1023.91 440.2C1026.04 436.067 1028.94 433 1032.61 431C1036.34 428.933 1040.57 427.9 1045.31 427.9ZM1103.71 427.9C1105.85 427.9 1107.58 428.367 1108.91 429.3C1110.25 430.167 1111.21 431.3 1111.81 432.7C1112.48 434.1 1112.81 435.567 1112.81 437.1C1112.81 439.567 1112.08 441.6 1110.61 443.2C1109.21 444.733 1107.35 445.5 1105.01 445.5C1102.68 445.5 1100.85 444.933 1099.51 443.8C1098.25 442.6 1097.61 441.033 1097.61 439.1C1097.61 437.233 1098.01 435.7 1098.81 434.5C1099.68 433.233 1100.75 432.167 1102.01 431.3C1101.08 431.033 1100.15 431.067 1099.21 431.4C1097.95 431.6 1096.75 432.133 1095.61 433C1094.48 433.8 1093.51 434.833 1092.71 436.1C1091.91 437.3 1091.28 438.633 1090.81 440.1C1090.35 441.5 1090.11 442.867 1090.11 444.2V470.7C1090.11 473.9 1090.88 476.067 1092.41 477.2C1094.01 478.333 1096.38 478.9 1099.51 478.9V481C1097.98 480.933 1095.75 480.867 1092.81 480.8C1089.88 480.667 1086.81 480.6 1083.61 480.6C1080.95 480.6 1078.25 480.667 1075.51 480.8C1072.78 480.867 1070.71 480.933 1069.31 481V478.9C1071.65 478.9 1073.28 478.4 1074.21 477.4C1075.21 476.4 1075.71 474.5 1075.71 471.7V440.2C1075.71 437.2 1075.25 435 1074.31 433.6C1073.45 432.133 1071.78 431.4 1069.31 431.4V429.3C1071.45 429.5 1073.51 429.6 1075.51 429.6C1078.31 429.6 1080.91 429.5 1083.31 429.3C1085.78 429.033 1088.05 428.667 1090.11 428.2V437.5C1090.91 435.7 1091.98 434.067 1093.31 432.6C1094.65 431.133 1096.18 430 1097.91 429.2C1099.65 428.333 1101.58 427.9 1103.71 427.9ZM1128.99 403.5C1131.79 403.5 1133.99 404.2 1135.59 405.6C1137.26 406.933 1138.09 408.8 1138.09 411.2C1138.09 413.6 1137.26 415.5 1135.59 416.9C1133.99 418.233 1131.79 418.9 1128.99 418.9C1126.19 418.9 1123.96 418.233 1122.29 416.9C1120.69 415.5 1119.89 413.6 1119.89 411.2C1119.89 408.8 1120.69 406.933 1122.29 405.6C1123.96 404.2 1126.19 403.5 1128.99 403.5ZM1136.79 428.2V471.7C1136.79 474.5 1137.26 476.4 1138.19 477.4C1139.19 478.4 1140.86 478.9 1143.19 478.9V481C1141.99 480.933 1140.13 480.867 1137.59 480.8C1135.06 480.667 1132.49 480.6 1129.89 480.6C1127.29 480.6 1124.66 480.667 1121.99 480.8C1119.33 480.867 1117.33 480.933 1115.99 481V478.9C1118.33 478.9 1119.96 478.4 1120.89 477.4C1121.89 476.4 1122.39 474.5 1122.39 471.7V440.2C1122.39 437.2 1121.93 435 1120.99 433.6C1120.13 432.133 1118.46 431.4 1115.99 431.4V429.3C1118.13 429.5 1120.19 429.6 1122.19 429.6C1124.99 429.6 1127.59 429.5 1129.99 429.3C1132.46 429.033 1134.73 428.667 1136.79 428.2ZM1173.93 402.8C1176.27 402.8 1178.3 403.1 1180.03 403.7C1181.77 404.3 1183.3 405.1 1184.63 406.1C1185.57 406.833 1186.37 407.867 1187.03 409.2C1187.7 410.467 1188.03 411.933 1188.03 413.6C1188.03 415.4 1187.37 417 1186.03 418.4C1184.77 419.8 1183.07 420.5 1180.93 420.5C1178.73 420.5 1176.9 419.867 1175.43 418.6C1174.03 417.333 1173.33 415.6 1173.33 413.4C1173.33 411.667 1173.83 410.133 1174.83 408.8C1175.83 407.467 1177.3 406.533 1179.23 406C1179.03 405.6 1178.63 405.267 1178.03 405C1177.43 404.733 1176.63 404.6 1175.63 404.6C1174.3 404.6 1173.2 404.833 1172.33 405.3C1171.47 405.767 1170.77 406.4 1170.23 407.2C1169.5 408.2 1169 409.667 1168.73 411.6C1168.47 413.467 1168.33 416.367 1168.33 420.3V429.4H1179.03V431.4H1168.33V470.7C1168.33 473.967 1169.17 476.167 1170.83 477.3C1172.5 478.367 1174.8 478.9 1177.73 478.9V481C1176 480.933 1173.57 480.867 1170.43 480.8C1167.3 480.667 1164 480.6 1160.53 480.6C1158 480.6 1155.5 480.667 1153.03 480.8C1150.63 480.867 1148.8 480.933 1147.53 481V478.9C1149.87 478.9 1151.5 478.4 1152.43 477.4C1153.43 476.4 1153.93 474.5 1153.93 471.7V431.4H1147.13V429.4H1153.93C1153.93 425.467 1154.13 422.2 1154.53 419.6C1154.93 416.933 1155.6 414.667 1156.53 412.8C1157.47 410.933 1158.7 409.267 1160.23 407.8C1161.7 406.4 1163.63 405.233 1166.03 404.3C1168.5 403.3 1171.13 402.8 1173.93 402.8Z" fill="#FFF0DD"/>
</g>
<defs>
<clipPath id="clip0_297_1133">
<rect width="1456" height="761" fill="white"/>
</clipPath>
</defs>
</svg>
