<svg width="1456" height="761" viewBox="0 0 1456 761" fill="none" xmlns="http://www.w3.org/2000/svg">
<rect width="1456" height="761" fill="#013662"/>
<rect x="63" y="61" width="602" height="637" stroke="#FFF0DD" stroke-width="4"/>
<rect x="77" y="75" width="38" height="609" rx="2" fill="#FFF0DD"/>
<rect x="600" y="653" width="31" height="472" rx="2" transform="rotate(90 600 653)" fill="#FFF0DD"/>
<rect x="600" y="75" width="31" height="472" rx="2" transform="rotate(90 600 75)" fill="#FFF0DD"/>
<rect x="613" y="75" width="38" height="609" rx="2" fill="#FFF0DD"/>
<line x1="96" y1="90" x2="96" y2="669" stroke="#013662" stroke-width="4"/>
<line x1="632" y1="90" x2="632" y2="669" stroke="#013662" stroke-width="4"/>
<line x1="585" y1="91" x2="143" y2="91" stroke="#013662" stroke-width="4"/>
<line x1="587" y1="669" x2="136" y2="669" stroke="#013662" stroke-width="4"/>
<rect x="792" y="61" width="602" height="637" stroke="#FFF0DD" stroke-width="4"/>
<rect x="806" y="75" width="38" height="609" rx="2" fill="#FFF0DD"/>
<rect x="1329" y="653" width="31" height="472" rx="2" transform="rotate(90 1329 653)" fill="#FFF0DD"/>
<rect x="1329" y="75" width="31" height="472" rx="2" transform="rotate(90 1329 75)" fill="#FFF0DD"/>
<rect x="1342" y="75" width="38" height="609" rx="2" fill="#FFF0DD"/>
<line x1="825" y1="90" x2="825" y2="669" stroke="#013662" stroke-width="4"/>
<line x1="1361" y1="90" x2="1361" y2="669" stroke="#013662" stroke-width="4"/>
<line x1="1314" y1="91" x2="872" y2="91" stroke="#013662" stroke-width="4"/>
<line x1="1316" y1="669" x2="865" y2="669" stroke="#013662" stroke-width="4"/>
<path d="M934.258 226C933.358 226 932.428 226 931.468 226C930.538 226 929.608 226 928.678 226C928.588 226 928.498 225.985 928.408 225.955C928.348 225.895 928.288 225.835 928.228 225.775C928.198 225.685 928.183 225.595 928.183 225.505C928.183 223.285 928.183 221.08 928.183 218.89C928.183 216.67 928.183 214.465 928.183 212.275C928.183 210.055 928.183 207.835 928.183 205.615C928.183 203.395 928.183 201.19 928.183 199C928.183 198.25 928.183 197.5 928.183 196.75C928.183 196 928.183 195.25 928.183 194.5C928.813 194.5 929.608 194.5 930.568 194.5C931.528 194.5 932.473 194.5 933.403 194.5C934.333 194.5 935.068 194.5 935.608 194.5C935.788 194.5 935.938 194.53 936.058 194.59C936.178 194.65 936.283 194.755 936.373 194.905C936.493 195.025 936.598 195.235 936.688 195.535C937.168 196.675 937.633 197.8 938.083 198.91C938.533 200.02 938.968 201.13 939.388 202.24C939.838 203.35 940.273 204.475 940.693 205.615C941.113 206.725 941.533 207.865 941.953 209.035C942.403 210.205 942.853 211.435 943.303 212.725L941.323 210.655H944.563L942.538 212.725C942.988 211.435 943.423 210.19 943.843 208.99C944.293 207.79 944.728 206.62 945.148 205.48C945.598 204.31 946.033 203.14 946.453 201.97C946.903 200.77 947.353 199.555 947.803 198.325C948.283 197.095 948.793 195.82 949.333 194.5C949.933 194.5 950.728 194.5 951.718 194.5C952.708 194.5 953.698 194.5 954.688 194.5C955.678 194.5 956.488 194.5 957.118 194.5C957.208 194.5 957.283 194.53 957.343 194.59C957.433 194.62 957.493 194.68 957.523 194.77C957.583 194.83 957.613 194.905 957.613 194.995C957.613 196.285 957.613 197.62 957.613 199C957.613 200.38 957.613 201.82 957.613 203.32C957.613 204.79 957.613 206.29 957.613 207.82C957.613 209.35 957.613 210.88 957.613 212.41C957.613 213.94 957.613 215.485 957.613 217.045C957.613 218.575 957.613 220.075 957.613 221.545C957.613 222.025 957.613 222.52 957.613 223.03C957.613 223.51 957.613 224.005 957.613 224.515C957.613 224.995 957.613 225.49 957.613 226C956.683 226 955.738 226 954.778 226C953.848 226 952.933 226 952.033 226C951.943 226 951.853 225.985 951.763 225.955C951.703 225.895 951.643 225.835 951.583 225.775C951.553 225.685 951.538 225.595 951.538 225.505C951.538 224.845 951.538 224.215 951.538 223.615C951.538 222.985 951.538 222.355 951.538 221.725C951.538 221.065 951.538 220.435 951.538 219.835C951.538 218.965 951.538 218.11 951.538 217.27C951.568 216.43 951.583 215.59 951.583 214.75C951.613 213.91 951.658 213.04 951.718 212.14C951.778 211.24 951.853 210.295 951.943 209.305C952.033 208.315 952.138 207.265 952.258 206.155C952.378 205.015 952.513 203.815 952.663 202.555L953.518 203.905H950.323L952.168 202.6C951.718 203.71 951.253 204.865 950.773 206.065C950.323 207.235 949.858 208.42 949.378 209.62C948.898 210.79 948.418 211.975 947.938 213.175C947.488 214.345 947.023 215.515 946.543 216.685C946.093 217.825 945.658 218.935 945.238 220.015C944.518 220.015 943.783 220.015 943.033 220.015C942.313 220.015 941.593 220.015 940.873 220.015C940.783 220.015 940.678 220 940.558 219.97C940.468 219.91 940.393 219.805 940.333 219.655C939.943 218.695 939.523 217.675 939.073 216.595C938.653 215.485 938.218 214.345 937.768 213.175C937.318 212.005 936.853 210.82 936.373 209.62C935.893 208.42 935.413 207.235 934.933 206.065C934.483 204.895 934.033 203.74 933.583 202.6L935.383 203.905H932.233L933.043 202.555C933.223 203.785 933.373 204.955 933.493 206.065C933.643 207.175 933.748 208.225 933.808 209.215C933.898 210.175 933.973 211.12 934.033 212.05C934.093 212.95 934.138 213.835 934.168 214.705C934.198 215.545 934.213 216.385 934.213 217.225C934.243 218.065 934.258 218.935 934.258 219.835C934.258 220.855 934.258 221.89 934.258 222.94C934.258 223.96 934.258 224.98 934.258 226ZM966.424 225.505C966.424 224.695 966.424 223.69 966.424 222.49C966.424 221.26 966.424 219.94 966.424 218.53C966.424 217.12 966.424 215.71 966.424 214.3C966.424 212.89 966.424 211.57 966.424 210.34C966.424 209.11 966.424 208.075 966.424 207.235H966.109C965.929 207.235 965.719 207.235 965.479 207.235C965.269 207.235 965.029 207.235 964.759 207.235C964.519 207.235 964.264 207.235 963.994 207.235C963.754 207.235 963.514 207.235 963.274 207.235C963.124 207.235 963.004 207.19 962.914 207.1C962.824 207.01 962.779 206.89 962.779 206.74C962.779 205.93 962.779 205.105 962.779 204.265C962.779 203.425 962.779 202.6 962.779 201.79C963.289 201.79 963.859 201.79 964.489 201.79C965.149 201.79 965.839 201.79 966.559 201.79C967.279 201.79 967.984 201.79 968.674 201.79C969.364 201.79 969.994 201.79 970.564 201.79C971.164 201.79 971.644 201.79 972.004 201.79C972.124 201.79 972.214 201.82 972.274 201.88C972.334 201.91 972.379 201.955 972.409 202.015C972.469 202.075 972.499 202.165 972.499 202.285C972.499 203.695 972.499 205.24 972.499 206.92C972.499 208.57 972.499 210.25 972.499 211.96C972.499 213.67 972.499 215.35 972.499 217C972.499 218.65 972.499 220.195 972.499 221.635C972.499 222.085 972.499 222.565 972.499 223.075C972.499 223.555 972.499 224.035 972.499 224.515C972.499 224.995 972.499 225.49 972.499 226C971.509 226 970.579 226 969.709 226C968.869 226 967.939 226 966.919 226C966.769 226 966.649 225.955 966.559 225.865C966.469 225.775 966.424 225.655 966.424 225.505ZM965.344 190.27C965.914 190.27 966.499 190.27 967.099 190.27C967.729 190.27 968.359 190.27 968.989 190.27C969.649 190.27 970.279 190.27 970.879 190.27C971.509 190.27 972.109 190.27 972.679 190.27C972.829 190.27 972.949 190.315 973.039 190.405C973.129 190.495 973.174 190.615 973.174 190.765V196.57C972.604 196.57 972.004 196.57 971.374 196.57C970.774 196.57 970.144 196.57 969.484 196.57C968.854 196.57 968.224 196.57 967.594 196.57C966.994 196.57 966.409 196.57 965.839 196.57C965.689 196.57 965.569 196.525 965.479 196.435C965.389 196.345 965.344 196.225 965.344 196.075V190.27ZM1000.61 226C999.617 226 998.687 226 997.817 226C996.977 226 996.047 226 995.027 226C994.937 226 994.847 225.985 994.757 225.955C994.697 225.895 994.637 225.835 994.577 225.775C994.547 225.715 994.532 225.625 994.532 225.505C994.532 223.735 994.532 221.965 994.532 220.195C994.532 218.395 994.532 216.61 994.532 214.84C994.532 213.07 994.532 211.3 994.532 209.53C994.532 208.72 994.352 208.12 993.992 207.73C993.632 207.34 993.062 207.145 992.282 207.145C991.772 207.145 991.202 207.235 990.572 207.415C989.972 207.565 989.357 207.805 988.727 208.135C988.127 208.435 987.542 208.825 986.972 209.305C986.402 209.785 985.877 210.355 985.397 211.015V205.705H986.972C987.572 204.805 988.232 204.025 988.952 203.365C989.702 202.705 990.512 202.195 991.382 201.835C992.282 201.445 993.242 201.25 994.262 201.25C995.222 201.25 996.092 201.415 996.872 201.745C997.682 202.045 998.357 202.51 998.897 203.14C999.467 203.74 999.887 204.475 1000.16 205.345C1000.46 206.215 1000.61 207.19 1000.61 208.27C1000.61 209.71 1000.61 211.165 1000.61 212.635C1000.61 214.105 1000.61 215.575 1000.61 217.045C1000.61 218.515 1000.61 220 1000.61 221.5C1000.61 222.25 1000.61 223 1000.61 223.75C1000.61 224.5 1000.61 225.25 1000.61 226ZM986.117 226C985.457 226 984.827 226 984.227 226C983.657 226 983.057 226 982.427 226C981.827 226 981.197 226 980.537 226C980.447 226 980.372 226 980.312 226C980.252 225.97 980.192 225.94 980.132 225.91C980.102 225.85 980.072 225.79 980.042 225.73C980.042 225.67 980.042 225.595 980.042 225.505C980.042 223.885 980.042 222.28 980.042 220.69C980.042 219.07 980.042 217.465 980.042 215.875C980.042 214.255 980.042 212.65 980.042 211.06C980.042 209.44 980.042 207.82 980.042 206.2C980.042 205.36 980.042 204.565 980.042 203.815C980.042 203.065 980.042 202.39 980.042 201.79C980.792 201.79 981.467 201.79 982.067 201.79C982.697 201.79 983.297 201.79 983.867 201.79C984.467 201.79 985.052 201.79 985.622 201.79C985.742 201.79 985.832 201.82 985.892 201.88C985.952 201.91 985.997 201.955 986.027 202.015C986.087 202.075 986.117 202.165 986.117 202.285C986.117 204.895 986.117 207.52 986.117 210.16C986.117 212.8 986.117 215.44 986.117 218.08C986.117 220.72 986.117 223.36 986.117 226ZM1009.14 225.505C1009.14 224.695 1009.14 223.69 1009.14 222.49C1009.14 221.26 1009.14 219.94 1009.14 218.53C1009.14 217.12 1009.14 215.71 1009.14 214.3C1009.14 212.89 1009.14 211.57 1009.14 210.34C1009.14 209.11 1009.14 208.075 1009.14 207.235H1008.82C1008.64 207.235 1008.43 207.235 1008.19 207.235C1007.98 207.235 1007.74 207.235 1007.47 207.235C1007.23 207.235 1006.98 207.235 1006.71 207.235C1006.47 207.235 1006.23 207.235 1005.99 207.235C1005.84 207.235 1005.72 207.19 1005.63 207.1C1005.54 207.01 1005.49 206.89 1005.49 206.74C1005.49 205.93 1005.49 205.105 1005.49 204.265C1005.49 203.425 1005.49 202.6 1005.49 201.79C1006 201.79 1006.57 201.79 1007.2 201.79C1007.86 201.79 1008.55 201.79 1009.27 201.79C1009.99 201.79 1010.7 201.79 1011.39 201.79C1012.08 201.79 1012.71 201.79 1013.28 201.79C1013.88 201.79 1014.36 201.79 1014.72 201.79C1014.84 201.79 1014.93 201.82 1014.99 201.88C1015.05 201.91 1015.09 201.955 1015.12 202.015C1015.18 202.075 1015.21 202.165 1015.21 202.285C1015.21 203.695 1015.21 205.24 1015.21 206.92C1015.21 208.57 1015.21 210.25 1015.21 211.96C1015.21 213.67 1015.21 215.35 1015.21 217C1015.21 218.65 1015.21 220.195 1015.21 221.635C1015.21 222.085 1015.21 222.565 1015.21 223.075C1015.21 223.555 1015.21 224.035 1015.21 224.515C1015.21 224.995 1015.21 225.49 1015.21 226C1014.22 226 1013.29 226 1012.42 226C1011.58 226 1010.65 226 1009.63 226C1009.48 226 1009.36 225.955 1009.27 225.865C1009.18 225.775 1009.14 225.655 1009.14 225.505ZM1008.06 190.27C1008.63 190.27 1009.21 190.27 1009.81 190.27C1010.44 190.27 1011.07 190.27 1011.7 190.27C1012.36 190.27 1012.99 190.27 1013.59 190.27C1014.22 190.27 1014.82 190.27 1015.39 190.27C1015.54 190.27 1015.66 190.315 1015.75 190.405C1015.84 190.495 1015.89 190.615 1015.89 190.765V196.57C1015.32 196.57 1014.72 196.57 1014.09 196.57C1013.49 196.57 1012.86 196.57 1012.2 196.57C1011.57 196.57 1010.94 196.57 1010.31 196.57C1009.71 196.57 1009.12 196.57 1008.55 196.57C1008.4 196.57 1008.28 196.525 1008.19 196.435C1008.1 196.345 1008.06 196.225 1008.06 196.075V190.27ZM1054.17 226C1053.63 226 1052.98 226 1052.23 226C1051.48 226 1050.75 226 1050.03 226C1049.31 226 1048.69 226 1048.18 226C1048.09 226 1048 225.985 1047.91 225.955C1047.85 225.895 1047.79 225.835 1047.73 225.775C1047.7 225.715 1047.69 225.625 1047.69 225.505C1047.69 224.395 1047.69 223.285 1047.69 222.175C1047.69 221.065 1047.69 219.97 1047.69 218.89C1047.69 217.78 1047.69 216.685 1047.69 215.605C1047.69 214.525 1047.69 213.475 1047.69 212.455C1047.69 211.435 1047.69 210.445 1047.69 209.485C1047.69 208.675 1047.54 208.105 1047.24 207.775C1046.94 207.445 1046.47 207.28 1045.84 207.28C1045.27 207.28 1044.72 207.445 1044.18 207.775C1043.64 208.075 1043.11 208.54 1042.6 209.17C1042.09 209.8 1041.61 210.595 1041.16 211.555L1040.26 205.255H1042.56C1043.04 204.355 1043.55 203.62 1044.09 203.05C1044.66 202.45 1045.32 202 1046.07 201.7C1046.82 201.4 1047.66 201.25 1048.59 201.25C1049.31 201.25 1050 201.385 1050.66 201.655C1051.35 201.895 1051.95 202.285 1052.46 202.825C1053 203.335 1053.42 203.98 1053.72 204.76C1054.02 205.51 1054.17 206.41 1054.17 207.46C1054.17 208.33 1054.17 209.305 1054.17 210.385C1054.17 211.465 1054.17 212.62 1054.17 213.85C1054.17 215.05 1054.17 216.295 1054.17 217.585C1054.17 218.875 1054.17 220.18 1054.17 221.5C1054.17 222.25 1054.17 223 1054.17 223.75C1054.17 224.5 1054.17 225.25 1054.17 226ZM1041.7 226C1041.25 226 1040.62 226 1039.81 226C1039 226 1038.22 226 1037.47 226C1036.72 226 1036.14 226 1035.72 226C1035.63 226 1035.54 225.985 1035.45 225.955C1035.39 225.895 1035.33 225.835 1035.27 225.775C1035.24 225.715 1035.22 225.625 1035.22 225.505C1035.22 224.395 1035.22 223.285 1035.22 222.175C1035.22 221.035 1035.22 219.925 1035.22 218.845C1035.22 217.765 1035.22 216.685 1035.22 215.605C1035.22 214.525 1035.22 213.475 1035.22 212.455C1035.22 211.435 1035.22 210.43 1035.22 209.44C1035.22 208.9 1035.16 208.465 1035.04 208.135C1034.92 207.805 1034.74 207.58 1034.5 207.46C1034.26 207.34 1033.98 207.28 1033.65 207.28C1033.08 207.28 1032.51 207.445 1031.94 207.775C1031.37 208.075 1030.8 208.555 1030.23 209.215C1029.69 209.845 1029.15 210.655 1028.61 211.645L1027.48 205.255H1029.69C1030.23 204.415 1030.81 203.695 1031.44 203.095C1032.07 202.495 1032.76 202.045 1033.51 201.745C1034.26 201.415 1035.04 201.25 1035.85 201.25C1036.66 201.25 1037.41 201.37 1038.1 201.61C1038.82 201.85 1039.45 202.21 1039.99 202.69C1040.53 203.17 1040.95 203.785 1041.25 204.535C1041.55 205.285 1041.7 206.17 1041.7 207.19C1041.7 207.79 1041.7 208.63 1041.7 209.71C1041.7 210.79 1041.7 212.11 1041.7 213.67C1041.7 215.23 1041.7 217.045 1041.7 219.115C1041.7 221.155 1041.7 223.45 1041.7 226ZM1029.24 226C1028.82 226 1028.34 226 1027.8 226C1027.29 226 1026.76 226 1026.22 226C1025.68 226 1025.14 226 1024.6 226C1024.09 226 1023.64 226 1023.25 226C1023.16 226 1023.09 226 1023.03 226C1022.97 225.97 1022.91 225.94 1022.85 225.91C1022.82 225.85 1022.79 225.79 1022.76 225.73C1022.76 225.67 1022.76 225.595 1022.76 225.505C1022.76 223.345 1022.76 221.2 1022.76 219.07C1022.76 216.94 1022.76 214.81 1022.76 212.68C1022.76 210.55 1022.76 208.42 1022.76 206.29C1022.76 205.48 1022.76 204.7 1022.76 203.95C1022.76 203.2 1022.76 202.48 1022.76 201.79C1023.09 201.79 1023.46 201.79 1023.88 201.79C1024.3 201.79 1024.74 201.79 1025.19 201.79C1025.67 201.79 1026.12 201.79 1026.54 201.79C1026.96 201.79 1027.33 201.79 1027.66 201.79C1027.66 201.79 1027.74 202.06 1027.89 202.6C1028.07 203.11 1028.25 203.71 1028.43 204.4C1028.64 205.09 1028.82 205.705 1028.97 206.245C1029.15 206.785 1029.24 207.055 1029.24 207.055C1029.24 209.035 1029.24 211.075 1029.24 213.175C1029.24 215.275 1029.24 217.405 1029.24 219.565C1029.24 221.695 1029.24 223.84 1029.24 226ZM1080.52 210.655C1080.52 211.405 1080.52 212.14 1080.52 212.86C1080.52 213.55 1080.52 214.27 1080.52 215.02C1080.52 215.74 1080.52 216.475 1080.52 217.225C1080.52 217.945 1080.52 218.65 1080.52 219.34C1080.52 219.58 1080.53 219.79 1080.56 219.97C1080.62 220.15 1080.71 220.3 1080.83 220.42C1080.92 220.51 1081.04 220.585 1081.19 220.645C1081.37 220.675 1081.57 220.69 1081.78 220.69C1081.87 220.69 1081.94 220.69 1082 220.69C1082.09 220.69 1082.18 220.69 1082.27 220.69H1083.13C1083.13 221.5 1083.13 222.31 1083.13 223.12C1083.13 223.9 1083.13 224.695 1083.13 225.505C1083.13 225.655 1083.08 225.775 1082.99 225.865C1082.9 225.955 1082.78 226 1082.63 226C1082.48 226 1082.11 226 1081.51 226C1080.94 226 1080.43 226 1079.98 226C1079.14 226 1078.39 225.865 1077.73 225.595C1077.07 225.325 1076.48 224.95 1075.97 224.47C1075.46 223.96 1075.07 223.36 1074.8 222.67C1074.53 221.98 1074.4 221.2 1074.4 220.33C1074.4 219.4 1074.4 218.455 1074.4 217.495C1074.4 216.535 1074.4 215.59 1074.4 214.66C1074.4 214.15 1074.4 213.67 1074.4 213.22C1074.4 212.74 1074.4 212.26 1074.4 211.78C1074.4 211.3 1074.4 210.82 1074.4 210.34C1074.4 209.47 1074.25 208.795 1073.95 208.315C1073.65 207.805 1073.15 207.445 1072.46 207.235C1071.8 207.025 1070.9 206.92 1069.76 206.92C1068.92 206.92 1068.1 206.965 1067.29 207.055C1066.51 207.145 1065.73 207.265 1064.95 207.415C1064.2 207.565 1063.43 207.775 1062.65 208.045H1061.8C1061.8 207.235 1061.8 206.425 1061.8 205.615C1061.8 204.805 1061.8 204.01 1061.8 203.23C1061.8 203.11 1061.81 203.02 1061.84 202.96C1061.87 202.9 1061.9 202.855 1061.93 202.825C1062.11 202.645 1062.61 202.435 1063.42 202.195C1064.26 201.955 1065.25 201.76 1066.39 201.61C1067.53 201.43 1068.65 201.34 1069.76 201.34C1071.65 201.34 1073.27 201.52 1074.62 201.88C1075.97 202.21 1077.08 202.75 1077.95 203.5C1078.82 204.25 1079.47 205.225 1079.89 206.425C1080.31 207.595 1080.52 209.005 1080.52 210.655ZM1066.12 219.16C1066.12 219.79 1066.28 220.27 1066.61 220.6C1066.97 220.9 1067.51 221.05 1068.23 221.05C1069.04 221.05 1069.84 220.96 1070.62 220.78C1071.4 220.6 1072.16 220.3 1072.91 219.88C1073.69 219.46 1074.47 218.92 1075.25 218.26V222.13H1073.9C1073.51 223.03 1072.96 223.81 1072.24 224.47C1071.55 225.1 1070.74 225.595 1069.81 225.955C1068.88 226.285 1067.86 226.45 1066.75 226.45C1065.37 226.45 1064.17 226.18 1063.15 225.64C1062.16 225.1 1061.39 224.35 1060.85 223.39C1060.31 222.4 1060.04 221.26 1060.04 219.97V218.395C1060.04 217.405 1060.21 216.52 1060.54 215.74C1060.87 214.96 1061.33 214.285 1061.93 213.715C1062.56 213.145 1063.31 212.71 1064.18 212.41C1065.05 212.08 1066.03 211.915 1067.11 211.915C1068.16 211.915 1069.18 211.915 1070.17 211.915C1071.19 211.915 1072.15 211.915 1073.05 211.915C1073.98 211.915 1074.85 211.915 1075.66 211.915C1075.93 211.915 1076.12 212.155 1076.24 212.635C1076.39 213.115 1076.48 213.655 1076.51 214.255C1076.54 214.825 1076.56 215.305 1076.56 215.695C1075.6 215.695 1074.67 215.695 1073.77 215.695C1072.87 215.695 1071.95 215.695 1071.02 215.695C1070.12 215.695 1069.19 215.695 1068.23 215.695C1067.87 215.695 1067.56 215.74 1067.29 215.83C1067.05 215.92 1066.84 216.055 1066.66 216.235C1066.51 216.415 1066.37 216.625 1066.25 216.865C1066.16 217.075 1066.12 217.315 1066.12 217.585V219.16ZM1088.33 198.055C1088.33 196.945 1088.33 195.925 1088.33 194.995C1088.33 194.065 1088.33 193.15 1088.33 192.25C1089.17 192.25 1089.77 192.25 1090.13 192.25C1090.49 192.25 1090.75 192.25 1090.9 192.25C1091.08 192.25 1091.23 192.25 1091.35 192.25C1091.5 192.25 1091.75 192.25 1092.11 192.25C1092.47 192.25 1093.07 192.25 1093.91 192.25C1094.03 192.25 1094.12 192.28 1094.18 192.34C1094.24 192.37 1094.29 192.415 1094.32 192.475C1094.38 192.535 1094.41 192.625 1094.41 192.745C1094.41 194.485 1094.41 196.225 1094.41 197.965C1094.41 199.675 1094.41 201.385 1094.41 203.095C1094.41 204.805 1094.41 206.53 1094.41 208.27C1094.41 209.98 1094.41 211.705 1094.41 213.445C1094.41 215.155 1094.41 216.88 1094.41 218.62C1094.41 218.92 1094.42 219.16 1094.45 219.34C1094.51 219.52 1094.62 219.685 1094.77 219.835C1094.92 219.985 1095.1 220.09 1095.31 220.15C1095.52 220.21 1095.79 220.24 1096.12 220.24C1096.24 220.24 1096.39 220.24 1096.57 220.24C1096.78 220.24 1096.97 220.24 1097.15 220.24C1097.36 220.24 1097.54 220.24 1097.69 220.24C1097.87 220.24 1097.99 220.24 1098.05 220.24H1098.46C1098.46 221.05 1098.46 221.935 1098.46 222.895C1098.46 223.825 1098.46 224.695 1098.46 225.505C1098.46 225.655 1098.41 225.775 1098.32 225.865C1098.23 225.955 1098.11 226 1097.96 226C1097.87 226 1097.77 226 1097.65 226C1097.56 226 1097.39 226 1097.15 226C1096.94 226 1096.63 226 1096.21 226C1095.79 226 1095.2 226 1094.45 226C1093.43 226 1092.55 225.865 1091.8 225.595C1091.05 225.295 1090.4 224.875 1089.86 224.335C1089.35 223.765 1088.96 223.06 1088.69 222.22C1088.45 221.35 1088.33 220.33 1088.33 219.16C1088.33 217.42 1088.33 215.68 1088.33 213.94C1088.33 212.17 1088.33 210.4 1088.33 208.63C1088.33 206.86 1088.33 205.105 1088.33 203.365C1088.33 201.595 1088.33 199.825 1088.33 198.055ZM1125.83 220.555C1127.63 220.555 1128.86 220.36 1129.52 219.97C1130.18 219.55 1130.51 219.07 1130.51 218.53C1130.51 218.2 1130.42 217.9 1130.24 217.63C1130.09 217.36 1129.81 217.135 1129.39 216.955C1129 216.745 1128.43 216.58 1127.68 216.46L1123.04 215.785C1121.6 215.545 1120.4 215.14 1119.44 214.57C1118.48 213.97 1117.76 213.22 1117.28 212.32C1116.83 211.42 1116.61 210.415 1116.61 209.305C1116.61 208.045 1116.85 206.935 1117.33 205.975C1117.84 204.985 1118.57 204.145 1119.53 203.455C1120.49 202.765 1121.68 202.24 1123.09 201.88C1124.5 201.52 1126.1 201.34 1127.9 201.34C1128.86 201.34 1129.75 201.385 1130.56 201.475C1131.37 201.535 1132.1 201.625 1132.76 201.745C1133.42 201.865 1134.01 202 1134.52 202.15C1134.73 202.21 1134.88 202.285 1134.97 202.375C1135.09 202.435 1135.15 202.525 1135.15 202.645C1135.18 202.765 1135.19 202.945 1135.19 203.185C1135.19 203.815 1135.19 204.61 1135.19 205.57C1135.19 206.5 1135.19 207.37 1135.19 208.18H1134.38C1133.57 207.97 1132.79 207.79 1132.04 207.64C1131.29 207.49 1130.53 207.385 1129.75 207.325C1128.97 207.265 1128.14 207.235 1127.27 207.235C1126.07 207.235 1125.13 207.325 1124.44 207.505C1123.78 207.655 1123.31 207.865 1123.04 208.135C1122.77 208.405 1122.64 208.72 1122.64 209.08C1122.64 209.41 1122.71 209.71 1122.86 209.98C1123.04 210.22 1123.33 210.415 1123.72 210.565C1124.11 210.715 1124.65 210.85 1125.34 210.97L1129.57 211.6C1131.04 211.78 1132.28 212.17 1133.3 212.77C1134.32 213.34 1135.1 214.105 1135.64 215.065C1136.21 215.995 1136.5 217.12 1136.5 218.44C1136.5 220.06 1136.08 221.47 1135.24 222.67C1134.43 223.87 1133.23 224.8 1131.64 225.46C1130.05 226.12 1128.1 226.45 1125.79 226.45C1124.71 226.45 1123.7 226.405 1122.77 226.315C1121.84 226.255 1120.97 226.15 1120.16 226C1119.38 225.88 1118.68 225.73 1118.05 225.55C1117.42 225.37 1116.88 225.175 1116.43 224.965C1116.25 224.905 1116.13 224.83 1116.07 224.74C1116.04 224.65 1116.02 224.485 1116.02 224.245C1116.02 223.555 1116.02 222.73 1116.02 221.77C1116.02 220.81 1116.02 219.88 1116.02 218.98H1116.83C1117.55 219.28 1118.24 219.535 1118.9 219.745C1119.59 219.925 1120.28 220.075 1120.97 220.195C1121.69 220.315 1122.44 220.405 1123.22 220.465C1124.03 220.525 1124.9 220.555 1125.83 220.555ZM1139.48 201.79H1156.85C1157.03 201.79 1157.17 201.835 1157.26 201.925C1157.35 202.015 1157.39 202.135 1157.39 202.285C1157.39 202.915 1157.39 203.5 1157.39 204.04C1157.39 204.58 1157.39 205.135 1157.39 205.705C1157.39 206.275 1157.39 206.86 1157.39 207.46H1140.02C1139.96 207.46 1139.9 207.445 1139.84 207.415C1139.78 207.385 1139.72 207.355 1139.66 207.325C1139.6 207.265 1139.56 207.205 1139.53 207.145C1139.5 207.085 1139.48 207.025 1139.48 206.965C1139.48 206.365 1139.48 205.78 1139.48 205.21C1139.48 204.64 1139.48 204.085 1139.48 203.545C1139.48 203.005 1139.48 202.42 1139.48 201.79ZM1157.39 220.195C1157.39 221.095 1157.39 221.995 1157.39 222.895C1157.39 223.765 1157.39 224.635 1157.39 225.505C1157.39 225.625 1157.35 225.745 1157.26 225.865C1157.17 225.955 1157.05 226 1156.9 226C1156.6 226 1156.28 226 1155.95 226C1155.65 226 1155.34 226 1155.01 226C1154.71 226 1154.41 226 1154.11 226C1153.81 226 1153.49 226 1153.16 226C1151.6 226 1150.21 225.82 1148.98 225.46C1147.75 225.07 1146.7 224.485 1145.83 223.705C1144.96 222.925 1144.3 221.92 1143.85 220.69C1143.4 219.46 1143.17 218.005 1143.17 216.325C1143.17 214.855 1143.17 213.4 1143.17 211.96C1143.17 210.52 1143.17 209.08 1143.17 207.64C1143.17 206.2 1143.17 204.76 1143.17 203.32C1143.17 201.88 1143.17 200.44 1143.17 199C1143.17 198.22 1143.17 197.47 1143.17 196.75C1143.17 196 1143.17 195.25 1143.17 194.5C1144.1 194.5 1145.03 194.5 1145.96 194.5C1146.92 194.5 1147.85 194.5 1148.75 194.5C1148.84 194.5 1148.92 194.53 1148.98 194.59C1149.07 194.62 1149.13 194.68 1149.16 194.77C1149.22 194.83 1149.25 194.905 1149.25 194.995C1149.25 196.735 1149.25 198.475 1149.25 200.215C1149.25 201.925 1149.25 203.65 1149.25 205.39C1149.25 207.13 1149.25 208.87 1149.25 210.61C1149.25 212.32 1149.25 214.045 1149.25 215.785C1149.25 216.685 1149.34 217.42 1149.52 217.99C1149.7 218.56 1149.97 219.025 1150.33 219.385C1150.66 219.685 1151.06 219.895 1151.54 220.015C1152.05 220.135 1152.67 220.195 1153.39 220.195C1153.78 220.195 1154.15 220.195 1154.51 220.195C1154.9 220.195 1155.29 220.195 1155.68 220.195C1156.07 220.195 1156.46 220.195 1156.85 220.195H1157.39ZM1169.18 206.11H1170.98C1171.34 205 1171.76 204.1 1172.24 203.41C1172.72 202.69 1173.31 202.165 1174 201.835C1174.72 201.505 1175.53 201.34 1176.43 201.34C1176.91 201.34 1177.3 201.385 1177.6 201.475C1177.93 201.565 1178.15 201.655 1178.27 201.745C1178.39 201.835 1178.47 201.925 1178.5 202.015C1178.53 202.075 1178.54 202.18 1178.54 202.33C1178.54 202.81 1178.54 203.29 1178.54 203.77C1178.54 204.22 1178.54 204.67 1178.54 205.12C1178.54 205.57 1178.54 206.035 1178.54 206.515C1178.54 206.965 1178.54 207.43 1178.54 207.91H1177.69C1177.39 207.82 1177.06 207.745 1176.7 207.685C1176.34 207.625 1175.93 207.595 1175.48 207.595C1174.55 207.595 1173.73 207.775 1173.01 208.135C1172.32 208.495 1171.67 209.005 1171.07 209.665C1170.47 210.295 1169.84 211.045 1169.18 211.915V206.11ZM1170.04 226C1169.38 226 1168.7 226 1168.01 226C1167.35 226 1166.69 226 1166.03 226C1165.37 226 1164.71 226 1164.05 226C1163.96 226 1163.89 226 1163.83 226C1163.77 225.97 1163.71 225.94 1163.65 225.91C1163.62 225.85 1163.59 225.79 1163.56 225.73C1163.56 225.67 1163.56 225.595 1163.56 225.505C1163.56 224.395 1163.56 223.225 1163.56 221.995C1163.56 220.735 1163.56 219.445 1163.56 218.125C1163.56 216.805 1163.56 215.485 1163.56 214.165C1163.56 212.815 1163.56 211.48 1163.56 210.16C1163.56 208.81 1163.56 207.49 1163.56 206.2C1163.56 205.36 1163.56 204.565 1163.56 203.815C1163.56 203.065 1163.56 202.39 1163.56 201.79C1164.31 201.79 1165.01 201.79 1165.67 201.79C1166.36 201.79 1167.02 201.79 1167.65 201.79C1168.31 201.79 1168.94 201.79 1169.54 201.79C1169.66 201.79 1169.75 201.82 1169.81 201.88C1169.87 201.91 1169.92 201.955 1169.95 202.015C1170.01 202.075 1170.04 202.165 1170.04 202.285C1170.04 203.665 1170.04 205.12 1170.04 206.65C1170.04 208.18 1170.04 209.74 1170.04 211.33C1170.04 212.92 1170.04 214.555 1170.04 216.235C1170.04 217.885 1170.04 219.535 1170.04 221.185C1170.04 222.805 1170.04 224.41 1170.04 226ZM1193.46 201.25C1195.08 201.25 1196.55 201.505 1197.87 202.015C1199.22 202.525 1200.37 203.245 1201.33 204.175C1202.29 205.075 1203.03 206.155 1203.54 207.415C1204.08 208.675 1204.35 210.07 1204.35 211.6V216.145C1204.35 218.185 1203.88 219.985 1202.95 221.545C1202.05 223.105 1200.78 224.335 1199.13 225.235C1197.51 226.105 1195.62 226.54 1193.46 226.54C1191.84 226.54 1190.35 226.285 1189 225.775C1187.68 225.265 1186.54 224.56 1185.58 223.66C1184.62 222.73 1183.87 221.635 1183.33 220.375C1182.82 219.115 1182.57 217.72 1182.57 216.19V211.645C1182.57 209.605 1183.02 207.805 1183.92 206.245C1184.85 204.685 1186.14 203.47 1187.79 202.6C1189.44 201.7 1191.33 201.25 1193.46 201.25ZM1193.5 206.785C1192.48 206.785 1191.61 206.995 1190.89 207.415C1190.17 207.805 1189.62 208.39 1189.23 209.17C1188.84 209.92 1188.64 210.835 1188.64 211.915V215.875C1188.64 216.715 1188.76 217.465 1189 218.125C1189.24 218.755 1189.57 219.31 1189.99 219.79C1190.38 220.18 1190.86 220.48 1191.43 220.69C1192.03 220.9 1192.69 221.005 1193.41 221.005C1194.43 221.005 1195.3 220.81 1196.02 220.42C1196.77 220 1197.33 219.4 1197.69 218.62C1198.08 217.84 1198.27 216.925 1198.27 215.875V211.915C1198.27 210.985 1198.17 210.205 1197.96 209.575C1197.75 208.915 1197.43 208.375 1197.01 207.955C1196.62 207.535 1196.13 207.235 1195.53 207.055C1194.96 206.875 1194.28 206.785 1193.5 206.785ZM1216.43 226C1215.77 226 1215.14 226 1214.54 226C1213.97 226 1213.37 226 1212.74 226C1212.14 226 1211.51 226 1210.85 226C1210.76 226 1210.67 225.985 1210.58 225.955C1210.52 225.895 1210.46 225.835 1210.4 225.775C1210.37 225.715 1210.36 225.625 1210.36 225.505C1210.36 223.105 1210.36 220.705 1210.36 218.305C1210.36 215.905 1210.36 213.505 1210.36 211.105C1210.36 208.675 1210.36 206.26 1210.36 203.86C1210.36 201.46 1210.36 199.06 1210.36 196.66C1210.36 195.82 1210.36 195.025 1210.36 194.275C1210.36 193.525 1210.36 192.85 1210.36 192.25C1211.11 192.25 1211.78 192.25 1212.38 192.25C1213.01 192.25 1213.61 192.25 1214.18 192.25C1214.78 192.25 1215.37 192.25 1215.94 192.25C1216.06 192.25 1216.15 192.28 1216.21 192.34C1216.27 192.37 1216.31 192.415 1216.34 192.475C1216.4 192.535 1216.43 192.625 1216.43 192.745C1216.43 195.505 1216.43 198.28 1216.43 201.07C1216.43 203.83 1216.43 206.605 1216.43 209.395C1216.43 212.155 1216.43 214.93 1216.43 217.72C1216.43 220.48 1216.43 223.24 1216.43 226ZM1226.47 226C1226.11 226 1225.84 225.955 1225.66 225.865C1225.48 225.775 1225.3 225.61 1225.12 225.37C1225 225.22 1224.83 224.995 1224.62 224.695C1224.41 224.365 1224.16 224.005 1223.86 223.615C1223.59 223.195 1223.29 222.76 1222.96 222.31C1222.66 221.86 1222.36 221.425 1222.06 221.005C1221.67 220.435 1221.34 219.91 1221.07 219.43C1220.8 218.92 1220.57 218.395 1220.39 217.855C1220.21 217.285 1220.06 216.67 1219.94 216.01H1218.1L1221.83 211.24C1223.09 212.92 1224.34 214.585 1225.57 216.235C1226.83 217.855 1228.07 219.475 1229.3 221.095C1230.56 222.715 1231.82 224.35 1233.08 226C1232.42 226 1231.78 226 1231.15 226C1230.55 226 1229.87 226 1229.12 226C1228.4 226 1227.52 226 1226.47 226ZM1215.58 212.095H1217.29C1217.5 211.465 1217.71 210.895 1217.92 210.385C1218.13 209.875 1218.35 209.395 1218.59 208.945C1218.83 208.495 1219.09 208.075 1219.36 207.685C1219.66 207.295 1219.99 206.89 1220.35 206.47C1220.74 205.99 1221.13 205.525 1221.52 205.075C1221.91 204.625 1222.33 204.13 1222.78 203.59C1223.26 203.05 1223.77 202.45 1224.31 201.79H1231.01C1231.1 201.79 1231.18 201.805 1231.24 201.835C1231.33 201.865 1231.39 201.91 1231.42 201.97C1231.45 202.03 1231.46 202.105 1231.46 202.195C1231.46 202.285 1231.45 202.375 1231.42 202.465C1231.39 202.525 1231.28 202.645 1231.1 202.825C1230.17 203.875 1229.24 204.895 1228.31 205.885C1227.41 206.845 1226.53 207.82 1225.66 208.81C1224.79 209.77 1223.92 210.715 1223.05 211.645C1222.21 212.545 1221.35 213.46 1220.48 214.39C1219.64 215.32 1218.82 216.235 1218.01 217.135C1217.23 218.035 1216.42 218.92 1215.58 219.79V212.095ZM1245.71 201.25C1247.75 201.25 1249.52 201.67 1251.02 202.51C1252.55 203.35 1253.73 204.52 1254.57 206.02C1255.41 207.52 1255.83 209.275 1255.83 211.285V215.02C1255.83 215.11 1255.82 215.2 1255.79 215.29C1255.76 215.35 1255.7 215.395 1255.61 215.425C1255.55 215.455 1255.47 215.47 1255.38 215.47H1245.03C1244.52 215.47 1244 215.47 1243.46 215.47C1242.95 215.47 1242.44 215.47 1241.93 215.47H1240.08L1239.95 211.69H1249.94C1249.94 211.57 1249.94 211.465 1249.94 211.375C1249.94 211.285 1249.94 211.18 1249.94 211.06C1249.94 210.19 1249.85 209.455 1249.67 208.855C1249.49 208.225 1249.2 207.73 1248.81 207.37C1248.48 207.01 1248.06 206.755 1247.55 206.605C1247.04 206.455 1246.43 206.38 1245.71 206.38C1244.21 206.38 1243.08 206.755 1242.33 207.505C1241.61 208.225 1241.25 209.41 1241.25 211.06V216.55C1241.25 217.27 1241.34 217.915 1241.52 218.485C1241.73 219.025 1242.02 219.49 1242.38 219.88C1242.86 220.36 1243.49 220.705 1244.27 220.915C1245.08 221.125 1246.01 221.23 1247.06 221.23C1248.14 221.23 1249.1 221.185 1249.94 221.095C1250.78 220.975 1251.56 220.825 1252.28 220.645C1253 220.435 1253.7 220.21 1254.39 219.97H1255.25C1255.25 220.72 1255.25 221.485 1255.25 222.265C1255.25 223.015 1255.25 223.78 1255.25 224.56C1255.25 224.62 1255.23 224.68 1255.2 224.74C1255.17 224.8 1255.13 224.86 1255.07 224.92C1254.83 225.16 1254.29 225.4 1253.45 225.64C1252.64 225.88 1251.65 226.09 1250.48 226.27C1249.34 226.45 1248.17 226.54 1246.97 226.54C1245.02 226.54 1243.29 226.315 1241.79 225.865C1240.32 225.385 1239.09 224.71 1238.1 223.84C1237.14 222.97 1236.41 221.92 1235.9 220.69C1235.42 219.43 1235.18 218.02 1235.18 216.46V211.33C1235.18 209.8 1235.42 208.42 1235.9 207.19C1236.41 205.96 1237.13 204.91 1238.06 204.04C1238.99 203.14 1240.1 202.45 1241.39 201.97C1242.68 201.49 1244.12 201.25 1245.71 201.25ZM1010.88 266.25C1011.99 266.25 1012.96 266.325 1013.8 266.475C1014.64 266.595 1015.32 266.76 1015.83 266.97C1016.37 267.15 1016.73 267.33 1016.91 267.51C1016.97 267.54 1017 267.6 1017 267.69C1017.03 267.75 1017.04 267.825 1017.04 267.915C1017.04 268.755 1017.04 269.61 1017.04 270.48C1017.04 271.35 1017.04 272.22 1017.04 273.09H1016.19C1015.38 272.73 1014.54 272.46 1013.67 272.28C1012.8 272.1 1011.85 272.01 1010.83 272.01C1009.84 272.01 1008.96 272.205 1008.18 272.595C1007.4 272.955 1006.8 273.54 1006.38 274.35C1005.96 275.16 1005.75 276.21 1005.75 277.5V280.335C1005.75 281.295 1005.87 282.135 1006.11 282.855C1006.35 283.545 1006.72 284.115 1007.23 284.565C1007.65 284.985 1008.16 285.3 1008.76 285.51C1009.36 285.69 1010.05 285.78 1010.83 285.78C1011.52 285.78 1012.17 285.75 1012.77 285.69C1013.37 285.6 1013.95 285.48 1014.52 285.33C1015.09 285.18 1015.65 284.985 1016.19 284.745H1017.04C1017.04 285.615 1017.04 286.485 1017.04 287.355C1017.04 288.225 1017.04 289.095 1017.04 289.965C1017.04 290.025 1017.03 290.085 1017 290.145C1017 290.205 1016.97 290.265 1016.91 290.325C1016.76 290.475 1016.41 290.655 1015.87 290.865C1015.36 291.045 1014.67 291.195 1013.8 291.315C1012.96 291.465 1011.99 291.54 1010.88 291.54C1009.08 291.54 1007.47 291.3 1006.06 290.82C1004.65 290.34 1003.45 289.635 1002.46 288.705C1001.47 287.745 1000.72 286.59 1000.21 285.24C999.701 283.89 999.446 282.36 999.446 280.65V277.41C999.446 275.19 999.926 273.255 1000.89 271.605C1001.85 269.925 1003.18 268.62 1004.89 267.69C1006.6 266.73 1008.6 266.25 1010.88 266.25ZM1032.84 266.25C1034.46 266.25 1035.93 266.505 1037.25 267.015C1038.6 267.525 1039.75 268.245 1040.71 269.175C1041.67 270.075 1042.41 271.155 1042.92 272.415C1043.46 273.675 1043.73 275.07 1043.73 276.6V281.145C1043.73 283.185 1043.26 284.985 1042.33 286.545C1041.43 288.105 1040.16 289.335 1038.51 290.235C1036.89 291.105 1035 291.54 1032.84 291.54C1031.22 291.54 1029.73 291.285 1028.38 290.775C1027.06 290.265 1025.92 289.56 1024.96 288.66C1024 287.73 1023.25 286.635 1022.71 285.375C1022.2 284.115 1021.95 282.72 1021.95 281.19V276.645C1021.95 274.605 1022.4 272.805 1023.3 271.245C1024.23 269.685 1025.52 268.47 1027.17 267.6C1028.82 266.7 1030.71 266.25 1032.84 266.25ZM1032.88 271.785C1031.86 271.785 1030.99 271.995 1030.27 272.415C1029.55 272.805 1029 273.39 1028.61 274.17C1028.22 274.92 1028.02 275.835 1028.02 276.915V280.875C1028.02 281.715 1028.14 282.465 1028.38 283.125C1028.62 283.755 1028.95 284.31 1029.37 284.79C1029.76 285.18 1030.24 285.48 1030.81 285.69C1031.41 285.9 1032.07 286.005 1032.79 286.005C1033.81 286.005 1034.68 285.81 1035.4 285.42C1036.15 285 1036.71 284.4 1037.07 283.62C1037.46 282.84 1037.65 281.925 1037.65 280.875V276.915C1037.65 275.985 1037.55 275.205 1037.34 274.575C1037.13 273.915 1036.81 273.375 1036.39 272.955C1036 272.535 1035.51 272.235 1034.91 272.055C1034.34 271.875 1033.66 271.785 1032.88 271.785ZM1070.3 291C1069.31 291 1068.38 291 1067.51 291C1066.67 291 1065.74 291 1064.72 291C1064.63 291 1064.54 290.985 1064.45 290.955C1064.39 290.895 1064.33 290.835 1064.27 290.775C1064.24 290.715 1064.23 290.625 1064.23 290.505C1064.23 288.735 1064.23 286.965 1064.23 285.195C1064.23 283.395 1064.23 281.61 1064.23 279.84C1064.23 278.07 1064.23 276.3 1064.23 274.53C1064.23 273.72 1064.05 273.12 1063.69 272.73C1063.33 272.34 1062.76 272.145 1061.98 272.145C1061.47 272.145 1060.9 272.235 1060.27 272.415C1059.67 272.565 1059.05 272.805 1058.42 273.135C1057.82 273.435 1057.24 273.825 1056.67 274.305C1056.1 274.785 1055.57 275.355 1055.09 276.015V270.705H1056.67C1057.27 269.805 1057.93 269.025 1058.65 268.365C1059.4 267.705 1060.21 267.195 1061.08 266.835C1061.98 266.445 1062.94 266.25 1063.96 266.25C1064.92 266.25 1065.79 266.415 1066.57 266.745C1067.38 267.045 1068.05 267.51 1068.59 268.14C1069.16 268.74 1069.58 269.475 1069.85 270.345C1070.15 271.215 1070.3 272.19 1070.3 273.27C1070.3 274.71 1070.3 276.165 1070.3 277.635C1070.3 279.105 1070.3 280.575 1070.3 282.045C1070.3 283.515 1070.3 285 1070.3 286.5C1070.3 287.25 1070.3 288 1070.3 288.75C1070.3 289.5 1070.3 290.25 1070.3 291ZM1055.81 291C1055.15 291 1054.52 291 1053.92 291C1053.35 291 1052.75 291 1052.12 291C1051.52 291 1050.89 291 1050.23 291C1050.14 291 1050.07 291 1050.01 291C1049.95 290.97 1049.89 290.94 1049.83 290.91C1049.8 290.85 1049.77 290.79 1049.74 290.73C1049.74 290.67 1049.74 290.595 1049.74 290.505C1049.74 288.885 1049.74 287.28 1049.74 285.69C1049.74 284.07 1049.74 282.465 1049.74 280.875C1049.74 279.255 1049.74 277.65 1049.74 276.06C1049.74 274.44 1049.74 272.82 1049.74 271.2C1049.74 270.36 1049.74 269.565 1049.74 268.815C1049.74 268.065 1049.74 267.39 1049.74 266.79C1050.49 266.79 1051.16 266.79 1051.76 266.79C1052.39 266.79 1052.99 266.79 1053.56 266.79C1054.16 266.79 1054.75 266.79 1055.32 266.79C1055.44 266.79 1055.53 266.82 1055.59 266.88C1055.65 266.91 1055.69 266.955 1055.72 267.015C1055.78 267.075 1055.81 267.165 1055.81 267.285C1055.81 269.895 1055.81 272.52 1055.81 275.16C1055.81 277.8 1055.81 280.44 1055.81 283.08C1055.81 285.72 1055.81 288.36 1055.81 291ZM1074.27 266.79H1091.64C1091.82 266.79 1091.95 266.835 1092.04 266.925C1092.13 267.015 1092.18 267.135 1092.18 267.285C1092.18 267.915 1092.18 268.5 1092.18 269.04C1092.18 269.58 1092.18 270.135 1092.18 270.705C1092.18 271.275 1092.18 271.86 1092.18 272.46H1074.81C1074.75 272.46 1074.69 272.445 1074.63 272.415C1074.57 272.385 1074.51 272.355 1074.45 272.325C1074.39 272.265 1074.34 272.205 1074.31 272.145C1074.28 272.085 1074.27 272.025 1074.27 271.965C1074.27 271.365 1074.27 270.78 1074.27 270.21C1074.27 269.64 1074.27 269.085 1074.27 268.545C1074.27 268.005 1074.27 267.42 1074.27 266.79ZM1092.18 285.195C1092.18 286.095 1092.18 286.995 1092.18 287.895C1092.18 288.765 1092.18 289.635 1092.18 290.505C1092.18 290.625 1092.13 290.745 1092.04 290.865C1091.95 290.955 1091.83 291 1091.68 291C1091.38 291 1091.07 291 1090.74 291C1090.44 291 1090.12 291 1089.79 291C1089.49 291 1089.19 291 1088.89 291C1088.59 291 1088.28 291 1087.95 291C1086.39 291 1084.99 290.82 1083.76 290.46C1082.53 290.07 1081.48 289.485 1080.61 288.705C1079.74 287.925 1079.08 286.92 1078.63 285.69C1078.18 284.46 1077.96 283.005 1077.96 281.325C1077.96 279.855 1077.96 278.4 1077.96 276.96C1077.96 275.52 1077.96 274.08 1077.96 272.64C1077.96 271.2 1077.96 269.76 1077.96 268.32C1077.96 266.88 1077.96 265.44 1077.96 264C1077.96 263.22 1077.96 262.47 1077.96 261.75C1077.96 261 1077.96 260.25 1077.96 259.5C1078.89 259.5 1079.82 259.5 1080.75 259.5C1081.71 259.5 1082.64 259.5 1083.54 259.5C1083.63 259.5 1083.7 259.53 1083.76 259.59C1083.85 259.62 1083.91 259.68 1083.94 259.77C1084 259.83 1084.03 259.905 1084.03 259.995C1084.03 261.735 1084.03 263.475 1084.03 265.215C1084.03 266.925 1084.03 268.65 1084.03 270.39C1084.03 272.13 1084.03 273.87 1084.03 275.61C1084.03 277.32 1084.03 279.045 1084.03 280.785C1084.03 281.685 1084.12 282.42 1084.3 282.99C1084.48 283.56 1084.75 284.025 1085.11 284.385C1085.44 284.685 1085.85 284.895 1086.33 285.015C1086.84 285.135 1087.45 285.195 1088.17 285.195C1088.56 285.195 1088.94 285.195 1089.3 285.195C1089.69 285.195 1090.08 285.195 1090.47 285.195C1090.86 285.195 1091.25 285.195 1091.64 285.195H1092.18ZM1103.97 271.11H1105.77C1106.13 270 1106.55 269.1 1107.03 268.41C1107.51 267.69 1108.09 267.165 1108.78 266.835C1109.5 266.505 1110.31 266.34 1111.21 266.34C1111.69 266.34 1112.08 266.385 1112.38 266.475C1112.71 266.565 1112.94 266.655 1113.06 266.745C1113.18 266.835 1113.25 266.925 1113.28 267.015C1113.31 267.075 1113.33 267.18 1113.33 267.33C1113.33 267.81 1113.33 268.29 1113.33 268.77C1113.33 269.22 1113.33 269.67 1113.33 270.12C1113.33 270.57 1113.33 271.035 1113.33 271.515C1113.33 271.965 1113.33 272.43 1113.33 272.91H1112.47C1112.17 272.82 1111.84 272.745 1111.48 272.685C1111.12 272.625 1110.72 272.595 1110.27 272.595C1109.34 272.595 1108.51 272.775 1107.79 273.135C1107.1 273.495 1106.46 274.005 1105.86 274.665C1105.26 275.295 1104.63 276.045 1103.97 276.915V271.11ZM1104.82 291C1104.16 291 1103.49 291 1102.8 291C1102.14 291 1101.48 291 1100.82 291C1100.16 291 1099.5 291 1098.84 291C1098.75 291 1098.67 291 1098.61 291C1098.55 290.97 1098.49 290.94 1098.43 290.91C1098.4 290.85 1098.37 290.79 1098.34 290.73C1098.34 290.67 1098.34 290.595 1098.34 290.505C1098.34 289.395 1098.34 288.225 1098.34 286.995C1098.34 285.735 1098.34 284.445 1098.34 283.125C1098.34 281.805 1098.34 280.485 1098.34 279.165C1098.34 277.815 1098.34 276.48 1098.34 275.16C1098.34 273.81 1098.34 272.49 1098.34 271.2C1098.34 270.36 1098.34 269.565 1098.34 268.815C1098.34 268.065 1098.34 267.39 1098.34 266.79C1099.09 266.79 1099.8 266.79 1100.46 266.79C1101.15 266.79 1101.81 266.79 1102.44 266.79C1103.1 266.79 1103.73 266.79 1104.33 266.79C1104.45 266.79 1104.54 266.82 1104.6 266.88C1104.66 266.91 1104.7 266.955 1104.73 267.015C1104.79 267.075 1104.82 267.165 1104.82 267.285C1104.82 268.665 1104.82 270.12 1104.82 271.65C1104.82 273.18 1104.82 274.74 1104.82 276.33C1104.82 277.92 1104.82 279.555 1104.82 281.235C1104.82 282.885 1104.82 284.535 1104.82 286.185C1104.82 287.805 1104.82 289.41 1104.82 291ZM1136.77 275.655C1136.77 276.405 1136.77 277.14 1136.77 277.86C1136.77 278.55 1136.77 279.27 1136.77 280.02C1136.77 280.74 1136.77 281.475 1136.77 282.225C1136.77 282.945 1136.77 283.65 1136.77 284.34C1136.77 284.58 1136.78 284.79 1136.81 284.97C1136.87 285.15 1136.96 285.3 1137.08 285.42C1137.17 285.51 1137.29 285.585 1137.44 285.645C1137.62 285.675 1137.82 285.69 1138.03 285.69C1138.12 285.69 1138.19 285.69 1138.25 285.69C1138.34 285.69 1138.43 285.69 1138.52 285.69H1139.38C1139.38 286.5 1139.38 287.31 1139.38 288.12C1139.38 288.9 1139.38 289.695 1139.38 290.505C1139.38 290.655 1139.33 290.775 1139.24 290.865C1139.15 290.955 1139.03 291 1138.88 291C1138.73 291 1138.36 291 1137.76 291C1137.19 291 1136.68 291 1136.23 291C1135.39 291 1134.64 290.865 1133.98 290.595C1133.32 290.325 1132.73 289.95 1132.22 289.47C1131.71 288.96 1131.32 288.36 1131.05 287.67C1130.78 286.98 1130.65 286.2 1130.65 285.33C1130.65 284.4 1130.65 283.455 1130.65 282.495C1130.65 281.535 1130.65 280.59 1130.65 279.66C1130.65 279.15 1130.65 278.67 1130.65 278.22C1130.65 277.74 1130.65 277.26 1130.65 276.78C1130.65 276.3 1130.65 275.82 1130.65 275.34C1130.65 274.47 1130.5 273.795 1130.2 273.315C1129.9 272.805 1129.4 272.445 1128.71 272.235C1128.05 272.025 1127.15 271.92 1126.01 271.92C1125.17 271.92 1124.35 271.965 1123.54 272.055C1122.76 272.145 1121.98 272.265 1121.2 272.415C1120.45 272.565 1119.68 272.775 1118.9 273.045H1118.05C1118.05 272.235 1118.05 271.425 1118.05 270.615C1118.05 269.805 1118.05 269.01 1118.05 268.23C1118.05 268.11 1118.06 268.02 1118.09 267.96C1118.12 267.9 1118.15 267.855 1118.18 267.825C1118.36 267.645 1118.86 267.435 1119.67 267.195C1120.51 266.955 1121.5 266.76 1122.64 266.61C1123.78 266.43 1124.9 266.34 1126.01 266.34C1127.9 266.34 1129.52 266.52 1130.87 266.88C1132.22 267.21 1133.33 267.75 1134.2 268.5C1135.07 269.25 1135.72 270.225 1136.14 271.425C1136.56 272.595 1136.77 274.005 1136.77 275.655ZM1122.37 284.16C1122.37 284.79 1122.53 285.27 1122.86 285.6C1123.22 285.9 1123.76 286.05 1124.48 286.05C1125.29 286.05 1126.09 285.96 1126.87 285.78C1127.65 285.6 1128.41 285.3 1129.16 284.88C1129.94 284.46 1130.72 283.92 1131.5 283.26V287.13H1130.15C1129.76 288.03 1129.21 288.81 1128.49 289.47C1127.8 290.1 1126.99 290.595 1126.06 290.955C1125.13 291.285 1124.11 291.45 1123 291.45C1121.62 291.45 1120.42 291.18 1119.4 290.64C1118.41 290.1 1117.64 289.35 1117.1 288.39C1116.56 287.4 1116.29 286.26 1116.29 284.97V283.395C1116.29 282.405 1116.46 281.52 1116.79 280.74C1117.12 279.96 1117.58 279.285 1118.18 278.715C1118.81 278.145 1119.56 277.71 1120.43 277.41C1121.3 277.08 1122.28 276.915 1123.36 276.915C1124.41 276.915 1125.43 276.915 1126.42 276.915C1127.44 276.915 1128.4 276.915 1129.3 276.915C1130.23 276.915 1131.1 276.915 1131.91 276.915C1132.18 276.915 1132.37 277.155 1132.49 277.635C1132.64 278.115 1132.73 278.655 1132.76 279.255C1132.79 279.825 1132.81 280.305 1132.81 280.695C1131.85 280.695 1130.92 280.695 1130.02 280.695C1129.12 280.695 1128.2 280.695 1127.27 280.695C1126.37 280.695 1125.44 280.695 1124.48 280.695C1124.12 280.695 1123.81 280.74 1123.54 280.83C1123.3 280.92 1123.09 281.055 1122.91 281.235C1122.76 281.415 1122.62 281.625 1122.5 281.865C1122.41 282.075 1122.37 282.315 1122.37 282.585V284.16ZM1152.86 285.555C1154.66 285.555 1155.89 285.36 1156.55 284.97C1157.21 284.55 1157.54 284.07 1157.54 283.53C1157.54 283.2 1157.45 282.9 1157.27 282.63C1157.12 282.36 1156.84 282.135 1156.42 281.955C1156.03 281.745 1155.46 281.58 1154.71 281.46L1150.07 280.785C1148.63 280.545 1147.43 280.14 1146.47 279.57C1145.51 278.97 1144.79 278.22 1144.31 277.32C1143.86 276.42 1143.64 275.415 1143.64 274.305C1143.64 273.045 1143.88 271.935 1144.36 270.975C1144.87 269.985 1145.6 269.145 1146.56 268.455C1147.52 267.765 1148.71 267.24 1150.12 266.88C1151.53 266.52 1153.13 266.34 1154.93 266.34C1155.89 266.34 1156.78 266.385 1157.59 266.475C1158.4 266.535 1159.13 266.625 1159.79 266.745C1160.45 266.865 1161.04 267 1161.55 267.15C1161.76 267.21 1161.91 267.285 1162 267.375C1162.12 267.435 1162.18 267.525 1162.18 267.645C1162.21 267.765 1162.22 267.945 1162.22 268.185C1162.22 268.815 1162.22 269.61 1162.22 270.57C1162.22 271.5 1162.22 272.37 1162.22 273.18H1161.41C1160.6 272.97 1159.82 272.79 1159.07 272.64C1158.32 272.49 1157.56 272.385 1156.78 272.325C1156 272.265 1155.17 272.235 1154.3 272.235C1153.1 272.235 1152.16 272.325 1151.47 272.505C1150.81 272.655 1150.34 272.865 1150.07 273.135C1149.8 273.405 1149.67 273.72 1149.67 274.08C1149.67 274.41 1149.74 274.71 1149.89 274.98C1150.07 275.22 1150.36 275.415 1150.75 275.565C1151.14 275.715 1151.68 275.85 1152.37 275.97L1156.6 276.6C1158.07 276.78 1159.31 277.17 1160.33 277.77C1161.35 278.34 1162.13 279.105 1162.67 280.065C1163.24 280.995 1163.53 282.12 1163.53 283.44C1163.53 285.06 1163.11 286.47 1162.27 287.67C1161.46 288.87 1160.26 289.8 1158.67 290.46C1157.08 291.12 1155.13 291.45 1152.82 291.45C1151.74 291.45 1150.73 291.405 1149.8 291.315C1148.87 291.255 1148 291.15 1147.19 291C1146.41 290.88 1145.71 290.73 1145.08 290.55C1144.45 290.37 1143.91 290.175 1143.46 289.965C1143.28 289.905 1143.16 289.83 1143.1 289.74C1143.07 289.65 1143.05 289.485 1143.05 289.245C1143.05 288.555 1143.05 287.73 1143.05 286.77C1143.05 285.81 1143.05 284.88 1143.05 283.98H1143.86C1144.58 284.28 1145.27 284.535 1145.93 284.745C1146.62 284.925 1147.31 285.075 1148 285.195C1148.72 285.315 1149.47 285.405 1150.25 285.465C1151.06 285.525 1151.93 285.555 1152.86 285.555ZM1166.51 266.79H1183.88C1184.06 266.79 1184.19 266.835 1184.28 266.925C1184.37 267.015 1184.42 267.135 1184.42 267.285C1184.42 267.915 1184.42 268.5 1184.42 269.04C1184.42 269.58 1184.42 270.135 1184.42 270.705C1184.42 271.275 1184.42 271.86 1184.42 272.46H1167.05C1166.99 272.46 1166.93 272.445 1166.87 272.415C1166.81 272.385 1166.75 272.355 1166.69 272.325C1166.63 272.265 1166.58 272.205 1166.55 272.145C1166.52 272.085 1166.51 272.025 1166.51 271.965C1166.51 271.365 1166.51 270.78 1166.51 270.21C1166.51 269.64 1166.51 269.085 1166.51 268.545C1166.51 268.005 1166.51 267.42 1166.51 266.79ZM1184.42 285.195C1184.42 286.095 1184.42 286.995 1184.42 287.895C1184.42 288.765 1184.42 289.635 1184.42 290.505C1184.42 290.625 1184.37 290.745 1184.28 290.865C1184.19 290.955 1184.07 291 1183.92 291C1183.62 291 1183.31 291 1182.98 291C1182.68 291 1182.36 291 1182.03 291C1181.73 291 1181.43 291 1181.13 291C1180.83 291 1180.52 291 1180.19 291C1178.63 291 1177.23 290.82 1176 290.46C1174.77 290.07 1173.72 289.485 1172.85 288.705C1171.98 287.925 1171.32 286.92 1170.87 285.69C1170.42 284.46 1170.2 283.005 1170.2 281.325C1170.2 279.855 1170.2 278.4 1170.2 276.96C1170.2 275.52 1170.2 274.08 1170.2 272.64C1170.2 271.2 1170.2 269.76 1170.2 268.32C1170.2 266.88 1170.2 265.44 1170.2 264C1170.2 263.22 1170.2 262.47 1170.2 261.75C1170.2 261 1170.2 260.25 1170.2 259.5C1171.13 259.5 1172.06 259.5 1172.99 259.5C1173.95 259.5 1174.88 259.5 1175.78 259.5C1175.87 259.5 1175.94 259.53 1176 259.59C1176.09 259.62 1176.15 259.68 1176.18 259.77C1176.24 259.83 1176.27 259.905 1176.27 259.995C1176.27 261.735 1176.27 263.475 1176.27 265.215C1176.27 266.925 1176.27 268.65 1176.27 270.39C1176.27 272.13 1176.27 273.87 1176.27 275.61C1176.27 277.32 1176.27 279.045 1176.27 280.785C1176.27 281.685 1176.36 282.42 1176.54 282.99C1176.72 283.56 1176.99 284.025 1177.35 284.385C1177.68 284.685 1178.09 284.895 1178.57 285.015C1179.08 285.135 1179.69 285.195 1180.41 285.195C1180.8 285.195 1181.18 285.195 1181.54 285.195C1181.93 285.195 1182.32 285.195 1182.71 285.195C1183.1 285.195 1183.49 285.195 1183.88 285.195H1184.42Z" fill="#FFF0DD"/>
<path d="M959.725 498C959.665 498 959.605 497.985 959.545 497.955C959.485 497.925 959.425 497.895 959.365 497.865C959.335 497.805 959.305 497.745 959.275 497.685C959.245 497.625 959.23 497.565 959.23 497.505C959.23 495.195 959.23 492.87 959.23 490.53C959.23 488.19 959.23 485.865 959.23 483.555C959.23 481.245 959.23 478.98 959.23 476.76C959.23 474.51 959.23 472.335 959.23 470.235C959.23 469.605 959.23 468.99 959.23 468.39C959.23 467.76 959.23 467.13 959.23 466.5C960.25 466.5 961.255 466.5 962.245 466.5C963.235 466.5 964.225 466.5 965.215 466.5C965.305 466.5 965.38 466.53 965.44 466.59C965.53 466.62 965.59 466.68 965.62 466.77C965.68 466.83 965.71 466.905 965.71 466.995C965.71 469.095 965.71 471.21 965.71 473.34C965.71 475.47 965.71 477.615 965.71 479.775C965.71 481.905 965.71 484.035 965.71 486.165C965.71 488.295 965.71 490.41 965.71 492.51H973.54C974.32 492.51 974.98 492.615 975.52 492.825C976.09 493.005 976.555 493.32 976.915 493.77C977.275 494.22 977.56 494.79 977.77 495.48C978.01 496.17 978.22 497.01 978.4 498H959.725ZM972.685 489.045C973.285 489.045 973.87 489.045 974.44 489.045C975.01 489.045 975.565 489.045 976.105 489.045C976.675 489.045 977.275 489.045 977.905 489.045C977.995 489.045 978.07 489.075 978.13 489.135C978.22 489.165 978.28 489.225 978.31 489.315C978.37 489.375 978.4 489.45 978.4 489.54C978.4 490.11 978.4 490.755 978.4 491.475C978.4 492.195 978.4 492.96 978.4 493.77C978.4 494.55 978.4 495.315 978.4 496.065C978.4 496.785 978.4 497.43 978.4 498C976.93 497.88 975.775 497.61 974.935 497.19C974.095 496.77 973.51 496.215 973.18 495.525C972.85 494.835 972.685 494.04 972.685 493.14C972.685 492.72 972.685 492.27 972.685 491.79C972.685 491.31 972.685 490.83 972.685 490.35C972.685 489.84 972.685 489.405 972.685 489.045ZM994.277 473.25C996.317 473.25 998.087 473.67 999.587 474.51C1001.12 475.35 1002.3 476.52 1003.14 478.02C1003.98 479.52 1004.4 481.275 1004.4 483.285V487.02C1004.4 487.11 1004.39 487.2 1004.36 487.29C1004.33 487.35 1004.27 487.395 1004.18 487.425C1004.12 487.455 1004.04 487.47 1003.95 487.47H993.602C993.092 487.47 992.567 487.47 992.027 487.47C991.517 487.47 991.007 487.47 990.497 487.47H988.652L988.517 483.69H998.507C998.507 483.57 998.507 483.465 998.507 483.375C998.507 483.285 998.507 483.18 998.507 483.06C998.507 482.19 998.417 481.455 998.237 480.855C998.057 480.225 997.772 479.73 997.382 479.37C997.052 479.01 996.632 478.755 996.122 478.605C995.612 478.455 994.997 478.38 994.277 478.38C992.777 478.38 991.652 478.755 990.902 479.505C990.182 480.225 989.822 481.41 989.822 483.06V488.55C989.822 489.27 989.912 489.915 990.092 490.485C990.302 491.025 990.587 491.49 990.947 491.88C991.427 492.36 992.057 492.705 992.837 492.915C993.647 493.125 994.577 493.23 995.627 493.23C996.707 493.23 997.667 493.185 998.507 493.095C999.347 492.975 1000.13 492.825 1000.85 492.645C1001.57 492.435 1002.27 492.21 1002.96 491.97H1003.82C1003.82 492.72 1003.82 493.485 1003.82 494.265C1003.82 495.015 1003.82 495.78 1003.82 496.56C1003.82 496.62 1003.8 496.68 1003.77 496.74C1003.74 496.8 1003.7 496.86 1003.64 496.92C1003.4 497.16 1002.86 497.4 1002.02 497.64C1001.21 497.88 1000.22 498.09 999.047 498.27C997.907 498.45 996.737 498.54 995.537 498.54C993.587 498.54 991.862 498.315 990.362 497.865C988.892 497.385 987.662 496.71 986.672 495.84C985.712 494.97 984.977 493.92 984.467 492.69C983.987 491.43 983.747 490.02 983.747 488.46V483.33C983.747 481.8 983.987 480.42 984.467 479.19C984.977 477.96 985.697 476.91 986.627 476.04C987.557 475.14 988.667 474.45 989.957 473.97C991.247 473.49 992.687 473.25 994.277 473.25ZM1009.06 474.96H1023.28C1023.4 474.96 1023.49 474.99 1023.55 475.05C1023.61 475.08 1023.66 475.125 1023.69 475.185C1023.75 475.245 1023.78 475.335 1023.78 475.455C1023.78 476.295 1023.78 477.09 1023.78 477.84C1023.78 478.59 1023.78 479.4 1023.78 480.27H1009.56C1009.47 480.27 1009.38 480.255 1009.29 480.225C1009.23 480.165 1009.17 480.105 1009.11 480.045C1009.08 479.955 1009.06 479.865 1009.06 479.775C1009.06 478.905 1009.06 478.095 1009.06 477.345C1009.06 476.595 1009.06 475.8 1009.06 474.96ZM1018.06 497.505C1018.06 497.625 1018.02 497.745 1017.93 497.865C1017.84 497.955 1017.72 498 1017.57 498C1016.61 498 1015.68 498 1014.78 498C1013.88 498 1012.93 498 1011.94 498C1011.94 497.25 1011.94 496.5 1011.94 495.75C1011.94 495 1011.94 494.25 1011.94 493.5C1011.94 491.58 1011.94 489.78 1011.94 488.1C1011.94 486.39 1011.94 484.725 1011.94 483.105C1011.94 481.455 1011.94 479.76 1011.94 478.02C1011.94 476.25 1011.94 474.33 1011.94 472.26C1011.94 470.91 1012.14 469.695 1012.53 468.615C1012.92 467.505 1013.47 466.575 1014.19 465.825C1014.91 465.045 1015.8 464.445 1016.85 464.025C1017.93 463.605 1019.14 463.395 1020.49 463.395C1021.3 463.395 1022.02 463.455 1022.65 463.575C1023.28 463.665 1023.81 463.785 1024.23 463.935C1024.65 464.085 1024.93 464.22 1025.08 464.34C1025.14 464.37 1025.17 464.43 1025.17 464.52C1025.2 464.58 1025.22 464.64 1025.22 464.7C1025.22 465.48 1025.22 466.275 1025.22 467.085C1025.22 467.865 1025.22 468.645 1025.22 469.425H1024.36C1024 469.275 1023.64 469.155 1023.28 469.065C1022.95 468.945 1022.61 468.855 1022.25 468.795C1021.89 468.735 1021.51 468.705 1021.12 468.705C1020.73 468.705 1020.34 468.765 1019.95 468.885C1019.56 469.005 1019.22 469.185 1018.92 469.425C1018.62 469.725 1018.39 470.1 1018.24 470.55C1018.12 470.97 1018.06 471.555 1018.06 472.305C1018.06 473.715 1018.06 475.29 1018.06 477.03C1018.06 478.74 1018.06 480.525 1018.06 482.385C1018.06 484.245 1018.06 486.09 1018.06 487.92C1018.06 489.75 1018.06 491.49 1018.06 493.14C1018.06 494.76 1018.06 496.215 1018.06 497.505ZM1027.53 473.79H1044.9C1045.08 473.79 1045.22 473.835 1045.31 473.925C1045.4 474.015 1045.44 474.135 1045.44 474.285C1045.44 474.915 1045.44 475.5 1045.44 476.04C1045.44 476.58 1045.44 477.135 1045.44 477.705C1045.44 478.275 1045.44 478.86 1045.44 479.46H1028.07C1028.01 479.46 1027.95 479.445 1027.89 479.415C1027.83 479.385 1027.77 479.355 1027.71 479.325C1027.65 479.265 1027.61 479.205 1027.58 479.145C1027.55 479.085 1027.53 479.025 1027.53 478.965C1027.53 478.365 1027.53 477.78 1027.53 477.21C1027.53 476.64 1027.53 476.085 1027.53 475.545C1027.53 475.005 1027.53 474.42 1027.53 473.79ZM1045.44 492.195C1045.44 493.095 1045.44 493.995 1045.44 494.895C1045.44 495.765 1045.44 496.635 1045.44 497.505C1045.44 497.625 1045.4 497.745 1045.31 497.865C1045.22 497.955 1045.1 498 1044.95 498C1044.65 498 1044.33 498 1044 498C1043.7 498 1043.39 498 1043.06 498C1042.76 498 1042.46 498 1042.16 498C1041.86 498 1041.54 498 1041.21 498C1039.65 498 1038.26 497.82 1037.03 497.46C1035.8 497.07 1034.75 496.485 1033.88 495.705C1033.01 494.925 1032.35 493.92 1031.9 492.69C1031.45 491.46 1031.22 490.005 1031.22 488.325C1031.22 486.855 1031.22 485.4 1031.22 483.96C1031.22 482.52 1031.22 481.08 1031.22 479.64C1031.22 478.2 1031.22 476.76 1031.22 475.32C1031.22 473.88 1031.22 472.44 1031.22 471C1031.22 470.22 1031.22 469.47 1031.22 468.75C1031.22 468 1031.22 467.25 1031.22 466.5C1032.15 466.5 1033.08 466.5 1034.01 466.5C1034.97 466.5 1035.9 466.5 1036.8 466.5C1036.89 466.5 1036.97 466.53 1037.03 466.59C1037.12 466.62 1037.18 466.68 1037.21 466.77C1037.27 466.83 1037.3 466.905 1037.3 466.995C1037.3 468.735 1037.3 470.475 1037.3 472.215C1037.3 473.925 1037.3 475.65 1037.3 477.39C1037.3 479.13 1037.3 480.87 1037.3 482.61C1037.3 484.32 1037.3 486.045 1037.3 487.785C1037.3 488.685 1037.39 489.42 1037.57 489.99C1037.75 490.56 1038.02 491.025 1038.38 491.385C1038.71 491.685 1039.11 491.895 1039.59 492.015C1040.1 492.135 1040.72 492.195 1041.44 492.195C1041.83 492.195 1042.2 492.195 1042.56 492.195C1042.95 492.195 1043.34 492.195 1043.73 492.195C1044.12 492.195 1044.51 492.195 1044.9 492.195H1045.44ZM1065.46 470.055C1065.46 468.945 1065.46 467.925 1065.46 466.995C1065.46 466.065 1065.46 465.15 1065.46 464.25C1066.3 464.25 1066.9 464.25 1067.26 464.25C1067.62 464.25 1067.87 464.25 1068.02 464.25C1068.2 464.25 1068.35 464.25 1068.47 464.25C1068.62 464.25 1068.88 464.25 1069.24 464.25C1069.6 464.25 1070.2 464.25 1071.04 464.25C1071.16 464.25 1071.25 464.28 1071.31 464.34C1071.37 464.37 1071.41 464.415 1071.44 464.475C1071.5 464.535 1071.53 464.625 1071.53 464.745C1071.53 466.485 1071.53 468.225 1071.53 469.965C1071.53 471.675 1071.53 473.385 1071.53 475.095C1071.53 476.805 1071.53 478.53 1071.53 480.27C1071.53 481.98 1071.53 483.705 1071.53 485.445C1071.53 487.155 1071.53 488.88 1071.53 490.62C1071.53 490.92 1071.55 491.16 1071.58 491.34C1071.64 491.52 1071.74 491.685 1071.89 491.835C1072.04 491.985 1072.22 492.09 1072.43 492.15C1072.64 492.21 1072.91 492.24 1073.24 492.24C1073.36 492.24 1073.51 492.24 1073.69 492.24C1073.9 492.24 1074.1 492.24 1074.28 492.24C1074.49 492.24 1074.67 492.24 1074.82 492.24C1075 492.24 1075.12 492.24 1075.18 492.24H1075.58C1075.58 493.05 1075.58 493.935 1075.58 494.895C1075.58 495.825 1075.58 496.695 1075.58 497.505C1075.58 497.655 1075.54 497.775 1075.45 497.865C1075.36 497.955 1075.24 498 1075.09 498C1075 498 1074.89 498 1074.77 498C1074.68 498 1074.52 498 1074.28 498C1074.07 498 1073.75 498 1073.33 498C1072.91 498 1072.33 498 1071.58 498C1070.56 498 1069.67 497.865 1068.92 497.595C1068.17 497.295 1067.53 496.875 1066.99 496.335C1066.48 495.765 1066.09 495.06 1065.82 494.22C1065.58 493.35 1065.46 492.33 1065.46 491.16C1065.46 489.42 1065.46 487.68 1065.46 485.94C1065.46 484.17 1065.46 482.4 1065.46 480.63C1065.46 478.86 1065.46 477.105 1065.46 475.365C1065.46 473.595 1065.46 471.825 1065.46 470.055ZM1091 473.25C1093.04 473.25 1094.81 473.67 1096.31 474.51C1097.84 475.35 1099.03 476.52 1099.87 478.02C1100.71 479.52 1101.13 481.275 1101.13 483.285V487.02C1101.13 487.11 1101.11 487.2 1101.08 487.29C1101.05 487.35 1100.99 487.395 1100.9 487.425C1100.84 487.455 1100.77 487.47 1100.68 487.47H1090.33C1089.82 487.47 1089.29 487.47 1088.75 487.47C1088.24 487.47 1087.73 487.47 1087.22 487.47H1085.38L1085.24 483.69H1095.23C1095.23 483.57 1095.23 483.465 1095.23 483.375C1095.23 483.285 1095.23 483.18 1095.23 483.06C1095.23 482.19 1095.14 481.455 1094.96 480.855C1094.78 480.225 1094.5 479.73 1094.11 479.37C1093.78 479.01 1093.36 478.755 1092.85 478.605C1092.34 478.455 1091.72 478.38 1091 478.38C1089.5 478.38 1088.38 478.755 1087.63 479.505C1086.91 480.225 1086.55 481.41 1086.55 483.06V488.55C1086.55 489.27 1086.64 489.915 1086.82 490.485C1087.03 491.025 1087.31 491.49 1087.67 491.88C1088.15 492.36 1088.78 492.705 1089.56 492.915C1090.37 493.125 1091.3 493.23 1092.35 493.23C1093.43 493.23 1094.39 493.185 1095.23 493.095C1096.07 492.975 1096.85 492.825 1097.57 492.645C1098.29 492.435 1099 492.21 1099.69 491.97H1100.54C1100.54 492.72 1100.54 493.485 1100.54 494.265C1100.54 495.015 1100.54 495.78 1100.54 496.56C1100.54 496.62 1100.53 496.68 1100.5 496.74C1100.47 496.8 1100.42 496.86 1100.36 496.92C1100.12 497.16 1099.58 497.4 1098.74 497.64C1097.93 497.88 1096.94 498.09 1095.77 498.27C1094.63 498.45 1093.46 498.54 1092.26 498.54C1090.31 498.54 1088.59 498.315 1087.09 497.865C1085.62 497.385 1084.39 496.71 1083.4 495.84C1082.44 494.97 1081.7 493.92 1081.19 492.69C1080.71 491.43 1080.47 490.02 1080.47 488.46V483.33C1080.47 481.8 1080.71 480.42 1081.19 479.19C1081.7 477.96 1082.42 476.91 1083.35 476.04C1084.28 475.14 1085.39 474.45 1086.68 473.97C1087.97 473.49 1089.41 473.25 1091 473.25ZM1127.34 482.655C1127.34 483.405 1127.34 484.14 1127.34 484.86C1127.34 485.55 1127.34 486.27 1127.34 487.02C1127.34 487.74 1127.34 488.475 1127.34 489.225C1127.34 489.945 1127.34 490.65 1127.34 491.34C1127.34 491.58 1127.36 491.79 1127.39 491.97C1127.45 492.15 1127.54 492.3 1127.66 492.42C1127.75 492.51 1127.87 492.585 1128.02 492.645C1128.2 492.675 1128.39 492.69 1128.6 492.69C1128.69 492.69 1128.77 492.69 1128.83 492.69C1128.92 492.69 1129.01 492.69 1129.1 492.69H1129.95C1129.95 493.5 1129.95 494.31 1129.95 495.12C1129.95 495.9 1129.95 496.695 1129.95 497.505C1129.95 497.655 1129.91 497.775 1129.82 497.865C1129.73 497.955 1129.61 498 1129.46 498C1129.31 498 1128.93 498 1128.33 498C1127.76 498 1127.25 498 1126.8 498C1125.96 498 1125.21 497.865 1124.55 497.595C1123.89 497.325 1123.31 496.95 1122.8 496.47C1122.29 495.96 1121.9 495.36 1121.63 494.67C1121.36 493.98 1121.22 493.2 1121.22 492.33C1121.22 491.4 1121.22 490.455 1121.22 489.495C1121.22 488.535 1121.22 487.59 1121.22 486.66C1121.22 486.15 1121.22 485.67 1121.22 485.22C1121.22 484.74 1121.22 484.26 1121.22 483.78C1121.22 483.3 1121.22 482.82 1121.22 482.34C1121.22 481.47 1121.07 480.795 1120.77 480.315C1120.47 479.805 1119.98 479.445 1119.29 479.235C1118.63 479.025 1117.73 478.92 1116.59 478.92C1115.75 478.92 1114.92 478.965 1114.11 479.055C1113.33 479.145 1112.55 479.265 1111.77 479.415C1111.02 479.565 1110.26 479.775 1109.48 480.045H1108.62C1108.62 479.235 1108.62 478.425 1108.62 477.615C1108.62 476.805 1108.62 476.01 1108.62 475.23C1108.62 475.11 1108.64 475.02 1108.67 474.96C1108.7 474.9 1108.73 474.855 1108.76 474.825C1108.94 474.645 1109.43 474.435 1110.24 474.195C1111.08 473.955 1112.07 473.76 1113.21 473.61C1114.35 473.43 1115.48 473.34 1116.59 473.34C1118.48 473.34 1120.1 473.52 1121.45 473.88C1122.8 474.21 1123.91 474.75 1124.78 475.5C1125.65 476.25 1126.29 477.225 1126.71 478.425C1127.13 479.595 1127.34 481.005 1127.34 482.655ZM1112.94 491.16C1112.94 491.79 1113.11 492.27 1113.44 492.6C1113.8 492.9 1114.34 493.05 1115.06 493.05C1115.87 493.05 1116.66 492.96 1117.44 492.78C1118.22 492.6 1118.99 492.3 1119.74 491.88C1120.52 491.46 1121.3 490.92 1122.08 490.26V494.13H1120.73C1120.34 495.03 1119.78 495.81 1119.06 496.47C1118.37 497.1 1117.56 497.595 1116.63 497.955C1115.7 498.285 1114.68 498.45 1113.57 498.45C1112.19 498.45 1110.99 498.18 1109.97 497.64C1108.98 497.1 1108.22 496.35 1107.68 495.39C1107.14 494.4 1106.87 493.26 1106.87 491.97V490.395C1106.87 489.405 1107.03 488.52 1107.36 487.74C1107.69 486.96 1108.16 486.285 1108.76 485.715C1109.39 485.145 1110.14 484.71 1111.01 484.41C1111.88 484.08 1112.85 483.915 1113.93 483.915C1114.98 483.915 1116 483.915 1116.99 483.915C1118.01 483.915 1118.97 483.915 1119.87 483.915C1120.8 483.915 1121.67 483.915 1122.48 483.915C1122.75 483.915 1122.95 484.155 1123.07 484.635C1123.22 485.115 1123.31 485.655 1123.34 486.255C1123.37 486.825 1123.38 487.305 1123.38 487.695C1122.42 487.695 1121.49 487.695 1120.59 487.695C1119.69 487.695 1118.78 487.695 1117.85 487.695C1116.95 487.695 1116.02 487.695 1115.06 487.695C1114.7 487.695 1114.38 487.74 1114.11 487.83C1113.87 487.92 1113.66 488.055 1113.48 488.235C1113.33 488.415 1113.2 488.625 1113.08 488.865C1112.99 489.075 1112.94 489.315 1112.94 489.585V491.16ZM1155.36 498C1154.37 498 1153.44 498 1152.57 498C1151.73 498 1150.8 498 1149.78 498C1149.69 498 1149.6 497.985 1149.51 497.955C1149.45 497.895 1149.39 497.835 1149.33 497.775C1149.3 497.715 1149.29 497.625 1149.29 497.505C1149.29 495.735 1149.29 493.965 1149.29 492.195C1149.29 490.395 1149.29 488.61 1149.29 486.84C1149.29 485.07 1149.29 483.3 1149.29 481.53C1149.29 480.72 1149.11 480.12 1148.75 479.73C1148.39 479.34 1147.82 479.145 1147.04 479.145C1146.53 479.145 1145.96 479.235 1145.33 479.415C1144.73 479.565 1144.11 479.805 1143.48 480.135C1142.88 480.435 1142.3 480.825 1141.73 481.305C1141.16 481.785 1140.63 482.355 1140.15 483.015V477.705H1141.73C1142.33 476.805 1142.99 476.025 1143.71 475.365C1144.46 474.705 1145.27 474.195 1146.14 473.835C1147.04 473.445 1148 473.25 1149.02 473.25C1149.98 473.25 1150.85 473.415 1151.63 473.745C1152.44 474.045 1153.11 474.51 1153.65 475.14C1154.22 475.74 1154.64 476.475 1154.91 477.345C1155.21 478.215 1155.36 479.19 1155.36 480.27C1155.36 481.71 1155.36 483.165 1155.36 484.635C1155.36 486.105 1155.36 487.575 1155.36 489.045C1155.36 490.515 1155.36 492 1155.36 493.5C1155.36 494.25 1155.36 495 1155.36 495.75C1155.36 496.5 1155.36 497.25 1155.36 498ZM1140.87 498C1140.21 498 1139.58 498 1138.98 498C1138.41 498 1137.81 498 1137.18 498C1136.58 498 1135.95 498 1135.29 498C1135.2 498 1135.13 498 1135.07 498C1135.01 497.97 1134.95 497.94 1134.89 497.91C1134.86 497.85 1134.83 497.79 1134.8 497.73C1134.8 497.67 1134.8 497.595 1134.8 497.505C1134.8 495.885 1134.8 494.28 1134.8 492.69C1134.8 491.07 1134.8 489.465 1134.8 487.875C1134.8 486.255 1134.8 484.65 1134.8 483.06C1134.8 481.44 1134.8 479.82 1134.8 478.2C1134.8 477.36 1134.8 476.565 1134.8 475.815C1134.8 475.065 1134.8 474.39 1134.8 473.79C1135.55 473.79 1136.22 473.79 1136.82 473.79C1137.45 473.79 1138.05 473.79 1138.62 473.79C1139.22 473.79 1139.81 473.79 1140.38 473.79C1140.5 473.79 1140.59 473.82 1140.65 473.88C1140.71 473.91 1140.75 473.955 1140.78 474.015C1140.84 474.075 1140.87 474.165 1140.87 474.285C1140.87 476.895 1140.87 479.52 1140.87 482.16C1140.87 484.8 1140.87 487.44 1140.87 490.08C1140.87 492.72 1140.87 495.36 1140.87 498ZM1163.89 497.505C1163.89 496.695 1163.89 495.69 1163.89 494.49C1163.89 493.26 1163.89 491.94 1163.89 490.53C1163.89 489.12 1163.89 487.71 1163.89 486.3C1163.89 484.89 1163.89 483.57 1163.89 482.34C1163.89 481.11 1163.89 480.075 1163.89 479.235H1163.58C1163.4 479.235 1163.19 479.235 1162.95 479.235C1162.74 479.235 1162.5 479.235 1162.23 479.235C1161.99 479.235 1161.73 479.235 1161.46 479.235C1161.22 479.235 1160.98 479.235 1160.74 479.235C1160.59 479.235 1160.47 479.19 1160.38 479.1C1160.29 479.01 1160.25 478.89 1160.25 478.74C1160.25 477.93 1160.25 477.105 1160.25 476.265C1160.25 475.425 1160.25 474.6 1160.25 473.79C1160.76 473.79 1161.33 473.79 1161.96 473.79C1162.62 473.79 1163.31 473.79 1164.03 473.79C1164.75 473.79 1165.45 473.79 1166.14 473.79C1166.83 473.79 1167.46 473.79 1168.03 473.79C1168.63 473.79 1169.11 473.79 1169.47 473.79C1169.59 473.79 1169.68 473.82 1169.74 473.88C1169.8 473.91 1169.85 473.955 1169.88 474.015C1169.94 474.075 1169.97 474.165 1169.97 474.285C1169.97 475.695 1169.97 477.24 1169.97 478.92C1169.97 480.57 1169.97 482.25 1169.97 483.96C1169.97 485.67 1169.97 487.35 1169.97 489C1169.97 490.65 1169.97 492.195 1169.97 493.635C1169.97 494.085 1169.97 494.565 1169.97 495.075C1169.97 495.555 1169.97 496.035 1169.97 496.515C1169.97 496.995 1169.97 497.49 1169.97 498C1168.98 498 1168.05 498 1167.18 498C1166.34 498 1165.41 498 1164.39 498C1164.24 498 1164.12 497.955 1164.03 497.865C1163.94 497.775 1163.89 497.655 1163.89 497.505ZM1162.81 462.27C1163.38 462.27 1163.97 462.27 1164.57 462.27C1165.2 462.27 1165.83 462.27 1166.46 462.27C1167.12 462.27 1167.75 462.27 1168.35 462.27C1168.98 462.27 1169.58 462.27 1170.15 462.27C1170.3 462.27 1170.42 462.315 1170.51 462.405C1170.6 462.495 1170.64 462.615 1170.64 462.765V468.57C1170.07 468.57 1169.47 468.57 1168.84 468.57C1168.24 468.57 1167.61 468.57 1166.95 468.57C1166.32 468.57 1165.69 468.57 1165.06 468.57C1164.46 468.57 1163.88 468.57 1163.31 468.57C1163.16 468.57 1163.04 468.525 1162.95 468.435C1162.86 468.345 1162.81 468.225 1162.81 468.075V462.27ZM1198.07 498C1197.08 498 1196.15 498 1195.28 498C1194.44 498 1193.51 498 1192.49 498C1192.4 498 1192.31 497.985 1192.22 497.955C1192.16 497.895 1192.1 497.835 1192.04 497.775C1192.01 497.715 1192 497.625 1192 497.505C1192 495.735 1192 493.965 1192 492.195C1192 490.395 1192 488.61 1192 486.84C1192 485.07 1192 483.3 1192 481.53C1192 480.72 1191.82 480.12 1191.46 479.73C1191.1 479.34 1190.53 479.145 1189.75 479.145C1189.24 479.145 1188.67 479.235 1188.04 479.415C1187.44 479.565 1186.82 479.805 1186.19 480.135C1185.59 480.435 1185.01 480.825 1184.44 481.305C1183.87 481.785 1183.34 482.355 1182.86 483.015V477.705H1184.44C1185.04 476.805 1185.7 476.025 1186.42 475.365C1187.17 474.705 1187.98 474.195 1188.85 473.835C1189.75 473.445 1190.71 473.25 1191.73 473.25C1192.69 473.25 1193.56 473.415 1194.34 473.745C1195.15 474.045 1195.82 474.51 1196.36 475.14C1196.93 475.74 1197.35 476.475 1197.62 477.345C1197.92 478.215 1198.07 479.19 1198.07 480.27C1198.07 481.71 1198.07 483.165 1198.07 484.635C1198.07 486.105 1198.07 487.575 1198.07 489.045C1198.07 490.515 1198.07 492 1198.07 493.5C1198.07 494.25 1198.07 495 1198.07 495.75C1198.07 496.5 1198.07 497.25 1198.07 498ZM1183.58 498C1182.92 498 1182.29 498 1181.69 498C1181.12 498 1180.52 498 1179.89 498C1179.29 498 1178.66 498 1178 498C1177.91 498 1177.84 498 1177.78 498C1177.72 497.97 1177.66 497.94 1177.6 497.91C1177.57 497.85 1177.54 497.79 1177.51 497.73C1177.51 497.67 1177.51 497.595 1177.51 497.505C1177.51 495.885 1177.51 494.28 1177.51 492.69C1177.51 491.07 1177.51 489.465 1177.51 487.875C1177.51 486.255 1177.51 484.65 1177.51 483.06C1177.51 481.44 1177.51 479.82 1177.51 478.2C1177.51 477.36 1177.51 476.565 1177.51 475.815C1177.51 475.065 1177.51 474.39 1177.51 473.79C1178.26 473.79 1178.93 473.79 1179.53 473.79C1180.16 473.79 1180.76 473.79 1181.33 473.79C1181.93 473.79 1182.52 473.79 1183.09 473.79C1183.21 473.79 1183.3 473.82 1183.36 473.88C1183.42 473.91 1183.46 473.955 1183.49 474.015C1183.55 474.075 1183.58 474.165 1183.58 474.285C1183.58 476.895 1183.58 479.52 1183.58 482.16C1183.58 484.8 1183.58 487.44 1183.58 490.08C1183.58 492.72 1183.58 495.36 1183.58 498ZM1205.57 494.535C1205.57 493.845 1205.69 493.23 1205.93 492.69C1206.17 492.12 1206.55 491.625 1207.06 491.205C1207.6 490.785 1208.27 490.455 1209.08 490.215V488.775L1211.92 489.855C1211.83 490.305 1211.75 490.77 1211.69 491.25C1211.66 491.7 1211.65 492.18 1211.65 492.69C1211.65 493.05 1211.72 493.305 1211.87 493.455C1212.02 493.575 1212.28 493.635 1212.64 493.635H1218.44C1220.21 493.635 1221.67 493.935 1222.81 494.535C1223.95 495.135 1224.79 495.975 1225.33 497.055C1225.9 498.105 1226.18 499.32 1226.18 500.7V502.365C1226.18 503.385 1226.02 504.315 1225.69 505.155C1225.39 505.995 1224.91 506.715 1224.25 507.315C1223.59 507.945 1222.76 508.425 1221.77 508.755C1220.81 509.085 1219.67 509.25 1218.35 509.25H1209.17C1207.61 509.25 1206.31 509.04 1205.26 508.62C1204.24 508.23 1203.46 507.645 1202.92 506.865C1202.41 506.115 1202.15 505.17 1202.15 504.03V503.22C1202.15 502.32 1202.33 501.525 1202.69 500.835C1203.08 500.145 1203.62 499.575 1204.31 499.125C1205 498.675 1205.81 498.375 1206.74 498.225V496.515L1210.07 498.54C1209.56 498.69 1209.17 498.9 1208.9 499.17C1208.66 499.44 1208.47 499.74 1208.32 500.07C1208.2 500.43 1208.14 500.835 1208.14 501.285V502.68C1208.14 503.19 1208.21 503.61 1208.36 503.94C1208.54 504.27 1208.81 504.51 1209.17 504.66C1209.53 504.81 1210.01 504.885 1210.61 504.885H1217.72C1218.17 504.885 1218.55 504.825 1218.85 504.705C1219.15 504.615 1219.39 504.48 1219.57 504.3C1219.78 504.09 1219.93 503.805 1220.02 503.445C1220.11 503.115 1220.15 502.74 1220.15 502.32V501.105C1220.15 500.265 1219.97 499.665 1219.61 499.305C1219.25 498.945 1218.62 498.765 1217.72 498.765H1209.62C1208.93 498.765 1208.27 498.57 1207.64 498.18C1207.04 497.82 1206.55 497.31 1206.16 496.65C1205.77 495.99 1205.57 495.285 1205.57 494.535ZM1216.33 478.245L1220.56 477.93V479.145C1221.61 479.505 1222.37 480 1222.85 480.63C1223.33 481.26 1223.57 482.085 1223.57 483.105V483.78C1223.57 485.1 1223.2 486.225 1222.45 487.155C1221.73 488.085 1220.62 488.82 1219.12 489.36C1217.65 489.87 1215.8 490.125 1213.58 490.125C1211.36 490.125 1209.47 489.825 1207.91 489.225C1206.38 488.595 1205.23 487.695 1204.45 486.525C1203.67 485.355 1203.28 483.96 1203.28 482.34V481.35C1203.28 479.7 1203.67 478.29 1204.45 477.12C1205.23 475.92 1206.38 475.005 1207.91 474.375C1209.47 473.715 1211.36 473.385 1213.58 473.385C1215.62 473.385 1217.66 473.385 1219.7 473.385C1221.74 473.385 1223.78 473.385 1225.82 473.385C1225.82 474.135 1225.82 474.9 1225.82 475.68C1225.82 476.43 1225.82 477.195 1225.82 477.975C1225.82 478.095 1225.78 478.215 1225.69 478.335C1225.6 478.425 1225.48 478.47 1225.33 478.47C1224.04 478.47 1222.78 478.47 1221.55 478.47C1220.32 478.47 1219.06 478.47 1217.77 478.47C1216.48 478.47 1215.08 478.47 1213.58 478.47C1212.14 478.47 1211.05 478.725 1210.3 479.235C1209.55 479.745 1209.17 480.54 1209.17 481.62V482.385C1209.17 482.835 1209.23 483.21 1209.35 483.51C1209.5 483.81 1209.7 484.095 1209.94 484.365C1210.3 484.725 1210.78 484.995 1211.38 485.175C1211.98 485.355 1212.71 485.445 1213.58 485.445C1215.02 485.445 1216.07 485.19 1216.73 484.68C1217.39 484.14 1217.72 483.33 1217.72 482.25V481.305C1217.72 480.885 1217.68 480.51 1217.59 480.18C1217.5 479.82 1217.35 479.49 1217.14 479.19C1216.96 478.89 1216.69 478.575 1216.33 478.245ZM985.737 557.555C987.537 557.555 988.767 557.36 989.427 556.97C990.087 556.55 990.417 556.07 990.417 555.53C990.417 555.2 990.327 554.9 990.147 554.63C989.997 554.36 989.712 554.135 989.292 553.955C988.902 553.745 988.332 553.58 987.582 553.46L982.947 552.785C981.507 552.545 980.307 552.14 979.347 551.57C978.387 550.97 977.667 550.22 977.187 549.32C976.737 548.42 976.512 547.415 976.512 546.305C976.512 545.045 976.752 543.935 977.232 542.975C977.742 541.985 978.477 541.145 979.437 540.455C980.397 539.765 981.582 539.24 982.992 538.88C984.402 538.52 986.007 538.34 987.807 538.34C988.767 538.34 989.652 538.385 990.462 538.475C991.272 538.535 992.007 538.625 992.667 538.745C993.327 538.865 993.912 539 994.422 539.15C994.632 539.21 994.782 539.285 994.872 539.375C994.992 539.435 995.052 539.525 995.052 539.645C995.082 539.765 995.097 539.945 995.097 540.185C995.097 540.815 995.097 541.61 995.097 542.57C995.097 543.5 995.097 544.37 995.097 545.18H994.287C993.477 544.97 992.697 544.79 991.947 544.64C991.197 544.49 990.432 544.385 989.652 544.325C988.872 544.265 988.047 544.235 987.177 544.235C985.977 544.235 985.032 544.325 984.342 544.505C983.682 544.655 983.217 544.865 982.947 545.135C982.677 545.405 982.542 545.72 982.542 546.08C982.542 546.41 982.617 546.71 982.767 546.98C982.947 547.22 983.232 547.415 983.622 547.565C984.012 547.715 984.552 547.85 985.242 547.97L989.472 548.6C990.942 548.78 992.187 549.17 993.207 549.77C994.227 550.34 995.007 551.105 995.547 552.065C996.117 552.995 996.402 554.12 996.402 555.44C996.402 557.06 995.982 558.47 995.142 559.67C994.332 560.87 993.132 561.8 991.542 562.46C989.952 563.12 988.002 563.45 985.692 563.45C984.612 563.45 983.607 563.405 982.677 563.315C981.747 563.255 980.877 563.15 980.067 563C979.287 562.88 978.582 562.73 977.952 562.55C977.322 562.37 976.782 562.175 976.332 561.965C976.152 561.905 976.032 561.83 975.972 561.74C975.942 561.65 975.927 561.485 975.927 561.245C975.927 560.555 975.927 559.73 975.927 558.77C975.927 557.81 975.927 556.88 975.927 555.98H976.737C977.457 556.28 978.147 556.535 978.807 556.745C979.497 556.925 980.187 557.075 980.877 557.195C981.597 557.315 982.347 557.405 983.127 557.465C983.937 557.525 984.807 557.555 985.737 557.555ZM999.385 538.79H1016.75C1016.93 538.79 1017.07 538.835 1017.16 538.925C1017.25 539.015 1017.29 539.135 1017.29 539.285C1017.29 539.915 1017.29 540.5 1017.29 541.04C1017.29 541.58 1017.29 542.135 1017.29 542.705C1017.29 543.275 1017.29 543.86 1017.29 544.46H999.925C999.865 544.46 999.805 544.445 999.745 544.415C999.685 544.385 999.625 544.355 999.565 544.325C999.505 544.265 999.46 544.205 999.43 544.145C999.4 544.085 999.385 544.025 999.385 543.965C999.385 543.365 999.385 542.78 999.385 542.21C999.385 541.64 999.385 541.085 999.385 540.545C999.385 540.005 999.385 539.42 999.385 538.79ZM1017.29 557.195C1017.29 558.095 1017.29 558.995 1017.29 559.895C1017.29 560.765 1017.29 561.635 1017.29 562.505C1017.29 562.625 1017.25 562.745 1017.16 562.865C1017.07 562.955 1016.95 563 1016.8 563C1016.5 563 1016.18 563 1015.85 563C1015.55 563 1015.24 563 1014.91 563C1014.61 563 1014.31 563 1014.01 563C1013.71 563 1013.39 563 1013.06 563C1011.5 563 1010.11 562.82 1008.88 562.46C1007.65 562.07 1006.6 561.485 1005.73 560.705C1004.86 559.925 1004.2 558.92 1003.75 557.69C1003.3 556.46 1003.07 555.005 1003.07 553.325C1003.07 551.855 1003.07 550.4 1003.07 548.96C1003.07 547.52 1003.07 546.08 1003.07 544.64C1003.07 543.2 1003.07 541.76 1003.07 540.32C1003.07 538.88 1003.07 537.44 1003.07 536C1003.07 535.22 1003.07 534.47 1003.07 533.75C1003.07 533 1003.07 532.25 1003.07 531.5C1004 531.5 1004.93 531.5 1005.86 531.5C1006.82 531.5 1007.75 531.5 1008.65 531.5C1008.74 531.5 1008.82 531.53 1008.88 531.59C1008.97 531.62 1009.03 531.68 1009.06 531.77C1009.12 531.83 1009.15 531.905 1009.15 531.995C1009.15 533.735 1009.15 535.475 1009.15 537.215C1009.15 538.925 1009.15 540.65 1009.15 542.39C1009.15 544.13 1009.15 545.87 1009.15 547.61C1009.15 549.32 1009.15 551.045 1009.15 552.785C1009.15 553.685 1009.24 554.42 1009.42 554.99C1009.6 555.56 1009.87 556.025 1010.23 556.385C1010.56 556.685 1010.96 556.895 1011.44 557.015C1011.95 557.135 1012.57 557.195 1013.29 557.195C1013.68 557.195 1014.05 557.195 1014.41 557.195C1014.8 557.195 1015.19 557.195 1015.58 557.195C1015.97 557.195 1016.36 557.195 1016.75 557.195H1017.29ZM1029.08 543.11H1030.88C1031.24 542 1031.66 541.1 1032.14 540.41C1032.62 539.69 1033.21 539.165 1033.9 538.835C1034.62 538.505 1035.43 538.34 1036.33 538.34C1036.81 538.34 1037.2 538.385 1037.5 538.475C1037.83 538.565 1038.05 538.655 1038.17 538.745C1038.29 538.835 1038.37 538.925 1038.4 539.015C1038.43 539.075 1038.44 539.18 1038.44 539.33C1038.44 539.81 1038.44 540.29 1038.44 540.77C1038.44 541.22 1038.44 541.67 1038.44 542.12C1038.44 542.57 1038.44 543.035 1038.44 543.515C1038.44 543.965 1038.44 544.43 1038.44 544.91H1037.59C1037.29 544.82 1036.96 544.745 1036.6 544.685C1036.24 544.625 1035.83 544.595 1035.38 544.595C1034.45 544.595 1033.63 544.775 1032.91 545.135C1032.22 545.495 1031.57 546.005 1030.97 546.665C1030.37 547.295 1029.74 548.045 1029.08 548.915V543.11ZM1029.94 563C1029.28 563 1028.6 563 1027.91 563C1027.25 563 1026.59 563 1025.93 563C1025.27 563 1024.61 563 1023.95 563C1023.86 563 1023.79 563 1023.73 563C1023.67 562.97 1023.61 562.94 1023.55 562.91C1023.52 562.85 1023.49 562.79 1023.46 562.73C1023.46 562.67 1023.46 562.595 1023.46 562.505C1023.46 561.395 1023.46 560.225 1023.46 558.995C1023.46 557.735 1023.46 556.445 1023.46 555.125C1023.46 553.805 1023.46 552.485 1023.46 551.165C1023.46 549.815 1023.46 548.48 1023.46 547.16C1023.46 545.81 1023.46 544.49 1023.46 543.2C1023.46 542.36 1023.46 541.565 1023.46 540.815C1023.46 540.065 1023.46 539.39 1023.46 538.79C1024.21 538.79 1024.91 538.79 1025.57 538.79C1026.26 538.79 1026.92 538.79 1027.55 538.79C1028.21 538.79 1028.84 538.79 1029.44 538.79C1029.56 538.79 1029.65 538.82 1029.71 538.88C1029.77 538.91 1029.82 538.955 1029.85 539.015C1029.91 539.075 1029.94 539.165 1029.94 539.285C1029.94 540.665 1029.94 542.12 1029.94 543.65C1029.94 545.18 1029.94 546.74 1029.94 548.33C1029.94 549.92 1029.94 551.555 1029.94 553.235C1029.94 554.885 1029.94 556.535 1029.94 558.185C1029.94 559.805 1029.94 561.41 1029.94 563ZM1053.01 538.25C1055.05 538.25 1056.82 538.67 1058.32 539.51C1059.85 540.35 1061.03 541.52 1061.87 543.02C1062.71 544.52 1063.13 546.275 1063.13 548.285V552.02C1063.13 552.11 1063.12 552.2 1063.09 552.29C1063.06 552.35 1063 552.395 1062.91 552.425C1062.85 552.455 1062.77 552.47 1062.68 552.47H1052.33C1051.82 552.47 1051.3 552.47 1050.76 552.47C1050.25 552.47 1049.74 552.47 1049.23 552.47H1047.38L1047.25 548.69H1057.24C1057.24 548.57 1057.24 548.465 1057.24 548.375C1057.24 548.285 1057.24 548.18 1057.24 548.06C1057.24 547.19 1057.15 546.455 1056.97 545.855C1056.79 545.225 1056.5 544.73 1056.11 544.37C1055.78 544.01 1055.36 543.755 1054.85 543.605C1054.34 543.455 1053.73 543.38 1053.01 543.38C1051.51 543.38 1050.38 543.755 1049.63 544.505C1048.91 545.225 1048.55 546.41 1048.55 548.06V553.55C1048.55 554.27 1048.64 554.915 1048.82 555.485C1049.03 556.025 1049.32 556.49 1049.68 556.88C1050.16 557.36 1050.79 557.705 1051.57 557.915C1052.38 558.125 1053.31 558.23 1054.36 558.23C1055.44 558.23 1056.4 558.185 1057.24 558.095C1058.08 557.975 1058.86 557.825 1059.58 557.645C1060.3 557.435 1061 557.21 1061.69 556.97H1062.55C1062.55 557.72 1062.55 558.485 1062.55 559.265C1062.55 560.015 1062.55 560.78 1062.55 561.56C1062.55 561.62 1062.53 561.68 1062.5 561.74C1062.47 561.8 1062.43 561.86 1062.37 561.92C1062.13 562.16 1061.59 562.4 1060.75 562.64C1059.94 562.88 1058.95 563.09 1057.78 563.27C1056.64 563.45 1055.47 563.54 1054.27 563.54C1052.32 563.54 1050.59 563.315 1049.09 562.865C1047.62 562.385 1046.39 561.71 1045.4 560.84C1044.44 559.97 1043.71 558.92 1043.2 557.69C1042.72 556.43 1042.48 555.02 1042.48 553.46V548.33C1042.48 546.8 1042.72 545.42 1043.2 544.19C1043.71 542.96 1044.43 541.91 1045.36 541.04C1046.29 540.14 1047.4 539.45 1048.69 538.97C1049.98 538.49 1051.42 538.25 1053.01 538.25ZM1078.46 557.555C1080.26 557.555 1081.49 557.36 1082.15 556.97C1082.81 556.55 1083.14 556.07 1083.14 555.53C1083.14 555.2 1083.05 554.9 1082.87 554.63C1082.72 554.36 1082.44 554.135 1082.02 553.955C1081.63 553.745 1081.06 553.58 1080.31 553.46L1075.67 552.785C1074.23 552.545 1073.03 552.14 1072.07 551.57C1071.11 550.97 1070.39 550.22 1069.91 549.32C1069.46 548.42 1069.24 547.415 1069.24 546.305C1069.24 545.045 1069.48 543.935 1069.96 542.975C1070.47 541.985 1071.2 541.145 1072.16 540.455C1073.12 539.765 1074.31 539.24 1075.72 538.88C1077.13 538.52 1078.73 538.34 1080.53 538.34C1081.49 538.34 1082.38 538.385 1083.19 538.475C1084 538.535 1084.73 538.625 1085.39 538.745C1086.05 538.865 1086.64 539 1087.15 539.15C1087.36 539.21 1087.51 539.285 1087.6 539.375C1087.72 539.435 1087.78 539.525 1087.78 539.645C1087.81 539.765 1087.82 539.945 1087.82 540.185C1087.82 540.815 1087.82 541.61 1087.82 542.57C1087.82 543.5 1087.82 544.37 1087.82 545.18H1087.01C1086.2 544.97 1085.42 544.79 1084.67 544.64C1083.92 544.49 1083.16 544.385 1082.38 544.325C1081.6 544.265 1080.77 544.235 1079.9 544.235C1078.7 544.235 1077.76 544.325 1077.07 544.505C1076.41 544.655 1075.94 544.865 1075.67 545.135C1075.4 545.405 1075.27 545.72 1075.27 546.08C1075.27 546.41 1075.34 546.71 1075.49 546.98C1075.67 547.22 1075.96 547.415 1076.35 547.565C1076.74 547.715 1077.28 547.85 1077.97 547.97L1082.2 548.6C1083.67 548.78 1084.91 549.17 1085.93 549.77C1086.95 550.34 1087.73 551.105 1088.27 552.065C1088.84 552.995 1089.13 554.12 1089.13 555.44C1089.13 557.06 1088.71 558.47 1087.87 559.67C1087.06 560.87 1085.86 561.8 1084.27 562.46C1082.68 563.12 1080.73 563.45 1078.42 563.45C1077.34 563.45 1076.33 563.405 1075.4 563.315C1074.47 563.255 1073.6 563.15 1072.79 563C1072.01 562.88 1071.31 562.73 1070.68 562.55C1070.05 562.37 1069.51 562.175 1069.06 561.965C1068.88 561.905 1068.76 561.83 1068.7 561.74C1068.67 561.65 1068.65 561.485 1068.65 561.245C1068.65 560.555 1068.65 559.73 1068.65 558.77C1068.65 557.81 1068.65 556.88 1068.65 555.98H1069.46C1070.18 556.28 1070.87 556.535 1071.53 556.745C1072.22 556.925 1072.91 557.075 1073.6 557.195C1074.32 557.315 1075.07 557.405 1075.85 557.465C1076.66 557.525 1077.53 557.555 1078.46 557.555ZM1103.2 557.555C1105 557.555 1106.23 557.36 1106.89 556.97C1107.55 556.55 1107.88 556.07 1107.88 555.53C1107.88 555.2 1107.79 554.9 1107.61 554.63C1107.46 554.36 1107.18 554.135 1106.76 553.955C1106.37 553.745 1105.8 553.58 1105.05 553.46L1100.41 552.785C1098.97 552.545 1097.77 552.14 1096.81 551.57C1095.85 550.97 1095.13 550.22 1094.65 549.32C1094.2 548.42 1093.98 547.415 1093.98 546.305C1093.98 545.045 1094.22 543.935 1094.7 542.975C1095.21 541.985 1095.94 541.145 1096.9 540.455C1097.86 539.765 1099.05 539.24 1100.46 538.88C1101.87 538.52 1103.47 538.34 1105.27 538.34C1106.23 538.34 1107.12 538.385 1107.93 538.475C1108.74 538.535 1109.47 538.625 1110.13 538.745C1110.79 538.865 1111.38 539 1111.89 539.15C1112.1 539.21 1112.25 539.285 1112.34 539.375C1112.46 539.435 1112.52 539.525 1112.52 539.645C1112.55 539.765 1112.56 539.945 1112.56 540.185C1112.56 540.815 1112.56 541.61 1112.56 542.57C1112.56 543.5 1112.56 544.37 1112.56 545.18H1111.75C1110.94 544.97 1110.16 544.79 1109.41 544.64C1108.66 544.49 1107.9 544.385 1107.12 544.325C1106.34 544.265 1105.51 544.235 1104.64 544.235C1103.44 544.235 1102.5 544.325 1101.81 544.505C1101.15 544.655 1100.68 544.865 1100.41 545.135C1100.14 545.405 1100.01 545.72 1100.01 546.08C1100.01 546.41 1100.08 546.71 1100.23 546.98C1100.41 547.22 1100.7 547.415 1101.09 547.565C1101.48 547.715 1102.02 547.85 1102.71 547.97L1106.94 548.6C1108.41 548.78 1109.65 549.17 1110.67 549.77C1111.69 550.34 1112.47 551.105 1113.01 552.065C1113.58 552.995 1113.87 554.12 1113.87 555.44C1113.87 557.06 1113.45 558.47 1112.61 559.67C1111.8 560.87 1110.6 561.8 1109.01 562.46C1107.42 563.12 1105.47 563.45 1103.16 563.45C1102.08 563.45 1101.07 563.405 1100.14 563.315C1099.21 563.255 1098.34 563.15 1097.53 563C1096.75 562.88 1096.05 562.73 1095.42 562.55C1094.79 562.37 1094.25 562.175 1093.8 561.965C1093.62 561.905 1093.5 561.83 1093.44 561.74C1093.41 561.65 1093.39 561.485 1093.39 561.245C1093.39 560.555 1093.39 559.73 1093.39 558.77C1093.39 557.81 1093.39 556.88 1093.39 555.98H1094.2C1094.92 556.28 1095.61 556.535 1096.27 556.745C1096.96 556.925 1097.65 557.075 1098.34 557.195C1099.06 557.315 1099.81 557.405 1100.59 557.465C1101.4 557.525 1102.27 557.555 1103.2 557.555ZM1152.33 547.655C1152.33 548.405 1152.33 549.14 1152.33 549.86C1152.33 550.55 1152.33 551.27 1152.33 552.02C1152.33 552.74 1152.33 553.475 1152.33 554.225C1152.33 554.945 1152.33 555.65 1152.33 556.34C1152.33 556.58 1152.34 556.79 1152.37 556.97C1152.43 557.15 1152.52 557.3 1152.64 557.42C1152.73 557.51 1152.85 557.585 1153 557.645C1153.18 557.675 1153.38 557.69 1153.59 557.69C1153.68 557.69 1153.75 557.69 1153.81 557.69C1153.9 557.69 1153.99 557.69 1154.08 557.69H1154.94C1154.94 558.5 1154.94 559.31 1154.94 560.12C1154.94 560.9 1154.94 561.695 1154.94 562.505C1154.94 562.655 1154.89 562.775 1154.8 562.865C1154.71 562.955 1154.59 563 1154.44 563C1154.29 563 1153.92 563 1153.32 563C1152.75 563 1152.24 563 1151.79 563C1150.95 563 1150.2 562.865 1149.54 562.595C1148.88 562.325 1148.29 561.95 1147.78 561.47C1147.27 560.96 1146.88 560.36 1146.61 559.67C1146.34 558.98 1146.21 558.2 1146.21 557.33C1146.21 556.4 1146.21 555.455 1146.21 554.495C1146.21 553.535 1146.21 552.59 1146.21 551.66C1146.21 551.15 1146.21 550.67 1146.21 550.22C1146.21 549.74 1146.21 549.26 1146.21 548.78C1146.21 548.3 1146.21 547.82 1146.21 547.34C1146.21 546.47 1146.06 545.795 1145.76 545.315C1145.46 544.805 1144.96 544.445 1144.27 544.235C1143.61 544.025 1142.71 543.92 1141.57 543.92C1140.73 543.92 1139.91 543.965 1139.1 544.055C1138.32 544.145 1137.54 544.265 1136.76 544.415C1136.01 544.565 1135.24 544.775 1134.46 545.045H1133.61C1133.61 544.235 1133.61 543.425 1133.61 542.615C1133.61 541.805 1133.61 541.01 1133.61 540.23C1133.61 540.11 1133.62 540.02 1133.65 539.96C1133.68 539.9 1133.71 539.855 1133.74 539.825C1133.92 539.645 1134.42 539.435 1135.23 539.195C1136.07 538.955 1137.06 538.76 1138.2 538.61C1139.34 538.43 1140.46 538.34 1141.57 538.34C1143.46 538.34 1145.08 538.52 1146.43 538.88C1147.78 539.21 1148.89 539.75 1149.76 540.5C1150.63 541.25 1151.28 542.225 1151.7 543.425C1152.12 544.595 1152.33 546.005 1152.33 547.655ZM1137.93 556.16C1137.93 556.79 1138.09 557.27 1138.42 557.6C1138.78 557.9 1139.32 558.05 1140.04 558.05C1140.85 558.05 1141.65 557.96 1142.43 557.78C1143.21 557.6 1143.97 557.3 1144.72 556.88C1145.5 556.46 1146.28 555.92 1147.06 555.26V559.13H1145.71C1145.32 560.03 1144.77 560.81 1144.05 561.47C1143.36 562.1 1142.55 562.595 1141.62 562.955C1140.69 563.285 1139.67 563.45 1138.56 563.45C1137.18 563.45 1135.98 563.18 1134.96 562.64C1133.97 562.1 1133.2 561.35 1132.66 560.39C1132.12 559.4 1131.85 558.26 1131.85 556.97V555.395C1131.85 554.405 1132.02 553.52 1132.35 552.74C1132.68 551.96 1133.14 551.285 1133.74 550.715C1134.37 550.145 1135.12 549.71 1135.99 549.41C1136.86 549.08 1137.84 548.915 1138.92 548.915C1139.97 548.915 1140.99 548.915 1141.98 548.915C1143 548.915 1143.96 548.915 1144.86 548.915C1145.79 548.915 1146.66 548.915 1147.47 548.915C1147.74 548.915 1147.93 549.155 1148.05 549.635C1148.2 550.115 1148.29 550.655 1148.32 551.255C1148.35 551.825 1148.37 552.305 1148.37 552.695C1147.41 552.695 1146.48 552.695 1145.58 552.695C1144.68 552.695 1143.76 552.695 1142.83 552.695C1141.93 552.695 1141 552.695 1140.04 552.695C1139.68 552.695 1139.37 552.74 1139.1 552.83C1138.86 552.92 1138.65 553.055 1138.47 553.235C1138.32 553.415 1138.18 553.625 1138.06 553.865C1137.97 554.075 1137.93 554.315 1137.93 554.585V556.16ZM1158.65 538.79C1159.7 538.79 1160.78 538.79 1161.89 538.79C1163 538.79 1164.08 538.79 1165.13 538.79C1165.34 538.79 1165.51 538.835 1165.63 538.925C1165.75 538.985 1165.87 539.09 1165.99 539.24C1166.77 540.77 1167.53 542.315 1168.28 543.875C1169.06 545.435 1169.84 546.965 1170.62 548.465L1172.74 549.275C1174.18 551.555 1175.62 553.835 1177.06 556.115C1178.53 558.395 1179.98 560.69 1181.42 563C1180.88 563 1180.34 563 1179.8 563C1179.26 563 1178.74 563 1178.23 563C1177.75 563 1177.28 563 1176.83 563C1176.38 563 1175.98 563 1175.62 563C1175.11 563 1174.75 562.94 1174.54 562.82C1174.33 562.7 1174.1 562.445 1173.86 562.055C1173.62 561.635 1173.23 560.915 1172.69 559.895C1172.15 558.845 1171.55 557.705 1170.89 556.475C1170.26 555.245 1169.66 554.09 1169.09 553.01L1166.89 552.065C1165.51 549.845 1164.13 547.64 1162.75 545.45C1161.4 543.23 1160.03 541.01 1158.65 538.79ZM1167.02 549.23L1171.7 554.765H1169.27C1168.85 555.695 1168.42 556.61 1167.97 557.51C1167.52 558.41 1167.07 559.325 1166.62 560.255C1166.17 561.155 1165.72 562.07 1165.27 563H1159.15C1158.97 563 1158.83 562.955 1158.74 562.865C1158.65 562.775 1158.61 562.655 1158.61 562.505C1158.61 562.415 1158.62 562.325 1158.65 562.235C1158.71 562.115 1158.8 561.965 1158.92 561.785C1160.27 559.685 1161.62 557.585 1162.97 555.485C1164.32 553.385 1165.67 551.3 1167.02 549.23ZM1180.52 538.79C1180.67 538.79 1180.79 538.835 1180.88 538.925C1181 538.985 1181.06 539.12 1181.06 539.33C1181.06 539.36 1181.05 539.42 1181.02 539.51C1180.99 539.57 1180.94 539.66 1180.88 539.78C1179.56 541.85 1178.21 543.935 1176.83 546.035C1175.48 548.135 1174.15 550.235 1172.83 552.335L1168.37 547.16H1170.62C1171.04 546.23 1171.45 545.3 1171.84 544.37C1172.23 543.44 1172.62 542.51 1173.01 541.58C1173.43 540.65 1173.85 539.72 1174.27 538.79H1180.52ZM1188.88 562.505C1188.88 561.695 1188.88 560.69 1188.88 559.49C1188.88 558.26 1188.88 556.94 1188.88 555.53C1188.88 554.12 1188.88 552.71 1188.88 551.3C1188.88 549.89 1188.88 548.57 1188.88 547.34C1188.88 546.11 1188.88 545.075 1188.88 544.235H1188.56C1188.38 544.235 1188.17 544.235 1187.93 544.235C1187.72 544.235 1187.48 544.235 1187.21 544.235C1186.97 544.235 1186.72 544.235 1186.45 544.235C1186.21 544.235 1185.97 544.235 1185.73 544.235C1185.58 544.235 1185.46 544.19 1185.37 544.1C1185.28 544.01 1185.23 543.89 1185.23 543.74C1185.23 542.93 1185.23 542.105 1185.23 541.265C1185.23 540.425 1185.23 539.6 1185.23 538.79C1185.74 538.79 1186.31 538.79 1186.94 538.79C1187.6 538.79 1188.29 538.79 1189.01 538.79C1189.73 538.79 1190.44 538.79 1191.13 538.79C1191.82 538.79 1192.45 538.79 1193.02 538.79C1193.62 538.79 1194.1 538.79 1194.46 538.79C1194.58 538.79 1194.67 538.82 1194.73 538.88C1194.79 538.91 1194.83 538.955 1194.86 539.015C1194.92 539.075 1194.95 539.165 1194.95 539.285C1194.95 540.695 1194.95 542.24 1194.95 543.92C1194.95 545.57 1194.95 547.25 1194.95 548.96C1194.95 550.67 1194.95 552.35 1194.95 554C1194.95 555.65 1194.95 557.195 1194.95 558.635C1194.95 559.085 1194.95 559.565 1194.95 560.075C1194.95 560.555 1194.95 561.035 1194.95 561.515C1194.95 561.995 1194.95 562.49 1194.95 563C1193.96 563 1193.03 563 1192.16 563C1191.32 563 1190.39 563 1189.37 563C1189.22 563 1189.1 562.955 1189.01 562.865C1188.92 562.775 1188.88 562.655 1188.88 562.505ZM1187.8 527.27C1188.37 527.27 1188.95 527.27 1189.55 527.27C1190.18 527.27 1190.81 527.27 1191.44 527.27C1192.1 527.27 1192.73 527.27 1193.33 527.27C1193.96 527.27 1194.56 527.27 1195.13 527.27C1195.28 527.27 1195.4 527.315 1195.49 527.405C1195.58 527.495 1195.63 527.615 1195.63 527.765V533.57C1195.06 533.57 1194.46 533.57 1193.83 533.57C1193.23 533.57 1192.6 533.57 1191.94 533.57C1191.31 533.57 1190.68 533.57 1190.05 533.57C1189.45 533.57 1188.86 533.57 1188.29 533.57C1188.14 533.57 1188.02 533.525 1187.93 533.435C1187.84 533.345 1187.8 533.225 1187.8 533.075V527.27ZM1211.13 557.555C1212.93 557.555 1214.16 557.36 1214.82 556.97C1215.48 556.55 1215.81 556.07 1215.81 555.53C1215.81 555.2 1215.72 554.9 1215.54 554.63C1215.39 554.36 1215.11 554.135 1214.69 553.955C1214.3 553.745 1213.73 553.58 1212.98 553.46L1208.34 552.785C1206.9 552.545 1205.7 552.14 1204.74 551.57C1203.78 550.97 1203.06 550.22 1202.58 549.32C1202.13 548.42 1201.91 547.415 1201.91 546.305C1201.91 545.045 1202.15 543.935 1202.63 542.975C1203.14 541.985 1203.87 541.145 1204.83 540.455C1205.79 539.765 1206.98 539.24 1208.39 538.88C1209.8 538.52 1211.4 538.34 1213.2 538.34C1214.16 538.34 1215.05 538.385 1215.86 538.475C1216.67 538.535 1217.4 538.625 1218.06 538.745C1218.72 538.865 1219.31 539 1219.82 539.15C1220.03 539.21 1220.18 539.285 1220.27 539.375C1220.39 539.435 1220.45 539.525 1220.45 539.645C1220.48 539.765 1220.49 539.945 1220.49 540.185C1220.49 540.815 1220.49 541.61 1220.49 542.57C1220.49 543.5 1220.49 544.37 1220.49 545.18H1219.68C1218.87 544.97 1218.09 544.79 1217.34 544.64C1216.59 544.49 1215.83 544.385 1215.05 544.325C1214.27 544.265 1213.44 544.235 1212.57 544.235C1211.37 544.235 1210.43 544.325 1209.74 544.505C1209.08 544.655 1208.61 544.865 1208.34 545.135C1208.07 545.405 1207.94 545.72 1207.94 546.08C1207.94 546.41 1208.01 546.71 1208.16 546.98C1208.34 547.22 1208.63 547.415 1209.02 547.565C1209.41 547.715 1209.95 547.85 1210.64 547.97L1214.87 548.6C1216.34 548.78 1217.58 549.17 1218.6 549.77C1219.62 550.34 1220.4 551.105 1220.94 552.065C1221.51 552.995 1221.8 554.12 1221.8 555.44C1221.8 557.06 1221.38 558.47 1220.54 559.67C1219.73 560.87 1218.53 561.8 1216.94 562.46C1215.35 563.12 1213.4 563.45 1211.09 563.45C1210.01 563.45 1209 563.405 1208.07 563.315C1207.14 563.255 1206.27 563.15 1205.46 563C1204.68 562.88 1203.98 562.73 1203.35 562.55C1202.72 562.37 1202.18 562.175 1201.73 561.965C1201.55 561.905 1201.43 561.83 1201.37 561.74C1201.34 561.65 1201.32 561.485 1201.32 561.245C1201.32 560.555 1201.32 559.73 1201.32 558.77C1201.32 557.81 1201.32 556.88 1201.32 555.98H1202.13C1202.85 556.28 1203.54 556.535 1204.2 556.745C1204.89 556.925 1205.58 557.075 1206.27 557.195C1206.99 557.315 1207.74 557.405 1208.52 557.465C1209.33 557.525 1210.2 557.555 1211.13 557.555Z" fill="#FFF0DD"/>
<rect x="599" y="119" width="21.6279" height="470" rx="1" transform="rotate(90 599 119)" stroke="#FFF0DD" stroke-width="2"/>
<rect x="599" y="270.581" width="22" height="117.124" rx="1" transform="rotate(-180 599 270.581)" stroke="#FFF0DD" stroke-width="2"/>
<rect x="151" y="270.581" width="22" height="117.124" rx="1" transform="rotate(-180 151 270.581)" stroke="#FFF0DD" stroke-width="2"/>
<path d="M140 162.302L140 262.72" stroke="#FFF0DD" stroke-width="2"/>
<rect x="237" y="173.116" width="74" height="19.6589" rx="1" transform="rotate(-180 237 173.116)" stroke="#FFF0DD" stroke-width="2"/>
<path d="M229 163.286L172 163.286" stroke="#FFF0DD" stroke-width="2"/>
<rect x="564" y="173.116" width="74" height="19.6589" rx="1" transform="rotate(-180 564 173.116)" stroke="#FFF0DD" stroke-width="2"/>
<path d="M555 163.286L498 163.286" stroke="#FFF0DD" stroke-width="2"/>
<rect x="163" y="224.31" width="38.3643" height="20" rx="1" transform="rotate(-90 163 224.31)" stroke="#FFF0DD" stroke-width="2"/>
<path d="M173 217.435L173 193.807" stroke="#FFF0DD" stroke-width="2"/>
<rect x="544" y="224.31" width="38.3643" height="20" rx="1" transform="rotate(-90 544 224.31)" stroke="#FFF0DD" stroke-width="2"/>
<path d="M554 217.435L554 193.807" stroke="#FFF0DD" stroke-width="2"/>
<path d="M588 163.286L588 263.705" stroke="#FFF0DD" stroke-width="2"/>
<line x1="584" y1="129.829" x2="144" y2="129.829" stroke="#FFF0DD" stroke-width="2"/>
<rect x="599" y="605.124" width="22" height="117.124" rx="1" transform="rotate(-180 599 605.124)" stroke="#FFF0DD" stroke-width="2"/>
<rect x="151" y="605.124" width="22" height="117.124" rx="1" transform="rotate(-180 151 605.124)" stroke="#FFF0DD" stroke-width="2"/>
<rect x="237" y="605.124" width="74" height="19.6589" rx="1" transform="rotate(-180 237 605.124)" stroke="#FFF0DD" stroke-width="2"/>
<rect x="564" y="605.124" width="74" height="19.6589" rx="1" transform="rotate(-180 564 605.124)" stroke="#FFF0DD" stroke-width="2"/>
<rect x="163" y="572.636" width="38.3643" height="20" rx="1" transform="rotate(-90 163 572.636)" stroke="#FFF0DD" stroke-width="2"/>
<rect x="544" y="572.636" width="38.3643" height="20" rx="1" transform="rotate(-90 544 572.636)" stroke="#FFF0DD" stroke-width="2"/>
<rect x="599" y="616.969" width="21.6279" height="470" rx="1" transform="rotate(90 599 616.969)" stroke="#FFF0DD" stroke-width="2"/>
<path d="M140 496.845L140 597.263" stroke="#FFF0DD" stroke-width="2"/>
<path d="M229 595.295L172 595.295" stroke="#FFF0DD" stroke-width="2"/>
<path d="M555 595.295L498 595.295" stroke="#FFF0DD" stroke-width="2"/>
<path d="M173 565.761L173 542.133" stroke="#FFF0DD" stroke-width="2"/>
<path d="M554 565.761L554 542.133" stroke="#FFF0DD" stroke-width="2"/>
<path d="M588 496.845L588 597.263" stroke="#FFF0DD" stroke-width="2"/>
<line x1="584" y1="627.799" x2="144" y2="627.799" stroke="#FFF0DD" stroke-width="2"/>
<path d="M361.087 606.38C331.607 606.38 303.467 601.243 276.667 590.97C249.867 580.25 226.194 565.287 205.647 546.08C185.1 526.427 168.797 503.2 156.737 476.4C144.677 449.153 138.647 419.003 138.647 385.95C138.647 355.577 143.56 326.543 153.387 298.85C163.214 270.71 177.73 245.697 196.937 223.81C216.144 201.923 240.04 184.503 268.627 171.55C297.214 158.597 330.044 152.12 367.117 152.12C396.597 152.12 424.737 157.48 451.537 168.2C478.337 178.473 502.01 193.437 522.557 213.09C543.104 232.297 559.407 255.523 571.467 282.77C583.527 309.57 589.557 339.497 589.557 372.55C589.557 402.477 584.644 431.51 574.817 459.65C564.99 487.79 550.474 512.803 531.267 534.69C512.06 556.577 488.164 573.997 459.577 586.95C430.99 599.903 398.16 606.38 361.087 606.38ZM371.137 579.58C405.53 579.58 434.117 572.433 456.897 558.14C479.677 543.4 496.65 523.077 507.817 497.17C519.43 470.817 525.237 440.22 525.237 405.38C525.237 374.56 521.664 345.527 514.517 318.28C507.37 291.033 496.65 267.137 482.357 246.59C468.51 225.597 451.09 209.293 430.097 197.68C409.104 186.067 384.537 180.26 356.397 180.26C322.897 180.26 294.757 187.407 271.977 201.7C249.197 215.993 232 236.093 220.387 262C208.774 287.46 202.967 317.61 202.967 352.45C202.967 383.717 206.317 412.973 213.017 440.22C220.164 467.467 230.66 491.587 244.507 512.58C258.8 533.573 276.444 550.1 297.437 562.16C318.43 573.773 342.997 579.58 371.137 579.58Z" fill="#FFF0DD"/>
<path d="M259 144L466.815 616.779" stroke="#FFF0DD" stroke-width="4" stroke-dasharray="20 20"/>
</svg>
