<svg width="1456" height="761" viewBox="0 0 1456 761" fill="none" xmlns="http://www.w3.org/2000/svg">
<rect width="1456" height="761" fill="#FFF0DD"/>
<rect x="63" y="61" width="602" height="637" stroke="#6899BF" stroke-width="4"/>
<rect x="77" y="75" width="38" height="609" rx="2" fill="#6899BF"/>
<rect x="600" y="653" width="31" height="472" rx="2" transform="rotate(90 600 653)" fill="#6899BF"/>
<rect x="600" y="75" width="31" height="472" rx="2" transform="rotate(90 600 75)" fill="#6899BF"/>
<rect x="613" y="75" width="38" height="609" rx="2" fill="#6899BF"/>
<line x1="96" y1="90" x2="96" y2="669" stroke="#FFF0DD" stroke-width="4"/>
<line x1="632" y1="90" x2="632" y2="669" stroke="#FFF0DD" stroke-width="4"/>
<line x1="585" y1="91" x2="143" y2="91" stroke="#FFF0DD" stroke-width="4"/>
<line x1="587" y1="669" x2="136" y2="669" stroke="#FFF0DD" stroke-width="4"/>
<rect x="792" y="61" width="602" height="637" stroke="#6899BF" stroke-width="4"/>
<rect x="806" y="75" width="38" height="609" rx="2" fill="#6899BF"/>
<rect x="1329" y="653" width="31" height="472" rx="2" transform="rotate(90 1329 653)" fill="#6899BF"/>
<rect x="1329" y="75" width="31" height="472" rx="2" transform="rotate(90 1329 75)" fill="#6899BF"/>
<rect x="1342" y="75" width="38" height="609" rx="2" fill="#6899BF"/>
<line x1="825" y1="90" x2="825" y2="669" stroke="#FFF0DD" stroke-width="4"/>
<line x1="1361" y1="90" x2="1361" y2="669" stroke="#FFF0DD" stroke-width="4"/>
<line x1="1314" y1="91" x2="872" y2="91" stroke="#FFF0DD" stroke-width="4"/>
<line x1="1316" y1="669" x2="865" y2="669" stroke="#FFF0DD" stroke-width="4"/>
<rect x="599" y="119" width="21.6279" height="470" rx="1" transform="rotate(90 599 119)" stroke="#6899BF" stroke-width="2"/>
<rect x="599" y="270.581" width="22" height="117.124" rx="1" transform="rotate(-180 599 270.581)" stroke="#6899BF" stroke-width="2"/>
<rect x="151" y="270.581" width="22" height="117.124" rx="1" transform="rotate(-180 151 270.581)" stroke="#6899BF" stroke-width="2"/>
<path d="M140 162.302L140 262.72" stroke="#6899BF" stroke-width="2"/>
<rect x="237" y="173.116" width="74" height="19.6589" rx="1" transform="rotate(-180 237 173.116)" stroke="#6899BF" stroke-width="2"/>
<path d="M229 163.286L172 163.286" stroke="#6899BF" stroke-width="2"/>
<rect x="564" y="173.116" width="74" height="19.6589" rx="1" transform="rotate(-180 564 173.116)" stroke="#6899BF" stroke-width="2"/>
<path d="M555 163.286L498 163.286" stroke="#6899BF" stroke-width="2"/>
<rect x="163" y="224.31" width="38.3643" height="20" rx="1" transform="rotate(-90 163 224.31)" stroke="#6899BF" stroke-width="2"/>
<path d="M173 217.435L173 193.807" stroke="#6899BF" stroke-width="2"/>
<rect x="544" y="224.31" width="38.3643" height="20" rx="1" transform="rotate(-90 544 224.31)" stroke="#6899BF" stroke-width="2"/>
<path d="M554 217.435L554 193.807" stroke="#6899BF" stroke-width="2"/>
<path d="M588 163.286L588 263.705" stroke="#6899BF" stroke-width="2"/>
<line x1="584" y1="129.829" x2="144" y2="129.829" stroke="#6899BF" stroke-width="2"/>
<rect x="599" y="605.124" width="22" height="117.124" rx="1" transform="rotate(-180 599 605.124)" stroke="#6899BF" stroke-width="2"/>
<rect x="151" y="605.124" width="22" height="117.124" rx="1" transform="rotate(-180 151 605.124)" stroke="#6899BF" stroke-width="2"/>
<rect x="237" y="605.124" width="74" height="19.6589" rx="1" transform="rotate(-180 237 605.124)" stroke="#6899BF" stroke-width="2"/>
<rect x="564" y="605.124" width="74" height="19.6589" rx="1" transform="rotate(-180 564 605.124)" stroke="#6899BF" stroke-width="2"/>
<rect x="163" y="572.636" width="38.3643" height="20" rx="1" transform="rotate(-90 163 572.636)" stroke="#6899BF" stroke-width="2"/>
<rect x="544" y="572.636" width="38.3643" height="20" rx="1" transform="rotate(-90 544 572.636)" stroke="#6899BF" stroke-width="2"/>
<rect x="599" y="616.969" width="21.6279" height="470" rx="1" transform="rotate(90 599 616.969)" stroke="#6899BF" stroke-width="2"/>
<path d="M140 496.845L140 597.263" stroke="#6899BF" stroke-width="2"/>
<path d="M229 595.295L172 595.295" stroke="#6899BF" stroke-width="2"/>
<path d="M555 595.295L498 595.295" stroke="#6899BF" stroke-width="2"/>
<path d="M173 565.761L173 542.133" stroke="#6899BF" stroke-width="2"/>
<path d="M554 565.761L554 542.133" stroke="#6899BF" stroke-width="2"/>
<path d="M588 496.845L588 597.263" stroke="#6899BF" stroke-width="2"/>
<line x1="584" y1="627.799" x2="144" y2="627.799" stroke="#6899BF" stroke-width="2"/>
<path d="M361.087 606.38C331.607 606.38 303.467 601.243 276.667 590.97C249.867 580.25 226.194 565.287 205.647 546.08C185.1 526.427 168.797 503.2 156.737 476.4C144.677 449.153 138.647 419.003 138.647 385.95C138.647 355.577 143.56 326.543 153.387 298.85C163.214 270.71 177.73 245.697 196.937 223.81C216.144 201.923 240.04 184.503 268.627 171.55C297.214 158.597 330.044 152.12 367.117 152.12C396.597 152.12 424.737 157.48 451.537 168.2C478.337 178.473 502.01 193.437 522.557 213.09C543.104 232.297 559.407 255.523 571.467 282.77C583.527 309.57 589.557 339.497 589.557 372.55C589.557 402.477 584.644 431.51 574.817 459.65C564.99 487.79 550.474 512.803 531.267 534.69C512.06 556.577 488.164 573.997 459.577 586.95C430.99 599.903 398.16 606.38 361.087 606.38ZM371.137 579.58C405.53 579.58 434.117 572.433 456.897 558.14C479.677 543.4 496.65 523.077 507.817 497.17C519.43 470.817 525.237 440.22 525.237 405.38C525.237 374.56 521.664 345.527 514.517 318.28C507.37 291.033 496.65 267.137 482.357 246.59C468.51 225.597 451.09 209.293 430.097 197.68C409.104 186.067 384.537 180.26 356.397 180.26C322.897 180.26 294.757 187.407 271.977 201.7C249.197 215.993 232 236.093 220.387 262C208.774 287.46 202.967 317.61 202.967 352.45C202.967 383.717 206.317 412.973 213.017 440.22C220.164 467.467 230.66 491.587 244.507 512.58C258.8 533.573 276.444 550.1 297.437 562.16C318.43 573.773 342.997 579.58 371.137 579.58Z" fill="#FF5E3A"/>
<path d="M259 144L466.815 616.779" stroke="#013662" stroke-width="4" stroke-dasharray="20 20"/>
<path d="M932.163 356.4C927.629 356.4 923.296 355.633 919.163 354.1C915.029 352.5 911.363 350.267 908.163 347.4C905.029 344.467 902.529 341 900.663 337C898.863 332.933 897.963 328.433 897.963 323.5C897.963 318.967 898.696 314.633 900.163 310.5C901.696 306.3 903.929 302.567 906.863 299.3C909.863 296.033 913.529 293.433 917.863 291.5C922.263 289.567 927.329 288.6 933.063 288.6C937.596 288.6 941.896 289.4 945.962 291C950.096 292.533 953.763 294.767 956.963 297.7C960.163 300.567 962.663 304.033 964.463 308.1C966.329 312.1 967.263 316.567 967.263 321.5C967.263 325.967 966.496 330.3 964.963 334.5C963.496 338.7 961.263 342.433 958.263 345.7C955.329 348.967 951.663 351.567 947.263 353.5C942.929 355.433 937.896 356.4 932.163 356.4ZM933.863 352C938.063 352 941.563 350.933 944.363 348.8C947.229 346.667 949.363 343.7 950.763 339.9C952.229 336.033 952.963 331.6 952.963 326.6C952.963 322.333 952.529 318.2 951.663 314.2C950.796 310.2 949.463 306.633 947.663 303.5C945.863 300.3 943.596 297.767 940.863 295.9C938.196 294.033 934.996 293.1 931.263 293.1C927.063 293.1 923.529 294.167 920.663 296.3C917.863 298.433 915.763 301.4 914.363 305.2C912.963 309 912.263 313.4 912.263 318.4C912.263 322.667 912.696 326.8 913.563 330.8C914.429 334.8 915.729 338.4 917.463 341.6C919.263 344.8 921.496 347.333 924.163 349.2C926.896 351.067 930.129 352 933.863 352ZM974.337 355.3C973.803 355.3 973.337 355.2 972.937 355C972.537 354.8 972.337 354.5 972.337 354.1C972.337 353.567 972.537 353.167 972.937 352.9C973.403 352.633 973.97 352.367 974.637 352.1C975.637 351.767 976.537 351.4 977.337 351C978.203 350.6 978.637 349.7 978.637 348.3V299.5C978.637 297.633 978.337 296.067 977.737 294.8C977.203 293.467 976.103 292.633 974.437 292.3C973.77 292.167 973.437 291.667 973.437 290.8C973.437 290 973.737 289.533 974.337 289.4C976.003 289.067 977.703 288.6 979.437 288C981.237 287.4 982.903 286.8 984.437 286.2C986.037 285.6 987.37 285.133 988.437 284.8C988.903 284.6 989.237 284.5 989.437 284.5C989.77 284.5 990.003 284.633 990.137 284.9C990.27 285.1 990.337 285.3 990.337 285.5C990.337 286.033 990.237 287.067 990.037 288.6C989.837 290.067 989.737 292.067 989.737 294.6V348.2C989.737 349.6 990.137 350.5 990.937 350.9C991.737 351.3 992.637 351.667 993.637 352C994.303 352.267 994.837 352.533 995.237 352.8C995.703 353.067 995.937 353.467 995.937 354C995.937 354.4 995.737 354.7 995.337 354.9C994.937 355.1 994.47 355.2 993.937 355.2C992.67 355.2 991.503 355.133 990.437 355C989.37 354.933 988.303 354.9 987.237 354.9C986.237 354.833 985.137 354.8 983.937 354.8C982.803 354.8 981.737 354.833 980.737 354.9C979.803 354.967 978.837 355.033 977.837 355.1C976.837 355.233 975.67 355.3 974.337 355.3ZM1032.32 356.9C1032.12 356.9 1031.82 356.7 1031.42 356.3C1031.08 355.967 1030.92 355.7 1030.92 355.5C1031.05 354.567 1031.15 353.6 1031.22 352.6C1031.35 351.533 1031.45 350.633 1031.52 349.9V349.3C1030.25 351.167 1028.45 352.833 1026.12 354.3C1023.85 355.7 1021.25 356.4 1018.32 356.4C1014.58 356.4 1011.28 355.467 1008.42 353.6C1005.55 351.667 1003.28 349.133 1001.62 346C1000.02 342.8 999.216 339.367 999.216 335.7C999.216 331.367 1000.18 327.467 1002.12 324C1004.12 320.467 1006.88 317.7 1010.42 315.7C1013.95 313.633 1018.05 312.6 1022.72 312.6C1023.85 312.6 1024.98 312.7 1026.12 312.9C1027.32 313.033 1028.35 313.233 1029.22 313.5C1030.02 313.7 1030.45 313.8 1030.52 313.8C1030.85 313.8 1031.02 313.233 1031.02 312.1V299.5C1031.02 296.967 1030.68 295.2 1030.02 294.2C1029.35 293.2 1028.28 292.567 1026.82 292.3C1026.08 292.1 1025.72 291.6 1025.72 290.8C1025.72 290.067 1026.05 289.6 1026.72 289.4C1029.32 288.8 1031.75 288.133 1034.02 287.4C1036.35 286.6 1038.25 285.867 1039.72 285.2C1040.38 284.933 1040.85 284.767 1041.12 284.7C1041.45 284.567 1041.65 284.5 1041.72 284.5C1042.38 284.5 1042.72 284.833 1042.72 285.5C1042.72 285.5 1042.68 285.9 1042.62 286.7C1042.55 287.5 1042.45 288.6 1042.32 290C1042.25 291.333 1042.18 292.867 1042.12 294.6L1041.82 343.3C1041.82 345.567 1041.98 347.2 1042.32 348.2C1042.65 349.2 1043.22 349.7 1044.02 349.7C1044.35 349.7 1044.78 349.7 1045.32 349.7C1045.85 349.633 1046.78 349.533 1048.12 349.4C1049.12 349.333 1049.62 349.667 1049.62 350.4C1049.62 350.933 1049.42 351.467 1049.02 352C1048.68 352.467 1048.35 352.7 1048.02 352.7C1045.75 352.967 1043.45 353.4 1041.12 354C1038.78 354.6 1036.42 355.367 1034.02 356.3C1033.55 356.5 1033.18 356.633 1032.92 356.7C1032.72 356.833 1032.52 356.9 1032.32 356.9ZM1022.92 350.1C1024.18 350.1 1025.58 349.8 1027.12 349.2C1028.65 348.533 1029.95 347.633 1031.02 346.5V325.7C1031.02 324.3 1030.55 322.933 1029.62 321.6C1028.68 320.2 1027.45 319.067 1025.92 318.2C1024.38 317.267 1022.75 316.8 1021.02 316.8C1019.42 316.8 1017.85 317.4 1016.32 318.6C1014.78 319.733 1013.48 321.5 1012.42 323.9C1011.42 326.3 1010.92 329.367 1010.92 333.1C1010.92 336.167 1011.28 338.8 1012.02 341C1012.82 343.133 1013.82 344.867 1015.02 346.2C1016.22 347.533 1017.52 348.533 1018.92 349.2C1020.32 349.8 1021.65 350.1 1022.92 350.1ZM1094.09 356.5C1091.22 356.5 1088.49 356.133 1085.89 355.4C1083.35 354.667 1081.02 353.567 1078.89 352.1C1078.49 351.767 1078.12 351.433 1077.79 351.1C1077.45 350.7 1077.19 350.267 1076.99 349.8C1076.45 348.133 1076.09 346.1 1075.89 343.7C1075.69 341.233 1075.62 338.867 1075.69 336.6C1075.69 336.133 1075.85 335.8 1076.19 335.6C1076.59 335.4 1077.05 335.3 1077.59 335.3C1078.12 335.3 1078.52 335.4 1078.79 335.6C1079.12 335.733 1079.35 336.033 1079.49 336.5C1080.95 341.5 1083.09 345.4 1085.89 348.2C1088.69 351 1091.85 352.4 1095.39 352.4C1097.59 352.4 1099.45 351.9 1100.99 350.9C1102.52 349.9 1103.69 348.6 1104.49 347C1105.29 345.4 1105.69 343.667 1105.69 341.8C1105.69 339.467 1105.25 337.533 1104.39 336C1103.59 334.467 1102.35 333.1 1100.69 331.9C1099.02 330.633 1096.92 329.3 1094.39 327.9C1091.65 326.3 1088.99 324.633 1086.39 322.9C1083.79 321.1 1081.65 319 1079.99 316.6C1078.32 314.133 1077.49 311.1 1077.49 307.5C1077.49 303.767 1078.42 300.5 1080.29 297.7C1082.22 294.833 1084.89 292.6 1088.29 291C1091.69 289.4 1095.62 288.6 1100.09 288.6C1102.55 288.6 1104.85 288.867 1106.99 289.4C1109.12 289.933 1110.82 290.467 1112.09 291C1112.82 291.267 1113.35 291.6 1113.69 292C1114.09 292.4 1114.39 293.033 1114.59 293.9C1114.99 295.3 1115.32 296.967 1115.59 298.9C1115.92 300.833 1116.09 302.867 1116.09 305C1116.09 305.8 1115.49 306.2 1114.29 306.2C1113.75 306.2 1113.22 306.067 1112.69 305.8C1112.15 305.533 1111.82 305.167 1111.69 304.7C1110.49 300.833 1108.82 297.9 1106.69 295.9C1104.62 293.9 1102.05 292.9 1098.99 292.9C1096.92 292.9 1095.15 293.267 1093.69 294C1092.22 294.667 1091.05 295.733 1090.19 297.2C1089.32 298.6 1088.89 300.433 1088.89 302.7C1088.89 304.433 1089.45 306.033 1090.59 307.5C1091.79 308.967 1093.42 310.4 1095.49 311.8C1097.62 313.2 1099.99 314.733 1102.59 316.4C1105.79 318.267 1108.45 320.167 1110.59 322.1C1112.79 323.967 1114.45 326.067 1115.59 328.4C1116.72 330.667 1117.29 333.367 1117.29 336.5C1117.29 340.9 1116.32 344.6 1114.39 347.6C1112.45 350.533 1109.75 352.767 1106.29 354.3C1102.82 355.767 1098.75 356.5 1094.09 356.5ZM1142.03 356.4C1138.03 356.4 1134.99 355.333 1132.93 353.2C1130.86 351.067 1129.83 347.967 1129.83 343.9V320.8C1129.83 320.267 1129.59 319.867 1129.13 319.6C1128.73 319.333 1127.89 319.167 1126.63 319.1H1125.53C1125.13 319.1 1124.79 318.8 1124.53 318.2C1124.26 317.533 1124.13 316.9 1124.13 316.3C1124.13 316.167 1124.16 316 1124.23 315.8C1124.36 315.533 1124.53 315.367 1124.73 315.3C1126.26 314.633 1127.83 313.733 1129.43 312.6C1131.03 311.4 1132.53 310.2 1133.93 309C1135.33 307.733 1136.49 306.667 1137.43 305.8C1137.89 305.467 1138.26 305.167 1138.53 304.9C1138.86 304.633 1139.23 304.5 1139.63 304.5C1140.16 304.5 1140.56 304.633 1140.83 304.9C1141.16 305.1 1141.26 305.533 1141.13 306.2L1140.53 311.7C1140.46 312.5 1140.63 313.033 1141.03 313.3C1141.49 313.567 1142.13 313.7 1142.93 313.7H1154.73C1154.93 313.7 1155.13 313.933 1155.33 314.4C1155.53 314.867 1155.63 315.333 1155.63 315.8C1155.63 316.667 1155.49 317.467 1155.23 318.2C1155.03 318.933 1154.76 319.3 1154.43 319.3H1144.93C1143.39 319.3 1142.33 319.467 1141.73 319.8C1141.19 320.133 1140.93 320.833 1140.93 321.9V341.1C1140.93 344.033 1141.49 346.267 1142.63 347.8C1143.76 349.267 1145.36 350 1147.43 350C1149.29 350 1150.69 349.833 1151.63 349.5C1152.63 349.167 1153.53 348.767 1154.33 348.3C1154.53 348.167 1154.69 348.1 1154.83 348.1C1155.16 348.1 1155.39 348.3 1155.53 348.7C1155.73 349.1 1155.83 349.533 1155.83 350C1155.83 350.333 1155.16 351.033 1153.83 352.1C1152.56 353.167 1150.86 354.133 1148.73 355C1146.66 355.933 1144.43 356.4 1142.03 356.4ZM1164.47 383.4C1162.87 383.4 1161.37 382.867 1159.97 381.8C1158.57 380.8 1157.87 379.467 1157.87 377.8C1157.87 376.533 1158.17 375.333 1158.77 374.2C1159.44 373.067 1160.41 372.5 1161.67 372.5C1162.61 372.5 1163.54 372.667 1164.47 373C1165.47 373.333 1166.41 373.467 1167.27 373.4C1168.07 373.333 1168.64 373.133 1168.97 372.8C1169.37 372.533 1169.81 372 1170.27 371.2C1170.81 370.267 1171.37 369.233 1171.97 368.1C1172.64 367.033 1173.31 365.733 1173.97 364.2C1174.71 362.667 1175.51 360.833 1176.37 358.7C1176.97 357.3 1177.27 355.967 1177.27 354.7C1177.27 353.9 1177.17 353.133 1176.97 352.4C1176.77 351.667 1176.54 351 1176.27 350.4L1164.17 321.9C1163.64 320.567 1162.97 319.4 1162.17 318.4C1161.44 317.4 1160.51 316.733 1159.37 316.4C1158.77 316.133 1158.27 315.867 1157.87 315.6C1157.54 315.333 1157.37 314.933 1157.37 314.4C1157.37 313.867 1157.64 313.567 1158.17 313.5C1158.71 313.367 1159.17 313.3 1159.57 313.3C1161.11 313.3 1162.34 313.333 1163.27 313.4C1164.21 313.467 1165.07 313.533 1165.87 313.6C1166.67 313.667 1167.54 313.7 1168.47 313.7C1169.87 313.7 1171.01 313.667 1171.87 313.6C1172.74 313.533 1173.64 313.467 1174.57 313.4C1175.57 313.333 1176.81 313.3 1178.27 313.3C1178.74 313.3 1179.24 313.4 1179.77 313.6C1180.31 313.733 1180.57 314.067 1180.57 314.6C1180.57 315.133 1180.27 315.567 1179.67 315.9C1179.07 316.167 1178.51 316.4 1177.97 316.6C1177.31 316.8 1176.77 317.2 1176.37 317.8C1175.97 318.333 1175.77 319.133 1175.77 320.2C1175.77 320.667 1175.87 321.267 1176.07 322C1176.27 322.667 1176.51 323.4 1176.77 324.2L1183.67 340.9C1183.74 341.167 1183.87 341.3 1184.07 341.3C1184.14 341.3 1184.24 341.167 1184.37 340.9L1190.07 324.6C1190.27 324.133 1190.44 323.533 1190.57 322.8C1190.77 322 1190.87 321.333 1190.87 320.8C1190.87 319.6 1190.57 318.7 1189.97 318.1C1189.44 317.433 1188.84 316.967 1188.17 316.7C1187.64 316.433 1187.07 316.167 1186.47 315.9C1185.87 315.567 1185.57 315.133 1185.57 314.6C1185.57 314.067 1185.84 313.733 1186.37 313.6C1186.97 313.4 1187.47 313.3 1187.87 313.3C1189.34 313.3 1190.57 313.367 1191.57 313.5C1192.57 313.633 1193.74 313.7 1195.07 313.7C1195.94 313.7 1196.64 313.667 1197.17 313.6C1197.77 313.533 1198.41 313.467 1199.07 313.4C1199.74 313.333 1200.57 313.3 1201.57 313.3C1201.97 313.3 1202.44 313.367 1202.97 313.5C1203.57 313.567 1203.87 313.867 1203.87 314.4C1203.87 314.933 1203.67 315.333 1203.27 315.6C1202.94 315.867 1202.47 316.133 1201.87 316.4C1200.74 316.733 1199.64 317.5 1198.57 318.7C1197.51 319.833 1196.64 321.167 1195.97 322.7L1181.57 357.5C1181.17 358.433 1180.64 359.667 1179.97 361.2C1179.31 362.8 1178.57 364.533 1177.77 366.4C1177.04 368.267 1176.24 370.2 1175.37 372.2C1174.51 374.2 1173.67 376.167 1172.87 378.1C1172.14 379.833 1171.01 381.133 1169.47 382C1168.01 382.933 1166.34 383.4 1164.47 383.4ZM1205.98 355.3C1205.44 355.3 1204.98 355.2 1204.58 355C1204.18 354.8 1203.98 354.5 1203.98 354.1C1203.98 353.567 1204.18 353.167 1204.58 352.9C1205.04 352.633 1205.61 352.367 1206.28 352.1C1207.28 351.767 1208.18 351.4 1208.98 351C1209.84 350.6 1210.28 349.7 1210.28 348.3V299.5C1210.28 297.633 1209.98 296.067 1209.38 294.8C1208.84 293.467 1207.74 292.633 1206.08 292.3C1205.41 292.167 1205.08 291.667 1205.08 290.8C1205.08 290 1205.38 289.533 1205.98 289.4C1207.64 289.067 1209.34 288.6 1211.08 288C1212.88 287.4 1214.54 286.8 1216.08 286.2C1217.68 285.6 1219.01 285.133 1220.08 284.8C1220.54 284.6 1220.88 284.5 1221.08 284.5C1221.41 284.5 1221.64 284.633 1221.78 284.9C1221.91 285.1 1221.98 285.3 1221.98 285.5C1221.98 286.033 1221.88 287.067 1221.68 288.6C1221.48 290.067 1221.38 292.067 1221.38 294.6V348.2C1221.38 349.6 1221.78 350.5 1222.58 350.9C1223.38 351.3 1224.28 351.667 1225.28 352C1225.94 352.267 1226.48 352.533 1226.88 352.8C1227.34 353.067 1227.58 353.467 1227.58 354C1227.58 354.4 1227.38 354.7 1226.98 354.9C1226.58 355.1 1226.11 355.2 1225.58 355.2C1224.31 355.2 1223.14 355.133 1222.08 355C1221.01 354.933 1219.94 354.9 1218.88 354.9C1217.88 354.833 1216.78 354.8 1215.58 354.8C1214.44 354.8 1213.38 354.833 1212.38 354.9C1211.44 354.967 1210.48 355.033 1209.48 355.1C1208.48 355.233 1207.31 355.3 1205.98 355.3ZM1249.36 356.4C1245.69 356.4 1242.46 355.467 1239.66 353.6C1236.86 351.733 1234.66 349.167 1233.06 345.9C1231.46 342.567 1230.66 338.8 1230.66 334.6C1230.66 330.533 1231.59 326.833 1233.46 323.5C1235.39 320.1 1237.96 317.4 1241.16 315.4C1244.36 313.4 1247.86 312.4 1251.66 312.4C1254.46 312.4 1256.96 313 1259.16 314.2C1261.36 315.333 1263.09 316.933 1264.36 319C1265.69 321 1266.36 323.267 1266.36 325.8C1266.36 328.2 1265.32 329.4 1263.26 329.4H1242.96C1242.02 329.4 1241.32 329.667 1240.86 330.2C1240.46 330.667 1240.26 331.567 1240.26 332.9C1240.26 335.7 1240.86 338.233 1242.06 340.5C1243.32 342.767 1244.99 344.567 1247.06 345.9C1249.12 347.233 1251.49 347.9 1254.16 347.9C1256.09 347.9 1257.86 347.533 1259.46 346.8C1261.12 346 1262.69 344.933 1264.16 343.6C1264.42 343.4 1264.66 343.233 1264.86 343.1C1265.06 342.9 1265.26 342.8 1265.46 342.8C1266.12 342.8 1266.46 343.2 1266.46 344C1266.46 344.933 1266.06 346.067 1265.26 347.4C1264.46 348.933 1263.29 350.4 1261.76 351.8C1260.29 353.2 1258.49 354.3 1256.36 355.1C1254.22 355.967 1251.89 356.4 1249.36 356.4ZM1242.96 325.5H1250.06C1251.79 325.5 1253.09 325.467 1253.96 325.4C1254.82 325.333 1255.66 325.2 1256.46 325C1256.79 324.933 1257.02 324.667 1257.16 324.2C1257.29 323.667 1257.36 323.067 1257.36 322.4C1257.36 320.6 1256.66 319.1 1255.26 317.9C1253.92 316.633 1252.26 316 1250.26 316C1248.86 316 1247.49 316.433 1246.16 317.3C1244.82 318.1 1243.72 319.133 1242.86 320.4C1241.99 321.667 1241.59 322.967 1241.66 324.3C1241.66 325.1 1242.09 325.5 1242.96 325.5ZM1018.75 476.5C1015.88 476.5 1013.15 476.133 1010.55 475.4C1008.01 474.667 1005.68 473.567 1003.55 472.1C1003.15 471.767 1002.78 471.433 1002.45 471.1C1002.11 470.7 1001.85 470.267 1001.65 469.8C1001.11 468.133 1000.75 466.1 1000.55 463.7C1000.35 461.233 1000.28 458.867 1000.35 456.6C1000.35 456.133 1000.51 455.8 1000.85 455.6C1001.25 455.4 1001.71 455.3 1002.25 455.3C1002.78 455.3 1003.18 455.4 1003.45 455.6C1003.78 455.733 1004.01 456.033 1004.15 456.5C1005.61 461.5 1007.75 465.4 1010.55 468.2C1013.35 471 1016.51 472.4 1020.05 472.4C1022.25 472.4 1024.11 471.9 1025.65 470.9C1027.18 469.9 1028.35 468.6 1029.15 467C1029.95 465.4 1030.35 463.667 1030.35 461.8C1030.35 459.467 1029.91 457.533 1029.05 456C1028.25 454.467 1027.01 453.1 1025.35 451.9C1023.68 450.633 1021.58 449.3 1019.05 447.9C1016.31 446.3 1013.65 444.633 1011.05 442.9C1008.45 441.1 1006.31 439 1004.65 436.6C1002.98 434.133 1002.15 431.1 1002.15 427.5C1002.15 423.767 1003.08 420.5 1004.95 417.7C1006.88 414.833 1009.55 412.6 1012.95 411C1016.35 409.4 1020.28 408.6 1024.75 408.6C1027.21 408.6 1029.51 408.867 1031.65 409.4C1033.78 409.933 1035.48 410.467 1036.75 411C1037.48 411.267 1038.01 411.6 1038.35 412C1038.75 412.4 1039.05 413.033 1039.25 413.9C1039.65 415.3 1039.98 416.967 1040.25 418.9C1040.58 420.833 1040.75 422.867 1040.75 425C1040.75 425.8 1040.15 426.2 1038.95 426.2C1038.41 426.2 1037.88 426.067 1037.35 425.8C1036.81 425.533 1036.48 425.167 1036.35 424.7C1035.15 420.833 1033.48 417.9 1031.35 415.9C1029.28 413.9 1026.71 412.9 1023.65 412.9C1021.58 412.9 1019.81 413.267 1018.35 414C1016.88 414.667 1015.71 415.733 1014.85 417.2C1013.98 418.6 1013.55 420.433 1013.55 422.7C1013.55 424.433 1014.11 426.033 1015.25 427.5C1016.45 428.967 1018.08 430.4 1020.15 431.8C1022.28 433.2 1024.65 434.733 1027.25 436.4C1030.45 438.267 1033.11 440.167 1035.25 442.1C1037.45 443.967 1039.11 446.067 1040.25 448.4C1041.38 450.667 1041.95 453.367 1041.95 456.5C1041.95 460.9 1040.98 464.6 1039.05 467.6C1037.11 470.533 1034.41 472.767 1030.95 474.3C1027.48 475.767 1023.41 476.5 1018.75 476.5ZM1067.76 476.4C1064.1 476.4 1060.86 475.467 1058.06 473.6C1055.26 471.733 1053.06 469.167 1051.46 465.9C1049.86 462.567 1049.06 458.8 1049.06 454.6C1049.06 450.533 1050 446.833 1051.86 443.5C1053.8 440.1 1056.36 437.4 1059.56 435.4C1062.76 433.4 1066.26 432.4 1070.06 432.4C1072.86 432.4 1075.36 433 1077.56 434.2C1079.76 435.333 1081.5 436.933 1082.76 439C1084.1 441 1084.76 443.267 1084.76 445.8C1084.76 448.2 1083.73 449.4 1081.66 449.4H1061.36C1060.43 449.4 1059.73 449.667 1059.26 450.2C1058.86 450.667 1058.66 451.567 1058.66 452.9C1058.66 455.7 1059.26 458.233 1060.46 460.5C1061.73 462.767 1063.4 464.567 1065.46 465.9C1067.53 467.233 1069.9 467.9 1072.56 467.9C1074.5 467.9 1076.26 467.533 1077.86 466.8C1079.53 466 1081.1 464.933 1082.56 463.6C1082.83 463.4 1083.06 463.233 1083.26 463.1C1083.46 462.9 1083.66 462.8 1083.86 462.8C1084.53 462.8 1084.86 463.2 1084.86 464C1084.86 464.933 1084.46 466.067 1083.66 467.4C1082.86 468.933 1081.7 470.4 1080.16 471.8C1078.7 473.2 1076.9 474.3 1074.76 475.1C1072.63 475.967 1070.3 476.4 1067.76 476.4ZM1061.36 445.5H1068.46C1070.2 445.5 1071.5 445.467 1072.36 445.4C1073.23 445.333 1074.06 445.2 1074.86 445C1075.2 444.933 1075.43 444.667 1075.56 444.2C1075.7 443.667 1075.76 443.067 1075.76 442.4C1075.76 440.6 1075.06 439.1 1073.66 437.9C1072.33 436.633 1070.66 436 1068.66 436C1067.26 436 1065.9 436.433 1064.56 437.3C1063.23 438.1 1062.13 439.133 1061.26 440.4C1060.4 441.667 1060 442.967 1060.06 444.3C1060.06 445.1 1060.5 445.5 1061.36 445.5ZM1091.78 475.3C1091.25 475.3 1090.78 475.2 1090.38 475C1089.98 474.733 1089.78 474.4 1089.78 474C1089.78 473.467 1089.98 473.067 1090.38 472.8C1090.85 472.533 1091.42 472.3 1092.08 472.1C1093.48 471.7 1094.45 471.233 1094.98 470.7C1095.58 470.1 1095.88 469.3 1095.88 468.3V445.8C1095.88 444.267 1095.65 443 1095.18 442C1094.78 440.933 1093.88 440.233 1092.48 439.9C1092.22 439.767 1091.95 439.6 1091.68 439.4C1091.42 439.133 1091.28 438.767 1091.28 438.3C1091.28 437.433 1091.65 436.9 1092.38 436.7C1094.38 436.167 1096.55 435.467 1098.88 434.6C1101.22 433.667 1103.18 432.767 1104.78 431.9C1105.12 431.7 1105.48 431.5 1105.88 431.3C1106.28 431.1 1106.58 431 1106.78 431C1107.32 431 1107.58 431.333 1107.58 432C1107.58 432.267 1107.55 432.867 1107.48 433.8C1107.48 434.733 1107.45 435.767 1107.38 436.9C1107.38 437.967 1107.35 438.933 1107.28 439.8C1107.28 440.2 1107.38 440.4 1107.58 440.4C1108.65 439 1109.85 437.7 1111.18 436.5C1112.52 435.3 1113.92 434.3 1115.38 433.5C1116.92 432.7 1118.45 432.3 1119.98 432.3C1121.92 432.3 1123.35 432.7 1124.28 433.5C1125.28 434.3 1125.78 435.3 1125.78 436.5C1125.78 437.433 1125.52 438.433 1124.98 439.5C1124.52 440.567 1123.88 441.5 1123.08 442.3C1122.35 443.033 1121.52 443.4 1120.58 443.4C1120.05 443.4 1119.48 443.3 1118.88 443.1C1118.28 442.833 1117.68 442.533 1117.08 442.2C1116.48 441.933 1115.85 441.667 1115.18 441.4C1114.58 441.133 1114.02 441 1113.48 441C1111.82 441 1110.32 441.633 1108.98 442.9C1107.65 444.1 1106.98 446.5 1106.98 450.1V467.7C1106.98 468.9 1107.42 469.833 1108.28 470.5C1109.15 471.1 1110.48 471.667 1112.28 472.2C1113.02 472.4 1113.55 472.633 1113.88 472.9C1114.28 473.1 1114.48 473.467 1114.48 474C1114.48 474.867 1113.88 475.3 1112.68 475.3C1110.68 475.3 1108.78 475.2 1106.98 475C1105.25 474.867 1103.52 474.8 1101.78 474.8C1100.65 474.8 1099.55 474.833 1098.48 474.9C1097.48 474.967 1096.45 475.033 1095.38 475.1C1094.32 475.233 1093.12 475.3 1091.78 475.3ZM1130.15 475.3C1129.62 475.3 1129.19 475.2 1128.85 475C1128.52 474.733 1128.35 474.4 1128.35 474C1128.35 473.467 1128.55 473.067 1128.95 472.8C1129.35 472.533 1129.82 472.333 1130.35 472.2C1131.95 471.8 1133.09 471.367 1133.75 470.9C1134.49 470.433 1134.85 469.633 1134.85 468.5V446.8C1134.85 444.667 1134.52 443.067 1133.85 442C1133.19 440.933 1132.05 440.267 1130.45 440C1130.12 439.933 1129.85 439.767 1129.65 439.5C1129.45 439.167 1129.35 438.8 1129.35 438.4C1129.35 437.467 1129.72 436.967 1130.45 436.9C1133.65 436.233 1136.42 435.333 1138.75 434.2C1141.15 433 1142.99 432.067 1144.25 431.4C1145.19 430.933 1145.79 430.7 1146.05 430.7C1146.79 430.7 1147.15 431.033 1147.15 431.7C1147.09 432.633 1146.95 433.933 1146.75 435.6C1146.55 437.2 1146.35 438.933 1146.15 440.8C1146.02 442.6 1145.95 444.3 1145.95 445.9V468.4C1145.95 469.4 1146.32 470.167 1147.05 470.7C1147.79 471.233 1148.95 471.733 1150.55 472.2C1151.09 472.4 1151.55 472.633 1151.95 472.9C1152.35 473.1 1152.55 473.467 1152.55 474C1152.55 474.8 1151.99 475.2 1150.85 475.2C1149.59 475.2 1148.35 475.167 1147.15 475.1C1146.02 475.033 1144.89 474.967 1143.75 474.9C1142.69 474.833 1141.55 474.8 1140.35 474.8C1139.22 474.8 1138.12 474.833 1137.05 474.9C1135.99 474.967 1134.89 475.033 1133.75 475.1C1132.69 475.233 1131.49 475.3 1130.15 475.3ZM1140.15 424.9C1138.22 424.9 1136.59 424.233 1135.25 422.9C1133.92 421.567 1133.25 419.967 1133.25 418.1C1133.25 416.033 1133.92 414.333 1135.25 413C1136.59 411.667 1138.22 411 1140.15 411C1142.15 411 1143.82 411.667 1145.15 413C1146.49 414.333 1147.15 416.033 1147.15 418.1C1147.15 419.967 1146.49 421.567 1145.15 422.9C1143.82 424.233 1142.15 424.9 1140.15 424.9ZM1158.28 475.3C1157.75 475.3 1157.28 475.2 1156.88 475C1156.48 474.733 1156.28 474.4 1156.28 474C1156.28 473.467 1156.45 473.067 1156.78 472.8C1157.18 472.533 1157.68 472.333 1158.28 472.2C1160.02 471.667 1161.15 471.133 1161.68 470.6C1162.28 470.067 1162.58 469.2 1162.58 468V439.7C1161.92 439.7 1161.15 439.7 1160.28 439.7C1159.42 439.633 1158.45 439.567 1157.38 439.5C1157.05 439.433 1156.72 439.1 1156.38 438.5C1156.12 437.9 1155.98 437.367 1155.98 436.9C1155.98 436.7 1156.08 436.533 1156.28 436.4C1156.48 436.267 1156.65 436.167 1156.78 436.1C1157.78 435.633 1158.72 435.2 1159.58 434.8C1160.52 434.4 1161.52 433.967 1162.58 433.5C1162.72 427.967 1163.58 423.333 1165.18 419.6C1166.85 415.867 1168.92 412.9 1171.38 410.7C1173.85 408.433 1176.45 406.833 1179.18 405.9C1181.98 404.9 1184.58 404.4 1186.98 404.4C1191.25 404.4 1194.35 405.033 1196.28 406.3C1198.28 407.5 1199.28 409.267 1199.28 411.6C1199.28 413.067 1198.95 414.233 1198.28 415.1C1197.62 415.9 1196.72 416.3 1195.58 416.3C1194.98 416.3 1194.38 416.067 1193.78 415.6C1193.25 415.067 1192.65 414.4 1191.98 413.6C1190.92 412.533 1189.65 411.467 1188.18 410.4C1186.78 409.333 1184.98 408.8 1182.78 408.8C1179.98 408.8 1177.75 410.033 1176.08 412.5C1174.48 414.967 1173.68 418.8 1173.68 424V432.5C1173.68 432.967 1173.82 433.3 1174.08 433.5C1174.35 433.633 1174.68 433.7 1175.08 433.7H1186.78C1187.25 433.7 1187.62 433.867 1187.88 434.2C1188.15 434.467 1188.28 434.8 1188.28 435.2C1188.28 435.733 1188.22 436.333 1188.08 437C1187.95 437.6 1187.75 438.1 1187.48 438.5C1187.22 439.033 1186.95 439.3 1186.68 439.3H1176.68C1175.48 439.3 1174.68 439.467 1174.28 439.8C1173.88 440.067 1173.68 440.567 1173.68 441.3V466.9C1173.68 468.5 1174.08 469.667 1174.88 470.4C1175.68 471.067 1177.45 471.633 1180.18 472.1C1181.58 472.367 1182.28 472.967 1182.28 473.9C1182.28 474.3 1182.12 474.633 1181.78 474.9C1181.45 475.167 1181.02 475.3 1180.48 475.3C1178.48 475.3 1176.38 475.2 1174.18 475C1171.98 474.867 1170.02 474.8 1168.28 474.8C1167.15 474.8 1166.08 474.833 1165.08 474.9C1164.08 474.967 1163.02 475.033 1161.88 475.1C1160.82 475.233 1159.62 475.3 1158.28 475.3Z" fill="#FF5E3A"/>
</svg>
