<svg width="1456" height="761" viewBox="0 0 1456 761" fill="none" xmlns="http://www.w3.org/2000/svg">
<rect width="1456" height="761" fill="#013662"/>
<rect x="764" y="70" width="622" height="622" fill="#FFF0DD"/>
<rect x="819.243" y="121.082" width="513.559" height="515.829" fill="#013662"/>
<path d="M974.698 240C973.798 240 972.748 240 971.548 240C970.378 240 969.238 240 968.128 240C967.018 240 966.058 240 965.248 240C964.438 240 963.973 240 963.853 240C963.703 240 963.583 239.955 963.493 239.865C963.403 239.775 963.358 239.655 963.358 239.505C963.358 237.045 963.358 234.69 963.358 232.44C963.358 230.16 963.358 227.925 963.358 225.735C963.358 223.515 963.358 221.28 963.358 219.03C963.358 216.75 963.358 214.38 963.358 211.92H969.928L969.613 212.82C969.613 213.81 969.613 214.755 969.613 215.655C969.613 216.555 969.613 217.44 969.613 218.31C969.613 219.66 969.613 220.995 969.613 222.315C969.613 223.605 969.613 224.91 969.613 226.23C969.613 227.55 969.613 228.915 969.613 230.325C969.613 231.705 969.613 233.13 969.613 234.6C970.123 234.6 970.603 234.6 971.053 234.6C971.533 234.6 972.013 234.6 972.493 234.6C972.973 234.6 973.453 234.6 973.933 234.6C974.803 234.6 975.508 234.48 976.048 234.24C976.618 233.97 977.038 233.595 977.308 233.115C977.578 232.605 977.713 232.005 977.713 231.315V229.92C977.713 229.2 977.578 228.6 977.308 228.12C977.038 227.64 976.603 227.28 976.003 227.04C975.433 226.8 974.653 226.68 973.663 226.68H966.418L966.643 222.855H978.388V224.475C980.188 224.745 981.568 225.435 982.528 226.545C983.518 227.625 984.013 229.125 984.013 231.045V232.305C984.013 234.135 983.623 235.62 982.843 236.76C982.063 237.87 980.983 238.695 979.603 239.235C978.223 239.745 976.588 240 974.698 240ZM961.153 208.5C963.283 208.5 965.413 208.5 967.543 208.5C969.673 208.5 971.788 208.5 973.888 208.5C975.778 208.5 977.353 208.71 978.613 209.13C979.903 209.52 980.923 210.06 981.673 210.75C982.453 211.44 983.023 212.235 983.383 213.135C983.743 214.035 983.923 214.95 983.923 215.88V216.915C983.923 218.055 983.713 219.06 983.293 219.93C982.873 220.77 982.273 221.475 981.493 222.045C980.743 222.615 979.828 223.05 978.748 223.35C977.668 223.62 976.468 223.755 975.148 223.755C973.408 223.755 971.923 223.755 970.693 223.755C969.493 223.755 968.398 223.755 967.408 223.755L966.643 224.34L966.418 221.46C967.648 221.46 968.878 221.46 970.108 221.46C971.338 221.46 972.553 221.46 973.753 221.46C974.683 221.46 975.433 221.34 976.003 221.1C976.573 220.83 976.978 220.44 977.218 219.93C977.488 219.39 977.623 218.76 977.623 218.04V216.915C977.623 216.465 977.563 216.06 977.443 215.7C977.323 215.31 977.128 214.995 976.858 214.755C976.558 214.455 976.168 214.245 975.688 214.125C975.208 213.975 974.623 213.9 973.933 213.9C972.583 213.9 971.218 213.9 969.838 213.9C968.488 213.9 967.123 213.9 965.743 213.9C964.393 213.9 963.028 213.9 961.648 213.9C961.498 213.9 961.378 213.855 961.288 213.765C961.198 213.675 961.153 213.555 961.153 213.405C961.153 212.505 961.153 211.68 961.153 210.93C961.153 210.18 961.153 209.37 961.153 208.5ZM990.566 212.055C990.566 210.945 990.566 209.925 990.566 208.995C990.566 208.065 990.566 207.15 990.566 206.25C991.406 206.25 992.006 206.25 992.366 206.25C992.726 206.25 992.981 206.25 993.131 206.25C993.311 206.25 993.461 206.25 993.581 206.25C993.731 206.25 993.986 206.25 994.346 206.25C994.706 206.25 995.306 206.25 996.146 206.25C996.266 206.25 996.356 206.28 996.416 206.34C996.476 206.37 996.521 206.415 996.551 206.475C996.611 206.535 996.641 206.625 996.641 206.745C996.641 208.485 996.641 210.225 996.641 211.965C996.641 213.675 996.641 215.385 996.641 217.095C996.641 218.805 996.641 220.53 996.641 222.27C996.641 223.98 996.641 225.705 996.641 227.445C996.641 229.155 996.641 230.88 996.641 232.62C996.641 232.92 996.656 233.16 996.686 233.34C996.746 233.52 996.851 233.685 997.001 233.835C997.151 233.985 997.331 234.09 997.541 234.15C997.751 234.21 998.021 234.24 998.351 234.24C998.471 234.24 998.621 234.24 998.801 234.24C999.011 234.24 999.206 234.24 999.386 234.24C999.596 234.24 999.776 234.24 999.926 234.24C1000.11 234.24 1000.23 234.24 1000.29 234.24H1000.69C1000.69 235.05 1000.69 235.935 1000.69 236.895C1000.69 237.825 1000.69 238.695 1000.69 239.505C1000.69 239.655 1000.65 239.775 1000.56 239.865C1000.47 239.955 1000.35 240 1000.2 240C1000.11 240 1000 240 999.881 240C999.791 240 999.626 240 999.386 240C999.176 240 998.861 240 998.441 240C998.021 240 997.436 240 996.686 240C995.666 240 994.781 239.865 994.031 239.595C993.281 239.295 992.636 238.875 992.096 238.335C991.586 237.765 991.196 237.06 990.926 236.22C990.686 235.35 990.566 234.33 990.566 233.16C990.566 231.42 990.566 229.68 990.566 227.94C990.566 226.17 990.566 224.4 990.566 222.63C990.566 220.86 990.566 219.105 990.566 217.365C990.566 215.595 990.566 213.825 990.566 212.055ZM1016.02 215.25C1017.64 215.25 1019.11 215.505 1020.43 216.015C1021.78 216.525 1022.93 217.245 1023.89 218.175C1024.85 219.075 1025.59 220.155 1026.1 221.415C1026.64 222.675 1026.91 224.07 1026.91 225.6V230.145C1026.91 232.185 1026.44 233.985 1025.51 235.545C1024.61 237.105 1023.34 238.335 1021.69 239.235C1020.07 240.105 1018.18 240.54 1016.02 240.54C1014.4 240.54 1012.91 240.285 1011.56 239.775C1010.24 239.265 1009.1 238.56 1008.14 237.66C1007.18 236.73 1006.43 235.635 1005.89 234.375C1005.38 233.115 1005.13 231.72 1005.13 230.19V225.645C1005.13 223.605 1005.58 221.805 1006.48 220.245C1007.41 218.685 1008.7 217.47 1010.35 216.6C1012 215.7 1013.89 215.25 1016.02 215.25ZM1016.06 220.785C1015.04 220.785 1014.17 220.995 1013.45 221.415C1012.73 221.805 1012.18 222.39 1011.79 223.17C1011.4 223.92 1011.2 224.835 1011.2 225.915V229.875C1011.2 230.715 1011.32 231.465 1011.56 232.125C1011.8 232.755 1012.13 233.31 1012.55 233.79C1012.94 234.18 1013.42 234.48 1013.99 234.69C1014.59 234.9 1015.25 235.005 1015.97 235.005C1016.99 235.005 1017.86 234.81 1018.58 234.42C1019.33 234 1019.89 233.4 1020.25 232.62C1020.64 231.84 1020.83 230.925 1020.83 229.875V225.915C1020.83 224.985 1020.73 224.205 1020.52 223.575C1020.31 222.915 1019.99 222.375 1019.57 221.955C1019.18 221.535 1018.69 221.235 1018.09 221.055C1017.52 220.875 1016.84 220.785 1016.06 220.785ZM1043.54 215.25C1044.65 215.25 1045.63 215.325 1046.47 215.475C1047.31 215.595 1047.98 215.76 1048.49 215.97C1049.03 216.15 1049.39 216.33 1049.57 216.51C1049.63 216.54 1049.66 216.6 1049.66 216.69C1049.69 216.75 1049.71 216.825 1049.71 216.915C1049.71 217.755 1049.71 218.61 1049.71 219.48C1049.71 220.35 1049.71 221.22 1049.71 222.09H1048.85C1048.04 221.73 1047.2 221.46 1046.33 221.28C1045.46 221.1 1044.52 221.01 1043.5 221.01C1042.51 221.01 1041.62 221.205 1040.84 221.595C1040.06 221.955 1039.46 222.54 1039.04 223.35C1038.62 224.16 1038.41 225.21 1038.41 226.5V229.335C1038.41 230.295 1038.53 231.135 1038.77 231.855C1039.01 232.545 1039.39 233.115 1039.9 233.565C1040.32 233.985 1040.83 234.3 1041.43 234.51C1042.03 234.69 1042.72 234.78 1043.5 234.78C1044.19 234.78 1044.83 234.75 1045.43 234.69C1046.03 234.6 1046.62 234.48 1047.19 234.33C1047.76 234.18 1048.31 233.985 1048.85 233.745H1049.71C1049.71 234.615 1049.71 235.485 1049.71 236.355C1049.71 237.225 1049.71 238.095 1049.71 238.965C1049.71 239.025 1049.69 239.085 1049.66 239.145C1049.66 239.205 1049.63 239.265 1049.57 239.325C1049.42 239.475 1049.08 239.655 1048.54 239.865C1048.03 240.045 1047.34 240.195 1046.47 240.315C1045.63 240.465 1044.65 240.54 1043.54 240.54C1041.74 240.54 1040.14 240.3 1038.73 239.82C1037.32 239.34 1036.12 238.635 1035.13 237.705C1034.14 236.745 1033.39 235.59 1032.88 234.24C1032.37 232.89 1032.11 231.36 1032.11 229.65V226.41C1032.11 224.19 1032.59 222.255 1033.55 220.605C1034.51 218.925 1035.85 217.62 1037.56 216.69C1039.27 215.73 1041.26 215.25 1043.54 215.25ZM1061.5 240C1060.84 240 1060.21 240 1059.61 240C1059.04 240 1058.44 240 1057.81 240C1057.21 240 1056.58 240 1055.92 240C1055.83 240 1055.74 239.985 1055.65 239.955C1055.59 239.895 1055.53 239.835 1055.47 239.775C1055.44 239.715 1055.42 239.625 1055.42 239.505C1055.42 237.105 1055.42 234.705 1055.42 232.305C1055.42 229.905 1055.42 227.505 1055.42 225.105C1055.42 222.675 1055.42 220.26 1055.42 217.86C1055.42 215.46 1055.42 213.06 1055.42 210.66C1055.42 209.82 1055.42 209.025 1055.42 208.275C1055.42 207.525 1055.42 206.85 1055.42 206.25C1056.17 206.25 1056.85 206.25 1057.45 206.25C1058.08 206.25 1058.68 206.25 1059.25 206.25C1059.85 206.25 1060.43 206.25 1061 206.25C1061.12 206.25 1061.21 206.28 1061.27 206.34C1061.33 206.37 1061.38 206.415 1061.41 206.475C1061.47 206.535 1061.5 206.625 1061.5 206.745C1061.5 209.505 1061.5 212.28 1061.5 215.07C1061.5 217.83 1061.5 220.605 1061.5 223.395C1061.5 226.155 1061.5 228.93 1061.5 231.72C1061.5 234.48 1061.5 237.24 1061.5 240ZM1071.53 240C1071.17 240 1070.9 239.955 1070.72 239.865C1070.54 239.775 1070.36 239.61 1070.18 239.37C1070.06 239.22 1069.9 238.995 1069.69 238.695C1069.48 238.365 1069.22 238.005 1068.92 237.615C1068.65 237.195 1068.35 236.76 1068.02 236.31C1067.72 235.86 1067.42 235.425 1067.12 235.005C1066.73 234.435 1066.4 233.91 1066.13 233.43C1065.86 232.92 1065.64 232.395 1065.46 231.855C1065.28 231.285 1065.13 230.67 1065.01 230.01H1063.16L1066.9 225.24C1068.16 226.92 1069.4 228.585 1070.63 230.235C1071.89 231.855 1073.14 233.475 1074.37 235.095C1075.63 236.715 1076.89 238.35 1078.15 240C1077.49 240 1076.84 240 1076.21 240C1075.61 240 1074.94 240 1074.19 240C1073.47 240 1072.58 240 1071.53 240ZM1060.64 226.095H1062.35C1062.56 225.465 1062.77 224.895 1062.98 224.385C1063.19 223.875 1063.42 223.395 1063.66 222.945C1063.9 222.495 1064.15 222.075 1064.42 221.685C1064.72 221.295 1065.05 220.89 1065.41 220.47C1065.8 219.99 1066.19 219.525 1066.58 219.075C1066.97 218.625 1067.39 218.13 1067.84 217.59C1068.32 217.05 1068.83 216.45 1069.37 215.79H1076.08C1076.17 215.79 1076.24 215.805 1076.3 215.835C1076.39 215.865 1076.45 215.91 1076.48 215.97C1076.51 216.03 1076.53 216.105 1076.53 216.195C1076.53 216.285 1076.51 216.375 1076.48 216.465C1076.45 216.525 1076.35 216.645 1076.17 216.825C1075.24 217.875 1074.31 218.895 1073.38 219.885C1072.48 220.845 1071.59 221.82 1070.72 222.81C1069.85 223.77 1068.98 224.715 1068.11 225.645C1067.27 226.545 1066.42 227.46 1065.55 228.39C1064.71 229.32 1063.88 230.235 1063.07 231.135C1062.29 232.035 1061.48 232.92 1060.64 233.79V226.095ZM1079.88 223.62H1094.24C1094.36 223.62 1094.45 223.65 1094.51 223.71C1094.57 223.74 1094.61 223.785 1094.64 223.845C1094.7 223.905 1094.73 223.995 1094.73 224.115C1094.73 225.015 1094.73 225.9 1094.73 226.77C1094.73 227.61 1094.73 228.495 1094.73 229.425H1080.38C1080.29 229.425 1080.21 229.425 1080.15 229.425C1080.09 229.395 1080.03 229.365 1079.97 229.335C1079.94 229.275 1079.91 229.215 1079.88 229.155C1079.88 229.095 1079.88 229.02 1079.88 228.93C1079.88 228 1079.88 227.115 1079.88 226.275C1079.88 225.405 1079.88 224.52 1079.88 223.62ZM1101.22 212.055C1101.22 210.945 1101.22 209.925 1101.22 208.995C1101.22 208.065 1101.22 207.15 1101.22 206.25C1102.06 206.25 1102.66 206.25 1103.02 206.25C1103.38 206.25 1103.63 206.25 1103.78 206.25C1103.96 206.25 1104.11 206.25 1104.23 206.25C1104.38 206.25 1104.64 206.25 1105 206.25C1105.36 206.25 1105.96 206.25 1106.8 206.25C1106.92 206.25 1107.01 206.28 1107.07 206.34C1107.13 206.37 1107.17 206.415 1107.2 206.475C1107.26 206.535 1107.29 206.625 1107.29 206.745C1107.29 208.485 1107.29 210.225 1107.29 211.965C1107.29 213.675 1107.29 215.385 1107.29 217.095C1107.29 218.805 1107.29 220.53 1107.29 222.27C1107.29 223.98 1107.29 225.705 1107.29 227.445C1107.29 229.155 1107.29 230.88 1107.29 232.62C1107.29 232.92 1107.31 233.16 1107.34 233.34C1107.4 233.52 1107.5 233.685 1107.65 233.835C1107.8 233.985 1107.98 234.09 1108.19 234.15C1108.4 234.21 1108.67 234.24 1109 234.24C1109.12 234.24 1109.27 234.24 1109.45 234.24C1109.66 234.24 1109.86 234.24 1110.04 234.24C1110.25 234.24 1110.43 234.24 1110.58 234.24C1110.76 234.24 1110.88 234.24 1110.94 234.24H1111.34C1111.34 235.05 1111.34 235.935 1111.34 236.895C1111.34 237.825 1111.34 238.695 1111.34 239.505C1111.34 239.655 1111.3 239.775 1111.21 239.865C1111.12 239.955 1111 240 1110.85 240C1110.76 240 1110.65 240 1110.53 240C1110.44 240 1110.28 240 1110.04 240C1109.83 240 1109.51 240 1109.09 240C1108.67 240 1108.09 240 1107.34 240C1106.32 240 1105.43 239.865 1104.68 239.595C1103.93 239.295 1103.29 238.875 1102.75 238.335C1102.24 237.765 1101.85 237.06 1101.58 236.22C1101.34 235.35 1101.22 234.33 1101.22 233.16C1101.22 231.42 1101.22 229.68 1101.22 227.94C1101.22 226.17 1101.22 224.4 1101.22 222.63C1101.22 220.86 1101.22 219.105 1101.22 217.365C1101.22 215.595 1101.22 213.825 1101.22 212.055ZM1117.35 239.505C1117.35 238.695 1117.35 237.69 1117.35 236.49C1117.35 235.26 1117.35 233.94 1117.35 232.53C1117.35 231.12 1117.35 229.71 1117.35 228.3C1117.35 226.89 1117.35 225.57 1117.35 224.34C1117.35 223.11 1117.35 222.075 1117.35 221.235H1117.03C1116.85 221.235 1116.64 221.235 1116.4 221.235C1116.19 221.235 1115.95 221.235 1115.68 221.235C1115.44 221.235 1115.19 221.235 1114.92 221.235C1114.68 221.235 1114.44 221.235 1114.2 221.235C1114.05 221.235 1113.93 221.19 1113.84 221.1C1113.75 221.01 1113.7 220.89 1113.7 220.74C1113.7 219.93 1113.7 219.105 1113.7 218.265C1113.7 217.425 1113.7 216.6 1113.7 215.79C1114.21 215.79 1114.78 215.79 1115.41 215.79C1116.07 215.79 1116.76 215.79 1117.48 215.79C1118.2 215.79 1118.91 215.79 1119.6 215.79C1120.29 215.79 1120.92 215.79 1121.49 215.79C1122.09 215.79 1122.57 215.79 1122.93 215.79C1123.05 215.79 1123.14 215.82 1123.2 215.88C1123.26 215.91 1123.3 215.955 1123.33 216.015C1123.39 216.075 1123.42 216.165 1123.42 216.285C1123.42 217.695 1123.42 219.24 1123.42 220.92C1123.42 222.57 1123.42 224.25 1123.42 225.96C1123.42 227.67 1123.42 229.35 1123.42 231C1123.42 232.65 1123.42 234.195 1123.42 235.635C1123.42 236.085 1123.42 236.565 1123.42 237.075C1123.42 237.555 1123.42 238.035 1123.42 238.515C1123.42 238.995 1123.42 239.49 1123.42 240C1122.43 240 1121.5 240 1120.63 240C1119.79 240 1118.86 240 1117.84 240C1117.69 240 1117.57 239.955 1117.48 239.865C1117.39 239.775 1117.35 239.655 1117.35 239.505ZM1116.27 204.27C1116.84 204.27 1117.42 204.27 1118.02 204.27C1118.65 204.27 1119.28 204.27 1119.91 204.27C1120.57 204.27 1121.2 204.27 1121.8 204.27C1122.43 204.27 1123.03 204.27 1123.6 204.27C1123.75 204.27 1123.87 204.315 1123.96 204.405C1124.05 204.495 1124.1 204.615 1124.1 204.765V210.57C1123.53 210.57 1122.93 210.57 1122.3 210.57C1121.7 210.57 1121.07 210.57 1120.41 210.57C1119.78 210.57 1119.15 210.57 1118.52 210.57C1117.92 210.57 1117.33 210.57 1116.76 210.57C1116.61 210.57 1116.49 210.525 1116.4 210.435C1116.31 210.345 1116.27 210.225 1116.27 210.075V204.27ZM1137.04 240C1136.38 240 1135.75 240 1135.15 240C1134.58 240 1133.98 240 1133.35 240C1132.75 240 1132.12 240 1131.46 240C1131.37 240 1131.28 239.985 1131.19 239.955C1131.13 239.895 1131.07 239.835 1131.01 239.775C1130.98 239.715 1130.96 239.625 1130.96 239.505C1130.96 237.105 1130.96 234.705 1130.96 232.305C1130.96 229.905 1130.96 227.505 1130.96 225.105C1130.96 222.675 1130.96 220.26 1130.96 217.86C1130.96 215.46 1130.96 213.06 1130.96 210.66C1130.96 209.82 1130.96 209.025 1130.96 208.275C1130.96 207.525 1130.96 206.85 1130.96 206.25C1131.71 206.25 1132.39 206.25 1132.99 206.25C1133.62 206.25 1134.22 206.25 1134.79 206.25C1135.39 206.25 1135.97 206.25 1136.54 206.25C1136.66 206.25 1136.75 206.28 1136.81 206.34C1136.87 206.37 1136.92 206.415 1136.95 206.475C1137.01 206.535 1137.04 206.625 1137.04 206.745C1137.04 209.505 1137.04 212.28 1137.04 215.07C1137.04 217.83 1137.04 220.605 1137.04 223.395C1137.04 226.155 1137.04 228.93 1137.04 231.72C1137.04 234.48 1137.04 237.24 1137.04 240ZM1147.07 240C1146.71 240 1146.44 239.955 1146.26 239.865C1146.08 239.775 1145.9 239.61 1145.72 239.37C1145.6 239.22 1145.44 238.995 1145.23 238.695C1145.02 238.365 1144.76 238.005 1144.46 237.615C1144.19 237.195 1143.89 236.76 1143.56 236.31C1143.26 235.86 1142.96 235.425 1142.66 235.005C1142.27 234.435 1141.94 233.91 1141.67 233.43C1141.4 232.92 1141.18 232.395 1141 231.855C1140.82 231.285 1140.67 230.67 1140.55 230.01H1138.7L1142.44 225.24C1143.7 226.92 1144.94 228.585 1146.17 230.235C1147.43 231.855 1148.68 233.475 1149.91 235.095C1151.17 236.715 1152.43 238.35 1153.69 240C1153.03 240 1152.38 240 1151.75 240C1151.15 240 1150.48 240 1149.73 240C1149.01 240 1148.12 240 1147.07 240ZM1136.18 226.095H1137.89C1138.1 225.465 1138.31 224.895 1138.52 224.385C1138.73 223.875 1138.96 223.395 1139.2 222.945C1139.44 222.495 1139.69 222.075 1139.96 221.685C1140.26 221.295 1140.59 220.89 1140.95 220.47C1141.34 219.99 1141.73 219.525 1142.12 219.075C1142.51 218.625 1142.93 218.13 1143.38 217.59C1143.86 217.05 1144.37 216.45 1144.91 215.79H1151.62C1151.71 215.79 1151.78 215.805 1151.84 215.835C1151.93 215.865 1151.99 215.91 1152.02 215.97C1152.05 216.03 1152.07 216.105 1152.07 216.195C1152.07 216.285 1152.05 216.375 1152.02 216.465C1151.99 216.525 1151.89 216.645 1151.71 216.825C1150.78 217.875 1149.85 218.895 1148.92 219.885C1148.02 220.845 1147.13 221.82 1146.26 222.81C1145.39 223.77 1144.52 224.715 1143.65 225.645C1142.81 226.545 1141.96 227.46 1141.09 228.39C1140.25 229.32 1139.42 230.235 1138.61 231.135C1137.83 232.035 1137.02 232.92 1136.18 233.79V226.095ZM1166.31 215.25C1168.35 215.25 1170.12 215.67 1171.62 216.51C1173.15 217.35 1174.34 218.52 1175.18 220.02C1176.02 221.52 1176.44 223.275 1176.44 225.285V229.02C1176.44 229.11 1176.42 229.2 1176.39 229.29C1176.36 229.35 1176.3 229.395 1176.21 229.425C1176.15 229.455 1176.08 229.47 1175.99 229.47H1165.64C1165.13 229.47 1164.6 229.47 1164.06 229.47C1163.55 229.47 1163.04 229.47 1162.53 229.47H1160.69L1160.55 225.69H1170.54C1170.54 225.57 1170.54 225.465 1170.54 225.375C1170.54 225.285 1170.54 225.18 1170.54 225.06C1170.54 224.19 1170.45 223.455 1170.27 222.855C1170.09 222.225 1169.81 221.73 1169.42 221.37C1169.09 221.01 1168.67 220.755 1168.16 220.605C1167.65 220.455 1167.03 220.38 1166.31 220.38C1164.81 220.38 1163.69 220.755 1162.94 221.505C1162.22 222.225 1161.86 223.41 1161.86 225.06V230.55C1161.86 231.27 1161.95 231.915 1162.13 232.485C1162.34 233.025 1162.62 233.49 1162.98 233.88C1163.46 234.36 1164.09 234.705 1164.87 234.915C1165.68 235.125 1166.61 235.23 1167.66 235.23C1168.74 235.23 1169.7 235.185 1170.54 235.095C1171.38 234.975 1172.16 234.825 1172.88 234.645C1173.6 234.435 1174.31 234.21 1175 233.97H1175.85C1175.85 234.72 1175.85 235.485 1175.85 236.265C1175.85 237.015 1175.85 237.78 1175.85 238.56C1175.85 238.62 1175.84 238.68 1175.81 238.74C1175.78 238.8 1175.73 238.86 1175.67 238.92C1175.43 239.16 1174.89 239.4 1174.05 239.64C1173.24 239.88 1172.25 240.09 1171.08 240.27C1169.94 240.45 1168.77 240.54 1167.57 240.54C1165.62 240.54 1163.9 240.315 1162.4 239.865C1160.93 239.385 1159.7 238.71 1158.71 237.84C1157.75 236.97 1157.01 235.92 1156.5 234.69C1156.02 233.43 1155.78 232.02 1155.78 230.46V225.33C1155.78 223.8 1156.02 222.42 1156.5 221.19C1157.01 219.96 1157.73 218.91 1158.66 218.04C1159.59 217.14 1160.7 216.45 1161.99 215.97C1163.28 215.49 1164.72 215.25 1166.31 215.25ZM1023.76 299.555C1025.56 299.555 1026.79 299.36 1027.45 298.97C1028.11 298.55 1028.44 298.07 1028.44 297.53C1028.44 297.2 1028.35 296.9 1028.17 296.63C1028.02 296.36 1027.74 296.135 1027.32 295.955C1026.93 295.745 1026.36 295.58 1025.61 295.46L1020.97 294.785C1019.53 294.545 1018.33 294.14 1017.37 293.57C1016.41 292.97 1015.69 292.22 1015.21 291.32C1014.76 290.42 1014.54 289.415 1014.54 288.305C1014.54 287.045 1014.78 285.935 1015.26 284.975C1015.77 283.985 1016.5 283.145 1017.46 282.455C1018.42 281.765 1019.61 281.24 1021.02 280.88C1022.43 280.52 1024.03 280.34 1025.83 280.34C1026.79 280.34 1027.68 280.385 1028.49 280.475C1029.3 280.535 1030.03 280.625 1030.69 280.745C1031.35 280.865 1031.94 281 1032.45 281.15C1032.66 281.21 1032.81 281.285 1032.9 281.375C1033.02 281.435 1033.08 281.525 1033.08 281.645C1033.11 281.765 1033.12 281.945 1033.12 282.185C1033.12 282.815 1033.12 283.61 1033.12 284.57C1033.12 285.5 1033.12 286.37 1033.12 287.18H1032.31C1031.5 286.97 1030.72 286.79 1029.97 286.64C1029.22 286.49 1028.46 286.385 1027.68 286.325C1026.9 286.265 1026.07 286.235 1025.2 286.235C1024 286.235 1023.06 286.325 1022.37 286.505C1021.71 286.655 1021.24 286.865 1020.97 287.135C1020.7 287.405 1020.57 287.72 1020.57 288.08C1020.57 288.41 1020.64 288.71 1020.79 288.98C1020.97 289.22 1021.26 289.415 1021.65 289.565C1022.04 289.715 1022.58 289.85 1023.27 289.97L1027.5 290.6C1028.97 290.78 1030.21 291.17 1031.23 291.77C1032.25 292.34 1033.03 293.105 1033.57 294.065C1034.14 294.995 1034.43 296.12 1034.43 297.44C1034.43 299.06 1034.01 300.47 1033.17 301.67C1032.36 302.87 1031.16 303.8 1029.57 304.46C1027.98 305.12 1026.03 305.45 1023.72 305.45C1022.64 305.45 1021.63 305.405 1020.7 305.315C1019.77 305.255 1018.9 305.15 1018.09 305C1017.31 304.88 1016.61 304.73 1015.98 304.55C1015.35 304.37 1014.81 304.175 1014.36 303.965C1014.18 303.905 1014.06 303.83 1014 303.74C1013.97 303.65 1013.95 303.485 1013.95 303.245C1013.95 302.555 1013.95 301.73 1013.95 300.77C1013.95 299.81 1013.95 298.88 1013.95 297.98H1014.76C1015.48 298.28 1016.17 298.535 1016.83 298.745C1017.52 298.925 1018.21 299.075 1018.9 299.195C1019.62 299.315 1020.37 299.405 1021.15 299.465C1021.96 299.525 1022.83 299.555 1023.76 299.555ZM1050.03 280.25C1052.07 280.25 1053.84 280.67 1055.34 281.51C1056.87 282.35 1058.06 283.52 1058.9 285.02C1059.74 286.52 1060.16 288.275 1060.16 290.285V294.02C1060.16 294.11 1060.14 294.2 1060.11 294.29C1060.08 294.35 1060.02 294.395 1059.93 294.425C1059.87 294.455 1059.8 294.47 1059.71 294.47H1049.36C1048.85 294.47 1048.32 294.47 1047.78 294.47C1047.27 294.47 1046.76 294.47 1046.25 294.47H1044.41L1044.27 290.69H1054.26C1054.26 290.57 1054.26 290.465 1054.26 290.375C1054.26 290.285 1054.26 290.18 1054.26 290.06C1054.26 289.19 1054.17 288.455 1053.99 287.855C1053.81 287.225 1053.53 286.73 1053.14 286.37C1052.81 286.01 1052.39 285.755 1051.88 285.605C1051.37 285.455 1050.75 285.38 1050.03 285.38C1048.53 285.38 1047.41 285.755 1046.66 286.505C1045.94 287.225 1045.58 288.41 1045.58 290.06V295.55C1045.58 296.27 1045.67 296.915 1045.85 297.485C1046.06 298.025 1046.34 298.49 1046.7 298.88C1047.18 299.36 1047.81 299.705 1048.59 299.915C1049.4 300.125 1050.33 300.23 1051.38 300.23C1052.46 300.23 1053.42 300.185 1054.26 300.095C1055.1 299.975 1055.88 299.825 1056.6 299.645C1057.32 299.435 1058.03 299.21 1058.72 298.97H1059.57C1059.57 299.72 1059.57 300.485 1059.57 301.265C1059.57 302.015 1059.57 302.78 1059.57 303.56C1059.57 303.62 1059.56 303.68 1059.53 303.74C1059.5 303.8 1059.45 303.86 1059.39 303.92C1059.15 304.16 1058.61 304.4 1057.77 304.64C1056.96 304.88 1055.97 305.09 1054.8 305.27C1053.66 305.45 1052.49 305.54 1051.29 305.54C1049.34 305.54 1047.62 305.315 1046.12 304.865C1044.65 304.385 1043.42 303.71 1042.43 302.84C1041.47 301.97 1040.73 300.92 1040.22 299.69C1039.74 298.43 1039.5 297.02 1039.5 295.46V290.33C1039.5 288.8 1039.74 287.42 1040.22 286.19C1040.73 284.96 1041.45 283.91 1042.38 283.04C1043.31 282.14 1044.42 281.45 1045.71 280.97C1047 280.49 1048.44 280.25 1050.03 280.25ZM1072.47 285.11H1074.27C1074.63 284 1075.05 283.1 1075.53 282.41C1076.01 281.69 1076.6 281.165 1077.29 280.835C1078.01 280.505 1078.82 280.34 1079.72 280.34C1080.2 280.34 1080.59 280.385 1080.89 280.475C1081.22 280.565 1081.44 280.655 1081.56 280.745C1081.68 280.835 1081.76 280.925 1081.79 281.015C1081.82 281.075 1081.83 281.18 1081.83 281.33C1081.83 281.81 1081.83 282.29 1081.83 282.77C1081.83 283.22 1081.83 283.67 1081.83 284.12C1081.83 284.57 1081.83 285.035 1081.83 285.515C1081.83 285.965 1081.83 286.43 1081.83 286.91H1080.98C1080.68 286.82 1080.35 286.745 1079.99 286.685C1079.63 286.625 1079.22 286.595 1078.77 286.595C1077.84 286.595 1077.02 286.775 1076.3 287.135C1075.61 287.495 1074.96 288.005 1074.36 288.665C1073.76 289.295 1073.13 290.045 1072.47 290.915V285.11ZM1073.33 305C1072.67 305 1071.99 305 1071.3 305C1070.64 305 1069.98 305 1069.32 305C1068.66 305 1068 305 1067.34 305C1067.25 305 1067.18 305 1067.12 305C1067.06 304.97 1067 304.94 1066.94 304.91C1066.91 304.85 1066.88 304.79 1066.85 304.73C1066.85 304.67 1066.85 304.595 1066.85 304.505C1066.85 303.395 1066.85 302.225 1066.85 300.995C1066.85 299.735 1066.85 298.445 1066.85 297.125C1066.85 295.805 1066.85 294.485 1066.85 293.165C1066.85 291.815 1066.85 290.48 1066.85 289.16C1066.85 287.81 1066.85 286.49 1066.85 285.2C1066.85 284.36 1066.85 283.565 1066.85 282.815C1066.85 282.065 1066.85 281.39 1066.85 280.79C1067.6 280.79 1068.3 280.79 1068.96 280.79C1069.65 280.79 1070.31 280.79 1070.94 280.79C1071.6 280.79 1072.23 280.79 1072.83 280.79C1072.95 280.79 1073.04 280.82 1073.1 280.88C1073.16 280.91 1073.21 280.955 1073.24 281.015C1073.3 281.075 1073.33 281.165 1073.33 281.285C1073.33 282.665 1073.33 284.12 1073.33 285.65C1073.33 287.18 1073.33 288.74 1073.33 290.33C1073.33 291.92 1073.33 293.555 1073.33 295.235C1073.33 296.885 1073.33 298.535 1073.33 300.185C1073.33 301.805 1073.33 303.41 1073.33 305ZM1089.22 304.505C1089.22 303.695 1089.22 302.69 1089.22 301.49C1089.22 300.26 1089.22 298.94 1089.22 297.53C1089.22 296.12 1089.22 294.71 1089.22 293.3C1089.22 291.89 1089.22 290.57 1089.22 289.34C1089.22 288.11 1089.22 287.075 1089.22 286.235H1088.91C1088.73 286.235 1088.52 286.235 1088.28 286.235C1088.07 286.235 1087.83 286.235 1087.56 286.235C1087.32 286.235 1087.06 286.235 1086.79 286.235C1086.55 286.235 1086.31 286.235 1086.07 286.235C1085.92 286.235 1085.8 286.19 1085.71 286.1C1085.62 286.01 1085.58 285.89 1085.58 285.74C1085.58 284.93 1085.58 284.105 1085.58 283.265C1085.58 282.425 1085.58 281.6 1085.58 280.79C1086.09 280.79 1086.66 280.79 1087.29 280.79C1087.95 280.79 1088.64 280.79 1089.36 280.79C1090.08 280.79 1090.78 280.79 1091.47 280.79C1092.16 280.79 1092.79 280.79 1093.36 280.79C1093.96 280.79 1094.44 280.79 1094.8 280.79C1094.92 280.79 1095.01 280.82 1095.07 280.88C1095.13 280.91 1095.18 280.955 1095.21 281.015C1095.27 281.075 1095.3 281.165 1095.3 281.285C1095.3 282.695 1095.3 284.24 1095.3 285.92C1095.3 287.57 1095.3 289.25 1095.3 290.96C1095.3 292.67 1095.3 294.35 1095.3 296C1095.3 297.65 1095.3 299.195 1095.3 300.635C1095.3 301.085 1095.3 301.565 1095.3 302.075C1095.3 302.555 1095.3 303.035 1095.3 303.515C1095.3 303.995 1095.3 304.49 1095.3 305C1094.31 305 1093.38 305 1092.51 305C1091.67 305 1090.74 305 1089.72 305C1089.57 305 1089.45 304.955 1089.36 304.865C1089.27 304.775 1089.22 304.655 1089.22 304.505ZM1088.14 269.27C1088.71 269.27 1089.3 269.27 1089.9 269.27C1090.53 269.27 1091.16 269.27 1091.79 269.27C1092.45 269.27 1093.08 269.27 1093.68 269.27C1094.31 269.27 1094.91 269.27 1095.48 269.27C1095.63 269.27 1095.75 269.315 1095.84 269.405C1095.93 269.495 1095.97 269.615 1095.97 269.765V275.57C1095.4 275.57 1094.8 275.57 1094.17 275.57C1093.57 275.57 1092.94 275.57 1092.28 275.57C1091.65 275.57 1091.02 275.57 1090.39 275.57C1089.79 275.57 1089.21 275.57 1088.64 275.57C1088.49 275.57 1088.37 275.525 1088.28 275.435C1088.19 275.345 1088.14 275.225 1088.14 275.075V269.27ZM1100.81 281.96H1115.03C1115.15 281.96 1115.24 281.99 1115.3 282.05C1115.36 282.08 1115.41 282.125 1115.44 282.185C1115.5 282.245 1115.53 282.335 1115.53 282.455C1115.53 283.295 1115.53 284.09 1115.53 284.84C1115.53 285.59 1115.53 286.4 1115.53 287.27H1101.31C1101.22 287.27 1101.13 287.255 1101.04 287.225C1100.98 287.165 1100.92 287.105 1100.86 287.045C1100.83 286.955 1100.81 286.865 1100.81 286.775C1100.81 285.905 1100.81 285.095 1100.81 284.345C1100.81 283.595 1100.81 282.8 1100.81 281.96ZM1109.81 304.505C1109.81 304.625 1109.77 304.745 1109.68 304.865C1109.59 304.955 1109.47 305 1109.32 305C1108.36 305 1107.43 305 1106.53 305C1105.63 305 1104.68 305 1103.69 305C1103.69 304.25 1103.69 303.5 1103.69 302.75C1103.69 302 1103.69 301.25 1103.69 300.5C1103.69 298.58 1103.69 296.78 1103.69 295.1C1103.69 293.39 1103.69 291.725 1103.69 290.105C1103.69 288.455 1103.69 286.76 1103.69 285.02C1103.69 283.25 1103.69 281.33 1103.69 279.26C1103.69 277.91 1103.89 276.695 1104.28 275.615C1104.67 274.505 1105.22 273.575 1105.94 272.825C1106.66 272.045 1107.55 271.445 1108.6 271.025C1109.68 270.605 1110.89 270.395 1112.24 270.395C1113.05 270.395 1113.77 270.455 1114.4 270.575C1115.03 270.665 1115.56 270.785 1115.98 270.935C1116.4 271.085 1116.68 271.22 1116.83 271.34C1116.89 271.37 1116.92 271.43 1116.92 271.52C1116.95 271.58 1116.97 271.64 1116.97 271.7C1116.97 272.48 1116.97 273.275 1116.97 274.085C1116.97 274.865 1116.97 275.645 1116.97 276.425H1116.11C1115.75 276.275 1115.39 276.155 1115.03 276.065C1114.7 275.945 1114.36 275.855 1114 275.795C1113.64 275.735 1113.26 275.705 1112.87 275.705C1112.48 275.705 1112.09 275.765 1111.7 275.885C1111.31 276.005 1110.97 276.185 1110.67 276.425C1110.37 276.725 1110.14 277.1 1109.99 277.55C1109.87 277.97 1109.81 278.555 1109.81 279.305C1109.81 280.715 1109.81 282.29 1109.81 284.03C1109.81 285.74 1109.81 287.525 1109.81 289.385C1109.81 291.245 1109.81 293.09 1109.81 294.92C1109.81 296.75 1109.81 298.49 1109.81 300.14C1109.81 301.76 1109.81 303.215 1109.81 304.505ZM1128.62 299.555C1130.42 299.555 1131.65 299.36 1132.31 298.97C1132.97 298.55 1133.3 298.07 1133.3 297.53C1133.3 297.2 1133.21 296.9 1133.03 296.63C1132.88 296.36 1132.59 296.135 1132.17 295.955C1131.78 295.745 1131.21 295.58 1130.46 295.46L1125.83 294.785C1124.39 294.545 1123.19 294.14 1122.23 293.57C1121.27 292.97 1120.55 292.22 1120.07 291.32C1119.62 290.42 1119.39 289.415 1119.39 288.305C1119.39 287.045 1119.63 285.935 1120.11 284.975C1120.62 283.985 1121.36 283.145 1122.32 282.455C1123.28 281.765 1124.46 281.24 1125.87 280.88C1127.28 280.52 1128.89 280.34 1130.69 280.34C1131.65 280.34 1132.53 280.385 1133.34 280.475C1134.15 280.535 1134.89 280.625 1135.55 280.745C1136.21 280.865 1136.79 281 1137.3 281.15C1137.51 281.21 1137.66 281.285 1137.75 281.375C1137.87 281.435 1137.93 281.525 1137.93 281.645C1137.96 281.765 1137.98 281.945 1137.98 282.185C1137.98 282.815 1137.98 283.61 1137.98 284.57C1137.98 285.5 1137.98 286.37 1137.98 287.18H1137.17C1136.36 286.97 1135.58 286.79 1134.83 286.64C1134.08 286.49 1133.31 286.385 1132.53 286.325C1131.75 286.265 1130.93 286.235 1130.06 286.235C1128.86 286.235 1127.91 286.325 1127.22 286.505C1126.56 286.655 1126.1 286.865 1125.83 287.135C1125.56 287.405 1125.42 287.72 1125.42 288.08C1125.42 288.41 1125.5 288.71 1125.65 288.98C1125.83 289.22 1126.11 289.415 1126.5 289.565C1126.89 289.715 1127.43 289.85 1128.12 289.97L1132.35 290.6C1133.82 290.78 1135.07 291.17 1136.09 291.77C1137.11 292.34 1137.89 293.105 1138.43 294.065C1139 294.995 1139.28 296.12 1139.28 297.44C1139.28 299.06 1138.86 300.47 1138.02 301.67C1137.21 302.87 1136.01 303.8 1134.42 304.46C1132.83 305.12 1130.88 305.45 1128.57 305.45C1127.49 305.45 1126.49 305.405 1125.56 305.315C1124.63 305.255 1123.76 305.15 1122.95 305C1122.17 304.88 1121.46 304.73 1120.83 304.55C1120.2 304.37 1119.66 304.175 1119.21 303.965C1119.03 303.905 1118.91 303.83 1118.85 303.74C1118.82 303.65 1118.81 303.485 1118.81 303.245C1118.81 302.555 1118.81 301.73 1118.81 300.77C1118.81 299.81 1118.81 298.88 1118.81 297.98H1119.62C1120.34 298.28 1121.03 298.535 1121.69 298.745C1122.38 298.925 1123.07 299.075 1123.76 299.195C1124.48 299.315 1125.23 299.405 1126.01 299.465C1126.82 299.525 1127.69 299.555 1128.62 299.555Z" fill="#FFF0DD"/>
<path d="M956.089 484C955.189 484 954.259 484 953.299 484C952.369 484 951.439 484 950.509 484C950.419 484 950.329 483.985 950.239 483.955C950.179 483.895 950.119 483.835 950.059 483.775C950.029 483.685 950.014 483.595 950.014 483.505C950.014 481.285 950.014 479.08 950.014 476.89C950.014 474.67 950.014 472.465 950.014 470.275C950.014 468.055 950.014 465.835 950.014 463.615C950.014 461.395 950.014 459.19 950.014 457C950.014 456.25 950.014 455.5 950.014 454.75C950.014 454 950.014 453.25 950.014 452.5C950.644 452.5 951.439 452.5 952.399 452.5C953.359 452.5 954.304 452.5 955.234 452.5C956.164 452.5 956.899 452.5 957.439 452.5C957.619 452.5 957.769 452.53 957.889 452.59C958.009 452.65 958.114 452.755 958.204 452.905C958.324 453.025 958.429 453.235 958.519 453.535C958.999 454.675 959.464 455.8 959.914 456.91C960.364 458.02 960.799 459.13 961.219 460.24C961.669 461.35 962.104 462.475 962.524 463.615C962.944 464.725 963.364 465.865 963.784 467.035C964.234 468.205 964.684 469.435 965.134 470.725L963.154 468.655H966.394L964.369 470.725C964.819 469.435 965.254 468.19 965.674 466.99C966.124 465.79 966.559 464.62 966.979 463.48C967.429 462.31 967.864 461.14 968.284 459.97C968.734 458.77 969.184 457.555 969.634 456.325C970.114 455.095 970.624 453.82 971.164 452.5C971.764 452.5 972.559 452.5 973.549 452.5C974.539 452.5 975.529 452.5 976.519 452.5C977.509 452.5 978.319 452.5 978.949 452.5C979.039 452.5 979.114 452.53 979.174 452.59C979.264 452.62 979.324 452.68 979.354 452.77C979.414 452.83 979.444 452.905 979.444 452.995C979.444 454.285 979.444 455.62 979.444 457C979.444 458.38 979.444 459.82 979.444 461.32C979.444 462.79 979.444 464.29 979.444 465.82C979.444 467.35 979.444 468.88 979.444 470.41C979.444 471.94 979.444 473.485 979.444 475.045C979.444 476.575 979.444 478.075 979.444 479.545C979.444 480.025 979.444 480.52 979.444 481.03C979.444 481.51 979.444 482.005 979.444 482.515C979.444 482.995 979.444 483.49 979.444 484C978.514 484 977.569 484 976.609 484C975.679 484 974.764 484 973.864 484C973.774 484 973.684 483.985 973.594 483.955C973.534 483.895 973.474 483.835 973.414 483.775C973.384 483.685 973.369 483.595 973.369 483.505C973.369 482.845 973.369 482.215 973.369 481.615C973.369 480.985 973.369 480.355 973.369 479.725C973.369 479.065 973.369 478.435 973.369 477.835C973.369 476.965 973.369 476.11 973.369 475.27C973.399 474.43 973.414 473.59 973.414 472.75C973.444 471.91 973.489 471.04 973.549 470.14C973.609 469.24 973.684 468.295 973.774 467.305C973.864 466.315 973.969 465.265 974.089 464.155C974.209 463.015 974.344 461.815 974.494 460.555L975.349 461.905H972.154L973.999 460.6C973.549 461.71 973.084 462.865 972.604 464.065C972.154 465.235 971.689 466.42 971.209 467.62C970.729 468.79 970.249 469.975 969.769 471.175C969.319 472.345 968.854 473.515 968.374 474.685C967.924 475.825 967.489 476.935 967.069 478.015C966.349 478.015 965.614 478.015 964.864 478.015C964.144 478.015 963.424 478.015 962.704 478.015C962.614 478.015 962.509 478 962.389 477.97C962.299 477.91 962.224 477.805 962.164 477.655C961.774 476.695 961.354 475.675 960.904 474.595C960.484 473.485 960.049 472.345 959.599 471.175C959.149 470.005 958.684 468.82 958.204 467.62C957.724 466.42 957.244 465.235 956.764 464.065C956.314 462.895 955.864 461.74 955.414 460.6L957.214 461.905H954.064L954.874 460.555C955.054 461.785 955.204 462.955 955.324 464.065C955.474 465.175 955.579 466.225 955.639 467.215C955.729 468.175 955.804 469.12 955.864 470.05C955.924 470.95 955.969 471.835 955.999 472.705C956.029 473.545 956.044 474.385 956.044 475.225C956.074 476.065 956.089 476.935 956.089 477.835C956.089 478.855 956.089 479.89 956.089 480.94C956.089 481.96 956.089 482.98 956.089 484ZM1006.11 468.655C1006.11 469.405 1006.11 470.14 1006.11 470.86C1006.11 471.55 1006.11 472.27 1006.11 473.02C1006.11 473.74 1006.11 474.475 1006.11 475.225C1006.11 475.945 1006.11 476.65 1006.11 477.34C1006.11 477.58 1006.13 477.79 1006.16 477.97C1006.22 478.15 1006.31 478.3 1006.43 478.42C1006.52 478.51 1006.64 478.585 1006.79 478.645C1006.97 478.675 1007.16 478.69 1007.37 478.69C1007.46 478.69 1007.54 478.69 1007.6 478.69C1007.69 478.69 1007.78 478.69 1007.87 478.69H1008.72C1008.72 479.5 1008.72 480.31 1008.72 481.12C1008.72 481.9 1008.72 482.695 1008.72 483.505C1008.72 483.655 1008.68 483.775 1008.59 483.865C1008.5 483.955 1008.38 484 1008.23 484C1008.08 484 1007.7 484 1007.1 484C1006.53 484 1006.02 484 1005.57 484C1004.73 484 1003.98 483.865 1003.32 483.595C1002.66 483.325 1002.08 482.95 1001.57 482.47C1001.06 481.96 1000.67 481.36 1000.4 480.67C1000.13 479.98 999.99 479.2 999.99 478.33C999.99 477.4 999.99 476.455 999.99 475.495C999.99 474.535 999.99 473.59 999.99 472.66C999.99 472.15 999.99 471.67 999.99 471.22C999.99 470.74 999.99 470.26 999.99 469.78C999.99 469.3 999.99 468.82 999.99 468.34C999.99 467.47 999.84 466.795 999.54 466.315C999.24 465.805 998.745 465.445 998.055 465.235C997.395 465.025 996.495 464.92 995.355 464.92C994.515 464.92 993.69 464.965 992.88 465.055C992.1 465.145 991.32 465.265 990.54 465.415C989.79 465.565 989.025 465.775 988.245 466.045H987.39C987.39 465.235 987.39 464.425 987.39 463.615C987.39 462.805 987.39 462.01 987.39 461.23C987.39 461.11 987.405 461.02 987.435 460.96C987.465 460.9 987.495 460.855 987.525 460.825C987.705 460.645 988.2 460.435 989.01 460.195C989.85 459.955 990.84 459.76 991.98 459.61C993.12 459.43 994.245 459.34 995.355 459.34C997.245 459.34 998.865 459.52 1000.22 459.88C1001.57 460.21 1002.68 460.75 1003.55 461.5C1004.42 462.25 1005.06 463.225 1005.48 464.425C1005.9 465.595 1006.11 467.005 1006.11 468.655ZM991.71 477.16C991.71 477.79 991.875 478.27 992.205 478.6C992.565 478.9 993.105 479.05 993.825 479.05C994.635 479.05 995.43 478.96 996.21 478.78C996.99 478.6 997.755 478.3 998.505 477.88C999.285 477.46 1000.07 476.92 1000.85 476.26V480.13H999.495C999.105 481.03 998.55 481.81 997.83 482.47C997.14 483.1 996.33 483.595 995.4 483.955C994.47 484.285 993.45 484.45 992.34 484.45C990.96 484.45 989.76 484.18 988.74 483.64C987.75 483.1 986.985 482.35 986.445 481.39C985.905 480.4 985.635 479.26 985.635 477.97V476.395C985.635 475.405 985.8 474.52 986.13 473.74C986.46 472.96 986.925 472.285 987.525 471.715C988.155 471.145 988.905 470.71 989.775 470.41C990.645 470.08 991.62 469.915 992.7 469.915C993.75 469.915 994.77 469.915 995.76 469.915C996.78 469.915 997.74 469.915 998.64 469.915C999.57 469.915 1000.44 469.915 1001.25 469.915C1001.52 469.915 1001.72 470.155 1001.84 470.635C1001.99 471.115 1002.08 471.655 1002.11 472.255C1002.14 472.825 1002.15 473.305 1002.15 473.695C1001.19 473.695 1000.26 473.695 999.36 473.695C998.46 473.695 997.545 473.695 996.615 473.695C995.715 473.695 994.785 473.695 993.825 473.695C993.465 473.695 993.15 473.74 992.88 473.83C992.64 473.92 992.43 474.055 992.25 474.235C992.1 474.415 991.965 474.625 991.845 474.865C991.755 475.075 991.71 475.315 991.71 475.585V477.16ZM1034.13 484C1033.14 484 1032.21 484 1031.34 484C1030.5 484 1029.57 484 1028.55 484C1028.46 484 1028.37 483.985 1028.28 483.955C1028.22 483.895 1028.16 483.835 1028.1 483.775C1028.07 483.715 1028.05 483.625 1028.05 483.505C1028.05 481.735 1028.05 479.965 1028.05 478.195C1028.05 476.395 1028.05 474.61 1028.05 472.84C1028.05 471.07 1028.05 469.3 1028.05 467.53C1028.05 466.72 1027.87 466.12 1027.51 465.73C1027.15 465.34 1026.58 465.145 1025.8 465.145C1025.29 465.145 1024.72 465.235 1024.09 465.415C1023.49 465.565 1022.88 465.805 1022.25 466.135C1021.65 466.435 1021.06 466.825 1020.49 467.305C1019.92 467.785 1019.4 468.355 1018.92 469.015V463.705H1020.49C1021.09 462.805 1021.75 462.025 1022.47 461.365C1023.22 460.705 1024.03 460.195 1024.9 459.835C1025.8 459.445 1026.76 459.25 1027.78 459.25C1028.74 459.25 1029.61 459.415 1030.39 459.745C1031.2 460.045 1031.88 460.51 1032.42 461.14C1032.99 461.74 1033.41 462.475 1033.68 463.345C1033.98 464.215 1034.13 465.19 1034.13 466.27C1034.13 467.71 1034.13 469.165 1034.13 470.635C1034.13 472.105 1034.13 473.575 1034.13 475.045C1034.13 476.515 1034.13 478 1034.13 479.5C1034.13 480.25 1034.13 481 1034.13 481.75C1034.13 482.5 1034.13 483.25 1034.13 484ZM1019.64 484C1018.98 484 1018.35 484 1017.75 484C1017.18 484 1016.58 484 1015.95 484C1015.35 484 1014.72 484 1014.06 484C1013.97 484 1013.89 484 1013.83 484C1013.77 483.97 1013.71 483.94 1013.65 483.91C1013.62 483.85 1013.59 483.79 1013.56 483.73C1013.56 483.67 1013.56 483.595 1013.56 483.505C1013.56 481.885 1013.56 480.28 1013.56 478.69C1013.56 477.07 1013.56 475.465 1013.56 473.875C1013.56 472.255 1013.56 470.65 1013.56 469.06C1013.56 467.44 1013.56 465.82 1013.56 464.2C1013.56 463.36 1013.56 462.565 1013.56 461.815C1013.56 461.065 1013.56 460.39 1013.56 459.79C1014.31 459.79 1014.99 459.79 1015.59 459.79C1016.22 459.79 1016.82 459.79 1017.39 459.79C1017.99 459.79 1018.57 459.79 1019.14 459.79C1019.26 459.79 1019.35 459.82 1019.41 459.88C1019.47 459.91 1019.52 459.955 1019.55 460.015C1019.61 460.075 1019.64 460.165 1019.64 460.285C1019.64 462.895 1019.64 465.52 1019.64 468.16C1019.64 470.8 1019.64 473.44 1019.64 476.08C1019.64 478.72 1019.64 481.36 1019.64 484ZM1060.86 459.79C1061.01 459.79 1061.15 459.85 1061.27 459.97C1061.42 460.09 1061.46 460.27 1061.4 460.51C1060.83 462.7 1060.28 464.785 1059.74 466.765C1059.23 468.745 1058.7 470.74 1058.16 472.75C1057.65 474.73 1057.13 476.785 1056.59 478.915C1056.05 481.045 1055.46 483.34 1054.83 485.8C1054.44 487.45 1053.87 488.8 1053.12 489.85C1052.4 490.93 1051.49 491.725 1050.38 492.235C1049.27 492.745 1047.9 493 1046.28 493C1045.89 493 1045.43 493 1044.89 493C1044.38 493 1043.87 493 1043.36 493C1042.88 493 1042.46 493 1042.1 493C1041.74 493 1041.51 493 1041.42 493C1041.27 493 1041.15 492.955 1041.06 492.865C1040.97 492.775 1040.93 492.655 1040.93 492.505V487.69H1041.78C1042.41 487.69 1043.04 487.69 1043.67 487.69C1044.3 487.69 1044.93 487.69 1045.56 487.69C1046.58 487.69 1047.41 487.435 1048.04 486.925C1048.67 486.445 1049.1 485.665 1049.34 484.585C1049.55 483.835 1049.81 482.8 1050.11 481.48C1050.44 480.13 1050.8 478.585 1051.19 476.845C1051.61 475.105 1052.04 473.275 1052.49 471.355C1052.94 469.405 1053.39 467.44 1053.84 465.46C1054.32 463.48 1054.77 461.59 1055.19 459.79C1055.61 459.79 1056.05 459.79 1056.5 459.79C1056.98 459.79 1057.44 459.79 1057.89 459.79C1058.37 459.79 1058.85 459.79 1059.33 459.79C1059.84 459.79 1060.35 459.79 1060.86 459.79ZM1044.03 459.79C1044.33 459.79 1044.54 459.835 1044.66 459.925C1044.78 460.015 1044.87 460.18 1044.93 460.42C1045.5 462.52 1046 464.335 1046.42 465.865C1046.84 467.365 1047.21 468.685 1047.54 469.825C1047.87 470.935 1048.16 471.955 1048.4 472.885C1048.64 473.815 1048.88 474.745 1049.12 475.675C1049.39 476.575 1049.64 477.58 1049.88 478.69H1052.58L1051.55 482.47H1046.69C1046.42 482.47 1046.18 482.44 1045.97 482.38C1045.79 482.32 1045.64 482.2 1045.52 482.02C1045.4 481.81 1045.26 481.525 1045.11 481.165C1044.96 480.745 1044.71 480.01 1044.35 478.96C1043.99 477.88 1043.55 476.575 1043.04 475.045C1042.53 473.515 1041.99 471.88 1041.42 470.14C1040.85 468.37 1040.28 466.6 1039.71 464.83C1039.14 463.06 1038.62 461.38 1038.14 459.79C1038.59 459.79 1039.05 459.79 1039.53 459.79C1040.04 459.79 1040.54 459.79 1041.02 459.79C1041.5 459.79 1041.99 459.79 1042.5 459.79C1043.01 459.79 1043.52 459.79 1044.03 459.79ZM1088.78 478.555C1090.58 478.555 1091.81 478.36 1092.47 477.97C1093.13 477.55 1093.46 477.07 1093.46 476.53C1093.46 476.2 1093.37 475.9 1093.19 475.63C1093.04 475.36 1092.75 475.135 1092.33 474.955C1091.94 474.745 1091.37 474.58 1090.62 474.46L1085.99 473.785C1084.55 473.545 1083.35 473.14 1082.39 472.57C1081.43 471.97 1080.71 471.22 1080.23 470.32C1079.78 469.42 1079.55 468.415 1079.55 467.305C1079.55 466.045 1079.79 464.935 1080.27 463.975C1080.78 462.985 1081.52 462.145 1082.48 461.455C1083.44 460.765 1084.62 460.24 1086.03 459.88C1087.44 459.52 1089.05 459.34 1090.85 459.34C1091.81 459.34 1092.69 459.385 1093.5 459.475C1094.31 459.535 1095.05 459.625 1095.71 459.745C1096.37 459.865 1096.95 460 1097.46 460.15C1097.67 460.21 1097.82 460.285 1097.91 460.375C1098.03 460.435 1098.09 460.525 1098.09 460.645C1098.12 460.765 1098.14 460.945 1098.14 461.185C1098.14 461.815 1098.14 462.61 1098.14 463.57C1098.14 464.5 1098.14 465.37 1098.14 466.18H1097.33C1096.52 465.97 1095.74 465.79 1094.99 465.64C1094.24 465.49 1093.47 465.385 1092.69 465.325C1091.91 465.265 1091.09 465.235 1090.22 465.235C1089.02 465.235 1088.07 465.325 1087.38 465.505C1086.72 465.655 1086.26 465.865 1085.99 466.135C1085.72 466.405 1085.58 466.72 1085.58 467.08C1085.58 467.41 1085.66 467.71 1085.81 467.98C1085.99 468.22 1086.27 468.415 1086.66 468.565C1087.05 468.715 1087.59 468.85 1088.28 468.97L1092.51 469.6C1093.98 469.78 1095.23 470.17 1096.25 470.77C1097.27 471.34 1098.05 472.105 1098.59 473.065C1099.16 473.995 1099.44 475.12 1099.44 476.44C1099.44 478.06 1099.02 479.47 1098.18 480.67C1097.37 481.87 1096.17 482.8 1094.58 483.46C1092.99 484.12 1091.04 484.45 1088.73 484.45C1087.65 484.45 1086.65 484.405 1085.72 484.315C1084.79 484.255 1083.92 484.15 1083.11 484C1082.33 483.88 1081.62 483.73 1080.99 483.55C1080.36 483.37 1079.82 483.175 1079.37 482.965C1079.19 482.905 1079.07 482.83 1079.01 482.74C1078.98 482.65 1078.97 482.485 1078.97 482.245C1078.97 481.555 1078.97 480.73 1078.97 479.77C1078.97 478.81 1078.97 477.88 1078.97 476.98H1079.78C1080.5 477.28 1081.19 477.535 1081.85 477.745C1082.54 477.925 1083.23 478.075 1083.92 478.195C1084.64 478.315 1085.39 478.405 1086.17 478.465C1086.98 478.525 1087.85 478.555 1088.78 478.555ZM1102.43 459.79H1119.8C1119.98 459.79 1120.11 459.835 1120.2 459.925C1120.29 460.015 1120.34 460.135 1120.34 460.285C1120.34 460.915 1120.34 461.5 1120.34 462.04C1120.34 462.58 1120.34 463.135 1120.34 463.705C1120.34 464.275 1120.34 464.86 1120.34 465.46H1102.97C1102.91 465.46 1102.85 465.445 1102.79 465.415C1102.73 465.385 1102.67 465.355 1102.61 465.325C1102.55 465.265 1102.5 465.205 1102.47 465.145C1102.44 465.085 1102.43 465.025 1102.43 464.965C1102.43 464.365 1102.43 463.78 1102.43 463.21C1102.43 462.64 1102.43 462.085 1102.43 461.545C1102.43 461.005 1102.43 460.42 1102.43 459.79ZM1120.34 478.195C1120.34 479.095 1120.34 479.995 1120.34 480.895C1120.34 481.765 1120.34 482.635 1120.34 483.505C1120.34 483.625 1120.29 483.745 1120.2 483.865C1120.11 483.955 1119.99 484 1119.84 484C1119.54 484 1119.23 484 1118.9 484C1118.6 484 1118.28 484 1117.95 484C1117.65 484 1117.35 484 1117.05 484C1116.75 484 1116.44 484 1116.11 484C1114.55 484 1113.15 483.82 1111.92 483.46C1110.69 483.07 1109.64 482.485 1108.77 481.705C1107.9 480.925 1107.24 479.92 1106.79 478.69C1106.34 477.46 1106.12 476.005 1106.12 474.325C1106.12 472.855 1106.12 471.4 1106.12 469.96C1106.12 468.52 1106.12 467.08 1106.12 465.64C1106.12 464.2 1106.12 462.76 1106.12 461.32C1106.12 459.88 1106.12 458.44 1106.12 457C1106.12 456.22 1106.12 455.47 1106.12 454.75C1106.12 454 1106.12 453.25 1106.12 452.5C1107.05 452.5 1107.98 452.5 1108.91 452.5C1109.87 452.5 1110.8 452.5 1111.7 452.5C1111.79 452.5 1111.86 452.53 1111.92 452.59C1112.01 452.62 1112.07 452.68 1112.1 452.77C1112.16 452.83 1112.19 452.905 1112.19 452.995C1112.19 454.735 1112.19 456.475 1112.19 458.215C1112.19 459.925 1112.19 461.65 1112.19 463.39C1112.19 465.13 1112.19 466.87 1112.19 468.61C1112.19 470.32 1112.19 472.045 1112.19 473.785C1112.19 474.685 1112.28 475.42 1112.46 475.99C1112.64 476.56 1112.91 477.025 1113.27 477.385C1113.6 477.685 1114.01 477.895 1114.49 478.015C1115 478.135 1115.61 478.195 1116.33 478.195C1116.72 478.195 1117.1 478.195 1117.46 478.195C1117.85 478.195 1118.24 478.195 1118.63 478.195C1119.02 478.195 1119.41 478.195 1119.8 478.195H1120.34ZM1147.7 459.79C1147.85 459.79 1147.98 459.85 1148.1 459.97C1148.25 460.09 1148.3 460.27 1148.24 460.51C1147.67 462.7 1147.11 464.785 1146.57 466.765C1146.06 468.745 1145.54 470.74 1145 472.75C1144.49 474.73 1143.96 476.785 1143.42 478.915C1142.88 481.045 1142.3 483.34 1141.67 485.8C1141.28 487.45 1140.71 488.8 1139.96 489.85C1139.24 490.93 1138.32 491.725 1137.21 492.235C1136.1 492.745 1134.74 493 1133.12 493C1132.73 493 1132.26 493 1131.72 493C1131.21 493 1130.7 493 1130.19 493C1129.71 493 1129.29 493 1128.93 493C1128.57 493 1128.35 493 1128.26 493C1128.11 493 1127.99 492.955 1127.9 492.865C1127.81 492.775 1127.76 492.655 1127.76 492.505V487.69H1128.62C1129.25 487.69 1129.88 487.69 1130.51 487.69C1131.14 487.69 1131.77 487.69 1132.4 487.69C1133.42 487.69 1134.24 487.435 1134.87 486.925C1135.5 486.445 1135.94 485.665 1136.18 484.585C1136.39 483.835 1136.64 482.8 1136.94 481.48C1137.27 480.13 1137.63 478.585 1138.02 476.845C1138.44 475.105 1138.88 473.275 1139.33 471.355C1139.78 469.405 1140.23 467.44 1140.68 465.46C1141.16 463.48 1141.61 461.59 1142.03 459.79C1142.45 459.79 1142.88 459.79 1143.33 459.79C1143.81 459.79 1144.28 459.79 1144.73 459.79C1145.21 459.79 1145.69 459.79 1146.17 459.79C1146.68 459.79 1147.19 459.79 1147.7 459.79ZM1130.87 459.79C1131.17 459.79 1131.38 459.835 1131.5 459.925C1131.62 460.015 1131.71 460.18 1131.77 460.42C1132.34 462.52 1132.83 464.335 1133.25 465.865C1133.67 467.365 1134.05 468.685 1134.38 469.825C1134.71 470.935 1134.99 471.955 1135.23 472.885C1135.47 473.815 1135.71 474.745 1135.95 475.675C1136.22 476.575 1136.48 477.58 1136.72 478.69H1139.42L1138.38 482.47H1133.52C1133.25 482.47 1133.01 482.44 1132.8 482.38C1132.62 482.32 1132.47 482.2 1132.35 482.02C1132.23 481.81 1132.1 481.525 1131.95 481.165C1131.8 480.745 1131.54 480.01 1131.18 478.96C1130.82 477.88 1130.39 476.575 1129.88 475.045C1129.37 473.515 1128.83 471.88 1128.26 470.14C1127.69 468.37 1127.12 466.6 1126.55 464.83C1125.98 463.06 1125.45 461.38 1124.97 459.79C1125.42 459.79 1125.89 459.79 1126.37 459.79C1126.88 459.79 1127.37 459.79 1127.85 459.79C1128.33 459.79 1128.83 459.79 1129.34 459.79C1129.85 459.79 1130.36 459.79 1130.87 459.79ZM1153.84 456.055C1153.84 454.945 1153.84 453.925 1153.84 452.995C1153.84 452.065 1153.84 451.15 1153.84 450.25C1154.68 450.25 1155.28 450.25 1155.64 450.25C1156 450.25 1156.26 450.25 1156.41 450.25C1156.59 450.25 1156.74 450.25 1156.86 450.25C1157.01 450.25 1157.26 450.25 1157.62 450.25C1157.98 450.25 1158.58 450.25 1159.42 450.25C1159.54 450.25 1159.63 450.28 1159.69 450.34C1159.75 450.37 1159.8 450.415 1159.83 450.475C1159.89 450.535 1159.92 450.625 1159.92 450.745C1159.92 452.485 1159.92 454.225 1159.92 455.965C1159.92 457.675 1159.92 459.385 1159.92 461.095C1159.92 462.805 1159.92 464.53 1159.92 466.27C1159.92 467.98 1159.92 469.705 1159.92 471.445C1159.92 473.155 1159.92 474.88 1159.92 476.62C1159.92 476.92 1159.93 477.16 1159.96 477.34C1160.02 477.52 1160.13 477.685 1160.28 477.835C1160.43 477.985 1160.61 478.09 1160.82 478.15C1161.03 478.21 1161.3 478.24 1161.63 478.24C1161.75 478.24 1161.9 478.24 1162.08 478.24C1162.29 478.24 1162.48 478.24 1162.66 478.24C1162.87 478.24 1163.05 478.24 1163.2 478.24C1163.38 478.24 1163.5 478.24 1163.56 478.24H1163.97C1163.97 479.05 1163.97 479.935 1163.97 480.895C1163.97 481.825 1163.97 482.695 1163.97 483.505C1163.97 483.655 1163.92 483.775 1163.83 483.865C1163.74 483.955 1163.62 484 1163.47 484C1163.38 484 1163.28 484 1163.16 484C1163.07 484 1162.9 484 1162.66 484C1162.45 484 1162.14 484 1161.72 484C1161.3 484 1160.71 484 1159.96 484C1158.94 484 1158.06 483.865 1157.31 483.595C1156.56 483.295 1155.91 482.875 1155.37 482.335C1154.86 481.765 1154.47 481.06 1154.2 480.22C1153.96 479.35 1153.84 478.33 1153.84 477.16C1153.84 475.42 1153.84 473.68 1153.84 471.94C1153.84 470.17 1153.84 468.4 1153.84 466.63C1153.84 464.86 1153.84 463.105 1153.84 461.365C1153.84 459.595 1153.84 457.825 1153.84 456.055ZM1179.39 459.25C1181.43 459.25 1183.2 459.67 1184.7 460.51C1186.23 461.35 1187.41 462.52 1188.25 464.02C1189.09 465.52 1189.51 467.275 1189.51 469.285V473.02C1189.51 473.11 1189.5 473.2 1189.47 473.29C1189.44 473.35 1189.38 473.395 1189.29 473.425C1189.23 473.455 1189.15 473.47 1189.06 473.47H1178.71C1178.2 473.47 1177.68 473.47 1177.14 473.47C1176.63 473.47 1176.12 473.47 1175.61 473.47H1173.76L1173.63 469.69H1183.62C1183.62 469.57 1183.62 469.465 1183.62 469.375C1183.62 469.285 1183.62 469.18 1183.62 469.06C1183.62 468.19 1183.53 467.455 1183.35 466.855C1183.17 466.225 1182.88 465.73 1182.49 465.37C1182.16 465.01 1181.74 464.755 1181.23 464.605C1180.72 464.455 1180.11 464.38 1179.39 464.38C1177.89 464.38 1176.76 464.755 1176.01 465.505C1175.29 466.225 1174.93 467.41 1174.93 469.06V474.55C1174.93 475.27 1175.02 475.915 1175.2 476.485C1175.41 477.025 1175.7 477.49 1176.06 477.88C1176.54 478.36 1177.17 478.705 1177.95 478.915C1178.76 479.125 1179.69 479.23 1180.74 479.23C1181.82 479.23 1182.78 479.185 1183.62 479.095C1184.46 478.975 1185.24 478.825 1185.96 478.645C1186.68 478.435 1187.38 478.21 1188.07 477.97H1188.93C1188.93 478.72 1188.93 479.485 1188.93 480.265C1188.93 481.015 1188.93 481.78 1188.93 482.56C1188.93 482.62 1188.91 482.68 1188.88 482.74C1188.85 482.8 1188.81 482.86 1188.75 482.92C1188.51 483.16 1187.97 483.4 1187.13 483.64C1186.32 483.88 1185.33 484.09 1184.16 484.27C1183.02 484.45 1181.85 484.54 1180.65 484.54C1178.7 484.54 1176.97 484.315 1175.47 483.865C1174 483.385 1172.77 482.71 1171.78 481.84C1170.82 480.97 1170.09 479.92 1169.58 478.69C1169.1 477.43 1168.86 476.02 1168.86 474.46V469.33C1168.86 467.8 1169.1 466.42 1169.58 465.19C1170.09 463.96 1170.81 462.91 1171.74 462.04C1172.67 461.14 1173.78 460.45 1175.07 459.97C1176.36 459.49 1177.8 459.25 1179.39 459.25ZM969.058 524.79C969.208 524.79 969.313 524.82 969.373 524.88C969.463 524.94 969.538 525.015 969.598 525.105C969.688 525.195 969.748 525.315 969.778 525.465C970.288 527.325 970.798 529.215 971.308 531.135C971.848 533.025 972.373 535.065 972.883 537.255C973.423 539.445 973.963 541.905 974.503 544.635H975.358C975.688 543.015 976.018 541.485 976.348 540.045C976.678 538.575 977.008 537.18 977.338 535.86C977.668 534.51 977.983 533.22 978.283 531.99C978.613 530.76 978.928 529.545 979.228 528.345C979.558 527.145 979.873 525.96 980.173 524.79C981.103 524.79 982.033 524.79 982.963 524.79C983.923 524.79 984.883 524.79 985.843 524.79C985.993 524.79 986.113 524.835 986.203 524.925C986.293 524.985 986.353 525.075 986.383 525.195C986.443 525.315 986.443 525.45 986.383 525.6C985.783 527.55 985.183 529.5 984.583 531.45C983.983 533.4 983.383 535.35 982.783 537.3C982.213 539.25 981.628 541.2 981.028 543.15C980.458 545.1 979.858 547.05 979.228 549C977.908 549 976.588 549 975.268 549C973.978 549 972.778 549 971.668 549C971.368 549 971.113 548.955 970.903 548.865C970.693 548.775 970.513 548.61 970.363 548.37C970.243 548.13 970.093 547.755 969.913 547.245C969.523 545.895 969.103 544.515 968.653 543.105C968.233 541.665 967.798 540.195 967.348 538.695C966.898 537.195 966.433 535.68 965.953 534.15C965.503 532.62 965.038 531.075 964.558 529.515C964.078 527.925 963.598 526.35 963.118 524.79C964.138 524.79 965.128 524.79 966.088 524.79C967.078 524.79 968.068 524.79 969.058 524.79ZM1009.93 533.655C1009.93 534.405 1009.93 535.14 1009.93 535.86C1009.93 536.55 1009.93 537.27 1009.93 538.02C1009.93 538.74 1009.93 539.475 1009.93 540.225C1009.93 540.945 1009.93 541.65 1009.93 542.34C1009.93 542.58 1009.95 542.79 1009.98 542.97C1010.04 543.15 1010.13 543.3 1010.25 543.42C1010.34 543.51 1010.46 543.585 1010.61 543.645C1010.79 543.675 1010.98 543.69 1011.19 543.69C1011.28 543.69 1011.36 543.69 1011.42 543.69C1011.51 543.69 1011.6 543.69 1011.69 543.69H1012.54C1012.54 544.5 1012.54 545.31 1012.54 546.12C1012.54 546.9 1012.54 547.695 1012.54 548.505C1012.54 548.655 1012.5 548.775 1012.41 548.865C1012.32 548.955 1012.2 549 1012.05 549C1011.9 549 1011.52 549 1010.92 549C1010.35 549 1009.84 549 1009.39 549C1008.55 549 1007.8 548.865 1007.14 548.595C1006.48 548.325 1005.9 547.95 1005.39 547.47C1004.88 546.96 1004.49 546.36 1004.22 545.67C1003.95 544.98 1003.81 544.2 1003.81 543.33C1003.81 542.4 1003.81 541.455 1003.81 540.495C1003.81 539.535 1003.81 538.59 1003.81 537.66C1003.81 537.15 1003.81 536.67 1003.81 536.22C1003.81 535.74 1003.81 535.26 1003.81 534.78C1003.81 534.3 1003.81 533.82 1003.81 533.34C1003.81 532.47 1003.66 531.795 1003.36 531.315C1003.06 530.805 1002.57 530.445 1001.88 530.235C1001.22 530.025 1000.32 529.92 999.178 529.92C998.338 529.92 997.513 529.965 996.703 530.055C995.923 530.145 995.143 530.265 994.363 530.415C993.613 530.565 992.848 530.775 992.068 531.045H991.213C991.213 530.235 991.213 529.425 991.213 528.615C991.213 527.805 991.213 527.01 991.213 526.23C991.213 526.11 991.228 526.02 991.258 525.96C991.288 525.9 991.318 525.855 991.348 525.825C991.528 525.645 992.023 525.435 992.833 525.195C993.673 524.955 994.663 524.76 995.803 524.61C996.943 524.43 998.068 524.34 999.178 524.34C1001.07 524.34 1002.69 524.52 1004.04 524.88C1005.39 525.21 1006.5 525.75 1007.37 526.5C1008.24 527.25 1008.88 528.225 1009.3 529.425C1009.72 530.595 1009.93 532.005 1009.93 533.655ZM995.533 542.16C995.533 542.79 995.698 543.27 996.028 543.6C996.388 543.9 996.928 544.05 997.648 544.05C998.458 544.05 999.253 543.96 1000.03 543.78C1000.81 543.6 1001.58 543.3 1002.33 542.88C1003.11 542.46 1003.89 541.92 1004.67 541.26V545.13H1003.32C1002.93 546.03 1002.37 546.81 1001.65 547.47C1000.96 548.1 1000.15 548.595 999.223 548.955C998.293 549.285 997.273 549.45 996.163 549.45C994.783 549.45 993.583 549.18 992.563 548.64C991.573 548.1 990.808 547.35 990.268 546.39C989.728 545.4 989.458 544.26 989.458 542.97V541.395C989.458 540.405 989.623 539.52 989.953 538.74C990.283 537.96 990.748 537.285 991.348 536.715C991.978 536.145 992.728 535.71 993.598 535.41C994.468 535.08 995.443 534.915 996.523 534.915C997.573 534.915 998.593 534.915 999.583 534.915C1000.6 534.915 1001.56 534.915 1002.46 534.915C1003.39 534.915 1004.26 534.915 1005.07 534.915C1005.34 534.915 1005.54 535.155 1005.66 535.635C1005.81 536.115 1005.9 536.655 1005.93 537.255C1005.96 537.825 1005.97 538.305 1005.97 538.695C1005.01 538.695 1004.08 538.695 1003.18 538.695C1002.28 538.695 1001.37 538.695 1000.44 538.695C999.538 538.695 998.608 538.695 997.648 538.695C997.288 538.695 996.973 538.74 996.703 538.83C996.463 538.92 996.253 539.055 996.073 539.235C995.923 539.415 995.788 539.625 995.668 539.865C995.578 540.075 995.533 540.315 995.533 540.585V542.16ZM1023.01 529.11H1024.81C1025.17 528 1025.59 527.1 1026.07 526.41C1026.55 525.69 1027.14 525.165 1027.83 524.835C1028.55 524.505 1029.36 524.34 1030.26 524.34C1030.74 524.34 1031.13 524.385 1031.43 524.475C1031.76 524.565 1031.98 524.655 1032.1 524.745C1032.22 524.835 1032.3 524.925 1032.33 525.015C1032.36 525.075 1032.37 525.18 1032.37 525.33C1032.37 525.81 1032.37 526.29 1032.37 526.77C1032.37 527.22 1032.37 527.67 1032.37 528.12C1032.37 528.57 1032.37 529.035 1032.37 529.515C1032.37 529.965 1032.37 530.43 1032.37 530.91H1031.52C1031.22 530.82 1030.89 530.745 1030.53 530.685C1030.17 530.625 1029.76 530.595 1029.31 530.595C1028.38 530.595 1027.56 530.775 1026.84 531.135C1026.15 531.495 1025.5 532.005 1024.9 532.665C1024.3 533.295 1023.67 534.045 1023.01 534.915V529.11ZM1023.87 549C1023.21 549 1022.53 549 1021.84 549C1021.18 549 1020.52 549 1019.86 549C1019.2 549 1018.54 549 1017.88 549C1017.79 549 1017.72 549 1017.66 549C1017.6 548.97 1017.54 548.94 1017.48 548.91C1017.45 548.85 1017.42 548.79 1017.39 548.73C1017.39 548.67 1017.39 548.595 1017.39 548.505C1017.39 547.395 1017.39 546.225 1017.39 544.995C1017.39 543.735 1017.39 542.445 1017.39 541.125C1017.39 539.805 1017.39 538.485 1017.39 537.165C1017.39 535.815 1017.39 534.48 1017.39 533.16C1017.39 531.81 1017.39 530.49 1017.39 529.2C1017.39 528.36 1017.39 527.565 1017.39 526.815C1017.39 526.065 1017.39 525.39 1017.39 524.79C1018.14 524.79 1018.84 524.79 1019.5 524.79C1020.19 524.79 1020.85 524.79 1021.48 524.79C1022.14 524.79 1022.77 524.79 1023.37 524.79C1023.49 524.79 1023.58 524.82 1023.64 524.88C1023.7 524.91 1023.75 524.955 1023.78 525.015C1023.84 525.075 1023.87 525.165 1023.87 525.285C1023.87 526.665 1023.87 528.12 1023.87 529.65C1023.87 531.18 1023.87 532.74 1023.87 534.33C1023.87 535.92 1023.87 537.555 1023.87 539.235C1023.87 540.885 1023.87 542.535 1023.87 544.185C1023.87 545.805 1023.87 547.41 1023.87 549ZM1039.76 548.505C1039.76 547.695 1039.76 546.69 1039.76 545.49C1039.76 544.26 1039.76 542.94 1039.76 541.53C1039.76 540.12 1039.76 538.71 1039.76 537.3C1039.76 535.89 1039.76 534.57 1039.76 533.34C1039.76 532.11 1039.76 531.075 1039.76 530.235H1039.44C1039.26 530.235 1039.05 530.235 1038.81 530.235C1038.6 530.235 1038.36 530.235 1038.09 530.235C1037.85 530.235 1037.6 530.235 1037.33 530.235C1037.09 530.235 1036.85 530.235 1036.61 530.235C1036.46 530.235 1036.34 530.19 1036.25 530.1C1036.16 530.01 1036.11 529.89 1036.11 529.74C1036.11 528.93 1036.11 528.105 1036.11 527.265C1036.11 526.425 1036.11 525.6 1036.11 524.79C1036.62 524.79 1037.19 524.79 1037.82 524.79C1038.48 524.79 1039.17 524.79 1039.89 524.79C1040.61 524.79 1041.32 524.79 1042.01 524.79C1042.7 524.79 1043.33 524.79 1043.9 524.79C1044.5 524.79 1044.98 524.79 1045.34 524.79C1045.46 524.79 1045.55 524.82 1045.61 524.88C1045.67 524.91 1045.71 524.955 1045.74 525.015C1045.8 525.075 1045.83 525.165 1045.83 525.285C1045.83 526.695 1045.83 528.24 1045.83 529.92C1045.83 531.57 1045.83 533.25 1045.83 534.96C1045.83 536.67 1045.83 538.35 1045.83 540C1045.83 541.65 1045.83 543.195 1045.83 544.635C1045.83 545.085 1045.83 545.565 1045.83 546.075C1045.83 546.555 1045.83 547.035 1045.83 547.515C1045.83 547.995 1045.83 548.49 1045.83 549C1044.84 549 1043.91 549 1043.04 549C1042.2 549 1041.27 549 1040.25 549C1040.1 549 1039.98 548.955 1039.89 548.865C1039.8 548.775 1039.76 548.655 1039.76 548.505ZM1038.68 513.27C1039.25 513.27 1039.83 513.27 1040.43 513.27C1041.06 513.27 1041.69 513.27 1042.32 513.27C1042.98 513.27 1043.61 513.27 1044.21 513.27C1044.84 513.27 1045.44 513.27 1046.01 513.27C1046.16 513.27 1046.28 513.315 1046.37 513.405C1046.46 513.495 1046.51 513.615 1046.51 513.765V519.57C1045.94 519.57 1045.34 519.57 1044.71 519.57C1044.11 519.57 1043.48 519.57 1042.82 519.57C1042.19 519.57 1041.56 519.57 1040.93 519.57C1040.33 519.57 1039.74 519.57 1039.17 519.57C1039.02 519.57 1038.9 519.525 1038.81 519.435C1038.72 519.345 1038.68 519.225 1038.68 519.075V513.27ZM1072.91 533.655C1072.91 534.405 1072.91 535.14 1072.91 535.86C1072.91 536.55 1072.91 537.27 1072.91 538.02C1072.91 538.74 1072.91 539.475 1072.91 540.225C1072.91 540.945 1072.91 541.65 1072.91 542.34C1072.91 542.58 1072.92 542.79 1072.95 542.97C1073.01 543.15 1073.1 543.3 1073.22 543.42C1073.31 543.51 1073.43 543.585 1073.58 543.645C1073.76 543.675 1073.96 543.69 1074.17 543.69C1074.26 543.69 1074.33 543.69 1074.39 543.69C1074.48 543.69 1074.57 543.69 1074.66 543.69H1075.52C1075.52 544.5 1075.52 545.31 1075.52 546.12C1075.52 546.9 1075.52 547.695 1075.52 548.505C1075.52 548.655 1075.47 548.775 1075.38 548.865C1075.29 548.955 1075.17 549 1075.02 549C1074.87 549 1074.5 549 1073.9 549C1073.33 549 1072.82 549 1072.37 549C1071.53 549 1070.78 548.865 1070.12 548.595C1069.46 548.325 1068.87 547.95 1068.36 547.47C1067.85 546.96 1067.46 546.36 1067.19 545.67C1066.92 544.98 1066.79 544.2 1066.79 543.33C1066.79 542.4 1066.79 541.455 1066.79 540.495C1066.79 539.535 1066.79 538.59 1066.79 537.66C1066.79 537.15 1066.79 536.67 1066.79 536.22C1066.79 535.74 1066.79 535.26 1066.79 534.78C1066.79 534.3 1066.79 533.82 1066.79 533.34C1066.79 532.47 1066.64 531.795 1066.34 531.315C1066.04 530.805 1065.54 530.445 1064.85 530.235C1064.19 530.025 1063.29 529.92 1062.15 529.92C1061.31 529.92 1060.49 529.965 1059.68 530.055C1058.9 530.145 1058.12 530.265 1057.34 530.415C1056.59 530.565 1055.82 530.775 1055.04 531.045H1054.19C1054.19 530.235 1054.19 529.425 1054.19 528.615C1054.19 527.805 1054.19 527.01 1054.19 526.23C1054.19 526.11 1054.2 526.02 1054.23 525.96C1054.26 525.9 1054.29 525.855 1054.32 525.825C1054.5 525.645 1055 525.435 1055.81 525.195C1056.65 524.955 1057.64 524.76 1058.78 524.61C1059.92 524.43 1061.04 524.34 1062.15 524.34C1064.04 524.34 1065.66 524.52 1067.01 524.88C1068.36 525.21 1069.47 525.75 1070.34 526.5C1071.21 527.25 1071.86 528.225 1072.28 529.425C1072.7 530.595 1072.91 532.005 1072.91 533.655ZM1058.51 542.16C1058.51 542.79 1058.67 543.27 1059 543.6C1059.36 543.9 1059.9 544.05 1060.62 544.05C1061.43 544.05 1062.23 543.96 1063.01 543.78C1063.79 543.6 1064.55 543.3 1065.3 542.88C1066.08 542.46 1066.86 541.92 1067.64 541.26V545.13H1066.29C1065.9 546.03 1065.35 546.81 1064.63 547.47C1063.94 548.1 1063.13 548.595 1062.2 548.955C1061.27 549.285 1060.25 549.45 1059.14 549.45C1057.76 549.45 1056.56 549.18 1055.54 548.64C1054.55 548.1 1053.78 547.35 1053.24 546.39C1052.7 545.4 1052.43 544.26 1052.43 542.97V541.395C1052.43 540.405 1052.6 539.52 1052.93 538.74C1053.26 537.96 1053.72 537.285 1054.32 536.715C1054.95 536.145 1055.7 535.71 1056.57 535.41C1057.44 535.08 1058.42 534.915 1059.5 534.915C1060.55 534.915 1061.57 534.915 1062.56 534.915C1063.58 534.915 1064.54 534.915 1065.44 534.915C1066.37 534.915 1067.24 534.915 1068.05 534.915C1068.32 534.915 1068.51 535.155 1068.63 535.635C1068.78 536.115 1068.87 536.655 1068.9 537.255C1068.93 537.825 1068.95 538.305 1068.95 538.695C1067.99 538.695 1067.06 538.695 1066.16 538.695C1065.26 538.695 1064.34 538.695 1063.41 538.695C1062.51 538.695 1061.58 538.695 1060.62 538.695C1060.26 538.695 1059.95 538.74 1059.68 538.83C1059.44 538.92 1059.23 539.055 1059.05 539.235C1058.9 539.415 1058.76 539.625 1058.64 539.865C1058.55 540.075 1058.51 540.315 1058.51 540.585V542.16ZM1077.42 524.79H1094.79C1094.97 524.79 1095.11 524.835 1095.2 524.925C1095.29 525.015 1095.33 525.135 1095.33 525.285C1095.33 525.915 1095.33 526.5 1095.33 527.04C1095.33 527.58 1095.33 528.135 1095.33 528.705C1095.33 529.275 1095.33 529.86 1095.33 530.46H1077.96C1077.9 530.46 1077.84 530.445 1077.78 530.415C1077.72 530.385 1077.66 530.355 1077.6 530.325C1077.54 530.265 1077.5 530.205 1077.47 530.145C1077.44 530.085 1077.42 530.025 1077.42 529.965C1077.42 529.365 1077.42 528.78 1077.42 528.21C1077.42 527.64 1077.42 527.085 1077.42 526.545C1077.42 526.005 1077.42 525.42 1077.42 524.79ZM1095.33 543.195C1095.33 544.095 1095.33 544.995 1095.33 545.895C1095.33 546.765 1095.33 547.635 1095.33 548.505C1095.33 548.625 1095.29 548.745 1095.2 548.865C1095.11 548.955 1094.99 549 1094.84 549C1094.54 549 1094.22 549 1093.89 549C1093.59 549 1093.28 549 1092.95 549C1092.65 549 1092.35 549 1092.05 549C1091.75 549 1091.43 549 1091.1 549C1089.54 549 1088.15 548.82 1086.92 548.46C1085.69 548.07 1084.64 547.485 1083.77 546.705C1082.9 545.925 1082.24 544.92 1081.79 543.69C1081.34 542.46 1081.11 541.005 1081.11 539.325C1081.11 537.855 1081.11 536.4 1081.11 534.96C1081.11 533.52 1081.11 532.08 1081.11 530.64C1081.11 529.2 1081.11 527.76 1081.11 526.32C1081.11 524.88 1081.11 523.44 1081.11 522C1081.11 521.22 1081.11 520.47 1081.11 519.75C1081.11 519 1081.11 518.25 1081.11 517.5C1082.04 517.5 1082.97 517.5 1083.9 517.5C1084.86 517.5 1085.79 517.5 1086.69 517.5C1086.78 517.5 1086.86 517.53 1086.92 517.59C1087.01 517.62 1087.07 517.68 1087.1 517.77C1087.16 517.83 1087.19 517.905 1087.19 517.995C1087.19 519.735 1087.19 521.475 1087.19 523.215C1087.19 524.925 1087.19 526.65 1087.19 528.39C1087.19 530.13 1087.19 531.87 1087.19 533.61C1087.19 535.32 1087.19 537.045 1087.19 538.785C1087.19 539.685 1087.28 540.42 1087.46 540.99C1087.64 541.56 1087.91 542.025 1088.27 542.385C1088.6 542.685 1089 542.895 1089.48 543.015C1089.99 543.135 1090.61 543.195 1091.33 543.195C1091.72 543.195 1092.09 543.195 1092.45 543.195C1092.84 543.195 1093.23 543.195 1093.62 543.195C1094.01 543.195 1094.4 543.195 1094.79 543.195H1095.33ZM1102.73 548.505C1102.73 547.695 1102.73 546.69 1102.73 545.49C1102.73 544.26 1102.73 542.94 1102.73 541.53C1102.73 540.12 1102.73 538.71 1102.73 537.3C1102.73 535.89 1102.73 534.57 1102.73 533.34C1102.73 532.11 1102.73 531.075 1102.73 530.235H1102.42C1102.24 530.235 1102.03 530.235 1101.79 530.235C1101.58 530.235 1101.34 530.235 1101.07 530.235C1100.83 530.235 1100.57 530.235 1100.3 530.235C1100.06 530.235 1099.82 530.235 1099.58 530.235C1099.43 530.235 1099.31 530.19 1099.22 530.1C1099.13 530.01 1099.09 529.89 1099.09 529.74C1099.09 528.93 1099.09 528.105 1099.09 527.265C1099.09 526.425 1099.09 525.6 1099.09 524.79C1099.6 524.79 1100.17 524.79 1100.8 524.79C1101.46 524.79 1102.15 524.79 1102.87 524.79C1103.59 524.79 1104.29 524.79 1104.98 524.79C1105.67 524.79 1106.3 524.79 1106.87 524.79C1107.47 524.79 1107.95 524.79 1108.31 524.79C1108.43 524.79 1108.52 524.82 1108.58 524.88C1108.64 524.91 1108.69 524.955 1108.72 525.015C1108.78 525.075 1108.81 525.165 1108.81 525.285C1108.81 526.695 1108.81 528.24 1108.81 529.92C1108.81 531.57 1108.81 533.25 1108.81 534.96C1108.81 536.67 1108.81 538.35 1108.81 540C1108.81 541.65 1108.81 543.195 1108.81 544.635C1108.81 545.085 1108.81 545.565 1108.81 546.075C1108.81 546.555 1108.81 547.035 1108.81 547.515C1108.81 547.995 1108.81 548.49 1108.81 549C1107.82 549 1106.89 549 1106.02 549C1105.18 549 1104.25 549 1103.23 549C1103.08 549 1102.96 548.955 1102.87 548.865C1102.78 548.775 1102.73 548.655 1102.73 548.505ZM1101.65 513.27C1102.22 513.27 1102.81 513.27 1103.41 513.27C1104.04 513.27 1104.67 513.27 1105.3 513.27C1105.96 513.27 1106.59 513.27 1107.19 513.27C1107.82 513.27 1108.42 513.27 1108.99 513.27C1109.14 513.27 1109.26 513.315 1109.35 513.405C1109.44 513.495 1109.48 513.615 1109.48 513.765V519.57C1108.91 519.57 1108.31 519.57 1107.68 519.57C1107.08 519.57 1106.45 519.57 1105.79 519.57C1105.16 519.57 1104.53 519.57 1103.9 519.57C1103.3 519.57 1102.72 519.57 1102.15 519.57C1102 519.57 1101.88 519.525 1101.79 519.435C1101.7 519.345 1101.65 519.225 1101.65 519.075V513.27ZM1126.43 524.25C1128.05 524.25 1129.52 524.505 1130.84 525.015C1132.19 525.525 1133.35 526.245 1134.31 527.175C1135.27 528.075 1136 529.155 1136.51 530.415C1137.05 531.675 1137.32 533.07 1137.32 534.6V539.145C1137.32 541.185 1136.86 542.985 1135.93 544.545C1135.03 546.105 1133.75 547.335 1132.1 548.235C1130.48 549.105 1128.59 549.54 1126.43 549.54C1124.81 549.54 1123.33 549.285 1121.98 548.775C1120.66 548.265 1119.52 547.56 1118.56 546.66C1117.6 545.73 1116.85 544.635 1116.31 543.375C1115.8 542.115 1115.54 540.72 1115.54 539.19V534.645C1115.54 532.605 1115.99 530.805 1116.89 529.245C1117.82 527.685 1119.11 526.47 1120.76 525.6C1122.41 524.7 1124.3 524.25 1126.43 524.25ZM1126.48 529.785C1125.46 529.785 1124.59 529.995 1123.87 530.415C1123.15 530.805 1122.59 531.39 1122.2 532.17C1121.81 532.92 1121.62 533.835 1121.62 534.915V538.875C1121.62 539.715 1121.74 540.465 1121.98 541.125C1122.22 541.755 1122.55 542.31 1122.97 542.79C1123.36 543.18 1123.84 543.48 1124.41 543.69C1125.01 543.9 1125.67 544.005 1126.39 544.005C1127.41 544.005 1128.28 543.81 1129 543.42C1129.75 543 1130.3 542.4 1130.66 541.62C1131.05 540.84 1131.25 539.925 1131.25 538.875V534.915C1131.25 533.985 1131.14 533.205 1130.93 532.575C1130.72 531.915 1130.41 531.375 1129.99 530.955C1129.6 530.535 1129.1 530.235 1128.5 530.055C1127.93 529.875 1127.26 529.785 1126.48 529.785ZM1163.9 549C1162.91 549 1161.98 549 1161.11 549C1160.27 549 1159.34 549 1158.32 549C1158.23 549 1158.14 548.985 1158.05 548.955C1157.99 548.895 1157.93 548.835 1157.87 548.775C1157.84 548.715 1157.82 548.625 1157.82 548.505C1157.82 546.735 1157.82 544.965 1157.82 543.195C1157.82 541.395 1157.82 539.61 1157.82 537.84C1157.82 536.07 1157.82 534.3 1157.82 532.53C1157.82 531.72 1157.64 531.12 1157.28 530.73C1156.92 530.34 1156.35 530.145 1155.57 530.145C1155.06 530.145 1154.49 530.235 1153.86 530.415C1153.26 530.565 1152.65 530.805 1152.02 531.135C1151.42 531.435 1150.83 531.825 1150.26 532.305C1149.69 532.785 1149.17 533.355 1148.69 534.015V528.705H1150.26C1150.86 527.805 1151.52 527.025 1152.24 526.365C1152.99 525.705 1153.8 525.195 1154.67 524.835C1155.57 524.445 1156.53 524.25 1157.55 524.25C1158.51 524.25 1159.38 524.415 1160.16 524.745C1160.97 525.045 1161.65 525.51 1162.19 526.14C1162.76 526.74 1163.18 527.475 1163.45 528.345C1163.75 529.215 1163.9 530.19 1163.9 531.27C1163.9 532.71 1163.9 534.165 1163.9 535.635C1163.9 537.105 1163.9 538.575 1163.9 540.045C1163.9 541.515 1163.9 543 1163.9 544.5C1163.9 545.25 1163.9 546 1163.9 546.75C1163.9 547.5 1163.9 548.25 1163.9 549ZM1149.41 549C1148.75 549 1148.12 549 1147.52 549C1146.95 549 1146.35 549 1145.72 549C1145.12 549 1144.49 549 1143.83 549C1143.74 549 1143.66 549 1143.6 549C1143.54 548.97 1143.48 548.94 1143.42 548.91C1143.39 548.85 1143.36 548.79 1143.33 548.73C1143.33 548.67 1143.33 548.595 1143.33 548.505C1143.33 546.885 1143.33 545.28 1143.33 543.69C1143.33 542.07 1143.33 540.465 1143.33 538.875C1143.33 537.255 1143.33 535.65 1143.33 534.06C1143.33 532.44 1143.33 530.82 1143.33 529.2C1143.33 528.36 1143.33 527.565 1143.33 526.815C1143.33 526.065 1143.33 525.39 1143.33 524.79C1144.08 524.79 1144.76 524.79 1145.36 524.79C1145.99 524.79 1146.59 524.79 1147.16 524.79C1147.76 524.79 1148.34 524.79 1148.91 524.79C1149.03 524.79 1149.12 524.82 1149.18 524.88C1149.24 524.91 1149.29 524.955 1149.32 525.015C1149.38 525.075 1149.41 525.165 1149.41 525.285C1149.41 527.895 1149.41 530.52 1149.41 533.16C1149.41 535.8 1149.41 538.44 1149.41 541.08C1149.41 543.72 1149.41 546.36 1149.41 549ZM1178.96 543.555C1180.76 543.555 1181.99 543.36 1182.65 542.97C1183.31 542.55 1183.64 542.07 1183.64 541.53C1183.64 541.2 1183.55 540.9 1183.37 540.63C1183.22 540.36 1182.93 540.135 1182.51 539.955C1182.12 539.745 1181.55 539.58 1180.8 539.46L1176.17 538.785C1174.73 538.545 1173.53 538.14 1172.57 537.57C1171.61 536.97 1170.89 536.22 1170.41 535.32C1169.96 534.42 1169.73 533.415 1169.73 532.305C1169.73 531.045 1169.97 529.935 1170.45 528.975C1170.96 527.985 1171.7 527.145 1172.66 526.455C1173.62 525.765 1174.8 525.24 1176.21 524.88C1177.62 524.52 1179.23 524.34 1181.03 524.34C1181.99 524.34 1182.87 524.385 1183.68 524.475C1184.49 524.535 1185.23 524.625 1185.89 524.745C1186.55 524.865 1187.13 525 1187.64 525.15C1187.85 525.21 1188 525.285 1188.09 525.375C1188.21 525.435 1188.27 525.525 1188.27 525.645C1188.3 525.765 1188.32 525.945 1188.32 526.185C1188.32 526.815 1188.32 527.61 1188.32 528.57C1188.32 529.5 1188.32 530.37 1188.32 531.18H1187.51C1186.7 530.97 1185.92 530.79 1185.17 530.64C1184.42 530.49 1183.65 530.385 1182.87 530.325C1182.09 530.265 1181.27 530.235 1180.4 530.235C1179.2 530.235 1178.25 530.325 1177.56 530.505C1176.9 530.655 1176.44 530.865 1176.17 531.135C1175.9 531.405 1175.76 531.72 1175.76 532.08C1175.76 532.41 1175.84 532.71 1175.99 532.98C1176.17 533.22 1176.45 533.415 1176.84 533.565C1177.23 533.715 1177.77 533.85 1178.46 533.97L1182.69 534.6C1184.16 534.78 1185.41 535.17 1186.43 535.77C1187.45 536.34 1188.23 537.105 1188.77 538.065C1189.34 538.995 1189.62 540.12 1189.62 541.44C1189.62 543.06 1189.2 544.47 1188.36 545.67C1187.55 546.87 1186.35 547.8 1184.76 548.46C1183.17 549.12 1181.22 549.45 1178.91 549.45C1177.83 549.45 1176.83 549.405 1175.9 549.315C1174.97 549.255 1174.1 549.15 1173.29 549C1172.51 548.88 1171.8 548.73 1171.17 548.55C1170.54 548.37 1170 548.175 1169.55 547.965C1169.37 547.905 1169.25 547.83 1169.19 547.74C1169.16 547.65 1169.15 547.485 1169.15 547.245C1169.15 546.555 1169.15 545.73 1169.15 544.77C1169.15 543.81 1169.15 542.88 1169.15 541.98H1169.96C1170.68 542.28 1171.37 542.535 1172.03 542.745C1172.72 542.925 1173.41 543.075 1174.1 543.195C1174.82 543.315 1175.57 543.405 1176.35 543.465C1177.16 543.525 1178.03 543.555 1178.96 543.555Z" fill="#FFF0DD"/>
<path d="M626.669 639H448.919V591H510.419V414H239.669V591H301.169V639H123.419V591H184.919V199.5H123.419V151.5H301.169V199.5H239.669V367.5H510.419V199.5H448.919V151.5H626.669V199.5H565.169V591H626.669V639Z" fill="#FFF0DD"/>
</svg>
