<svg width="1456" height="761" viewBox="0 0 1456 761" fill="none" xmlns="http://www.w3.org/2000/svg">
<rect width="1456" height="761" fill="#FFF0DD"/>
<rect x="764" y="70" width="622" height="622" fill="#FFF0DD"/>
<rect x="819.243" y="121.082" width="513.559" height="515.829" fill="#013662"/>
<path d="M906.737 272C905.837 272 904.787 272 903.587 272C902.417 272 901.277 272 900.167 272C899.057 272 898.097 272 897.287 272C896.477 272 896.012 272 895.892 272C895.742 272 895.622 271.955 895.532 271.865C895.442 271.775 895.397 271.655 895.397 271.505C895.397 269.045 895.397 266.69 895.397 264.44C895.397 262.16 895.397 259.925 895.397 257.735C895.397 255.515 895.397 253.28 895.397 251.03C895.397 248.75 895.397 246.38 895.397 243.92H901.967L901.652 244.82C901.652 245.81 901.652 246.755 901.652 247.655C901.652 248.555 901.652 249.44 901.652 250.31C901.652 251.66 901.652 252.995 901.652 254.315C901.652 255.605 901.652 256.91 901.652 258.23C901.652 259.55 901.652 260.915 901.652 262.325C901.652 263.705 901.652 265.13 901.652 266.6C902.162 266.6 902.642 266.6 903.092 266.6C903.572 266.6 904.052 266.6 904.532 266.6C905.012 266.6 905.492 266.6 905.972 266.6C906.842 266.6 907.547 266.48 908.087 266.24C908.657 265.97 909.077 265.595 909.347 265.115C909.617 264.605 909.752 264.005 909.752 263.315V261.92C909.752 261.2 909.617 260.6 909.347 260.12C909.077 259.64 908.642 259.28 908.042 259.04C907.472 258.8 906.692 258.68 905.702 258.68H898.457L898.682 254.855H910.427V256.475C912.227 256.745 913.607 257.435 914.567 258.545C915.557 259.625 916.052 261.125 916.052 263.045V264.305C916.052 266.135 915.662 267.62 914.882 268.76C914.102 269.87 913.022 270.695 911.642 271.235C910.262 271.745 908.627 272 906.737 272ZM893.192 240.5C895.322 240.5 897.452 240.5 899.582 240.5C901.712 240.5 903.827 240.5 905.927 240.5C907.817 240.5 909.392 240.71 910.652 241.13C911.942 241.52 912.962 242.06 913.712 242.75C914.492 243.44 915.062 244.235 915.422 245.135C915.782 246.035 915.962 246.95 915.962 247.88V248.915C915.962 250.055 915.752 251.06 915.332 251.93C914.912 252.77 914.312 253.475 913.532 254.045C912.782 254.615 911.867 255.05 910.787 255.35C909.707 255.62 908.507 255.755 907.187 255.755C905.447 255.755 903.962 255.755 902.732 255.755C901.532 255.755 900.437 255.755 899.447 255.755L898.682 256.34L898.457 253.46C899.687 253.46 900.917 253.46 902.147 253.46C903.377 253.46 904.592 253.46 905.792 253.46C906.722 253.46 907.472 253.34 908.042 253.1C908.612 252.83 909.017 252.44 909.257 251.93C909.527 251.39 909.662 250.76 909.662 250.04V248.915C909.662 248.465 909.602 248.06 909.482 247.7C909.362 247.31 909.167 246.995 908.897 246.755C908.597 246.455 908.207 246.245 907.727 246.125C907.247 245.975 906.662 245.9 905.972 245.9C904.622 245.9 903.257 245.9 901.877 245.9C900.527 245.9 899.162 245.9 897.782 245.9C896.432 245.9 895.067 245.9 893.687 245.9C893.537 245.9 893.417 245.855 893.327 245.765C893.237 245.675 893.192 245.555 893.192 245.405C893.192 244.505 893.192 243.68 893.192 242.93C893.192 242.18 893.192 241.37 893.192 240.5ZM922.604 244.055C922.604 242.945 922.604 241.925 922.604 240.995C922.604 240.065 922.604 239.15 922.604 238.25C923.444 238.25 924.044 238.25 924.404 238.25C924.764 238.25 925.019 238.25 925.169 238.25C925.349 238.25 925.499 238.25 925.619 238.25C925.769 238.25 926.024 238.25 926.384 238.25C926.744 238.25 927.344 238.25 928.184 238.25C928.304 238.25 928.394 238.28 928.454 238.34C928.514 238.37 928.559 238.415 928.589 238.475C928.649 238.535 928.679 238.625 928.679 238.745C928.679 240.485 928.679 242.225 928.679 243.965C928.679 245.675 928.679 247.385 928.679 249.095C928.679 250.805 928.679 252.53 928.679 254.27C928.679 255.98 928.679 257.705 928.679 259.445C928.679 261.155 928.679 262.88 928.679 264.62C928.679 264.92 928.694 265.16 928.724 265.34C928.784 265.52 928.889 265.685 929.039 265.835C929.189 265.985 929.369 266.09 929.579 266.15C929.789 266.21 930.059 266.24 930.389 266.24C930.509 266.24 930.659 266.24 930.839 266.24C931.049 266.24 931.244 266.24 931.424 266.24C931.634 266.24 931.814 266.24 931.964 266.24C932.144 266.24 932.264 266.24 932.324 266.24H932.729C932.729 267.05 932.729 267.935 932.729 268.895C932.729 269.825 932.729 270.695 932.729 271.505C932.729 271.655 932.684 271.775 932.594 271.865C932.504 271.955 932.384 272 932.234 272C932.144 272 932.039 272 931.919 272C931.829 272 931.664 272 931.424 272C931.214 272 930.899 272 930.479 272C930.059 272 929.474 272 928.724 272C927.704 272 926.819 271.865 926.069 271.595C925.319 271.295 924.674 270.875 924.134 270.335C923.624 269.765 923.234 269.06 922.964 268.22C922.724 267.35 922.604 266.33 922.604 265.16C922.604 263.42 922.604 261.68 922.604 259.94C922.604 258.17 922.604 256.4 922.604 254.63C922.604 252.86 922.604 251.105 922.604 249.365C922.604 247.595 922.604 245.825 922.604 244.055ZM948.057 247.25C949.677 247.25 951.147 247.505 952.467 248.015C953.817 248.525 954.972 249.245 955.932 250.175C956.892 251.075 957.627 252.155 958.137 253.415C958.677 254.675 958.947 256.07 958.947 257.6V262.145C958.947 264.185 958.482 265.985 957.552 267.545C956.652 269.105 955.377 270.335 953.727 271.235C952.107 272.105 950.217 272.54 948.057 272.54C946.437 272.54 944.952 272.285 943.602 271.775C942.282 271.265 941.142 270.56 940.182 269.66C939.222 268.73 938.472 267.635 937.932 266.375C937.422 265.115 937.167 263.72 937.167 262.19V257.645C937.167 255.605 937.617 253.805 938.517 252.245C939.447 250.685 940.737 249.47 942.387 248.6C944.037 247.7 945.927 247.25 948.057 247.25ZM948.102 252.785C947.082 252.785 946.212 252.995 945.492 253.415C944.772 253.805 944.217 254.39 943.827 255.17C943.437 255.92 943.242 256.835 943.242 257.915V261.875C943.242 262.715 943.362 263.465 943.602 264.125C943.842 264.755 944.172 265.31 944.592 265.79C944.982 266.18 945.462 266.48 946.032 266.69C946.632 266.9 947.292 267.005 948.012 267.005C949.032 267.005 949.902 266.81 950.622 266.42C951.372 266 951.927 265.4 952.287 264.62C952.677 263.84 952.872 262.925 952.872 261.875V257.915C952.872 256.985 952.767 256.205 952.557 255.575C952.347 254.915 952.032 254.375 951.612 253.955C951.222 253.535 950.727 253.235 950.127 253.055C949.557 252.875 948.882 252.785 948.102 252.785ZM975.579 247.25C976.689 247.25 977.664 247.325 978.504 247.475C979.344 247.595 980.019 247.76 980.529 247.97C981.069 248.15 981.429 248.33 981.609 248.51C981.669 248.54 981.699 248.6 981.699 248.69C981.729 248.75 981.744 248.825 981.744 248.915C981.744 249.755 981.744 250.61 981.744 251.48C981.744 252.35 981.744 253.22 981.744 254.09H980.889C980.079 253.73 979.239 253.46 978.369 253.28C977.499 253.1 976.554 253.01 975.534 253.01C974.544 253.01 973.659 253.205 972.879 253.595C972.099 253.955 971.499 254.54 971.079 255.35C970.659 256.16 970.449 257.21 970.449 258.5V261.335C970.449 262.295 970.569 263.135 970.809 263.855C971.049 264.545 971.424 265.115 971.934 265.565C972.354 265.985 972.864 266.3 973.464 266.51C974.064 266.69 974.754 266.78 975.534 266.78C976.224 266.78 976.869 266.75 977.469 266.69C978.069 266.6 978.654 266.48 979.224 266.33C979.794 266.18 980.349 265.985 980.889 265.745H981.744C981.744 266.615 981.744 267.485 981.744 268.355C981.744 269.225 981.744 270.095 981.744 270.965C981.744 271.025 981.729 271.085 981.699 271.145C981.699 271.205 981.669 271.265 981.609 271.325C981.459 271.475 981.114 271.655 980.574 271.865C980.064 272.045 979.374 272.195 978.504 272.315C977.664 272.465 976.689 272.54 975.579 272.54C973.779 272.54 972.174 272.3 970.764 271.82C969.354 271.34 968.154 270.635 967.164 269.705C966.174 268.745 965.424 267.59 964.914 266.24C964.404 264.89 964.149 263.36 964.149 261.65V258.41C964.149 256.19 964.629 254.255 965.589 252.605C966.549 250.925 967.884 249.62 969.594 248.69C971.304 247.73 973.299 247.25 975.579 247.25ZM993.534 272C992.874 272 992.244 272 991.644 272C991.074 272 990.474 272 989.844 272C989.244 272 988.614 272 987.954 272C987.864 272 987.774 271.985 987.684 271.955C987.624 271.895 987.564 271.835 987.504 271.775C987.474 271.715 987.459 271.625 987.459 271.505C987.459 269.105 987.459 266.705 987.459 264.305C987.459 261.905 987.459 259.505 987.459 257.105C987.459 254.675 987.459 252.26 987.459 249.86C987.459 247.46 987.459 245.06 987.459 242.66C987.459 241.82 987.459 241.025 987.459 240.275C987.459 239.525 987.459 238.85 987.459 238.25C988.209 238.25 988.884 238.25 989.484 238.25C990.114 238.25 990.714 238.25 991.284 238.25C991.884 238.25 992.469 238.25 993.039 238.25C993.159 238.25 993.249 238.28 993.309 238.34C993.369 238.37 993.414 238.415 993.444 238.475C993.504 238.535 993.534 238.625 993.534 238.745C993.534 241.505 993.534 244.28 993.534 247.07C993.534 249.83 993.534 252.605 993.534 255.395C993.534 258.155 993.534 260.93 993.534 263.72C993.534 266.48 993.534 269.24 993.534 272ZM1003.57 272C1003.21 272 1002.94 271.955 1002.76 271.865C1002.58 271.775 1002.4 271.61 1002.22 271.37C1002.1 271.22 1001.93 270.995 1001.72 270.695C1001.51 270.365 1001.26 270.005 1000.96 269.615C1000.69 269.195 1000.39 268.76 1000.06 268.31C999.759 267.86 999.459 267.425 999.159 267.005C998.769 266.435 998.439 265.91 998.169 265.43C997.899 264.92 997.674 264.395 997.494 263.855C997.314 263.285 997.164 262.67 997.044 262.01H995.199L998.934 257.24C1000.19 258.92 1001.44 260.585 1002.67 262.235C1003.93 263.855 1005.17 265.475 1006.4 267.095C1007.66 268.715 1008.92 270.35 1010.18 272C1009.52 272 1008.88 272 1008.25 272C1007.65 272 1006.97 272 1006.22 272C1005.5 272 1004.62 272 1003.57 272ZM992.679 258.095H994.389C994.599 257.465 994.809 256.895 995.019 256.385C995.229 255.875 995.454 255.395 995.694 254.945C995.934 254.495 996.189 254.075 996.459 253.685C996.759 253.295 997.089 252.89 997.449 252.47C997.839 251.99 998.229 251.525 998.619 251.075C999.009 250.625 999.429 250.13 999.879 249.59C1000.36 249.05 1000.87 248.45 1001.41 247.79H1008.11C1008.2 247.79 1008.28 247.805 1008.34 247.835C1008.43 247.865 1008.49 247.91 1008.52 247.97C1008.55 248.03 1008.56 248.105 1008.56 248.195C1008.56 248.285 1008.55 248.375 1008.52 248.465C1008.49 248.525 1008.38 248.645 1008.2 248.825C1007.27 249.875 1006.34 250.895 1005.41 251.885C1004.51 252.845 1003.63 253.82 1002.76 254.81C1001.89 255.77 1001.02 256.715 1000.15 257.645C999.309 258.545 998.454 259.46 997.584 260.39C996.744 261.32 995.919 262.235 995.109 263.135C994.329 264.035 993.519 264.92 992.679 265.79V258.095ZM1028.29 272C1028.23 272 1028.17 271.985 1028.11 271.955C1028.05 271.925 1027.99 271.895 1027.93 271.865C1027.9 271.805 1027.87 271.745 1027.84 271.685C1027.81 271.625 1027.8 271.565 1027.8 271.505C1027.8 269.195 1027.8 266.87 1027.8 264.53C1027.8 262.19 1027.8 259.865 1027.8 257.555C1027.8 255.245 1027.8 252.98 1027.8 250.76C1027.8 248.51 1027.8 246.335 1027.8 244.235C1027.8 243.605 1027.8 242.99 1027.8 242.39C1027.8 241.76 1027.8 241.13 1027.8 240.5C1028.82 240.5 1029.82 240.5 1030.81 240.5C1031.8 240.5 1032.79 240.5 1033.78 240.5C1033.87 240.5 1033.95 240.53 1034.01 240.59C1034.1 240.62 1034.16 240.68 1034.19 240.77C1034.25 240.83 1034.28 240.905 1034.28 240.995C1034.28 243.095 1034.28 245.21 1034.28 247.34C1034.28 249.47 1034.28 251.615 1034.28 253.775C1034.28 255.905 1034.28 258.035 1034.28 260.165C1034.28 262.295 1034.28 264.41 1034.28 266.51H1042.11C1042.89 266.51 1043.55 266.615 1044.09 266.825C1044.66 267.005 1045.12 267.32 1045.48 267.77C1045.84 268.22 1046.13 268.79 1046.34 269.48C1046.58 270.17 1046.79 271.01 1046.97 272H1028.29ZM1041.25 263.045C1041.85 263.045 1042.44 263.045 1043.01 263.045C1043.58 263.045 1044.13 263.045 1044.67 263.045C1045.24 263.045 1045.84 263.045 1046.47 263.045C1046.56 263.045 1046.64 263.075 1046.7 263.135C1046.79 263.165 1046.85 263.225 1046.88 263.315C1046.94 263.375 1046.97 263.45 1046.97 263.54C1046.97 264.11 1046.97 264.755 1046.97 265.475C1046.97 266.195 1046.97 266.96 1046.97 267.77C1046.97 268.55 1046.97 269.315 1046.97 270.065C1046.97 270.785 1046.97 271.43 1046.97 272C1045.5 271.88 1044.34 271.61 1043.5 271.19C1042.66 270.77 1042.08 270.215 1041.75 269.525C1041.42 268.835 1041.25 268.04 1041.25 267.14C1041.25 266.72 1041.25 266.27 1041.25 265.79C1041.25 265.31 1041.25 264.83 1041.25 264.35C1041.25 263.84 1041.25 263.405 1041.25 263.045ZM1053.91 271.505C1053.91 270.695 1053.91 269.69 1053.91 268.49C1053.91 267.26 1053.91 265.94 1053.91 264.53C1053.91 263.12 1053.91 261.71 1053.91 260.3C1053.91 258.89 1053.91 257.57 1053.91 256.34C1053.91 255.11 1053.91 254.075 1053.91 253.235H1053.6C1053.42 253.235 1053.21 253.235 1052.97 253.235C1052.76 253.235 1052.52 253.235 1052.25 253.235C1052.01 253.235 1051.75 253.235 1051.48 253.235C1051.24 253.235 1051 253.235 1050.76 253.235C1050.61 253.235 1050.49 253.19 1050.4 253.1C1050.31 253.01 1050.27 252.89 1050.27 252.74C1050.27 251.93 1050.27 251.105 1050.27 250.265C1050.27 249.425 1050.27 248.6 1050.27 247.79C1050.78 247.79 1051.35 247.79 1051.98 247.79C1052.64 247.79 1053.33 247.79 1054.05 247.79C1054.77 247.79 1055.47 247.79 1056.16 247.79C1056.85 247.79 1057.48 247.79 1058.05 247.79C1058.65 247.79 1059.13 247.79 1059.49 247.79C1059.61 247.79 1059.7 247.82 1059.76 247.88C1059.82 247.91 1059.87 247.955 1059.9 248.015C1059.96 248.075 1059.99 248.165 1059.99 248.285C1059.99 249.695 1059.99 251.24 1059.99 252.92C1059.99 254.57 1059.99 256.25 1059.99 257.96C1059.99 259.67 1059.99 261.35 1059.99 263C1059.99 264.65 1059.99 266.195 1059.99 267.635C1059.99 268.085 1059.99 268.565 1059.99 269.075C1059.99 269.555 1059.99 270.035 1059.99 270.515C1059.99 270.995 1059.99 271.49 1059.99 272C1059 272 1058.07 272 1057.2 272C1056.36 272 1055.43 272 1054.41 272C1054.26 272 1054.14 271.955 1054.05 271.865C1053.96 271.775 1053.91 271.655 1053.91 271.505ZM1052.83 236.27C1053.4 236.27 1053.99 236.27 1054.59 236.27C1055.22 236.27 1055.85 236.27 1056.48 236.27C1057.14 236.27 1057.77 236.27 1058.37 236.27C1059 236.27 1059.6 236.27 1060.17 236.27C1060.32 236.27 1060.44 236.315 1060.53 236.405C1060.62 236.495 1060.66 236.615 1060.66 236.765V242.57C1060.09 242.57 1059.49 242.57 1058.86 242.57C1058.26 242.57 1057.63 242.57 1056.97 242.57C1056.34 242.57 1055.71 242.57 1055.08 242.57C1054.48 242.57 1053.9 242.57 1053.33 242.57C1053.18 242.57 1053.06 242.525 1052.97 242.435C1052.88 242.345 1052.83 242.225 1052.83 242.075V236.27ZM1073.6 272C1072.94 272 1072.31 272 1071.71 272C1071.14 272 1070.54 272 1069.91 272C1069.31 272 1068.68 272 1068.02 272C1067.93 272 1067.84 271.985 1067.75 271.955C1067.69 271.895 1067.63 271.835 1067.57 271.775C1067.54 271.715 1067.53 271.625 1067.53 271.505C1067.53 269.105 1067.53 266.705 1067.53 264.305C1067.53 261.905 1067.53 259.505 1067.53 257.105C1067.53 254.675 1067.53 252.26 1067.53 249.86C1067.53 247.46 1067.53 245.06 1067.53 242.66C1067.53 241.82 1067.53 241.025 1067.53 240.275C1067.53 239.525 1067.53 238.85 1067.53 238.25C1068.28 238.25 1068.95 238.25 1069.55 238.25C1070.18 238.25 1070.78 238.25 1071.35 238.25C1071.95 238.25 1072.54 238.25 1073.11 238.25C1073.23 238.25 1073.32 238.28 1073.38 238.34C1073.44 238.37 1073.48 238.415 1073.51 238.475C1073.57 238.535 1073.6 238.625 1073.6 238.745C1073.6 241.505 1073.6 244.28 1073.6 247.07C1073.6 249.83 1073.6 252.605 1073.6 255.395C1073.6 258.155 1073.6 260.93 1073.6 263.72C1073.6 266.48 1073.6 269.24 1073.6 272ZM1083.64 272C1083.28 272 1083.01 271.955 1082.83 271.865C1082.65 271.775 1082.47 271.61 1082.29 271.37C1082.17 271.22 1082 270.995 1081.79 270.695C1081.58 270.365 1081.33 270.005 1081.03 269.615C1080.76 269.195 1080.46 268.76 1080.13 268.31C1079.83 267.86 1079.53 267.425 1079.23 267.005C1078.84 266.435 1078.51 265.91 1078.24 265.43C1077.97 264.92 1077.74 264.395 1077.56 263.855C1077.38 263.285 1077.23 262.67 1077.11 262.01H1075.27L1079 257.24C1080.26 258.92 1081.51 260.585 1082.74 262.235C1084 263.855 1085.24 265.475 1086.47 267.095C1087.73 268.715 1088.99 270.35 1090.25 272C1089.59 272 1088.95 272 1088.32 272C1087.72 272 1087.04 272 1086.29 272C1085.57 272 1084.69 272 1083.64 272ZM1072.75 258.095H1074.46C1074.67 257.465 1074.88 256.895 1075.09 256.385C1075.3 255.875 1075.52 255.395 1075.76 254.945C1076 254.495 1076.26 254.075 1076.53 253.685C1076.83 253.295 1077.16 252.89 1077.52 252.47C1077.91 251.99 1078.3 251.525 1078.69 251.075C1079.08 250.625 1079.5 250.13 1079.95 249.59C1080.43 249.05 1080.94 248.45 1081.48 247.79H1088.18C1088.27 247.79 1088.35 247.805 1088.41 247.835C1088.5 247.865 1088.56 247.91 1088.59 247.97C1088.62 248.03 1088.63 248.105 1088.63 248.195C1088.63 248.285 1088.62 248.375 1088.59 248.465C1088.56 248.525 1088.45 248.645 1088.27 248.825C1087.34 249.875 1086.41 250.895 1085.48 251.885C1084.58 252.845 1083.7 253.82 1082.83 254.81C1081.96 255.77 1081.09 256.715 1080.22 257.645C1079.38 258.545 1078.52 259.46 1077.65 260.39C1076.81 261.32 1075.99 262.235 1075.18 263.135C1074.4 264.035 1073.59 264.92 1072.75 265.79V258.095ZM1102.88 247.25C1104.92 247.25 1106.69 247.67 1108.19 248.51C1109.72 249.35 1110.9 250.52 1111.74 252.02C1112.58 253.52 1113 255.275 1113 257.285V261.02C1113 261.11 1112.99 261.2 1112.96 261.29C1112.93 261.35 1112.87 261.395 1112.78 261.425C1112.72 261.455 1112.64 261.47 1112.55 261.47H1102.2C1101.69 261.47 1101.17 261.47 1100.63 261.47C1100.12 261.47 1099.61 261.47 1099.1 261.47H1097.25L1097.12 257.69H1107.11C1107.11 257.57 1107.11 257.465 1107.11 257.375C1107.11 257.285 1107.11 257.18 1107.11 257.06C1107.11 256.19 1107.02 255.455 1106.84 254.855C1106.66 254.225 1106.37 253.73 1105.98 253.37C1105.65 253.01 1105.23 252.755 1104.72 252.605C1104.21 252.455 1103.6 252.38 1102.88 252.38C1101.38 252.38 1100.25 252.755 1099.5 253.505C1098.78 254.225 1098.42 255.41 1098.42 257.06V262.55C1098.42 263.27 1098.51 263.915 1098.69 264.485C1098.9 265.025 1099.19 265.49 1099.55 265.88C1100.03 266.36 1100.66 266.705 1101.44 266.915C1102.25 267.125 1103.18 267.23 1104.23 267.23C1105.31 267.23 1106.27 267.185 1107.11 267.095C1107.95 266.975 1108.73 266.825 1109.45 266.645C1110.17 266.435 1110.87 266.21 1111.56 265.97H1112.42C1112.42 266.72 1112.42 267.485 1112.42 268.265C1112.42 269.015 1112.42 269.78 1112.42 270.56C1112.42 270.62 1112.4 270.68 1112.37 270.74C1112.34 270.8 1112.3 270.86 1112.24 270.92C1112 271.16 1111.46 271.4 1110.62 271.64C1109.81 271.88 1108.82 272.09 1107.65 272.27C1106.51 272.45 1105.34 272.54 1104.14 272.54C1102.19 272.54 1100.46 272.315 1098.96 271.865C1097.49 271.385 1096.26 270.71 1095.27 269.84C1094.31 268.97 1093.58 267.92 1093.07 266.69C1092.59 265.43 1092.35 264.02 1092.35 262.46V257.33C1092.35 255.8 1092.59 254.42 1093.07 253.19C1093.58 251.96 1094.3 250.91 1095.23 250.04C1096.16 249.14 1097.27 248.45 1098.56 247.97C1099.85 247.49 1101.29 247.25 1102.88 247.25ZM1144.21 239.645C1146.31 239.645 1148.11 239.9 1149.61 240.41C1151.11 240.89 1152.2 241.475 1152.89 242.165C1153.01 242.285 1153.09 242.405 1153.12 242.525C1153.15 242.645 1153.16 242.795 1153.16 242.975C1153.16 243.545 1153.16 244.19 1153.16 244.91C1153.16 245.63 1153.16 246.35 1153.16 247.07C1153.16 247.79 1153.16 248.495 1153.16 249.185C1152.32 249.185 1151.45 249.185 1150.55 249.185C1149.65 249.185 1148.77 249.185 1147.9 249.185C1147.75 249.185 1147.63 249.14 1147.54 249.05C1147.45 248.96 1147.4 248.84 1147.4 248.69C1147.4 248.39 1147.4 248.09 1147.4 247.79C1147.4 247.49 1147.4 247.175 1147.4 246.845C1147.4 246.485 1147.4 246.11 1147.4 245.72C1147.4 245.33 1147.4 244.895 1147.4 244.415L1148.66 246.035C1147.94 245.705 1147.24 245.48 1146.55 245.36C1145.89 245.21 1145.11 245.135 1144.21 245.135C1143.34 245.135 1142.57 245.195 1141.91 245.315C1141.28 245.435 1140.74 245.645 1140.29 245.945C1139.84 246.215 1139.5 246.575 1139.26 247.025C1139.02 247.445 1138.9 247.955 1138.9 248.555V249.5C1138.9 250.07 1138.99 250.565 1139.17 250.985C1139.38 251.405 1139.74 251.765 1140.25 252.065C1140.79 252.365 1141.58 252.68 1142.63 253.01L1146.95 254.315C1148.33 254.735 1149.49 255.2 1150.42 255.71C1151.38 256.19 1152.13 256.745 1152.67 257.375C1153.21 258.005 1153.6 258.725 1153.84 259.535C1154.08 260.345 1154.2 261.275 1154.2 262.325V264.395C1154.2 266.135 1153.73 267.65 1152.8 268.94C1151.87 270.2 1150.52 271.175 1148.75 271.865C1147.01 272.525 1144.91 272.855 1142.45 272.855C1141.01 272.855 1139.65 272.765 1138.36 272.585C1137.1 272.405 1135.99 272.135 1135.03 271.775C1134.1 271.385 1133.36 270.95 1132.82 270.47C1132.73 270.38 1132.66 270.29 1132.6 270.2C1132.57 270.08 1132.55 269.885 1132.55 269.615C1132.55 269.075 1132.55 268.55 1132.55 268.04C1132.55 267.53 1132.55 266.99 1132.55 266.42C1132.55 265.85 1132.55 265.265 1132.55 264.665H1133.41C1134.76 265.565 1136.17 266.24 1137.64 266.69C1139.11 267.11 1140.85 267.32 1142.86 267.32C1144.72 267.32 1146.07 267.02 1146.91 266.42C1147.78 265.82 1148.21 265.1 1148.21 264.26V262.73C1148.21 262.22 1148.12 261.8 1147.94 261.47C1147.79 261.11 1147.46 260.78 1146.95 260.48C1146.44 260.15 1145.63 259.835 1144.52 259.535L1140.25 258.23C1138.78 257.78 1137.56 257.27 1136.6 256.7C1135.64 256.1 1134.89 255.47 1134.35 254.81C1133.84 254.15 1133.47 253.445 1133.23 252.695C1133.02 251.915 1132.91 251.105 1132.91 250.265V248.105C1132.91 246.875 1133.17 245.75 1133.68 244.73C1134.22 243.68 1134.98 242.78 1135.97 242.03C1136.96 241.25 1138.15 240.665 1139.53 240.275C1140.94 239.855 1142.5 239.645 1144.21 239.645ZM1169.89 247.25C1171.93 247.25 1173.7 247.67 1175.2 248.51C1176.73 249.35 1177.92 250.52 1178.76 252.02C1179.6 253.52 1180.02 255.275 1180.02 257.285V261.02C1180.02 261.11 1180 261.2 1179.97 261.29C1179.94 261.35 1179.88 261.395 1179.79 261.425C1179.73 261.455 1179.66 261.47 1179.57 261.47H1169.22C1168.71 261.47 1168.18 261.47 1167.64 261.47C1167.13 261.47 1166.62 261.47 1166.11 261.47H1164.27L1164.13 257.69H1174.12C1174.12 257.57 1174.12 257.465 1174.12 257.375C1174.12 257.285 1174.12 257.18 1174.12 257.06C1174.12 256.19 1174.03 255.455 1173.85 254.855C1173.67 254.225 1173.39 253.73 1173 253.37C1172.67 253.01 1172.25 252.755 1171.74 252.605C1171.23 252.455 1170.61 252.38 1169.89 252.38C1168.39 252.38 1167.27 252.755 1166.52 253.505C1165.8 254.225 1165.44 255.41 1165.44 257.06V262.55C1165.44 263.27 1165.53 263.915 1165.71 264.485C1165.92 265.025 1166.2 265.49 1166.56 265.88C1167.04 266.36 1167.67 266.705 1168.45 266.915C1169.26 267.125 1170.19 267.23 1171.24 267.23C1172.32 267.23 1173.28 267.185 1174.12 267.095C1174.96 266.975 1175.74 266.825 1176.46 266.645C1177.18 266.435 1177.89 266.21 1178.58 265.97H1179.43C1179.43 266.72 1179.43 267.485 1179.43 268.265C1179.43 269.015 1179.43 269.78 1179.43 270.56C1179.43 270.62 1179.42 270.68 1179.39 270.74C1179.36 270.8 1179.31 270.86 1179.25 270.92C1179.01 271.16 1178.47 271.4 1177.63 271.64C1176.82 271.88 1175.83 272.09 1174.66 272.27C1173.52 272.45 1172.35 272.54 1171.15 272.54C1169.2 272.54 1167.48 272.315 1165.98 271.865C1164.51 271.385 1163.28 270.71 1162.29 269.84C1161.33 268.97 1160.59 267.92 1160.08 266.69C1159.6 265.43 1159.36 264.02 1159.36 262.46V257.33C1159.36 255.8 1159.6 254.42 1160.08 253.19C1160.59 251.96 1161.31 250.91 1162.24 250.04C1163.17 249.14 1164.28 248.45 1165.57 247.97C1166.86 247.49 1168.3 247.25 1169.89 247.25ZM1192.33 252.11H1194.13C1194.49 251 1194.91 250.1 1195.39 249.41C1195.87 248.69 1196.46 248.165 1197.15 247.835C1197.87 247.505 1198.68 247.34 1199.58 247.34C1200.06 247.34 1200.45 247.385 1200.75 247.475C1201.08 247.565 1201.3 247.655 1201.42 247.745C1201.54 247.835 1201.62 247.925 1201.65 248.015C1201.68 248.075 1201.69 248.18 1201.69 248.33C1201.69 248.81 1201.69 249.29 1201.69 249.77C1201.69 250.22 1201.69 250.67 1201.69 251.12C1201.69 251.57 1201.69 252.035 1201.69 252.515C1201.69 252.965 1201.69 253.43 1201.69 253.91H1200.84C1200.54 253.82 1200.21 253.745 1199.85 253.685C1199.49 253.625 1199.08 253.595 1198.63 253.595C1197.7 253.595 1196.88 253.775 1196.16 254.135C1195.47 254.495 1194.82 255.005 1194.22 255.665C1193.62 256.295 1192.99 257.045 1192.33 257.915V252.11ZM1193.19 272C1192.53 272 1191.85 272 1191.16 272C1190.5 272 1189.84 272 1189.18 272C1188.52 272 1187.86 272 1187.2 272C1187.11 272 1187.04 272 1186.98 272C1186.92 271.97 1186.86 271.94 1186.8 271.91C1186.77 271.85 1186.74 271.79 1186.71 271.73C1186.71 271.67 1186.71 271.595 1186.71 271.505C1186.71 270.395 1186.71 269.225 1186.71 267.995C1186.71 266.735 1186.71 265.445 1186.71 264.125C1186.71 262.805 1186.71 261.485 1186.71 260.165C1186.71 258.815 1186.71 257.48 1186.71 256.16C1186.71 254.81 1186.71 253.49 1186.71 252.2C1186.71 251.36 1186.71 250.565 1186.71 249.815C1186.71 249.065 1186.71 248.39 1186.71 247.79C1187.46 247.79 1188.16 247.79 1188.82 247.79C1189.51 247.79 1190.17 247.79 1190.8 247.79C1191.46 247.79 1192.09 247.79 1192.69 247.79C1192.81 247.79 1192.9 247.82 1192.96 247.88C1193.02 247.91 1193.07 247.955 1193.1 248.015C1193.16 248.075 1193.19 248.165 1193.19 248.285C1193.19 249.665 1193.19 251.12 1193.19 252.65C1193.19 254.18 1193.19 255.74 1193.19 257.33C1193.19 258.92 1193.19 260.555 1193.19 262.235C1193.19 263.885 1193.19 265.535 1193.19 267.185C1193.19 268.805 1193.19 270.41 1193.19 272ZM1209.08 271.505C1209.08 270.695 1209.08 269.69 1209.08 268.49C1209.08 267.26 1209.08 265.94 1209.08 264.53C1209.08 263.12 1209.08 261.71 1209.08 260.3C1209.08 258.89 1209.08 257.57 1209.08 256.34C1209.08 255.11 1209.08 254.075 1209.08 253.235H1208.77C1208.59 253.235 1208.38 253.235 1208.14 253.235C1207.93 253.235 1207.69 253.235 1207.42 253.235C1207.18 253.235 1206.92 253.235 1206.65 253.235C1206.41 253.235 1206.17 253.235 1205.93 253.235C1205.78 253.235 1205.66 253.19 1205.57 253.1C1205.48 253.01 1205.44 252.89 1205.44 252.74C1205.44 251.93 1205.44 251.105 1205.44 250.265C1205.44 249.425 1205.44 248.6 1205.44 247.79C1205.95 247.79 1206.52 247.79 1207.15 247.79C1207.81 247.79 1208.5 247.79 1209.22 247.79C1209.94 247.79 1210.64 247.79 1211.33 247.79C1212.02 247.79 1212.65 247.79 1213.22 247.79C1213.82 247.79 1214.3 247.79 1214.66 247.79C1214.78 247.79 1214.87 247.82 1214.93 247.88C1214.99 247.91 1215.04 247.955 1215.07 248.015C1215.13 248.075 1215.16 248.165 1215.16 248.285C1215.16 249.695 1215.16 251.24 1215.16 252.92C1215.16 254.57 1215.16 256.25 1215.16 257.96C1215.16 259.67 1215.16 261.35 1215.16 263C1215.16 264.65 1215.16 266.195 1215.16 267.635C1215.16 268.085 1215.16 268.565 1215.16 269.075C1215.16 269.555 1215.16 270.035 1215.16 270.515C1215.16 270.995 1215.16 271.49 1215.16 272C1214.17 272 1213.24 272 1212.37 272C1211.53 272 1210.6 272 1209.58 272C1209.43 272 1209.31 271.955 1209.22 271.865C1209.13 271.775 1209.08 271.655 1209.08 271.505ZM1208 236.27C1208.57 236.27 1209.16 236.27 1209.76 236.27C1210.39 236.27 1211.02 236.27 1211.65 236.27C1212.31 236.27 1212.94 236.27 1213.54 236.27C1214.17 236.27 1214.77 236.27 1215.34 236.27C1215.49 236.27 1215.61 236.315 1215.7 236.405C1215.79 236.495 1215.83 236.615 1215.83 236.765V242.57C1215.26 242.57 1214.66 242.57 1214.03 242.57C1213.43 242.57 1212.8 242.57 1212.14 242.57C1211.51 242.57 1210.88 242.57 1210.25 242.57C1209.65 242.57 1209.07 242.57 1208.5 242.57C1208.35 242.57 1208.23 242.525 1208.14 242.435C1208.05 242.345 1208 242.225 1208 242.075V236.27ZM1220.67 248.96H1234.89C1235.01 248.96 1235.1 248.99 1235.16 249.05C1235.22 249.08 1235.27 249.125 1235.3 249.185C1235.36 249.245 1235.39 249.335 1235.39 249.455C1235.39 250.295 1235.39 251.09 1235.39 251.84C1235.39 252.59 1235.39 253.4 1235.39 254.27H1221.17C1221.08 254.27 1220.99 254.255 1220.9 254.225C1220.84 254.165 1220.78 254.105 1220.72 254.045C1220.69 253.955 1220.67 253.865 1220.67 253.775C1220.67 252.905 1220.67 252.095 1220.67 251.345C1220.67 250.595 1220.67 249.8 1220.67 248.96ZM1229.67 271.505C1229.67 271.625 1229.63 271.745 1229.54 271.865C1229.45 271.955 1229.33 272 1229.18 272C1228.22 272 1227.29 272 1226.39 272C1225.49 272 1224.54 272 1223.55 272C1223.55 271.25 1223.55 270.5 1223.55 269.75C1223.55 269 1223.55 268.25 1223.55 267.5C1223.55 265.58 1223.55 263.78 1223.55 262.1C1223.55 260.39 1223.55 258.725 1223.55 257.105C1223.55 255.455 1223.55 253.76 1223.55 252.02C1223.55 250.25 1223.55 248.33 1223.55 246.26C1223.55 244.91 1223.75 243.695 1224.14 242.615C1224.53 241.505 1225.08 240.575 1225.8 239.825C1226.52 239.045 1227.41 238.445 1228.46 238.025C1229.54 237.605 1230.75 237.395 1232.1 237.395C1232.91 237.395 1233.63 237.455 1234.26 237.575C1234.89 237.665 1235.42 237.785 1235.84 237.935C1236.26 238.085 1236.54 238.22 1236.69 238.34C1236.75 238.37 1236.78 238.43 1236.78 238.52C1236.81 238.58 1236.83 238.64 1236.83 238.7C1236.83 239.48 1236.83 240.275 1236.83 241.085C1236.83 241.865 1236.83 242.645 1236.83 243.425H1235.97C1235.61 243.275 1235.25 243.155 1234.89 243.065C1234.56 242.945 1234.22 242.855 1233.86 242.795C1233.5 242.735 1233.12 242.705 1232.73 242.705C1232.34 242.705 1231.95 242.765 1231.56 242.885C1231.17 243.005 1230.83 243.185 1230.53 243.425C1230.23 243.725 1230 244.1 1229.85 244.55C1229.73 244.97 1229.67 245.555 1229.67 246.305C1229.67 247.715 1229.67 249.29 1229.67 251.03C1229.67 252.74 1229.67 254.525 1229.67 256.385C1229.67 258.245 1229.67 260.09 1229.67 261.92C1229.67 263.75 1229.67 265.49 1229.67 267.14C1229.67 268.76 1229.67 270.215 1229.67 271.505ZM1248.48 266.555C1250.28 266.555 1251.51 266.36 1252.17 265.97C1252.83 265.55 1253.16 265.07 1253.16 264.53C1253.16 264.2 1253.07 263.9 1252.89 263.63C1252.74 263.36 1252.45 263.135 1252.03 262.955C1251.64 262.745 1251.07 262.58 1250.32 262.46L1245.69 261.785C1244.25 261.545 1243.05 261.14 1242.09 260.57C1241.13 259.97 1240.41 259.22 1239.93 258.32C1239.48 257.42 1239.25 256.415 1239.25 255.305C1239.25 254.045 1239.49 252.935 1239.97 251.975C1240.48 250.985 1241.22 250.145 1242.18 249.455C1243.14 248.765 1244.32 248.24 1245.73 247.88C1247.14 247.52 1248.75 247.34 1250.55 247.34C1251.51 247.34 1252.39 247.385 1253.2 247.475C1254.01 247.535 1254.75 247.625 1255.41 247.745C1256.07 247.865 1256.65 248 1257.16 248.15C1257.37 248.21 1257.52 248.285 1257.61 248.375C1257.73 248.435 1257.79 248.525 1257.79 248.645C1257.82 248.765 1257.84 248.945 1257.84 249.185C1257.84 249.815 1257.84 250.61 1257.84 251.57C1257.84 252.5 1257.84 253.37 1257.84 254.18H1257.03C1256.22 253.97 1255.44 253.79 1254.69 253.64C1253.94 253.49 1253.17 253.385 1252.39 253.325C1251.61 253.265 1250.79 253.235 1249.92 253.235C1248.72 253.235 1247.77 253.325 1247.08 253.505C1246.42 253.655 1245.96 253.865 1245.69 254.135C1245.42 254.405 1245.28 254.72 1245.28 255.08C1245.28 255.41 1245.36 255.71 1245.51 255.98C1245.69 256.22 1245.97 256.415 1246.36 256.565C1246.75 256.715 1247.29 256.85 1247.98 256.97L1252.21 257.6C1253.68 257.78 1254.93 258.17 1255.95 258.77C1256.97 259.34 1257.75 260.105 1258.29 261.065C1258.86 261.995 1259.14 263.12 1259.14 264.44C1259.14 266.06 1258.72 267.47 1257.88 268.67C1257.07 269.87 1255.87 270.8 1254.28 271.46C1252.69 272.12 1250.74 272.45 1248.43 272.45C1247.35 272.45 1246.35 272.405 1245.42 272.315C1244.49 272.255 1243.62 272.15 1242.81 272C1242.03 271.88 1241.32 271.73 1240.69 271.55C1240.06 271.37 1239.52 271.175 1239.07 270.965C1238.89 270.905 1238.77 270.83 1238.71 270.74C1238.68 270.65 1238.67 270.485 1238.67 270.245C1238.67 269.555 1238.67 268.73 1238.67 267.77C1238.67 266.81 1238.67 265.88 1238.67 264.98H1239.48C1240.2 265.28 1240.89 265.535 1241.55 265.745C1242.24 265.925 1242.93 266.075 1243.62 266.195C1244.34 266.315 1245.09 266.405 1245.87 266.465C1246.68 266.525 1247.55 266.555 1248.48 266.555Z" fill="#FFF0DD"/>
<path d="M987.838 452.5C987.988 452.5 988.108 452.53 988.198 452.59C988.288 452.65 988.363 452.755 988.423 452.905C988.513 453.025 988.603 453.265 988.693 453.625C989.503 457.075 990.208 460.12 990.808 462.76C991.438 465.37 991.978 467.695 992.428 469.735C992.908 471.745 993.343 473.605 993.733 475.315C994.123 477.025 994.498 478.69 994.858 480.31L993.328 479.14H996.838L995.263 480.31C995.533 479.05 995.818 477.745 996.118 476.395C996.448 475.045 996.793 473.605 997.153 472.075C997.543 470.515 997.978 468.805 998.458 466.945C998.938 465.055 999.463 462.925 1000.03 460.555C1000.63 458.185 1001.29 455.5 1002.01 452.5C1002.97 452.5 1003.93 452.5 1004.89 452.5C1005.88 452.5 1006.84 452.5 1007.77 452.5C1007.83 452.5 1007.89 452.515 1007.95 452.545C1008.04 452.575 1008.1 452.635 1008.13 452.725C1008.16 452.815 1008.16 452.935 1008.13 453.085C1007.92 453.865 1007.61 455.05 1007.19 456.64C1006.77 458.2 1006.3 460 1005.79 462.04C1005.28 464.05 1004.76 466.15 1004.22 468.34C1003.68 470.5 1003.14 472.615 1002.6 474.685C1002.09 476.725 1001.62 478.57 1001.2 480.22C1000.78 481.87 1000.45 483.145 1000.21 484.045C998.503 484.045 996.808 484.045 995.128 484.045C993.448 484.045 991.963 484.045 990.673 484.045C990.373 484.045 990.163 483.985 990.043 483.865C989.923 483.745 989.803 483.46 989.683 483.01C989.383 481.84 989.053 480.58 988.693 479.23C988.363 477.85 988.003 476.395 987.613 474.865C987.253 473.335 986.863 471.745 986.443 470.095C986.023 468.415 985.588 466.69 985.138 464.92C984.718 463.15 984.268 461.32 983.788 459.43C983.608 458.68 983.413 457.93 983.203 457.18C983.023 456.4 982.828 455.62 982.618 454.84C982.438 454.06 982.243 453.28 982.033 452.5C983.023 452.5 984.013 452.5 985.003 452.5C985.993 452.5 986.938 452.5 987.838 452.5ZM1021.95 459.25C1023.99 459.25 1025.76 459.67 1027.26 460.51C1028.79 461.35 1029.98 462.52 1030.82 464.02C1031.66 465.52 1032.08 467.275 1032.08 469.285V473.02C1032.08 473.11 1032.06 473.2 1032.03 473.29C1032 473.35 1031.94 473.395 1031.85 473.425C1031.79 473.455 1031.72 473.47 1031.63 473.47H1021.28C1020.77 473.47 1020.24 473.47 1019.7 473.47C1019.19 473.47 1018.68 473.47 1018.17 473.47H1016.33L1016.19 469.69H1026.18C1026.18 469.57 1026.18 469.465 1026.18 469.375C1026.18 469.285 1026.18 469.18 1026.18 469.06C1026.18 468.19 1026.09 467.455 1025.91 466.855C1025.73 466.225 1025.45 465.73 1025.06 465.37C1024.73 465.01 1024.31 464.755 1023.8 464.605C1023.29 464.455 1022.67 464.38 1021.95 464.38C1020.45 464.38 1019.33 464.755 1018.58 465.505C1017.86 466.225 1017.5 467.41 1017.5 469.06V474.55C1017.5 475.27 1017.59 475.915 1017.77 476.485C1017.98 477.025 1018.26 477.49 1018.62 477.88C1019.1 478.36 1019.73 478.705 1020.51 478.915C1021.32 479.125 1022.25 479.23 1023.3 479.23C1024.38 479.23 1025.34 479.185 1026.18 479.095C1027.02 478.975 1027.8 478.825 1028.52 478.645C1029.24 478.435 1029.95 478.21 1030.64 477.97H1031.49C1031.49 478.72 1031.49 479.485 1031.49 480.265C1031.49 481.015 1031.49 481.78 1031.49 482.56C1031.49 482.62 1031.48 482.68 1031.45 482.74C1031.42 482.8 1031.37 482.86 1031.31 482.92C1031.07 483.16 1030.53 483.4 1029.69 483.64C1028.88 483.88 1027.89 484.09 1026.72 484.27C1025.58 484.45 1024.41 484.54 1023.21 484.54C1021.26 484.54 1019.54 484.315 1018.04 483.865C1016.57 483.385 1015.34 482.71 1014.35 481.84C1013.39 480.97 1012.65 479.92 1012.14 478.69C1011.66 477.43 1011.42 476.02 1011.42 474.46V469.33C1011.42 467.8 1011.66 466.42 1012.14 465.19C1012.65 463.96 1013.37 462.91 1014.3 462.04C1015.23 461.14 1016.34 460.45 1017.63 459.97C1018.92 459.49 1020.36 459.25 1021.95 459.25ZM1044.39 464.11H1046.19C1046.55 463 1046.97 462.1 1047.45 461.41C1047.93 460.69 1048.52 460.165 1049.21 459.835C1049.93 459.505 1050.74 459.34 1051.64 459.34C1052.12 459.34 1052.51 459.385 1052.81 459.475C1053.14 459.565 1053.36 459.655 1053.48 459.745C1053.6 459.835 1053.68 459.925 1053.71 460.015C1053.74 460.075 1053.75 460.18 1053.75 460.33C1053.75 460.81 1053.75 461.29 1053.75 461.77C1053.75 462.22 1053.75 462.67 1053.75 463.12C1053.75 463.57 1053.75 464.035 1053.75 464.515C1053.75 464.965 1053.75 465.43 1053.75 465.91H1052.9C1052.6 465.82 1052.27 465.745 1051.91 465.685C1051.55 465.625 1051.14 465.595 1050.69 465.595C1049.76 465.595 1048.94 465.775 1048.22 466.135C1047.53 466.495 1046.88 467.005 1046.28 467.665C1045.68 468.295 1045.05 469.045 1044.39 469.915V464.11ZM1045.25 484C1044.59 484 1043.91 484 1043.22 484C1042.56 484 1041.9 484 1041.24 484C1040.58 484 1039.92 484 1039.26 484C1039.17 484 1039.1 484 1039.04 484C1038.98 483.97 1038.92 483.94 1038.86 483.91C1038.83 483.85 1038.8 483.79 1038.77 483.73C1038.77 483.67 1038.77 483.595 1038.77 483.505C1038.77 482.395 1038.77 481.225 1038.77 479.995C1038.77 478.735 1038.77 477.445 1038.77 476.125C1038.77 474.805 1038.77 473.485 1038.77 472.165C1038.77 470.815 1038.77 469.48 1038.77 468.16C1038.77 466.81 1038.77 465.49 1038.77 464.2C1038.77 463.36 1038.77 462.565 1038.77 461.815C1038.77 461.065 1038.77 460.39 1038.77 459.79C1039.52 459.79 1040.22 459.79 1040.88 459.79C1041.57 459.79 1042.23 459.79 1042.86 459.79C1043.52 459.79 1044.15 459.79 1044.75 459.79C1044.87 459.79 1044.96 459.82 1045.02 459.88C1045.08 459.91 1045.13 459.955 1045.16 460.015C1045.22 460.075 1045.25 460.165 1045.25 460.285C1045.25 461.665 1045.25 463.12 1045.25 464.65C1045.25 466.18 1045.25 467.74 1045.25 469.33C1045.25 470.92 1045.25 472.555 1045.25 474.235C1045.25 475.885 1045.25 477.535 1045.25 479.185C1045.25 480.805 1045.25 482.41 1045.25 484ZM1058.33 459.79H1075.7C1075.88 459.79 1076.01 459.835 1076.1 459.925C1076.19 460.015 1076.24 460.135 1076.24 460.285C1076.24 460.915 1076.24 461.5 1076.24 462.04C1076.24 462.58 1076.24 463.135 1076.24 463.705C1076.24 464.275 1076.24 464.86 1076.24 465.46H1058.87C1058.81 465.46 1058.75 465.445 1058.69 465.415C1058.63 465.385 1058.57 465.355 1058.51 465.325C1058.45 465.265 1058.4 465.205 1058.37 465.145C1058.34 465.085 1058.33 465.025 1058.33 464.965C1058.33 464.365 1058.33 463.78 1058.33 463.21C1058.33 462.64 1058.33 462.085 1058.33 461.545C1058.33 461.005 1058.33 460.42 1058.33 459.79ZM1076.24 478.195C1076.24 479.095 1076.24 479.995 1076.24 480.895C1076.24 481.765 1076.24 482.635 1076.24 483.505C1076.24 483.625 1076.19 483.745 1076.1 483.865C1076.01 483.955 1075.89 484 1075.74 484C1075.44 484 1075.13 484 1074.8 484C1074.5 484 1074.18 484 1073.85 484C1073.55 484 1073.25 484 1072.95 484C1072.65 484 1072.34 484 1072.01 484C1070.45 484 1069.05 483.82 1067.82 483.46C1066.59 483.07 1065.54 482.485 1064.67 481.705C1063.8 480.925 1063.14 479.92 1062.69 478.69C1062.24 477.46 1062.02 476.005 1062.02 474.325C1062.02 472.855 1062.02 471.4 1062.02 469.96C1062.02 468.52 1062.02 467.08 1062.02 465.64C1062.02 464.2 1062.02 462.76 1062.02 461.32C1062.02 459.88 1062.02 458.44 1062.02 457C1062.02 456.22 1062.02 455.47 1062.02 454.75C1062.02 454 1062.02 453.25 1062.02 452.5C1062.95 452.5 1063.88 452.5 1064.81 452.5C1065.77 452.5 1066.7 452.5 1067.6 452.5C1067.69 452.5 1067.76 452.53 1067.82 452.59C1067.91 452.62 1067.97 452.68 1068 452.77C1068.06 452.83 1068.09 452.905 1068.09 452.995C1068.09 454.735 1068.09 456.475 1068.09 458.215C1068.09 459.925 1068.09 461.65 1068.09 463.39C1068.09 465.13 1068.09 466.87 1068.09 468.61C1068.09 470.32 1068.09 472.045 1068.09 473.785C1068.09 474.685 1068.18 475.42 1068.36 475.99C1068.54 476.56 1068.81 477.025 1069.17 477.385C1069.5 477.685 1069.91 477.895 1070.39 478.015C1070.9 478.135 1071.51 478.195 1072.23 478.195C1072.62 478.195 1073 478.195 1073.36 478.195C1073.75 478.195 1074.14 478.195 1074.53 478.195C1074.92 478.195 1075.31 478.195 1075.7 478.195H1076.24ZM1083.64 483.505C1083.64 482.695 1083.64 481.69 1083.64 480.49C1083.64 479.26 1083.64 477.94 1083.64 476.53C1083.64 475.12 1083.64 473.71 1083.64 472.3C1083.64 470.89 1083.64 469.57 1083.64 468.34C1083.64 467.11 1083.64 466.075 1083.64 465.235H1083.32C1083.14 465.235 1082.93 465.235 1082.69 465.235C1082.48 465.235 1082.24 465.235 1081.97 465.235C1081.73 465.235 1081.48 465.235 1081.21 465.235C1080.97 465.235 1080.73 465.235 1080.49 465.235C1080.34 465.235 1080.22 465.19 1080.13 465.1C1080.04 465.01 1079.99 464.89 1079.99 464.74C1079.99 463.93 1079.99 463.105 1079.99 462.265C1079.99 461.425 1079.99 460.6 1079.99 459.79C1080.5 459.79 1081.07 459.79 1081.7 459.79C1082.36 459.79 1083.05 459.79 1083.77 459.79C1084.49 459.79 1085.2 459.79 1085.89 459.79C1086.58 459.79 1087.21 459.79 1087.78 459.79C1088.38 459.79 1088.86 459.79 1089.22 459.79C1089.34 459.79 1089.43 459.82 1089.49 459.88C1089.55 459.91 1089.59 459.955 1089.62 460.015C1089.68 460.075 1089.71 460.165 1089.71 460.285C1089.71 461.695 1089.71 463.24 1089.71 464.92C1089.71 466.57 1089.71 468.25 1089.71 469.96C1089.71 471.67 1089.71 473.35 1089.71 475C1089.71 476.65 1089.71 478.195 1089.71 479.635C1089.71 480.085 1089.71 480.565 1089.71 481.075C1089.71 481.555 1089.71 482.035 1089.71 482.515C1089.71 482.995 1089.71 483.49 1089.71 484C1088.72 484 1087.79 484 1086.92 484C1086.08 484 1085.15 484 1084.13 484C1083.98 484 1083.86 483.955 1083.77 483.865C1083.68 483.775 1083.64 483.655 1083.64 483.505ZM1082.56 448.27C1083.13 448.27 1083.71 448.27 1084.31 448.27C1084.94 448.27 1085.57 448.27 1086.2 448.27C1086.86 448.27 1087.49 448.27 1088.09 448.27C1088.72 448.27 1089.32 448.27 1089.89 448.27C1090.04 448.27 1090.16 448.315 1090.25 448.405C1090.34 448.495 1090.39 448.615 1090.39 448.765V454.57C1089.82 454.57 1089.22 454.57 1088.59 454.57C1087.99 454.57 1087.36 454.57 1086.7 454.57C1086.07 454.57 1085.44 454.57 1084.81 454.57C1084.21 454.57 1083.62 454.57 1083.05 454.57C1082.9 454.57 1082.78 454.525 1082.69 454.435C1082.6 454.345 1082.56 454.225 1082.56 454.075V448.27ZM1107.88 459.25C1108.99 459.25 1109.96 459.325 1110.8 459.475C1111.64 459.595 1112.32 459.76 1112.83 459.97C1113.37 460.15 1113.73 460.33 1113.91 460.51C1113.97 460.54 1114 460.6 1114 460.69C1114.03 460.75 1114.04 460.825 1114.04 460.915C1114.04 461.755 1114.04 462.61 1114.04 463.48C1114.04 464.35 1114.04 465.22 1114.04 466.09H1113.19C1112.38 465.73 1111.54 465.46 1110.67 465.28C1109.8 465.1 1108.85 465.01 1107.83 465.01C1106.84 465.01 1105.96 465.205 1105.18 465.595C1104.4 465.955 1103.8 466.54 1103.38 467.35C1102.96 468.16 1102.75 469.21 1102.75 470.5V473.335C1102.75 474.295 1102.87 475.135 1103.11 475.855C1103.35 476.545 1103.72 477.115 1104.23 477.565C1104.65 477.985 1105.16 478.3 1105.76 478.51C1106.36 478.69 1107.05 478.78 1107.83 478.78C1108.52 478.78 1109.17 478.75 1109.77 478.69C1110.37 478.6 1110.95 478.48 1111.52 478.33C1112.09 478.18 1112.65 477.985 1113.19 477.745H1114.04C1114.04 478.615 1114.04 479.485 1114.04 480.355C1114.04 481.225 1114.04 482.095 1114.04 482.965C1114.04 483.025 1114.03 483.085 1114 483.145C1114 483.205 1113.97 483.265 1113.91 483.325C1113.76 483.475 1113.41 483.655 1112.87 483.865C1112.36 484.045 1111.67 484.195 1110.8 484.315C1109.96 484.465 1108.99 484.54 1107.88 484.54C1106.08 484.54 1104.47 484.3 1103.06 483.82C1101.65 483.34 1100.45 482.635 1099.46 481.705C1098.47 480.745 1097.72 479.59 1097.21 478.24C1096.7 476.89 1096.45 475.36 1096.45 473.65V470.41C1096.45 468.19 1096.93 466.255 1097.89 464.605C1098.85 462.925 1100.18 461.62 1101.89 460.69C1103.6 459.73 1105.6 459.25 1107.88 459.25ZM1139.29 468.655C1139.29 469.405 1139.29 470.14 1139.29 470.86C1139.29 471.55 1139.29 472.27 1139.29 473.02C1139.29 473.74 1139.29 474.475 1139.29 475.225C1139.29 475.945 1139.29 476.65 1139.29 477.34C1139.29 477.58 1139.3 477.79 1139.33 477.97C1139.39 478.15 1139.48 478.3 1139.6 478.42C1139.69 478.51 1139.81 478.585 1139.96 478.645C1140.14 478.675 1140.34 478.69 1140.55 478.69C1140.64 478.69 1140.71 478.69 1140.77 478.69C1140.86 478.69 1140.95 478.69 1141.04 478.69H1141.9C1141.9 479.5 1141.9 480.31 1141.9 481.12C1141.9 481.9 1141.9 482.695 1141.9 483.505C1141.9 483.655 1141.85 483.775 1141.76 483.865C1141.67 483.955 1141.55 484 1141.4 484C1141.25 484 1140.88 484 1140.28 484C1139.71 484 1139.2 484 1138.75 484C1137.91 484 1137.16 483.865 1136.5 483.595C1135.84 483.325 1135.25 482.95 1134.74 482.47C1134.23 481.96 1133.84 481.36 1133.57 480.67C1133.3 479.98 1133.17 479.2 1133.17 478.33C1133.17 477.4 1133.17 476.455 1133.17 475.495C1133.17 474.535 1133.17 473.59 1133.17 472.66C1133.17 472.15 1133.17 471.67 1133.17 471.22C1133.17 470.74 1133.17 470.26 1133.17 469.78C1133.17 469.3 1133.17 468.82 1133.17 468.34C1133.17 467.47 1133.02 466.795 1132.72 466.315C1132.42 465.805 1131.92 465.445 1131.23 465.235C1130.57 465.025 1129.67 464.92 1128.53 464.92C1127.69 464.92 1126.87 464.965 1126.06 465.055C1125.28 465.145 1124.5 465.265 1123.72 465.415C1122.97 465.565 1122.2 465.775 1121.42 466.045H1120.57C1120.57 465.235 1120.57 464.425 1120.57 463.615C1120.57 462.805 1120.57 462.01 1120.57 461.23C1120.57 461.11 1120.58 461.02 1120.61 460.96C1120.64 460.9 1120.67 460.855 1120.7 460.825C1120.88 460.645 1121.38 460.435 1122.19 460.195C1123.03 459.955 1124.02 459.76 1125.16 459.61C1126.3 459.43 1127.42 459.34 1128.53 459.34C1130.42 459.34 1132.04 459.52 1133.39 459.88C1134.74 460.21 1135.85 460.75 1136.72 461.5C1137.59 462.25 1138.24 463.225 1138.66 464.425C1139.08 465.595 1139.29 467.005 1139.29 468.655ZM1124.89 477.16C1124.89 477.79 1125.05 478.27 1125.38 478.6C1125.74 478.9 1126.28 479.05 1127 479.05C1127.81 479.05 1128.61 478.96 1129.39 478.78C1130.17 478.6 1130.93 478.3 1131.68 477.88C1132.46 477.46 1133.24 476.92 1134.02 476.26V480.13H1132.67C1132.28 481.03 1131.73 481.81 1131.01 482.47C1130.32 483.1 1129.51 483.595 1128.58 483.955C1127.65 484.285 1126.63 484.45 1125.52 484.45C1124.14 484.45 1122.94 484.18 1121.92 483.64C1120.93 483.1 1120.16 482.35 1119.62 481.39C1119.08 480.4 1118.81 479.26 1118.81 477.97V476.395C1118.81 475.405 1118.98 474.52 1119.31 473.74C1119.64 472.96 1120.1 472.285 1120.7 471.715C1121.33 471.145 1122.08 470.71 1122.95 470.41C1123.82 470.08 1124.8 469.915 1125.88 469.915C1126.93 469.915 1127.95 469.915 1128.94 469.915C1129.96 469.915 1130.92 469.915 1131.82 469.915C1132.75 469.915 1133.62 469.915 1134.43 469.915C1134.7 469.915 1134.89 470.155 1135.01 470.635C1135.16 471.115 1135.25 471.655 1135.28 472.255C1135.31 472.825 1135.33 473.305 1135.33 473.695C1134.37 473.695 1133.44 473.695 1132.54 473.695C1131.64 473.695 1130.72 473.695 1129.79 473.695C1128.89 473.695 1127.96 473.695 1127 473.695C1126.64 473.695 1126.33 473.74 1126.06 473.83C1125.82 473.92 1125.61 474.055 1125.43 474.235C1125.28 474.415 1125.14 474.625 1125.02 474.865C1124.93 475.075 1124.89 475.315 1124.89 475.585V477.16ZM1147.1 456.055C1147.1 454.945 1147.1 453.925 1147.1 452.995C1147.1 452.065 1147.1 451.15 1147.1 450.25C1147.94 450.25 1148.54 450.25 1148.9 450.25C1149.26 450.25 1149.51 450.25 1149.66 450.25C1149.84 450.25 1149.99 450.25 1150.11 450.25C1150.26 450.25 1150.52 450.25 1150.88 450.25C1151.24 450.25 1151.84 450.25 1152.68 450.25C1152.8 450.25 1152.89 450.28 1152.95 450.34C1153.01 450.37 1153.05 450.415 1153.08 450.475C1153.14 450.535 1153.17 450.625 1153.17 450.745C1153.17 452.485 1153.17 454.225 1153.17 455.965C1153.17 457.675 1153.17 459.385 1153.17 461.095C1153.17 462.805 1153.17 464.53 1153.17 466.27C1153.17 467.98 1153.17 469.705 1153.17 471.445C1153.17 473.155 1153.17 474.88 1153.17 476.62C1153.17 476.92 1153.19 477.16 1153.22 477.34C1153.28 477.52 1153.38 477.685 1153.53 477.835C1153.68 477.985 1153.86 478.09 1154.07 478.15C1154.28 478.21 1154.55 478.24 1154.88 478.24C1155 478.24 1155.15 478.24 1155.33 478.24C1155.54 478.24 1155.74 478.24 1155.92 478.24C1156.13 478.24 1156.31 478.24 1156.46 478.24C1156.64 478.24 1156.76 478.24 1156.82 478.24H1157.22C1157.22 479.05 1157.22 479.935 1157.22 480.895C1157.22 481.825 1157.22 482.695 1157.22 483.505C1157.22 483.655 1157.18 483.775 1157.09 483.865C1157 483.955 1156.88 484 1156.73 484C1156.64 484 1156.53 484 1156.41 484C1156.32 484 1156.16 484 1155.92 484C1155.71 484 1155.39 484 1154.97 484C1154.55 484 1153.97 484 1153.22 484C1152.2 484 1151.31 483.865 1150.56 483.595C1149.81 483.295 1149.17 482.875 1148.63 482.335C1148.12 481.765 1147.73 481.06 1147.46 480.22C1147.22 479.35 1147.1 478.33 1147.1 477.16C1147.1 475.42 1147.1 473.68 1147.1 471.94C1147.1 470.17 1147.1 468.4 1147.1 466.63C1147.1 464.86 1147.1 463.105 1147.1 461.365C1147.1 459.595 1147.1 457.825 1147.1 456.055ZM963.492 543.555C965.292 543.555 966.522 543.36 967.182 542.97C967.842 542.55 968.172 542.07 968.172 541.53C968.172 541.2 968.082 540.9 967.902 540.63C967.752 540.36 967.467 540.135 967.047 539.955C966.657 539.745 966.087 539.58 965.337 539.46L960.702 538.785C959.262 538.545 958.062 538.14 957.102 537.57C956.142 536.97 955.422 536.22 954.942 535.32C954.492 534.42 954.267 533.415 954.267 532.305C954.267 531.045 954.507 529.935 954.987 528.975C955.497 527.985 956.232 527.145 957.192 526.455C958.152 525.765 959.337 525.24 960.747 524.88C962.157 524.52 963.762 524.34 965.562 524.34C966.522 524.34 967.407 524.385 968.217 524.475C969.027 524.535 969.762 524.625 970.422 524.745C971.082 524.865 971.667 525 972.177 525.15C972.387 525.21 972.537 525.285 972.627 525.375C972.747 525.435 972.807 525.525 972.807 525.645C972.837 525.765 972.852 525.945 972.852 526.185C972.852 526.815 972.852 527.61 972.852 528.57C972.852 529.5 972.852 530.37 972.852 531.18H972.042C971.232 530.97 970.452 530.79 969.702 530.64C968.952 530.49 968.187 530.385 967.407 530.325C966.627 530.265 965.802 530.235 964.932 530.235C963.732 530.235 962.787 530.325 962.097 530.505C961.437 530.655 960.972 530.865 960.702 531.135C960.432 531.405 960.297 531.72 960.297 532.08C960.297 532.41 960.372 532.71 960.522 532.98C960.702 533.22 960.987 533.415 961.377 533.565C961.767 533.715 962.307 533.85 962.997 533.97L967.227 534.6C968.697 534.78 969.942 535.17 970.962 535.77C971.982 536.34 972.762 537.105 973.302 538.065C973.872 538.995 974.157 540.12 974.157 541.44C974.157 543.06 973.737 544.47 972.897 545.67C972.087 546.87 970.887 547.8 969.297 548.46C967.707 549.12 965.757 549.45 963.447 549.45C962.367 549.45 961.362 549.405 960.432 549.315C959.502 549.255 958.632 549.15 957.822 549C957.042 548.88 956.337 548.73 955.707 548.55C955.077 548.37 954.537 548.175 954.087 547.965C953.907 547.905 953.787 547.83 953.727 547.74C953.697 547.65 953.682 547.485 953.682 547.245C953.682 546.555 953.682 545.73 953.682 544.77C953.682 543.81 953.682 542.88 953.682 541.98H954.492C955.212 542.28 955.902 542.535 956.562 542.745C957.252 542.925 957.942 543.075 958.632 543.195C959.352 543.315 960.102 543.405 960.882 543.465C961.692 543.525 962.562 543.555 963.492 543.555ZM977.139 524.79H994.509C994.689 524.79 994.824 524.835 994.914 524.925C995.004 525.015 995.049 525.135 995.049 525.285C995.049 525.915 995.049 526.5 995.049 527.04C995.049 527.58 995.049 528.135 995.049 528.705C995.049 529.275 995.049 529.86 995.049 530.46H977.679C977.619 530.46 977.559 530.445 977.499 530.415C977.439 530.385 977.379 530.355 977.319 530.325C977.259 530.265 977.214 530.205 977.184 530.145C977.154 530.085 977.139 530.025 977.139 529.965C977.139 529.365 977.139 528.78 977.139 528.21C977.139 527.64 977.139 527.085 977.139 526.545C977.139 526.005 977.139 525.42 977.139 524.79ZM995.049 543.195C995.049 544.095 995.049 544.995 995.049 545.895C995.049 546.765 995.049 547.635 995.049 548.505C995.049 548.625 995.004 548.745 994.914 548.865C994.824 548.955 994.704 549 994.554 549C994.254 549 993.939 549 993.609 549C993.309 549 992.994 549 992.664 549C992.364 549 992.064 549 991.764 549C991.464 549 991.149 549 990.819 549C989.259 549 987.864 548.82 986.634 548.46C985.404 548.07 984.354 547.485 983.484 546.705C982.614 545.925 981.954 544.92 981.504 543.69C981.054 542.46 980.829 541.005 980.829 539.325C980.829 537.855 980.829 536.4 980.829 534.96C980.829 533.52 980.829 532.08 980.829 530.64C980.829 529.2 980.829 527.76 980.829 526.32C980.829 524.88 980.829 523.44 980.829 522C980.829 521.22 980.829 520.47 980.829 519.75C980.829 519 980.829 518.25 980.829 517.5C981.759 517.5 982.689 517.5 983.619 517.5C984.579 517.5 985.509 517.5 986.409 517.5C986.499 517.5 986.574 517.53 986.634 517.59C986.724 517.62 986.784 517.68 986.814 517.77C986.874 517.83 986.904 517.905 986.904 517.995C986.904 519.735 986.904 521.475 986.904 523.215C986.904 524.925 986.904 526.65 986.904 528.39C986.904 530.13 986.904 531.87 986.904 533.61C986.904 535.32 986.904 537.045 986.904 538.785C986.904 539.685 986.994 540.42 987.174 540.99C987.354 541.56 987.624 542.025 987.984 542.385C988.314 542.685 988.719 542.895 989.199 543.015C989.709 543.135 990.324 543.195 991.044 543.195C991.434 543.195 991.809 543.195 992.169 543.195C992.559 543.195 992.949 543.195 993.339 543.195C993.729 543.195 994.119 543.195 994.509 543.195H995.049ZM1006.84 529.11H1008.64C1009 528 1009.42 527.1 1009.9 526.41C1010.38 525.69 1010.96 525.165 1011.65 524.835C1012.37 524.505 1013.18 524.34 1014.08 524.34C1014.56 524.34 1014.95 524.385 1015.25 524.475C1015.58 524.565 1015.81 524.655 1015.93 524.745C1016.05 524.835 1016.12 524.925 1016.15 525.015C1016.18 525.075 1016.2 525.18 1016.2 525.33C1016.2 525.81 1016.2 526.29 1016.2 526.77C1016.2 527.22 1016.2 527.67 1016.2 528.12C1016.2 528.57 1016.2 529.035 1016.2 529.515C1016.2 529.965 1016.2 530.43 1016.2 530.91H1015.34C1015.04 530.82 1014.71 530.745 1014.35 530.685C1013.99 530.625 1013.59 530.595 1013.14 530.595C1012.21 530.595 1011.38 530.775 1010.66 531.135C1009.97 531.495 1009.33 532.005 1008.73 532.665C1008.13 533.295 1007.5 534.045 1006.84 534.915V529.11ZM1007.69 549C1007.03 549 1006.36 549 1005.67 549C1005.01 549 1004.35 549 1003.69 549C1003.03 549 1002.37 549 1001.71 549C1001.62 549 1001.54 549 1001.48 549C1001.42 548.97 1001.36 548.94 1001.3 548.91C1001.27 548.85 1001.24 548.79 1001.21 548.73C1001.21 548.67 1001.21 548.595 1001.21 548.505C1001.21 547.395 1001.21 546.225 1001.21 544.995C1001.21 543.735 1001.21 542.445 1001.21 541.125C1001.21 539.805 1001.21 538.485 1001.21 537.165C1001.21 535.815 1001.21 534.48 1001.21 533.16C1001.21 531.81 1001.21 530.49 1001.21 529.2C1001.21 528.36 1001.21 527.565 1001.21 526.815C1001.21 526.065 1001.21 525.39 1001.21 524.79C1001.96 524.79 1002.67 524.79 1003.33 524.79C1004.02 524.79 1004.68 524.79 1005.31 524.79C1005.97 524.79 1006.6 524.79 1007.2 524.79C1007.32 524.79 1007.41 524.82 1007.47 524.88C1007.53 524.91 1007.57 524.955 1007.6 525.015C1007.66 525.075 1007.69 525.165 1007.69 525.285C1007.69 526.665 1007.69 528.12 1007.69 529.65C1007.69 531.18 1007.69 532.74 1007.69 534.33C1007.69 535.92 1007.69 537.555 1007.69 539.235C1007.69 540.885 1007.69 542.535 1007.69 544.185C1007.69 545.805 1007.69 547.41 1007.69 549ZM1030.76 524.25C1032.8 524.25 1034.57 524.67 1036.07 525.51C1037.6 526.35 1038.79 527.52 1039.63 529.02C1040.47 530.52 1040.89 532.275 1040.89 534.285V538.02C1040.89 538.11 1040.87 538.2 1040.84 538.29C1040.81 538.35 1040.75 538.395 1040.66 538.425C1040.6 538.455 1040.53 538.47 1040.44 538.47H1030.09C1029.58 538.47 1029.05 538.47 1028.51 538.47C1028 538.47 1027.49 538.47 1026.98 538.47H1025.14L1025 534.69H1034.99C1034.99 534.57 1034.99 534.465 1034.99 534.375C1034.99 534.285 1034.99 534.18 1034.99 534.06C1034.99 533.19 1034.9 532.455 1034.72 531.855C1034.54 531.225 1034.26 530.73 1033.87 530.37C1033.54 530.01 1033.12 529.755 1032.61 529.605C1032.1 529.455 1031.48 529.38 1030.76 529.38C1029.26 529.38 1028.14 529.755 1027.39 530.505C1026.67 531.225 1026.31 532.41 1026.31 534.06V539.55C1026.31 540.27 1026.4 540.915 1026.58 541.485C1026.79 542.025 1027.07 542.49 1027.43 542.88C1027.91 543.36 1028.54 543.705 1029.32 543.915C1030.13 544.125 1031.06 544.23 1032.11 544.23C1033.19 544.23 1034.15 544.185 1034.99 544.095C1035.83 543.975 1036.61 543.825 1037.33 543.645C1038.05 543.435 1038.76 543.21 1039.45 542.97H1040.3C1040.3 543.72 1040.3 544.485 1040.3 545.265C1040.3 546.015 1040.3 546.78 1040.3 547.56C1040.3 547.62 1040.29 547.68 1040.26 547.74C1040.23 547.8 1040.18 547.86 1040.12 547.92C1039.88 548.16 1039.34 548.4 1038.5 548.64C1037.69 548.88 1036.7 549.09 1035.53 549.27C1034.39 549.45 1033.22 549.54 1032.02 549.54C1030.07 549.54 1028.35 549.315 1026.85 548.865C1025.38 548.385 1024.15 547.71 1023.16 546.84C1022.2 545.97 1021.46 544.92 1020.95 543.69C1020.47 542.43 1020.23 541.02 1020.23 539.46V534.33C1020.23 532.8 1020.47 531.42 1020.95 530.19C1021.46 528.96 1022.18 527.91 1023.11 527.04C1024.04 526.14 1025.15 525.45 1026.44 524.97C1027.73 524.49 1029.17 524.25 1030.76 524.25ZM1056.22 543.555C1058.02 543.555 1059.25 543.36 1059.91 542.97C1060.57 542.55 1060.9 542.07 1060.9 541.53C1060.9 541.2 1060.81 540.9 1060.63 540.63C1060.48 540.36 1060.19 540.135 1059.77 539.955C1059.38 539.745 1058.81 539.58 1058.06 539.46L1053.43 538.785C1051.99 538.545 1050.79 538.14 1049.83 537.57C1048.87 536.97 1048.15 536.22 1047.67 535.32C1047.22 534.42 1046.99 533.415 1046.99 532.305C1046.99 531.045 1047.23 529.935 1047.71 528.975C1048.22 527.985 1048.96 527.145 1049.92 526.455C1050.88 525.765 1052.06 525.24 1053.47 524.88C1054.88 524.52 1056.49 524.34 1058.29 524.34C1059.25 524.34 1060.13 524.385 1060.94 524.475C1061.75 524.535 1062.49 524.625 1063.15 524.745C1063.81 524.865 1064.39 525 1064.9 525.15C1065.11 525.21 1065.26 525.285 1065.35 525.375C1065.47 525.435 1065.53 525.525 1065.53 525.645C1065.56 525.765 1065.58 525.945 1065.58 526.185C1065.58 526.815 1065.58 527.61 1065.58 528.57C1065.58 529.5 1065.58 530.37 1065.58 531.18H1064.77C1063.96 530.97 1063.18 530.79 1062.43 530.64C1061.68 530.49 1060.91 530.385 1060.13 530.325C1059.35 530.265 1058.53 530.235 1057.66 530.235C1056.46 530.235 1055.51 530.325 1054.82 530.505C1054.16 530.655 1053.7 530.865 1053.43 531.135C1053.16 531.405 1053.02 531.72 1053.02 532.08C1053.02 532.41 1053.1 532.71 1053.25 532.98C1053.43 533.22 1053.71 533.415 1054.1 533.565C1054.49 533.715 1055.03 533.85 1055.72 533.97L1059.95 534.6C1061.42 534.78 1062.67 535.17 1063.69 535.77C1064.71 536.34 1065.49 537.105 1066.03 538.065C1066.6 538.995 1066.88 540.12 1066.88 541.44C1066.88 543.06 1066.46 544.47 1065.62 545.67C1064.81 546.87 1063.61 547.8 1062.02 548.46C1060.43 549.12 1058.48 549.45 1056.17 549.45C1055.09 549.45 1054.09 549.405 1053.16 549.315C1052.23 549.255 1051.36 549.15 1050.55 549C1049.77 548.88 1049.06 548.73 1048.43 548.55C1047.8 548.37 1047.26 548.175 1046.81 547.965C1046.63 547.905 1046.51 547.83 1046.45 547.74C1046.42 547.65 1046.41 547.485 1046.41 547.245C1046.41 546.555 1046.41 545.73 1046.41 544.77C1046.41 543.81 1046.41 542.88 1046.41 541.98H1047.22C1047.94 542.28 1048.63 542.535 1049.29 542.745C1049.98 542.925 1050.67 543.075 1051.36 543.195C1052.08 543.315 1052.83 543.405 1053.61 543.465C1054.42 543.525 1055.29 543.555 1056.22 543.555ZM1080.96 543.555C1082.76 543.555 1083.99 543.36 1084.65 542.97C1085.31 542.55 1085.64 542.07 1085.64 541.53C1085.64 541.2 1085.55 540.9 1085.37 540.63C1085.22 540.36 1084.93 540.135 1084.51 539.955C1084.12 539.745 1083.55 539.58 1082.8 539.46L1078.17 538.785C1076.73 538.545 1075.53 538.14 1074.57 537.57C1073.61 536.97 1072.89 536.22 1072.41 535.32C1071.96 534.42 1071.73 533.415 1071.73 532.305C1071.73 531.045 1071.97 529.935 1072.45 528.975C1072.96 527.985 1073.7 527.145 1074.66 526.455C1075.62 525.765 1076.8 525.24 1078.21 524.88C1079.62 524.52 1081.23 524.34 1083.03 524.34C1083.99 524.34 1084.87 524.385 1085.68 524.475C1086.49 524.535 1087.23 524.625 1087.89 524.745C1088.55 524.865 1089.13 525 1089.64 525.15C1089.85 525.21 1090 525.285 1090.09 525.375C1090.21 525.435 1090.27 525.525 1090.27 525.645C1090.3 525.765 1090.32 525.945 1090.32 526.185C1090.32 526.815 1090.32 527.61 1090.32 528.57C1090.32 529.5 1090.32 530.37 1090.32 531.18H1089.51C1088.7 530.97 1087.92 530.79 1087.17 530.64C1086.42 530.49 1085.65 530.385 1084.87 530.325C1084.09 530.265 1083.27 530.235 1082.4 530.235C1081.2 530.235 1080.25 530.325 1079.56 530.505C1078.9 530.655 1078.44 530.865 1078.17 531.135C1077.9 531.405 1077.76 531.72 1077.76 532.08C1077.76 532.41 1077.84 532.71 1077.99 532.98C1078.17 533.22 1078.45 533.415 1078.84 533.565C1079.23 533.715 1079.77 533.85 1080.46 533.97L1084.69 534.6C1086.16 534.78 1087.41 535.17 1088.43 535.77C1089.45 536.34 1090.23 537.105 1090.77 538.065C1091.34 538.995 1091.62 540.12 1091.62 541.44C1091.62 543.06 1091.2 544.47 1090.36 545.67C1089.55 546.87 1088.35 547.8 1086.76 548.46C1085.17 549.12 1083.22 549.45 1080.91 549.45C1079.83 549.45 1078.83 549.405 1077.9 549.315C1076.97 549.255 1076.1 549.15 1075.29 549C1074.51 548.88 1073.8 548.73 1073.17 548.55C1072.54 548.37 1072 548.175 1071.55 547.965C1071.37 547.905 1071.25 547.83 1071.19 547.74C1071.16 547.65 1071.15 547.485 1071.15 547.245C1071.15 546.555 1071.15 545.73 1071.15 544.77C1071.15 543.81 1071.15 542.88 1071.15 541.98H1071.96C1072.68 542.28 1073.37 542.535 1074.03 542.745C1074.72 542.925 1075.41 543.075 1076.1 543.195C1076.82 543.315 1077.57 543.405 1078.35 543.465C1079.16 543.525 1080.03 543.555 1080.96 543.555ZM1130.08 533.655C1130.08 534.405 1130.08 535.14 1130.08 535.86C1130.08 536.55 1130.08 537.27 1130.08 538.02C1130.08 538.74 1130.08 539.475 1130.08 540.225C1130.08 540.945 1130.08 541.65 1130.08 542.34C1130.08 542.58 1130.09 542.79 1130.12 542.97C1130.18 543.15 1130.27 543.3 1130.39 543.42C1130.48 543.51 1130.6 543.585 1130.75 543.645C1130.93 543.675 1131.13 543.69 1131.34 543.69C1131.43 543.69 1131.5 543.69 1131.56 543.69C1131.65 543.69 1131.74 543.69 1131.83 543.69H1132.69C1132.69 544.5 1132.69 545.31 1132.69 546.12C1132.69 546.9 1132.69 547.695 1132.69 548.505C1132.69 548.655 1132.64 548.775 1132.55 548.865C1132.46 548.955 1132.34 549 1132.19 549C1132.04 549 1131.67 549 1131.07 549C1130.5 549 1129.99 549 1129.54 549C1128.7 549 1127.95 548.865 1127.29 548.595C1126.63 548.325 1126.04 547.95 1125.53 547.47C1125.02 546.96 1124.63 546.36 1124.36 545.67C1124.09 544.98 1123.96 544.2 1123.96 543.33C1123.96 542.4 1123.96 541.455 1123.96 540.495C1123.96 539.535 1123.96 538.59 1123.96 537.66C1123.96 537.15 1123.96 536.67 1123.96 536.22C1123.96 535.74 1123.96 535.26 1123.96 534.78C1123.96 534.3 1123.96 533.82 1123.96 533.34C1123.96 532.47 1123.81 531.795 1123.51 531.315C1123.21 530.805 1122.71 530.445 1122.02 530.235C1121.36 530.025 1120.46 529.92 1119.32 529.92C1118.48 529.92 1117.66 529.965 1116.85 530.055C1116.07 530.145 1115.29 530.265 1114.51 530.415C1113.76 530.565 1112.99 530.775 1112.21 531.045H1111.36C1111.36 530.235 1111.36 529.425 1111.36 528.615C1111.36 527.805 1111.36 527.01 1111.36 526.23C1111.36 526.11 1111.37 526.02 1111.4 525.96C1111.43 525.9 1111.46 525.855 1111.49 525.825C1111.67 525.645 1112.17 525.435 1112.98 525.195C1113.82 524.955 1114.81 524.76 1115.95 524.61C1117.09 524.43 1118.21 524.34 1119.32 524.34C1121.21 524.34 1122.83 524.52 1124.18 524.88C1125.53 525.21 1126.64 525.75 1127.51 526.5C1128.38 527.25 1129.03 528.225 1129.45 529.425C1129.87 530.595 1130.08 532.005 1130.08 533.655ZM1115.68 542.16C1115.68 542.79 1115.84 543.27 1116.17 543.6C1116.53 543.9 1117.07 544.05 1117.79 544.05C1118.6 544.05 1119.4 543.96 1120.18 543.78C1120.96 543.6 1121.72 543.3 1122.47 542.88C1123.25 542.46 1124.03 541.92 1124.81 541.26V545.13H1123.46C1123.07 546.03 1122.52 546.81 1121.8 547.47C1121.11 548.1 1120.3 548.595 1119.37 548.955C1118.44 549.285 1117.42 549.45 1116.31 549.45C1114.93 549.45 1113.73 549.18 1112.71 548.64C1111.72 548.1 1110.95 547.35 1110.41 546.39C1109.87 545.4 1109.6 544.26 1109.6 542.97V541.395C1109.6 540.405 1109.77 539.52 1110.1 538.74C1110.43 537.96 1110.89 537.285 1111.49 536.715C1112.12 536.145 1112.87 535.71 1113.74 535.41C1114.61 535.08 1115.59 534.915 1116.67 534.915C1117.72 534.915 1118.74 534.915 1119.73 534.915C1120.75 534.915 1121.71 534.915 1122.61 534.915C1123.54 534.915 1124.41 534.915 1125.22 534.915C1125.49 534.915 1125.68 535.155 1125.8 535.635C1125.95 536.115 1126.04 536.655 1126.07 537.255C1126.1 537.825 1126.12 538.305 1126.12 538.695C1125.16 538.695 1124.23 538.695 1123.33 538.695C1122.43 538.695 1121.51 538.695 1120.58 538.695C1119.68 538.695 1118.75 538.695 1117.79 538.695C1117.43 538.695 1117.12 538.74 1116.85 538.83C1116.61 538.92 1116.4 539.055 1116.22 539.235C1116.07 539.415 1115.93 539.625 1115.81 539.865C1115.72 540.075 1115.68 540.315 1115.68 540.585V542.16ZM1136.41 524.79C1137.46 524.79 1138.54 524.79 1139.65 524.79C1140.76 524.79 1141.84 524.79 1142.89 524.79C1143.1 524.79 1143.26 524.835 1143.38 524.925C1143.5 524.985 1143.62 525.09 1143.74 525.24C1144.52 526.77 1145.29 528.315 1146.04 529.875C1146.82 531.435 1147.6 532.965 1148.38 534.465L1150.49 535.275C1151.93 537.555 1153.37 539.835 1154.81 542.115C1156.28 544.395 1157.74 546.69 1159.18 549C1158.64 549 1158.1 549 1157.56 549C1157.02 549 1156.49 549 1155.98 549C1155.5 549 1155.04 549 1154.59 549C1154.14 549 1153.73 549 1153.37 549C1152.86 549 1152.5 548.94 1152.29 548.82C1152.08 548.7 1151.86 548.445 1151.62 548.055C1151.38 547.635 1150.99 546.915 1150.45 545.895C1149.91 544.845 1149.31 543.705 1148.65 542.475C1148.02 541.245 1147.42 540.09 1146.85 539.01L1144.64 538.065C1143.26 535.845 1141.88 533.64 1140.5 531.45C1139.15 529.23 1137.79 527.01 1136.41 524.79ZM1144.78 535.23L1149.46 540.765H1147.03C1146.61 541.695 1146.17 542.61 1145.72 543.51C1145.27 544.41 1144.82 545.325 1144.37 546.255C1143.92 547.155 1143.47 548.07 1143.02 549H1136.9C1136.72 549 1136.59 548.955 1136.5 548.865C1136.41 548.775 1136.36 548.655 1136.36 548.505C1136.36 548.415 1136.38 548.325 1136.41 548.235C1136.47 548.115 1136.56 547.965 1136.68 547.785C1138.03 545.685 1139.38 543.585 1140.73 541.485C1142.08 539.385 1143.43 537.3 1144.78 535.23ZM1158.28 524.79C1158.43 524.79 1158.55 524.835 1158.64 524.925C1158.76 524.985 1158.82 525.12 1158.82 525.33C1158.82 525.36 1158.8 525.42 1158.77 525.51C1158.74 525.57 1158.7 525.66 1158.64 525.78C1157.32 527.85 1155.97 529.935 1154.59 532.035C1153.24 534.135 1151.9 536.235 1150.58 538.335L1146.13 533.16H1148.38C1148.8 532.23 1149.2 531.3 1149.59 530.37C1149.98 529.44 1150.37 528.51 1150.76 527.58C1151.18 526.65 1151.6 525.72 1152.02 524.79H1158.28ZM1166.63 548.505C1166.63 547.695 1166.63 546.69 1166.63 545.49C1166.63 544.26 1166.63 542.94 1166.63 541.53C1166.63 540.12 1166.63 538.71 1166.63 537.3C1166.63 535.89 1166.63 534.57 1166.63 533.34C1166.63 532.11 1166.63 531.075 1166.63 530.235H1166.31C1166.13 530.235 1165.92 530.235 1165.68 530.235C1165.47 530.235 1165.23 530.235 1164.96 530.235C1164.72 530.235 1164.47 530.235 1164.2 530.235C1163.96 530.235 1163.72 530.235 1163.48 530.235C1163.33 530.235 1163.21 530.19 1163.12 530.1C1163.03 530.01 1162.98 529.89 1162.98 529.74C1162.98 528.93 1162.98 528.105 1162.98 527.265C1162.98 526.425 1162.98 525.6 1162.98 524.79C1163.49 524.79 1164.06 524.79 1164.69 524.79C1165.35 524.79 1166.04 524.79 1166.76 524.79C1167.48 524.79 1168.19 524.79 1168.88 524.79C1169.57 524.79 1170.2 524.79 1170.77 524.79C1171.37 524.79 1171.85 524.79 1172.21 524.79C1172.33 524.79 1172.42 524.82 1172.48 524.88C1172.54 524.91 1172.58 524.955 1172.61 525.015C1172.67 525.075 1172.7 525.165 1172.7 525.285C1172.7 526.695 1172.7 528.24 1172.7 529.92C1172.7 531.57 1172.7 533.25 1172.7 534.96C1172.7 536.67 1172.7 538.35 1172.7 540C1172.7 541.65 1172.7 543.195 1172.7 544.635C1172.7 545.085 1172.7 545.565 1172.7 546.075C1172.7 546.555 1172.7 547.035 1172.7 547.515C1172.7 547.995 1172.7 548.49 1172.7 549C1171.71 549 1170.78 549 1169.91 549C1169.07 549 1168.14 549 1167.12 549C1166.97 549 1166.85 548.955 1166.76 548.865C1166.67 548.775 1166.63 548.655 1166.63 548.505ZM1165.55 513.27C1166.12 513.27 1166.7 513.27 1167.3 513.27C1167.93 513.27 1168.56 513.27 1169.19 513.27C1169.85 513.27 1170.48 513.27 1171.08 513.27C1171.71 513.27 1172.31 513.27 1172.88 513.27C1173.03 513.27 1173.15 513.315 1173.24 513.405C1173.33 513.495 1173.38 513.615 1173.38 513.765V519.57C1172.81 519.57 1172.21 519.57 1171.58 519.57C1170.98 519.57 1170.35 519.57 1169.69 519.57C1169.06 519.57 1168.43 519.57 1167.8 519.57C1167.2 519.57 1166.61 519.57 1166.04 519.57C1165.89 519.57 1165.77 519.525 1165.68 519.435C1165.59 519.345 1165.55 519.225 1165.55 519.075V513.27ZM1188.89 543.555C1190.69 543.555 1191.92 543.36 1192.58 542.97C1193.24 542.55 1193.57 542.07 1193.57 541.53C1193.57 541.2 1193.48 540.9 1193.3 540.63C1193.15 540.36 1192.86 540.135 1192.44 539.955C1192.05 539.745 1191.48 539.58 1190.73 539.46L1186.1 538.785C1184.66 538.545 1183.46 538.14 1182.5 537.57C1181.54 536.97 1180.82 536.22 1180.34 535.32C1179.89 534.42 1179.66 533.415 1179.66 532.305C1179.66 531.045 1179.9 529.935 1180.38 528.975C1180.89 527.985 1181.63 527.145 1182.59 526.455C1183.55 525.765 1184.73 525.24 1186.14 524.88C1187.55 524.52 1189.16 524.34 1190.96 524.34C1191.92 524.34 1192.8 524.385 1193.61 524.475C1194.42 524.535 1195.16 524.625 1195.82 524.745C1196.48 524.865 1197.06 525 1197.57 525.15C1197.78 525.21 1197.93 525.285 1198.02 525.375C1198.14 525.435 1198.2 525.525 1198.2 525.645C1198.23 525.765 1198.25 525.945 1198.25 526.185C1198.25 526.815 1198.25 527.61 1198.25 528.57C1198.25 529.5 1198.25 530.37 1198.25 531.18H1197.44C1196.63 530.97 1195.85 530.79 1195.1 530.64C1194.35 530.49 1193.58 530.385 1192.8 530.325C1192.02 530.265 1191.2 530.235 1190.33 530.235C1189.13 530.235 1188.18 530.325 1187.49 530.505C1186.83 530.655 1186.37 530.865 1186.1 531.135C1185.83 531.405 1185.69 531.72 1185.69 532.08C1185.69 532.41 1185.77 532.71 1185.92 532.98C1186.1 533.22 1186.38 533.415 1186.77 533.565C1187.16 533.715 1187.7 533.85 1188.39 533.97L1192.62 534.6C1194.09 534.78 1195.34 535.17 1196.36 535.77C1197.38 536.34 1198.16 537.105 1198.7 538.065C1199.27 538.995 1199.55 540.12 1199.55 541.44C1199.55 543.06 1199.13 544.47 1198.29 545.67C1197.48 546.87 1196.28 547.8 1194.69 548.46C1193.1 549.12 1191.15 549.45 1188.84 549.45C1187.76 549.45 1186.76 549.405 1185.83 549.315C1184.9 549.255 1184.03 549.15 1183.22 549C1182.44 548.88 1181.73 548.73 1181.1 548.55C1180.47 548.37 1179.93 548.175 1179.48 547.965C1179.3 547.905 1179.18 547.83 1179.12 547.74C1179.09 547.65 1179.08 547.485 1179.08 547.245C1179.08 546.555 1179.08 545.73 1179.08 544.77C1179.08 543.81 1179.08 542.88 1179.08 541.98H1179.89C1180.61 542.28 1181.3 542.535 1181.96 542.745C1182.65 542.925 1183.34 543.075 1184.03 543.195C1184.75 543.315 1185.5 543.405 1186.28 543.465C1187.09 543.525 1187.96 543.555 1188.89 543.555Z" fill="#FFF0DD"/>
<rect x="764" y="70" width="622" height="622" fill="#6899BF"/>
<rect x="848" y="161" width="118" height="196" rx="2" fill="#FFF0DD"/>
<path d="M939.197 280.96C939.197 289.827 936.071 296.64 929.817 301.4C923.657 306.067 915.631 308.4 905.737 308.4C899.671 308.4 893.931 307.7 888.517 306.3C883.104 304.807 878.811 302.847 875.637 300.42L877.737 281.1L887.957 282.08L887.677 293.42C890.757 295.007 893.697 296.08 896.497 296.64C899.391 297.107 902.237 297.34 905.037 297.34C910.824 297.34 915.677 296.267 919.597 294.12C923.611 291.88 925.617 287.913 925.617 282.22C925.617 275.873 923.377 271.72 918.897 269.76C914.511 267.707 909.564 266.12 904.057 265C899.671 264.067 895.331 262.9 891.037 261.5C886.837 260.1 883.291 257.813 880.397 254.64C877.597 251.373 876.197 246.66 876.197 240.5C876.197 231.447 879.231 224.867 885.297 220.76C891.364 216.653 898.364 214.6 906.297 214.6C911.617 214.6 916.891 215.393 922.117 216.98C927.344 218.473 931.404 220.433 934.297 222.86L935.137 241.48L924.917 242.46L923.377 229.72C920.671 228.227 917.917 227.2 915.117 226.64C912.317 226.08 909.657 225.8 907.137 225.8C902.004 225.8 897.804 226.92 894.537 229.16C891.364 231.4 889.777 234.713 889.777 239.1C889.777 244.233 891.737 247.733 895.657 249.6C899.577 251.373 903.917 252.82 908.677 253.94C912.597 254.78 916.937 255.947 921.697 257.44C926.457 258.84 930.564 261.313 934.017 264.86C937.471 268.407 939.197 273.773 939.197 280.96Z" fill="#6899BF"/>
<rect x="987" y="161" width="81" height="196" rx="2" fill="#FFF0DD"/>
<path d="M1043.71 307H1011.23V297.48H1021.31V220.34H1010.81V210.68H1033.63V297.48H1043.71V307Z" fill="#6899BF"/>
<rect x="1089" y="161" width="88" height="196" rx="2" fill="#FFF0DD"/>
<path d="M1109.6 249.18C1113.43 246.94 1117.16 245.4 1120.8 244.56C1124.54 243.627 1128.6 243.16 1132.98 243.16C1140.08 243.16 1145.68 244.887 1149.78 248.34C1153.98 251.793 1156.08 257.113 1156.08 264.3V293.28C1156.08 297.387 1157.72 299.44 1160.98 299.44C1162.29 299.44 1163.55 299.207 1164.76 298.74L1164.9 306.02C1162.29 307.607 1159.26 308.4 1155.8 308.4C1148.24 308.4 1144.23 304.2 1143.76 295.8V295.66C1141.9 298.927 1139.19 301.867 1135.64 304.48C1132.19 307.093 1127.94 308.4 1122.9 308.4C1118.61 308.4 1114.32 307.093 1110.02 304.48C1105.82 301.867 1103.72 297.293 1103.72 290.76C1103.72 282.92 1106.8 277.787 1112.96 275.36C1119.22 272.84 1125.89 271.58 1132.98 271.58C1137.28 271.58 1140.87 271.767 1143.76 272.14V267.52C1143.76 263.413 1142.97 259.913 1141.38 257.02C1139.8 254.127 1136.25 252.68 1130.74 252.68C1126.26 252.68 1122.48 253.473 1119.4 255.06L1117.02 265.28L1107.08 264.16L1109.6 249.18ZM1143.76 282.92V279.28C1142.08 279.093 1140.31 278.953 1138.44 278.86C1136.67 278.673 1134.85 278.58 1132.98 278.58C1128.69 278.58 1124.86 279.28 1121.5 280.68C1118.14 282.08 1116.46 284.973 1116.46 289.36C1116.46 292.72 1117.49 295.147 1119.54 296.64C1121.69 298.133 1124.12 298.88 1126.82 298.88C1130.84 298.88 1134.57 297.48 1138.02 294.68C1141.48 291.88 1143.39 287.96 1143.76 282.92Z" fill="#6899BF"/>
<rect x="1198" y="161" width="105" height="196" rx="2" fill="#FFF0DD"/>
<path d="M1283.61 274.24C1283.61 282.733 1281.37 290.573 1276.89 297.76C1272.41 304.853 1265.27 308.4 1255.47 308.4C1245.29 308.4 1238.15 304.573 1234.05 296.92C1233.95 297.667 1233.72 299.347 1233.35 301.96C1233.07 304.573 1232.88 306.253 1232.79 307H1220.47C1220.93 304.107 1221.4 301.073 1221.87 297.9C1222.33 294.727 1222.57 291.6 1222.57 288.52V220.34H1212.49V210.68H1234.89V257.02C1236.75 253.287 1239.37 250.067 1242.73 247.36C1246.18 244.56 1250.89 243.16 1256.87 243.16C1264.61 243.16 1271.01 245.867 1276.05 251.28C1281.09 256.693 1283.61 264.347 1283.61 274.24ZM1270.73 275.22C1270.73 268.033 1269.05 262.573 1265.69 258.84C1262.42 255.107 1258.31 253.24 1253.37 253.24C1247.67 253.24 1243.19 255.34 1239.93 259.54C1236.66 263.74 1234.98 268.127 1234.89 272.7V279.7C1234.89 284.927 1236.57 289.36 1239.93 293C1243.29 296.547 1247.53 298.32 1252.67 298.32C1258.73 298.32 1263.26 296.08 1266.25 291.6C1269.23 287.12 1270.73 281.66 1270.73 275.22Z" fill="#6899BF"/>
<rect x="806" y="405" width="118" height="196" rx="2" fill="#FFF0DD"/>
<path d="M897.197 524.96C897.197 533.827 894.071 540.64 887.817 545.4C881.657 550.067 873.631 552.4 863.737 552.4C857.671 552.4 851.931 551.7 846.517 550.3C841.104 548.807 836.811 546.847 833.637 544.42L835.737 525.1L845.957 526.08L845.677 537.42C848.757 539.007 851.697 540.08 854.497 540.64C857.391 541.107 860.237 541.34 863.037 541.34C868.824 541.34 873.677 540.267 877.597 538.12C881.611 535.88 883.617 531.913 883.617 526.22C883.617 519.873 881.377 515.72 876.897 513.76C872.511 511.707 867.564 510.12 862.057 509C857.671 508.067 853.331 506.9 849.037 505.5C844.837 504.1 841.291 501.813 838.397 498.64C835.597 495.373 834.197 490.66 834.197 484.5C834.197 475.447 837.231 468.867 843.297 464.76C849.364 460.653 856.364 458.6 864.297 458.6C869.617 458.6 874.891 459.393 880.117 460.98C885.344 462.473 889.404 464.433 892.297 466.86L893.137 485.48L882.917 486.46L881.377 473.72C878.671 472.227 875.917 471.2 873.117 470.64C870.317 470.08 867.657 469.8 865.137 469.8C860.004 469.8 855.804 470.92 852.537 473.16C849.364 475.4 847.777 478.713 847.777 483.1C847.777 488.233 849.737 491.733 853.657 493.6C857.577 495.373 861.917 496.82 866.677 497.94C870.597 498.78 874.937 499.947 879.697 501.44C884.457 502.84 888.564 505.313 892.017 508.86C895.471 512.407 897.197 517.773 897.197 524.96Z" fill="#6899BF"/>
<rect x="945" y="405" width="81" height="196" rx="2" fill="#FFF0DD"/>
<path d="M1014.37 532.52C1013.71 537.933 1011.05 542.6 1006.39 546.52C1001.72 550.44 995.372 552.4 987.346 552.4C978.292 552.4 970.966 549.693 965.366 544.28C959.766 538.867 956.966 531.027 956.966 520.76C956.966 511.053 959.579 503.027 964.806 496.68C970.032 490.333 977.266 487.16 986.506 487.16C995.092 487.16 1001.77 489.82 1006.53 495.14C1011.29 500.46 1013.71 506.9 1013.81 514.46C1013.81 516.98 1013.53 519.64 1012.97 522.44H969.846C970.406 535.693 976.519 542.32 988.186 542.32C993.039 542.32 996.679 541.153 999.106 538.82C1001.63 536.487 1003.31 533.687 1004.15 530.42L1014.37 532.52ZM1001.07 514.18C1001.44 510.073 1000.41 506.153 997.986 502.42C995.652 498.593 991.732 496.68 986.226 496.68C981.092 496.68 977.219 498.407 974.606 501.86C972.086 505.22 970.546 509.327 969.986 514.18H1001.07Z" fill="#6899BF"/>
<rect x="1047" y="405" width="88" height="196" rx="2" fill="#FFF0DD"/>
<path d="M1102.22 487.44C1106.6 487.44 1110.34 488.56 1113.42 490.8L1115.94 508.3L1106.28 509.42L1103.9 498.64C1102.31 497.987 1100.68 497.66 1099 497.66C1095.82 497.66 1093.16 499.013 1091.02 501.72C1088.87 504.333 1087.8 507.787 1087.8 512.08V541.48H1101.24V551H1065.4V541.48H1075.48V498.08H1064.98V488.42H1086.96V499.9C1088.17 496.353 1090.04 493.413 1092.56 491.08C1095.17 488.653 1098.39 487.44 1102.22 487.44Z" fill="#6899BF"/>
<rect x="1156" y="405" width="84" height="196" rx="2" fill="#FFF0DD"/>
<path d="M1191.97 473.72V459.3H1204.71V473.72H1191.97ZM1215.21 551H1182.59V541.48H1192.81V498.08H1182.17V488.42H1205.13V541.48H1215.21V551Z" fill="#6899BF"/>
<rect x="1261" y="405" width="84" height="196" rx="2" fill="#FFF0DD"/>
<path d="M1316.85 453.28C1319.74 453.28 1322.49 453.607 1325.11 454.26C1327.81 454.913 1330.33 456.173 1332.67 458.04L1335.19 473.3L1325.39 474.56L1322.73 464.06C1320.77 463.407 1318.57 463.08 1316.15 463.08C1309.52 463.08 1306.21 467.373 1306.21 475.96V488.42H1322.31V497.8H1306.21V541.48H1319.37V551H1283.81V541.48H1294.03V497.8H1285.35V488.42H1294.03V477.36C1294.03 470.267 1296.17 464.48 1300.47 460C1304.76 455.52 1310.22 453.28 1316.85 453.28Z" fill="#6899BF"/>
<rect x="68" y="74" width="614" height="614" stroke="#6899BF" stroke-width="8"/>
<path d="M626.669 639H448.919V591H510.419V414H239.669V591H301.169V639H123.419V591H184.919V199.5H123.419V151.5H301.169V199.5H239.669V367.5H510.419V199.5H448.919V151.5H626.669V199.5H565.169V591H626.669V639Z" fill="#FF5E3A"/>
<mask id="mask0_297_1193" style="mask-type:alpha" maskUnits="userSpaceOnUse" x="133" y="201" width="499" height="389">
<rect x="133.785" y="201" width="497.6" height="389" fill="#D9D9D9"/>
</mask>
<g mask="url(#mask0_297_1193)">
<path d="M626.669 639H448.919V591H510.419V414H239.669V591H301.169V639H123.419V591H184.919V199.5H123.419V151.5H301.169V199.5H239.669V367.5H510.419V199.5H448.919V151.5H626.669V199.5H565.169V591H626.669V639Z" fill="#013662"/>
</g>
</svg>
