<svg width="1456" height="761" viewBox="0 0 1456 761" fill="none" xmlns="http://www.w3.org/2000/svg">
<rect width="1456" height="761" fill="#FFF0DD"/>
<rect x="70" y="70" width="622" height="621" fill="#6899BF"/>
<path d="M242.572 581.787C242.572 568.359 246.234 558.838 253.559 553.223C261.127 547.363 269.184 544.434 277.729 544.434C294.574 544.434 307.025 554.932 315.082 575.928C323.139 596.68 331.684 607.056 340.717 607.056C350.482 607.056 357.196 602.783 360.858 594.238C364.765 585.693 366.718 570.801 366.718 549.561V210.083C366.718 182.251 362.201 164.429 353.168 156.616C344.135 148.804 325.458 144.165 297.138 142.7V128.784H512.47V142.7C483.417 144.409 464.496 149.658 455.707 158.447C447.162 166.992 442.89 184.204 442.89 210.083V485.474C442.89 535.767 430.805 572.998 406.635 597.168C382.465 621.582 352.558 633.789 316.913 633.789C293.476 633.789 275.165 628.418 261.981 617.676C249.042 606.934 242.572 594.971 242.572 581.787Z" fill="#013662"/>
<rect x="767" y="73" width="616" height="616" stroke="#6899BF" stroke-width="6"/>
<line x1="847.139" y1="113.589" x2="1037.02" y2="113.589" stroke="#6899BF" stroke-width="6"/>
<line x1="1112.98" y1="113.589" x2="1303.89" y2="113.589" stroke="#6899BF" stroke-width="6"/>
<rect x="1059.6" y="97.7334" width="30.7921" height="29.7134" fill="#6899BF"/>
<rect x="1326.47" y="97.7334" width="30.7921" height="29.7134" fill="#6899BF"/>
<rect x="792.739" y="97.7334" width="30.7921" height="29.7134" fill="#6899BF"/>
<rect x="792.739" y="634.555" width="30.7921" height="29.7134" fill="#6899BF"/>
<line x1="847.139" y1="648.354" x2="1037.02" y2="648.354" stroke="#6899BF" stroke-width="6"/>
<line x1="1112.98" y1="648.354" x2="1303.89" y2="648.354" stroke="#6899BF" stroke-width="6"/>
<rect x="1059.6" y="634.555" width="30.7921" height="29.7134" fill="#6899BF"/>
<rect x="1326.47" y="634.555" width="30.7921" height="29.7134" fill="#6899BF"/>
<line x1="808.057" y1="149.236" x2="808.057" y2="612.765" stroke="#6899BF" stroke-width="6"/>
<line x1="1341.79" y1="149.236" x2="1341.79" y2="612.765" stroke="#6899BF" stroke-width="6"/>
<mask id="mask0_297_465" style="mask-type:alpha" maskUnits="userSpaceOnUse" x="235" y="521" width="293" height="118">
<rect x="235" y="521" width="293" height="118" fill="#FF5E3A"/>
</mask>
<g mask="url(#mask0_297_465)">
<path d="M243.072 581.787C243.072 568.359 246.734 558.838 254.059 553.223C261.627 547.363 269.684 544.434 278.229 544.434C295.074 544.434 307.525 554.932 315.582 575.928C323.639 596.68 332.184 607.056 341.217 607.056C350.982 607.056 357.696 602.783 361.358 594.238C365.265 585.693 367.218 570.801 367.218 549.561V210.083C367.218 182.251 362.701 164.429 353.668 156.616C344.635 148.804 325.958 144.165 297.638 142.7V128.784H512.97V142.7C483.917 144.409 464.996 149.658 456.207 158.447C447.662 166.992 443.39 184.204 443.39 210.083V485.474C443.39 535.767 431.305 572.998 407.135 597.168C382.965 621.582 353.058 633.789 317.413 633.789C293.976 633.789 275.665 628.418 262.481 617.676C249.542 606.934 243.072 594.971 243.072 581.787Z" fill="#FF5E3A"/>
</g>
<path d="M839.032 285.773H898.033L898.128 305.536H895.305C894.38 298.486 891.732 293.717 887.362 291.229C884.905 289.857 881.237 289.107 876.356 288.979V340.563C876.356 344.168 876.978 346.561 878.222 347.741C879.498 348.922 882.13 349.512 886.118 349.512V352H851.186V349.512C855.014 349.512 857.55 348.922 858.794 347.741C860.07 346.529 860.708 344.136 860.708 340.563V288.979C855.923 289.107 852.255 289.857 849.702 291.229C845.013 293.781 842.365 298.55 841.759 305.536H838.936L839.032 285.773ZM893.37 349.655C895.252 349.432 896.56 348.985 897.294 348.315C898.027 347.646 898.426 346.354 898.49 344.439L898.586 341.568V314.915C898.586 312.873 898.235 311.486 897.533 310.752C896.831 310.018 895.443 309.524 893.37 309.269V306.876H911.984V314.58C914.058 311.868 916.115 309.715 918.157 308.12C920.199 306.525 922.559 305.728 925.239 305.728C927.249 305.728 929.051 306.382 930.646 307.689C932.273 308.965 933.087 310.848 933.087 313.336C933.087 315.25 932.512 316.829 931.364 318.073C930.248 319.317 928.78 319.939 926.962 319.939C924.888 319.939 923.086 318.966 921.554 317.021C920.055 315.075 919.002 314.102 918.396 314.102C917.088 314.102 915.764 314.915 914.425 316.542C913.117 318.137 912.463 320.434 912.463 323.433V341.951C912.463 345.205 912.925 347.247 913.85 348.076C914.807 348.874 916.69 349.4 919.497 349.655V352H893.37V349.655ZM953.69 346.401C955.285 346.401 956.768 345.923 958.14 344.966C958.906 344.392 959.815 343.498 960.867 342.286V327.979C958.252 328.617 955.955 329.621 953.977 330.993C950.627 333.322 948.952 336.289 948.952 339.894C948.952 342.031 949.431 343.658 950.388 344.774C951.377 345.859 952.477 346.401 953.69 346.401ZM934.693 342.86C934.693 338.458 936.814 334.965 941.057 332.381C945.3 329.797 951.951 327.197 961.011 324.581V317.451C961.011 314.548 960.389 312.411 959.145 311.039C957.933 309.635 955.763 308.934 952.637 308.934C950.882 308.934 949.431 309.269 948.282 309.938C947.166 310.576 946.608 311.39 946.608 312.379C946.608 312.762 946.671 313.081 946.799 313.336C946.927 313.591 947.118 313.862 947.373 314.149L947.948 314.819C948.394 315.362 948.745 315.968 949 316.638C949.287 317.276 949.431 317.962 949.431 318.695C949.431 320.546 948.809 321.981 947.565 323.002C946.352 323.991 944.933 324.485 943.306 324.485C941.424 324.485 939.813 323.927 938.473 322.811C937.165 321.694 936.511 320.083 936.511 317.978C936.511 314.213 938.281 311.23 941.823 309.029C945.364 306.828 949.718 305.728 954.886 305.728C960.437 305.728 965.078 306.796 968.811 308.934C972.511 311.103 974.362 315.09 974.362 320.896V344.631C974.362 345.333 974.537 345.939 974.888 346.449C975.271 346.928 975.685 347.167 976.132 347.167C976.515 347.167 976.85 347.103 977.137 346.976C977.456 346.816 977.934 346.417 978.573 345.779L980.056 347.837C978.142 350.07 976.02 351.633 973.692 352.526C972.224 353.101 970.677 353.388 969.05 353.388C966.147 353.388 964.026 352.542 962.686 350.852C961.92 349.895 961.362 348.475 961.011 346.593C958.299 349.304 955.237 351.218 951.823 352.335C949.75 353.037 947.708 353.388 945.698 353.388C943.019 353.388 940.515 352.542 938.186 350.852C935.857 349.129 934.693 346.465 934.693 342.86ZM979.843 349.655C981.63 349.432 982.938 348.953 983.767 348.22C984.629 347.454 985.059 345.955 985.059 343.722V314.915C985.059 312.937 984.708 311.565 984.007 310.8C983.337 310.034 981.949 309.524 979.843 309.269V306.876H998.41V313.91C999.973 311.549 1001.95 309.604 1004.34 308.072C1006.77 306.509 1009.45 305.728 1012.38 305.728C1016.59 305.728 1019.85 306.812 1022.14 308.981C1024.47 311.151 1025.64 314.963 1025.64 320.418V344.104C1025.64 346.306 1026 347.725 1026.74 348.363C1027.5 349.001 1028.76 349.432 1030.52 349.655V352H1007.5V349.655C1009.26 349.304 1010.45 348.826 1011.09 348.22C1011.73 347.614 1012.05 346.242 1012.05 344.104V320.37C1012.05 318.137 1011.82 316.462 1011.38 315.346C1010.61 313.336 1009.1 312.331 1006.83 312.331C1005.14 312.331 1003.58 312.953 1002.14 314.197C1000.74 315.41 999.654 316.638 998.888 317.882V344.104C998.888 346.242 999.207 347.614 999.845 348.22C1000.48 348.826 1001.68 349.304 1003.43 349.655V352H979.843V349.655ZM1032.36 337.166H1035.09C1036.05 341.855 1037.83 345.173 1040.45 347.119C1043.07 349.033 1045.75 349.99 1048.49 349.99C1051.01 349.99 1052.86 349.432 1054.04 348.315C1055.22 347.167 1055.81 345.668 1055.81 343.817C1055.81 342.063 1055.17 340.563 1053.9 339.319C1053.19 338.649 1052.06 337.932 1050.5 337.166L1043.23 333.625C1039.4 331.743 1036.65 329.701 1035 327.5C1033.3 325.299 1032.46 322.699 1032.46 319.7C1032.46 315.904 1033.78 312.634 1036.43 309.891C1039.08 307.115 1042.78 305.728 1047.53 305.728C1049.61 305.728 1051.81 306.078 1054.14 306.78C1056.46 307.45 1057.92 307.785 1058.49 307.785C1059.29 307.785 1059.85 307.626 1060.17 307.307C1060.52 306.956 1060.8 306.477 1061.03 305.871H1063.18V320.035H1060.69C1059.77 316.717 1058.25 314.054 1056.15 312.044C1054.04 310.034 1051.58 309.029 1048.78 309.029C1046.61 309.029 1044.98 309.635 1043.9 310.848C1042.84 312.06 1042.32 313.368 1042.32 314.771C1042.32 315.92 1042.8 317.068 1043.75 318.217C1044.68 319.397 1046.43 320.609 1049.02 321.854L1054.38 324.438C1057.69 326.033 1060.12 327.58 1061.65 329.079C1064.2 331.631 1065.48 334.773 1065.48 338.506C1065.48 342.143 1064.15 345.54 1061.51 348.698C1058.89 351.825 1054.95 353.388 1049.69 353.388C1048.38 353.388 1047.05 353.244 1045.71 352.957C1044.41 352.702 1042.78 352.239 1040.83 351.569L1039.16 350.995C1038.55 350.772 1038.17 350.644 1038.01 350.612C1037.88 350.58 1037.71 350.564 1037.48 350.564C1036.94 350.564 1036.46 350.788 1036.05 351.234C1035.67 351.649 1035.22 352.367 1034.71 353.388H1032.36V337.166ZM1071.01 291.898C1071.01 289.793 1071.74 288.007 1073.21 286.539C1074.71 285.04 1076.51 284.29 1078.61 284.29C1080.69 284.29 1082.46 285.04 1083.93 286.539C1085.43 288.007 1086.18 289.793 1086.18 291.898C1086.18 294.004 1085.43 295.806 1083.93 297.306C1082.46 298.773 1080.69 299.507 1078.61 299.507C1076.51 299.507 1074.71 298.773 1073.21 297.306C1071.74 295.806 1071.01 294.004 1071.01 291.898ZM1066.7 349.655C1068.42 349.368 1069.6 348.938 1070.24 348.363C1071.2 347.502 1071.68 345.955 1071.68 343.722V314.915C1071.68 312.937 1071.34 311.597 1070.67 310.896C1070 310.162 1068.68 309.619 1066.7 309.269V306.876H1085.51V344.104C1085.51 346.242 1085.82 347.614 1086.46 348.22C1087.1 348.826 1088.3 349.304 1090.05 349.655V352H1066.7V349.655ZM1091.04 311.183V308.455C1091.9 307.658 1092.97 306.716 1094.24 305.632C1095.93 304.069 1097.53 302.458 1099.03 300.799C1101.99 297.545 1104.69 294.052 1107.11 290.319H1109.6V306.876H1118.93V311.183H1109.6V340.659C1109.6 342.031 1109.81 343.179 1110.22 344.104C1110.86 345.54 1111.91 346.258 1113.38 346.258C1114.66 346.258 1115.73 345.811 1116.59 344.918C1117.45 343.993 1118.31 342.733 1119.17 341.138L1121.52 342.286C1120.37 344.966 1119 347.151 1117.4 348.842C1114.59 351.809 1111.16 353.292 1107.11 353.292C1104.82 353.292 1102.81 352.861 1101.08 352C1097.77 350.341 1096.11 347.326 1096.11 342.956V311.183H1091.04ZM1125.04 291.898C1125.04 289.793 1125.77 288.007 1127.24 286.539C1128.74 285.04 1130.54 284.29 1132.64 284.29C1134.72 284.29 1136.49 285.04 1137.96 286.539C1139.46 288.007 1140.21 289.793 1140.21 291.898C1140.21 294.004 1139.46 295.806 1137.96 297.306C1136.49 298.773 1134.72 299.507 1132.64 299.507C1130.54 299.507 1128.74 298.773 1127.24 297.306C1125.77 295.806 1125.04 294.004 1125.04 291.898ZM1120.73 349.655C1122.45 349.368 1123.63 348.938 1124.27 348.363C1125.23 347.502 1125.71 345.955 1125.71 343.722V314.915C1125.71 312.937 1125.37 311.597 1124.7 310.896C1124.03 310.162 1122.71 309.619 1120.73 309.269V306.876H1139.54V344.104C1139.54 346.242 1139.85 347.614 1140.49 348.22C1141.13 348.826 1142.33 349.304 1144.08 349.655V352H1120.73V349.655ZM1145.64 329.558C1145.64 322.731 1147.73 317.036 1151.91 312.475C1156.12 307.913 1161.4 305.632 1167.75 305.632C1174.22 305.632 1179.52 307.961 1183.63 312.618C1187.78 317.276 1189.85 322.922 1189.85 329.558C1189.85 336.097 1187.81 341.728 1183.73 346.449C1179.65 351.139 1174.32 353.483 1167.75 353.483C1161.37 353.483 1156.09 351.202 1151.91 346.641C1147.73 342.047 1145.64 336.353 1145.64 329.558ZM1160.04 329.558C1160.04 336.416 1160.39 341.217 1161.1 343.961C1162.21 348.204 1164.43 350.325 1167.75 350.325C1170.91 350.325 1172.98 348.698 1173.97 345.444C1174.96 342.19 1175.45 336.895 1175.45 329.558C1175.45 322.252 1174.92 316.973 1173.87 313.719C1172.85 310.433 1170.83 308.79 1167.79 308.79C1164.48 308.79 1162.26 310.911 1161.14 315.154C1160.41 317.993 1160.04 322.795 1160.04 329.558ZM1191.13 349.655C1192.91 349.432 1194.22 348.953 1195.05 348.22C1195.91 347.454 1196.34 345.955 1196.34 343.722V314.915C1196.34 312.937 1195.99 311.565 1195.29 310.8C1194.62 310.034 1193.23 309.524 1191.13 309.269V306.876H1209.69V313.91C1211.25 311.549 1213.23 309.604 1215.63 308.072C1218.05 306.509 1220.73 305.728 1223.66 305.728C1227.88 305.728 1231.13 306.812 1233.43 308.981C1235.75 311.151 1236.92 314.963 1236.92 320.418V344.104C1236.92 346.306 1237.29 347.725 1238.02 348.363C1238.79 349.001 1240.05 349.432 1241.8 349.655V352H1218.78V349.655C1220.54 349.304 1221.73 348.826 1222.37 348.22C1223.01 347.614 1223.33 346.242 1223.33 344.104V320.37C1223.33 318.137 1223.11 316.462 1222.66 315.346C1221.89 313.336 1220.38 312.331 1218.11 312.331C1216.42 312.331 1214.86 312.953 1213.42 314.197C1212.02 315.41 1210.94 316.638 1210.17 317.882V344.104C1210.17 346.242 1210.49 347.614 1211.13 348.22C1211.77 348.826 1212.96 349.304 1214.72 349.655V352H1191.13V349.655ZM1262.64 346.401C1264.24 346.401 1265.72 345.923 1267.09 344.966C1267.86 344.392 1268.77 343.498 1269.82 342.286V327.979C1267.2 328.617 1264.91 329.621 1262.93 330.993C1259.58 333.322 1257.91 336.289 1257.91 339.894C1257.91 342.031 1258.38 343.658 1259.34 344.774C1260.33 345.859 1261.43 346.401 1262.64 346.401ZM1243.65 342.86C1243.65 338.458 1245.77 334.965 1250.01 332.381C1254.25 329.797 1260.9 327.197 1269.96 324.581V317.451C1269.96 314.548 1269.34 312.411 1268.1 311.039C1266.89 309.635 1264.72 308.934 1261.59 308.934C1259.84 308.934 1258.38 309.269 1257.24 309.938C1256.12 310.576 1255.56 311.39 1255.56 312.379C1255.56 312.762 1255.62 313.081 1255.75 313.336C1255.88 313.591 1256.07 313.862 1256.33 314.149L1256.9 314.819C1257.35 315.362 1257.7 315.968 1257.95 316.638C1258.24 317.276 1258.38 317.962 1258.38 318.695C1258.38 320.546 1257.76 321.981 1256.52 323.002C1255.31 323.991 1253.89 324.485 1252.26 324.485C1250.38 324.485 1248.77 323.927 1247.43 322.811C1246.12 321.694 1245.46 320.083 1245.46 317.978C1245.46 314.213 1247.23 311.23 1250.78 309.029C1254.32 306.828 1258.67 305.728 1263.84 305.728C1269.39 305.728 1274.03 306.796 1277.76 308.934C1281.46 311.103 1283.31 315.09 1283.31 320.896V344.631C1283.31 345.333 1283.49 345.939 1283.84 346.449C1284.22 346.928 1284.64 347.167 1285.08 347.167C1285.47 347.167 1285.8 347.103 1286.09 346.976C1286.41 346.816 1286.89 346.417 1287.53 345.779L1289.01 347.837C1287.09 350.07 1284.97 351.633 1282.64 352.526C1281.18 353.101 1279.63 353.388 1278 353.388C1275.1 353.388 1272.98 352.542 1271.64 350.852C1270.87 349.895 1270.31 348.475 1269.96 346.593C1267.25 349.304 1264.19 351.218 1260.78 352.335C1258.7 353.037 1256.66 353.388 1254.65 353.388C1251.97 353.388 1249.47 352.542 1247.14 350.852C1244.81 349.129 1243.65 346.465 1243.65 342.86ZM1288.8 349.655C1290.52 349.241 1291.73 348.698 1292.43 348.028C1293.17 347.326 1293.53 345.891 1293.53 343.722V293.812C1293.53 291.739 1293.2 290.383 1292.53 289.745C1291.86 289.107 1290.61 288.581 1288.8 288.166V285.773H1307.36V343.722C1307.36 345.891 1307.71 347.311 1308.42 347.98C1309.12 348.65 1310.36 349.209 1312.15 349.655V352H1288.8V349.655ZM982.502 449.127H985.325C986.92 456.432 989.488 461.744 993.029 465.062C996.602 468.379 1000.69 470.038 1005.28 470.038C1009.75 470.038 1012.92 468.906 1014.8 466.641C1016.68 464.344 1017.63 461.935 1017.63 459.415C1017.63 456.48 1016.64 454.088 1014.66 452.237C1013.35 451.025 1010.72 449.446 1006.76 447.5L1000.4 444.342C994.082 441.215 989.632 438.121 987.048 435.059C984.464 431.996 983.172 428.216 983.172 423.718C983.172 418.933 984.879 414.466 988.292 410.319C991.737 406.172 997.001 404.099 1004.08 404.099C1007.69 404.099 1011.17 404.641 1014.51 405.726C1017.9 406.81 1019.83 407.353 1020.3 407.353C1021.39 407.353 1022.14 407.049 1022.55 406.443C1022.97 405.805 1023.3 404.976 1023.56 403.955H1026.48V425.297H1023.75C1022.44 420.352 1020.13 416.093 1016.81 412.521C1013.53 408.948 1009.52 407.161 1004.8 407.161C1001.48 407.161 998.851 408.07 996.905 409.889C994.991 411.675 994.034 413.86 994.034 416.444C994.034 419.539 994.943 421.852 996.762 423.383C998.548 424.946 1002.52 427.243 1008.68 430.273L1016.05 433.91C1019.33 435.537 1021.95 437.34 1023.89 439.317C1027.53 443.018 1029.35 447.516 1029.35 452.812C1029.35 457.756 1027.39 462.43 1023.46 466.832C1019.57 471.202 1013.32 473.388 1004.71 473.388C1002.73 473.388 1000.72 473.196 998.676 472.813C996.666 472.463 994.672 471.904 992.694 471.139L990.78 470.421C990.334 470.293 989.903 470.198 989.488 470.134C989.074 470.038 988.723 469.99 988.436 469.99C987.415 469.99 986.713 470.293 986.33 470.899C985.947 471.474 985.612 472.303 985.325 473.388H982.502V449.127ZM1032.92 449.51C1032.92 441.981 1034.91 436.143 1038.9 431.996C1042.92 427.817 1047.75 425.728 1053.4 425.728C1056.62 425.728 1059.65 426.573 1062.49 428.264C1065.33 429.954 1067.51 432.299 1069.04 435.298C1070.19 437.563 1070.99 440.498 1071.44 444.103C1071.66 445.793 1071.77 447.085 1071.77 447.979H1046.79C1047.02 451.902 1047.65 455.3 1048.71 458.171C1050.62 463.562 1053.99 466.258 1058.8 466.258C1061.1 466.258 1063.27 465.54 1065.31 464.104C1066.56 463.243 1068.1 461.792 1069.95 459.75L1072.2 461.138C1069.17 466.114 1065.66 469.576 1061.68 471.521C1059.09 472.766 1056.12 473.388 1052.77 473.388C1047.96 473.388 1043.44 471.49 1039.23 467.693C1035.02 463.897 1032.92 457.836 1032.92 449.51ZM1059.71 444.342C1059.65 438.568 1059.2 434.532 1058.37 432.235C1057.54 429.938 1055.89 428.79 1053.4 428.79C1050.84 428.79 1049.09 430.114 1048.13 432.762C1047.21 435.41 1046.68 439.27 1046.55 444.342H1059.71ZM1073.09 469.655C1074.97 469.432 1076.28 468.985 1077.01 468.315C1077.75 467.646 1078.15 466.354 1078.21 464.439L1078.31 461.568V434.915C1078.31 432.873 1077.96 431.486 1077.25 430.752C1076.55 430.018 1075.16 429.524 1073.09 429.269V426.876H1091.71V434.58C1093.78 431.868 1095.84 429.715 1097.88 428.12C1099.92 426.525 1102.28 425.728 1104.96 425.728C1106.97 425.728 1108.77 426.382 1110.37 427.689C1111.99 428.965 1112.81 430.848 1112.81 433.336C1112.81 435.25 1112.23 436.829 1111.08 438.073C1109.97 439.317 1108.5 439.939 1106.68 439.939C1104.61 439.939 1102.81 438.966 1101.28 437.021C1099.78 435.075 1098.72 434.102 1098.12 434.102C1096.81 434.102 1095.49 434.915 1094.15 436.542C1092.84 438.137 1092.18 440.434 1092.18 443.433V461.951C1092.18 465.205 1092.65 467.247 1093.57 468.076C1094.53 468.874 1096.41 469.4 1099.22 469.655V472H1073.09V469.655ZM1117.81 411.898C1117.81 409.793 1118.54 408.007 1120.01 406.539C1121.51 405.04 1123.31 404.29 1125.42 404.29C1127.49 404.29 1129.26 405.04 1130.73 406.539C1132.23 408.007 1132.98 409.793 1132.98 411.898C1132.98 414.004 1132.23 415.806 1130.73 417.306C1129.26 418.773 1127.49 419.507 1125.42 419.507C1123.31 419.507 1121.51 418.773 1120.01 417.306C1118.54 415.806 1117.81 414.004 1117.81 411.898ZM1113.5 469.655C1115.23 469.368 1116.41 468.938 1117.05 468.363C1118 467.502 1118.48 465.955 1118.48 463.722V434.915C1118.48 432.937 1118.15 431.597 1117.48 430.896C1116.81 430.162 1115.48 429.619 1113.5 429.269V426.876H1132.31V464.104C1132.31 466.242 1132.63 467.614 1133.27 468.22C1133.91 468.826 1135.1 469.304 1136.86 469.655V472H1113.5V469.655ZM1137.6 469.655C1139.61 469.496 1141.05 469.049 1141.91 468.315C1142.8 467.582 1143.25 466.05 1143.25 463.722V431.853H1137.6V427.546H1143.25V423.909C1143.25 419.347 1143.96 415.599 1145.4 412.664C1148.11 407.177 1153.12 404.434 1160.43 404.434C1164.32 404.434 1167.6 405.327 1170.28 407.113C1172.99 408.868 1174.35 411.197 1174.35 414.1C1174.35 415.918 1173.78 417.385 1172.63 418.502C1171.51 419.618 1170.01 420.177 1168.13 420.177C1166.57 420.177 1165.23 419.666 1164.11 418.646C1162.99 417.625 1162.44 416.396 1162.44 414.961C1162.44 413.876 1162.79 412.744 1163.49 411.563C1164.22 410.351 1164.59 409.618 1164.59 409.362C1164.59 408.565 1164.3 408.054 1163.73 407.831C1163.15 407.608 1162.53 407.496 1161.86 407.496C1160.27 407.496 1159.04 407.959 1158.18 408.884C1157.32 409.809 1156.88 411.803 1156.88 414.865V427.546H1165.4V431.853H1156.88V461.951C1156.88 465.333 1157.36 467.406 1158.32 468.172C1159.31 468.938 1161.48 469.432 1164.83 469.655V472H1137.6V469.655Z" fill="#6899BF"/>
</svg>
