<svg width="1456" height="761" viewBox="0 0 1456 761" fill="none" xmlns="http://www.w3.org/2000/svg">
<rect width="1456" height="761" fill="#FFF0DD"/>
<rect width="1456" height="761" fill="#FFF0DD"/>
<mask id="mask0_252_435" style="mask-type:alpha" maskUnits="userSpaceOnUse" x="36" y="35" width="636" height="692">
<rect x="36" y="35" width="636" height="692" fill="#D9D9D9"/>
</mask>
<g mask="url(#mask0_252_435)">
<rect x="60" y="58" width="602" height="637" stroke="#6899BF" stroke-width="4"/>
<rect x="74" y="71" width="38" height="609" rx="2" fill="#6899BF"/>
<rect x="597" y="649" width="31" height="472" rx="2" transform="rotate(90 597 649)" fill="#6899BF"/>
<rect x="597" y="71" width="31" height="472" rx="2" transform="rotate(90 597 71)" fill="#6899BF"/>
<rect x="610" y="71" width="38" height="609" rx="2" fill="#6899BF"/>
<line x1="93" y1="86" x2="93" y2="665" stroke="#013662" stroke-width="4"/>
<line x1="629" y1="86" x2="629" y2="665" stroke="#013662" stroke-width="4"/>
<line x1="582" y1="87" x2="140" y2="87" stroke="#013662" stroke-width="4"/>
<line x1="582" y1="665" x2="140" y2="665" stroke="#013662" stroke-width="4"/>
</g>
<rect x="788" y="58" width="602" height="637" stroke="#6899BF" stroke-width="4"/>
<rect x="802" y="71" width="38" height="609" rx="2" fill="#6899BF"/>
<rect x="1330" y="649" width="31" height="481" rx="2" transform="rotate(90 1330 649)" fill="#6899BF"/>
<rect x="1325" y="71" width="31" height="472" rx="2" transform="rotate(90 1325 71)" fill="#6899BF"/>
<rect x="1338" y="71" width="38" height="609" rx="2" fill="#6899BF"/>
<line x1="821" y1="86" x2="821" y2="665" stroke="#275B85" stroke-width="4"/>
<line x1="1357" y1="86" x2="1357" y2="665" stroke="#275B85" stroke-width="4"/>
<line x1="1310" y1="87" x2="868" y2="87" stroke="#275B85" stroke-width="4"/>
<line x1="1315" y1="665" x2="864" y2="665" stroke="#013662" stroke-width="4"/>
<path d="M358.087 605.38C328.607 605.38 300.467 600.243 273.667 589.97C246.867 579.25 223.194 564.287 202.647 545.08C182.1 525.427 165.797 502.2 153.737 475.4C141.677 448.153 135.647 418.003 135.647 384.95C135.647 354.577 140.56 325.543 150.387 297.85C160.214 269.71 174.73 244.697 193.937 222.81C213.144 200.923 237.04 183.503 265.627 170.55C294.214 157.597 327.044 151.12 364.117 151.12C393.597 151.12 421.737 156.48 448.537 167.2C475.337 177.473 499.01 192.437 519.557 212.09C540.104 231.297 556.407 254.523 568.467 281.77C580.527 308.57 586.557 338.497 586.557 371.55C586.557 401.477 581.644 430.51 571.817 458.65C561.99 486.79 547.474 511.803 528.267 533.69C509.06 555.577 485.164 572.997 456.577 585.95C427.99 598.903 395.16 605.38 358.087 605.38ZM368.137 578.58C402.53 578.58 431.117 571.433 453.897 557.14C476.677 542.4 493.65 522.077 504.817 496.17C516.43 469.817 522.237 439.22 522.237 404.38C522.237 373.56 518.664 344.527 511.517 317.28C504.37 290.033 493.65 266.137 479.357 245.59C465.51 224.597 448.09 208.293 427.097 196.68C406.104 185.067 381.537 179.26 353.397 179.26C319.897 179.26 291.757 186.407 268.977 200.7C246.197 214.993 229 235.093 217.387 261C205.774 286.46 199.967 316.61 199.967 351.45C199.967 382.717 203.317 411.973 210.017 439.22C217.164 466.467 227.66 490.587 241.507 511.58C255.8 532.573 273.444 549.1 294.437 561.16C315.43 572.773 339.997 578.58 368.137 578.58Z" fill="#FF5E3A"/>
<rect x="596" y="116" width="22" height="470" rx="1" transform="rotate(90 596 116)" stroke="#6899BF" stroke-width="2"/>
<rect x="596" y="270" width="22" height="119" rx="1" transform="rotate(-180 596 270)" stroke="#6899BF" stroke-width="2"/>
<rect x="148" y="270" width="22" height="119" rx="1" transform="rotate(-180 148 270)" stroke="#6899BF" stroke-width="2"/>
<rect x="596" y="601" width="22" height="119" rx="1" transform="rotate(-180 596 601)" stroke="#6899BF" stroke-width="2"/>
<rect x="148" y="601" width="22" height="119" rx="1" transform="rotate(-180 148 601)" stroke="#6899BF" stroke-width="2"/>
<rect x="234" y="601" width="74" height="20" rx="1" transform="rotate(-180 234 601)" stroke="#6899BF" stroke-width="2"/>
<rect x="561" y="601" width="74" height="20" rx="1" transform="rotate(-180 561 601)" stroke="#6899BF" stroke-width="2"/>
<rect x="160" y="568" width="39" height="20" rx="1" transform="rotate(-90 160 568)" stroke="#6899BF" stroke-width="2"/>
<rect x="541" y="568" width="39" height="20" rx="1" transform="rotate(-90 541 568)" stroke="#6899BF" stroke-width="2"/>
<rect x="596" y="613" width="22" height="470" rx="1" transform="rotate(90 596 613)" stroke="#6899BF" stroke-width="2"/>
<line x1="259.81" y1="138.148" x2="483.81" y2="614.148" stroke="#013662" stroke-width="4" stroke-dasharray="20 20"/>
<path d="M137 491L137 593" stroke="#6899BF" stroke-width="2"/>
<path d="M137 160L137 262" stroke="#6899BF" stroke-width="2"/>
<path d="M226 591L169 591" stroke="#6899BF" stroke-width="2"/>
<rect x="234" y="171" width="74" height="20" rx="1" transform="rotate(-180 234 171)" stroke="#6899BF" stroke-width="2"/>
<path d="M226 161L169 161" stroke="#6899BF" stroke-width="2"/>
<path d="M552 591L495 591" stroke="#6899BF" stroke-width="2"/>
<rect x="561" y="171" width="74" height="20" rx="1" transform="rotate(-180 561 171)" stroke="#6899BF" stroke-width="2"/>
<path d="M552 161L495 161" stroke="#6899BF" stroke-width="2"/>
<path d="M170 561L170 537" stroke="#6899BF" stroke-width="2"/>
<path d="M170 561L170 537" stroke="#6899BF" stroke-width="2"/>
<rect x="160" y="223" width="39" height="20" rx="1" transform="rotate(-90 160 223)" stroke="#6899BF" stroke-width="2"/>
<path d="M170 216L170 192" stroke="#6899BF" stroke-width="2"/>
<path d="M551 561L551 537" stroke="#6899BF" stroke-width="2"/>
<rect x="541" y="223" width="39" height="20" rx="1" transform="rotate(-90 541 223)" stroke="#6899BF" stroke-width="2"/>
<path d="M551 216L551 192" stroke="#6899BF" stroke-width="2"/>
<path d="M585 491L585 593" stroke="#6899BF" stroke-width="2"/>
<path d="M585 161L585 263" stroke="#6899BF" stroke-width="2"/>
<line x1="581" y1="624" x2="141" y2="624" stroke="#6899BF" stroke-width="2"/>
<line x1="581" y1="127" x2="141" y2="127" stroke="#6899BF" stroke-width="2"/>
<path d="M928.163 353.4C923.629 353.4 919.296 352.633 915.163 351.1C911.029 349.5 907.363 347.267 904.163 344.4C901.029 341.467 898.529 338 896.663 334C894.863 329.933 893.963 325.433 893.963 320.5C893.963 315.967 894.696 311.633 896.163 307.5C897.696 303.3 899.929 299.567 902.863 296.3C905.863 293.033 909.529 290.433 913.863 288.5C918.263 286.567 923.329 285.6 929.063 285.6C933.596 285.6 937.896 286.4 941.962 288C946.096 289.533 949.763 291.767 952.963 294.7C956.163 297.567 958.663 301.033 960.463 305.1C962.329 309.1 963.263 313.567 963.263 318.5C963.263 322.967 962.496 327.3 960.963 331.5C959.496 335.7 957.263 339.433 954.263 342.7C951.329 345.967 947.663 348.567 943.263 350.5C938.929 352.433 933.896 353.4 928.163 353.4ZM929.863 349C934.063 349 937.563 347.933 940.363 345.8C943.229 343.667 945.363 340.7 946.763 336.9C948.229 333.033 948.963 328.6 948.963 323.6C948.963 319.333 948.529 315.2 947.663 311.2C946.796 307.2 945.463 303.633 943.663 300.5C941.863 297.3 939.596 294.767 936.863 292.9C934.196 291.033 930.996 290.1 927.263 290.1C923.063 290.1 919.529 291.167 916.663 293.3C913.863 295.433 911.763 298.4 910.363 302.2C908.963 306 908.263 310.4 908.263 315.4C908.263 319.667 908.696 323.8 909.563 327.8C910.429 331.8 911.729 335.4 913.463 338.6C915.263 341.8 917.496 344.333 920.163 346.2C922.896 348.067 926.129 349 929.863 349ZM970.337 352.3C969.803 352.3 969.337 352.2 968.937 352C968.537 351.8 968.337 351.5 968.337 351.1C968.337 350.567 968.537 350.167 968.937 349.9C969.403 349.633 969.97 349.367 970.637 349.1C971.637 348.767 972.537 348.4 973.337 348C974.203 347.6 974.637 346.7 974.637 345.3V296.5C974.637 294.633 974.337 293.067 973.737 291.8C973.203 290.467 972.103 289.633 970.437 289.3C969.77 289.167 969.437 288.667 969.437 287.8C969.437 287 969.737 286.533 970.337 286.4C972.003 286.067 973.703 285.6 975.437 285C977.237 284.4 978.903 283.8 980.437 283.2C982.037 282.6 983.37 282.133 984.437 281.8C984.903 281.6 985.237 281.5 985.437 281.5C985.77 281.5 986.003 281.633 986.137 281.9C986.27 282.1 986.337 282.3 986.337 282.5C986.337 283.033 986.237 284.067 986.037 285.6C985.837 287.067 985.737 289.067 985.737 291.6V345.2C985.737 346.6 986.137 347.5 986.937 347.9C987.737 348.3 988.637 348.667 989.637 349C990.303 349.267 990.837 349.533 991.237 349.8C991.703 350.067 991.937 350.467 991.937 351C991.937 351.4 991.737 351.7 991.337 351.9C990.937 352.1 990.47 352.2 989.937 352.2C988.67 352.2 987.503 352.133 986.437 352C985.37 351.933 984.303 351.9 983.237 351.9C982.237 351.833 981.137 351.8 979.937 351.8C978.803 351.8 977.737 351.833 976.737 351.9C975.803 351.967 974.837 352.033 973.837 352.1C972.837 352.233 971.67 352.3 970.337 352.3ZM1028.32 353.9C1028.12 353.9 1027.82 353.7 1027.42 353.3C1027.08 352.967 1026.92 352.7 1026.92 352.5C1027.05 351.567 1027.15 350.6 1027.22 349.6C1027.35 348.533 1027.45 347.633 1027.52 346.9V346.3C1026.25 348.167 1024.45 349.833 1022.12 351.3C1019.85 352.7 1017.25 353.4 1014.32 353.4C1010.58 353.4 1007.28 352.467 1004.42 350.6C1001.55 348.667 999.282 346.133 997.616 343C996.016 339.8 995.216 336.367 995.216 332.7C995.216 328.367 996.182 324.467 998.116 321C1000.12 317.467 1002.88 314.7 1006.42 312.7C1009.95 310.633 1014.05 309.6 1018.72 309.6C1019.85 309.6 1020.98 309.7 1022.12 309.9C1023.32 310.033 1024.35 310.233 1025.22 310.5C1026.02 310.7 1026.45 310.8 1026.52 310.8C1026.85 310.8 1027.02 310.233 1027.02 309.1V296.5C1027.02 293.967 1026.68 292.2 1026.02 291.2C1025.35 290.2 1024.28 289.567 1022.82 289.3C1022.08 289.1 1021.72 288.6 1021.72 287.8C1021.72 287.067 1022.05 286.6 1022.72 286.4C1025.32 285.8 1027.75 285.133 1030.02 284.4C1032.35 283.6 1034.25 282.867 1035.72 282.2C1036.38 281.933 1036.85 281.767 1037.12 281.7C1037.45 281.567 1037.65 281.5 1037.72 281.5C1038.38 281.5 1038.72 281.833 1038.72 282.5C1038.72 282.5 1038.68 282.9 1038.62 283.7C1038.55 284.5 1038.45 285.6 1038.32 287C1038.25 288.333 1038.18 289.867 1038.12 291.6L1037.82 340.3C1037.82 342.567 1037.98 344.2 1038.32 345.2C1038.65 346.2 1039.22 346.7 1040.02 346.7C1040.35 346.7 1040.78 346.7 1041.32 346.7C1041.85 346.633 1042.78 346.533 1044.12 346.4C1045.12 346.333 1045.62 346.667 1045.62 347.4C1045.62 347.933 1045.42 348.467 1045.02 349C1044.68 349.467 1044.35 349.7 1044.02 349.7C1041.75 349.967 1039.45 350.4 1037.12 351C1034.78 351.6 1032.42 352.367 1030.02 353.3C1029.55 353.5 1029.18 353.633 1028.92 353.7C1028.72 353.833 1028.52 353.9 1028.32 353.9ZM1018.92 347.1C1020.18 347.1 1021.58 346.8 1023.12 346.2C1024.65 345.533 1025.95 344.633 1027.02 343.5V322.7C1027.02 321.3 1026.55 319.933 1025.62 318.6C1024.68 317.2 1023.45 316.067 1021.92 315.2C1020.38 314.267 1018.75 313.8 1017.02 313.8C1015.42 313.8 1013.85 314.4 1012.32 315.6C1010.78 316.733 1009.48 318.5 1008.42 320.9C1007.42 323.3 1006.92 326.367 1006.92 330.1C1006.92 333.167 1007.28 335.8 1008.02 338C1008.82 340.133 1009.82 341.867 1011.02 343.2C1012.22 344.533 1013.52 345.533 1014.92 346.2C1016.32 346.8 1017.65 347.1 1018.92 347.1ZM1090.09 353.5C1087.22 353.5 1084.49 353.133 1081.89 352.4C1079.35 351.667 1077.02 350.567 1074.89 349.1C1074.49 348.767 1074.12 348.433 1073.79 348.1C1073.45 347.7 1073.19 347.267 1072.99 346.8C1072.45 345.133 1072.09 343.1 1071.89 340.7C1071.69 338.233 1071.62 335.867 1071.69 333.6C1071.69 333.133 1071.85 332.8 1072.19 332.6C1072.59 332.4 1073.05 332.3 1073.59 332.3C1074.12 332.3 1074.52 332.4 1074.79 332.6C1075.12 332.733 1075.35 333.033 1075.49 333.5C1076.95 338.5 1079.09 342.4 1081.89 345.2C1084.69 348 1087.85 349.4 1091.39 349.4C1093.59 349.4 1095.45 348.9 1096.99 347.9C1098.52 346.9 1099.69 345.6 1100.49 344C1101.29 342.4 1101.69 340.667 1101.69 338.8C1101.69 336.467 1101.25 334.533 1100.39 333C1099.59 331.467 1098.35 330.1 1096.69 328.9C1095.02 327.633 1092.92 326.3 1090.39 324.9C1087.65 323.3 1084.99 321.633 1082.39 319.9C1079.79 318.1 1077.65 316 1075.99 313.6C1074.32 311.133 1073.49 308.1 1073.49 304.5C1073.49 300.767 1074.42 297.5 1076.29 294.7C1078.22 291.833 1080.89 289.6 1084.29 288C1087.69 286.4 1091.62 285.6 1096.09 285.6C1098.55 285.6 1100.85 285.867 1102.99 286.4C1105.12 286.933 1106.82 287.467 1108.09 288C1108.82 288.267 1109.35 288.6 1109.69 289C1110.09 289.4 1110.39 290.033 1110.59 290.9C1110.99 292.3 1111.32 293.967 1111.59 295.9C1111.92 297.833 1112.09 299.867 1112.09 302C1112.09 302.8 1111.49 303.2 1110.29 303.2C1109.75 303.2 1109.22 303.067 1108.69 302.8C1108.15 302.533 1107.82 302.167 1107.69 301.7C1106.49 297.833 1104.82 294.9 1102.69 292.9C1100.62 290.9 1098.05 289.9 1094.99 289.9C1092.92 289.9 1091.15 290.267 1089.69 291C1088.22 291.667 1087.05 292.733 1086.19 294.2C1085.32 295.6 1084.89 297.433 1084.89 299.7C1084.89 301.433 1085.45 303.033 1086.59 304.5C1087.79 305.967 1089.42 307.4 1091.49 308.8C1093.62 310.2 1095.99 311.733 1098.59 313.4C1101.79 315.267 1104.45 317.167 1106.59 319.1C1108.79 320.967 1110.45 323.067 1111.59 325.4C1112.72 327.667 1113.29 330.367 1113.29 333.5C1113.29 337.9 1112.32 341.6 1110.39 344.6C1108.45 347.533 1105.75 349.767 1102.29 351.3C1098.82 352.767 1094.75 353.5 1090.09 353.5ZM1138.03 353.4C1134.03 353.4 1130.99 352.333 1128.93 350.2C1126.86 348.067 1125.83 344.967 1125.83 340.9V317.8C1125.83 317.267 1125.59 316.867 1125.13 316.6C1124.73 316.333 1123.89 316.167 1122.63 316.1H1121.53C1121.13 316.1 1120.79 315.8 1120.53 315.2C1120.26 314.533 1120.13 313.9 1120.13 313.3C1120.13 313.167 1120.16 313 1120.23 312.8C1120.36 312.533 1120.53 312.367 1120.73 312.3C1122.26 311.633 1123.83 310.733 1125.43 309.6C1127.03 308.4 1128.53 307.2 1129.93 306C1131.33 304.733 1132.49 303.667 1133.43 302.8C1133.89 302.467 1134.26 302.167 1134.53 301.9C1134.86 301.633 1135.23 301.5 1135.63 301.5C1136.16 301.5 1136.56 301.633 1136.83 301.9C1137.16 302.1 1137.26 302.533 1137.13 303.2L1136.53 308.7C1136.46 309.5 1136.63 310.033 1137.03 310.3C1137.49 310.567 1138.13 310.7 1138.93 310.7H1150.73C1150.93 310.7 1151.13 310.933 1151.33 311.4C1151.53 311.867 1151.63 312.333 1151.63 312.8C1151.63 313.667 1151.49 314.467 1151.23 315.2C1151.03 315.933 1150.76 316.3 1150.43 316.3H1140.93C1139.39 316.3 1138.33 316.467 1137.73 316.8C1137.19 317.133 1136.93 317.833 1136.93 318.9V338.1C1136.93 341.033 1137.49 343.267 1138.63 344.8C1139.76 346.267 1141.36 347 1143.43 347C1145.29 347 1146.69 346.833 1147.63 346.5C1148.63 346.167 1149.53 345.767 1150.33 345.3C1150.53 345.167 1150.69 345.1 1150.83 345.1C1151.16 345.1 1151.39 345.3 1151.53 345.7C1151.73 346.1 1151.83 346.533 1151.83 347C1151.83 347.333 1151.16 348.033 1149.83 349.1C1148.56 350.167 1146.86 351.133 1144.73 352C1142.66 352.933 1140.43 353.4 1138.03 353.4ZM1160.47 380.4C1158.87 380.4 1157.37 379.867 1155.97 378.8C1154.57 377.8 1153.87 376.467 1153.87 374.8C1153.87 373.533 1154.17 372.333 1154.77 371.2C1155.44 370.067 1156.41 369.5 1157.67 369.5C1158.61 369.5 1159.54 369.667 1160.47 370C1161.47 370.333 1162.41 370.467 1163.27 370.4C1164.07 370.333 1164.64 370.133 1164.97 369.8C1165.37 369.533 1165.81 369 1166.27 368.2C1166.81 367.267 1167.37 366.233 1167.97 365.1C1168.64 364.033 1169.31 362.733 1169.97 361.2C1170.71 359.667 1171.51 357.833 1172.37 355.7C1172.97 354.3 1173.27 352.967 1173.27 351.7C1173.27 350.9 1173.17 350.133 1172.97 349.4C1172.77 348.667 1172.54 348 1172.27 347.4L1160.17 318.9C1159.64 317.567 1158.97 316.4 1158.17 315.4C1157.44 314.4 1156.51 313.733 1155.37 313.4C1154.77 313.133 1154.27 312.867 1153.87 312.6C1153.54 312.333 1153.37 311.933 1153.37 311.4C1153.37 310.867 1153.64 310.567 1154.17 310.5C1154.71 310.367 1155.17 310.3 1155.57 310.3C1157.11 310.3 1158.34 310.333 1159.27 310.4C1160.21 310.467 1161.07 310.533 1161.87 310.6C1162.67 310.667 1163.54 310.7 1164.47 310.7C1165.87 310.7 1167.01 310.667 1167.87 310.6C1168.74 310.533 1169.64 310.467 1170.57 310.4C1171.57 310.333 1172.81 310.3 1174.27 310.3C1174.74 310.3 1175.24 310.4 1175.77 310.6C1176.31 310.733 1176.57 311.067 1176.57 311.6C1176.57 312.133 1176.27 312.567 1175.67 312.9C1175.07 313.167 1174.51 313.4 1173.97 313.6C1173.31 313.8 1172.77 314.2 1172.37 314.8C1171.97 315.333 1171.77 316.133 1171.77 317.2C1171.77 317.667 1171.87 318.267 1172.07 319C1172.27 319.667 1172.51 320.4 1172.77 321.2L1179.67 337.9C1179.74 338.167 1179.87 338.3 1180.07 338.3C1180.14 338.3 1180.24 338.167 1180.37 337.9L1186.07 321.6C1186.27 321.133 1186.44 320.533 1186.57 319.8C1186.77 319 1186.87 318.333 1186.87 317.8C1186.87 316.6 1186.57 315.7 1185.97 315.1C1185.44 314.433 1184.84 313.967 1184.17 313.7C1183.64 313.433 1183.07 313.167 1182.47 312.9C1181.87 312.567 1181.57 312.133 1181.57 311.6C1181.57 311.067 1181.84 310.733 1182.37 310.6C1182.97 310.4 1183.47 310.3 1183.87 310.3C1185.34 310.3 1186.57 310.367 1187.57 310.5C1188.57 310.633 1189.74 310.7 1191.07 310.7C1191.94 310.7 1192.64 310.667 1193.17 310.6C1193.77 310.533 1194.41 310.467 1195.07 310.4C1195.74 310.333 1196.57 310.3 1197.57 310.3C1197.97 310.3 1198.44 310.367 1198.97 310.5C1199.57 310.567 1199.87 310.867 1199.87 311.4C1199.87 311.933 1199.67 312.333 1199.27 312.6C1198.94 312.867 1198.47 313.133 1197.87 313.4C1196.74 313.733 1195.64 314.5 1194.57 315.7C1193.51 316.833 1192.64 318.167 1191.97 319.7L1177.57 354.5C1177.17 355.433 1176.64 356.667 1175.97 358.2C1175.31 359.8 1174.57 361.533 1173.77 363.4C1173.04 365.267 1172.24 367.2 1171.37 369.2C1170.51 371.2 1169.67 373.167 1168.87 375.1C1168.14 376.833 1167.01 378.133 1165.47 379C1164.01 379.933 1162.34 380.4 1160.47 380.4ZM1201.98 352.3C1201.44 352.3 1200.98 352.2 1200.58 352C1200.18 351.8 1199.98 351.5 1199.98 351.1C1199.98 350.567 1200.18 350.167 1200.58 349.9C1201.04 349.633 1201.61 349.367 1202.28 349.1C1203.28 348.767 1204.18 348.4 1204.98 348C1205.84 347.6 1206.28 346.7 1206.28 345.3V296.5C1206.28 294.633 1205.98 293.067 1205.38 291.8C1204.84 290.467 1203.74 289.633 1202.08 289.3C1201.41 289.167 1201.08 288.667 1201.08 287.8C1201.08 287 1201.38 286.533 1201.98 286.4C1203.64 286.067 1205.34 285.6 1207.08 285C1208.88 284.4 1210.54 283.8 1212.08 283.2C1213.68 282.6 1215.01 282.133 1216.08 281.8C1216.54 281.6 1216.88 281.5 1217.08 281.5C1217.41 281.5 1217.64 281.633 1217.78 281.9C1217.91 282.1 1217.98 282.3 1217.98 282.5C1217.98 283.033 1217.88 284.067 1217.68 285.6C1217.48 287.067 1217.38 289.067 1217.38 291.6V345.2C1217.38 346.6 1217.78 347.5 1218.58 347.9C1219.38 348.3 1220.28 348.667 1221.28 349C1221.94 349.267 1222.48 349.533 1222.88 349.8C1223.34 350.067 1223.58 350.467 1223.58 351C1223.58 351.4 1223.38 351.7 1222.98 351.9C1222.58 352.1 1222.11 352.2 1221.58 352.2C1220.31 352.2 1219.14 352.133 1218.08 352C1217.01 351.933 1215.94 351.9 1214.88 351.9C1213.88 351.833 1212.78 351.8 1211.58 351.8C1210.44 351.8 1209.38 351.833 1208.38 351.9C1207.44 351.967 1206.48 352.033 1205.48 352.1C1204.48 352.233 1203.31 352.3 1201.98 352.3ZM1245.36 353.4C1241.69 353.4 1238.46 352.467 1235.66 350.6C1232.86 348.733 1230.66 346.167 1229.06 342.9C1227.46 339.567 1226.66 335.8 1226.66 331.6C1226.66 327.533 1227.59 323.833 1229.46 320.5C1231.39 317.1 1233.96 314.4 1237.16 312.4C1240.36 310.4 1243.86 309.4 1247.66 309.4C1250.46 309.4 1252.96 310 1255.16 311.2C1257.36 312.333 1259.09 313.933 1260.36 316C1261.69 318 1262.36 320.267 1262.36 322.8C1262.36 325.2 1261.32 326.4 1259.26 326.4H1238.96C1238.02 326.4 1237.32 326.667 1236.86 327.2C1236.46 327.667 1236.26 328.567 1236.26 329.9C1236.26 332.7 1236.86 335.233 1238.06 337.5C1239.32 339.767 1240.99 341.567 1243.06 342.9C1245.12 344.233 1247.49 344.9 1250.16 344.9C1252.09 344.9 1253.86 344.533 1255.46 343.8C1257.12 343 1258.69 341.933 1260.16 340.6C1260.42 340.4 1260.66 340.233 1260.86 340.1C1261.06 339.9 1261.26 339.8 1261.46 339.8C1262.12 339.8 1262.46 340.2 1262.46 341C1262.46 341.933 1262.06 343.067 1261.26 344.4C1260.46 345.933 1259.29 347.4 1257.76 348.8C1256.29 350.2 1254.49 351.3 1252.36 352.1C1250.22 352.967 1247.89 353.4 1245.36 353.4ZM1238.96 322.5H1246.06C1247.79 322.5 1249.09 322.467 1249.96 322.4C1250.82 322.333 1251.66 322.2 1252.46 322C1252.79 321.933 1253.02 321.667 1253.16 321.2C1253.29 320.667 1253.36 320.067 1253.36 319.4C1253.36 317.6 1252.66 316.1 1251.26 314.9C1249.92 313.633 1248.26 313 1246.26 313C1244.86 313 1243.49 313.433 1242.16 314.3C1240.82 315.1 1239.72 316.133 1238.86 317.4C1237.99 318.667 1237.59 319.967 1237.66 321.3C1237.66 322.1 1238.09 322.5 1238.96 322.5ZM1014.75 473.5C1011.88 473.5 1009.15 473.133 1006.55 472.4C1004.01 471.667 1001.68 470.567 999.546 469.1C999.146 468.767 998.779 468.433 998.446 468.1C998.112 467.7 997.846 467.267 997.646 466.8C997.112 465.133 996.746 463.1 996.546 460.7C996.346 458.233 996.279 455.867 996.346 453.6C996.346 453.133 996.512 452.8 996.846 452.6C997.246 452.4 997.712 452.3 998.246 452.3C998.779 452.3 999.179 452.4 999.446 452.6C999.779 452.733 1000.01 453.033 1000.15 453.5C1001.61 458.5 1003.75 462.4 1006.55 465.2C1009.35 468 1012.51 469.4 1016.05 469.4C1018.25 469.4 1020.11 468.9 1021.65 467.9C1023.18 466.9 1024.35 465.6 1025.15 464C1025.95 462.4 1026.35 460.667 1026.35 458.8C1026.35 456.467 1025.91 454.533 1025.05 453C1024.25 451.467 1023.01 450.1 1021.35 448.9C1019.68 447.633 1017.58 446.3 1015.05 444.9C1012.31 443.3 1009.65 441.633 1007.05 439.9C1004.45 438.1 1002.31 436 1000.65 433.6C998.979 431.133 998.146 428.1 998.146 424.5C998.146 420.767 999.079 417.5 1000.95 414.7C1002.88 411.833 1005.55 409.6 1008.95 408C1012.35 406.4 1016.28 405.6 1020.75 405.6C1023.21 405.6 1025.51 405.867 1027.65 406.4C1029.78 406.933 1031.48 407.467 1032.75 408C1033.48 408.267 1034.01 408.6 1034.35 409C1034.75 409.4 1035.05 410.033 1035.25 410.9C1035.65 412.3 1035.98 413.967 1036.25 415.9C1036.58 417.833 1036.75 419.867 1036.75 422C1036.75 422.8 1036.15 423.2 1034.95 423.2C1034.41 423.2 1033.88 423.067 1033.35 422.8C1032.81 422.533 1032.48 422.167 1032.35 421.7C1031.15 417.833 1029.48 414.9 1027.35 412.9C1025.28 410.9 1022.71 409.9 1019.65 409.9C1017.58 409.9 1015.81 410.267 1014.35 411C1012.88 411.667 1011.71 412.733 1010.85 414.2C1009.98 415.6 1009.55 417.433 1009.55 419.7C1009.55 421.433 1010.11 423.033 1011.25 424.5C1012.45 425.967 1014.08 427.4 1016.15 428.8C1018.28 430.2 1020.65 431.733 1023.25 433.4C1026.45 435.267 1029.11 437.167 1031.25 439.1C1033.45 440.967 1035.11 443.067 1036.25 445.4C1037.38 447.667 1037.95 450.367 1037.95 453.5C1037.95 457.9 1036.98 461.6 1035.05 464.6C1033.11 467.533 1030.41 469.767 1026.95 471.3C1023.48 472.767 1019.41 473.5 1014.75 473.5ZM1063.76 473.4C1060.1 473.4 1056.86 472.467 1054.06 470.6C1051.26 468.733 1049.06 466.167 1047.46 462.9C1045.86 459.567 1045.06 455.8 1045.06 451.6C1045.06 447.533 1046 443.833 1047.86 440.5C1049.8 437.1 1052.36 434.4 1055.56 432.4C1058.76 430.4 1062.26 429.4 1066.06 429.4C1068.86 429.4 1071.36 430 1073.56 431.2C1075.76 432.333 1077.5 433.933 1078.76 436C1080.1 438 1080.76 440.267 1080.76 442.8C1080.76 445.2 1079.73 446.4 1077.66 446.4H1057.36C1056.43 446.4 1055.73 446.667 1055.26 447.2C1054.86 447.667 1054.66 448.567 1054.66 449.9C1054.66 452.7 1055.26 455.233 1056.46 457.5C1057.73 459.767 1059.4 461.567 1061.46 462.9C1063.53 464.233 1065.9 464.9 1068.56 464.9C1070.5 464.9 1072.26 464.533 1073.86 463.8C1075.53 463 1077.1 461.933 1078.56 460.6C1078.83 460.4 1079.06 460.233 1079.26 460.1C1079.46 459.9 1079.66 459.8 1079.86 459.8C1080.53 459.8 1080.86 460.2 1080.86 461C1080.86 461.933 1080.46 463.067 1079.66 464.4C1078.86 465.933 1077.7 467.4 1076.16 468.8C1074.7 470.2 1072.9 471.3 1070.76 472.1C1068.63 472.967 1066.3 473.4 1063.76 473.4ZM1057.36 442.5H1064.46C1066.2 442.5 1067.5 442.467 1068.36 442.4C1069.23 442.333 1070.06 442.2 1070.86 442C1071.2 441.933 1071.43 441.667 1071.56 441.2C1071.7 440.667 1071.76 440.067 1071.76 439.4C1071.76 437.6 1071.06 436.1 1069.66 434.9C1068.33 433.633 1066.66 433 1064.66 433C1063.26 433 1061.9 433.433 1060.56 434.3C1059.23 435.1 1058.13 436.133 1057.26 437.4C1056.4 438.667 1056 439.967 1056.06 441.3C1056.06 442.1 1056.5 442.5 1057.36 442.5ZM1087.78 472.3C1087.25 472.3 1086.78 472.2 1086.38 472C1085.98 471.733 1085.78 471.4 1085.78 471C1085.78 470.467 1085.98 470.067 1086.38 469.8C1086.85 469.533 1087.42 469.3 1088.08 469.1C1089.48 468.7 1090.45 468.233 1090.98 467.7C1091.58 467.1 1091.88 466.3 1091.88 465.3V442.8C1091.88 441.267 1091.65 440 1091.18 439C1090.78 437.933 1089.88 437.233 1088.48 436.9C1088.22 436.767 1087.95 436.6 1087.68 436.4C1087.42 436.133 1087.28 435.767 1087.28 435.3C1087.28 434.433 1087.65 433.9 1088.38 433.7C1090.38 433.167 1092.55 432.467 1094.88 431.6C1097.22 430.667 1099.18 429.767 1100.78 428.9C1101.12 428.7 1101.48 428.5 1101.88 428.3C1102.28 428.1 1102.58 428 1102.78 428C1103.32 428 1103.58 428.333 1103.58 429C1103.58 429.267 1103.55 429.867 1103.48 430.8C1103.48 431.733 1103.45 432.767 1103.38 433.9C1103.38 434.967 1103.35 435.933 1103.28 436.8C1103.28 437.2 1103.38 437.4 1103.58 437.4C1104.65 436 1105.85 434.7 1107.18 433.5C1108.52 432.3 1109.92 431.3 1111.38 430.5C1112.92 429.7 1114.45 429.3 1115.98 429.3C1117.92 429.3 1119.35 429.7 1120.28 430.5C1121.28 431.3 1121.78 432.3 1121.78 433.5C1121.78 434.433 1121.52 435.433 1120.98 436.5C1120.52 437.567 1119.88 438.5 1119.08 439.3C1118.35 440.033 1117.52 440.4 1116.58 440.4C1116.05 440.4 1115.48 440.3 1114.88 440.1C1114.28 439.833 1113.68 439.533 1113.08 439.2C1112.48 438.933 1111.85 438.667 1111.18 438.4C1110.58 438.133 1110.02 438 1109.48 438C1107.82 438 1106.32 438.633 1104.98 439.9C1103.65 441.1 1102.98 443.5 1102.98 447.1V464.7C1102.98 465.9 1103.42 466.833 1104.28 467.5C1105.15 468.1 1106.48 468.667 1108.28 469.2C1109.02 469.4 1109.55 469.633 1109.88 469.9C1110.28 470.1 1110.48 470.467 1110.48 471C1110.48 471.867 1109.88 472.3 1108.68 472.3C1106.68 472.3 1104.78 472.2 1102.98 472C1101.25 471.867 1099.52 471.8 1097.78 471.8C1096.65 471.8 1095.55 471.833 1094.48 471.9C1093.48 471.967 1092.45 472.033 1091.38 472.1C1090.32 472.233 1089.12 472.3 1087.78 472.3ZM1126.15 472.3C1125.62 472.3 1125.19 472.2 1124.85 472C1124.52 471.733 1124.35 471.4 1124.35 471C1124.35 470.467 1124.55 470.067 1124.95 469.8C1125.35 469.533 1125.82 469.333 1126.35 469.2C1127.95 468.8 1129.09 468.367 1129.75 467.9C1130.49 467.433 1130.85 466.633 1130.85 465.5V443.8C1130.85 441.667 1130.52 440.067 1129.85 439C1129.19 437.933 1128.05 437.267 1126.45 437C1126.12 436.933 1125.85 436.767 1125.65 436.5C1125.45 436.167 1125.35 435.8 1125.35 435.4C1125.35 434.467 1125.72 433.967 1126.45 433.9C1129.65 433.233 1132.42 432.333 1134.75 431.2C1137.15 430 1138.99 429.067 1140.25 428.4C1141.19 427.933 1141.79 427.7 1142.05 427.7C1142.79 427.7 1143.15 428.033 1143.15 428.7C1143.09 429.633 1142.95 430.933 1142.75 432.6C1142.55 434.2 1142.35 435.933 1142.15 437.8C1142.02 439.6 1141.95 441.3 1141.95 442.9V465.4C1141.95 466.4 1142.32 467.167 1143.05 467.7C1143.79 468.233 1144.95 468.733 1146.55 469.2C1147.09 469.4 1147.55 469.633 1147.95 469.9C1148.35 470.1 1148.55 470.467 1148.55 471C1148.55 471.8 1147.99 472.2 1146.85 472.2C1145.59 472.2 1144.35 472.167 1143.15 472.1C1142.02 472.033 1140.89 471.967 1139.75 471.9C1138.69 471.833 1137.55 471.8 1136.35 471.8C1135.22 471.8 1134.12 471.833 1133.05 471.9C1131.99 471.967 1130.89 472.033 1129.75 472.1C1128.69 472.233 1127.49 472.3 1126.15 472.3ZM1136.15 421.9C1134.22 421.9 1132.59 421.233 1131.25 419.9C1129.92 418.567 1129.25 416.967 1129.25 415.1C1129.25 413.033 1129.92 411.333 1131.25 410C1132.59 408.667 1134.22 408 1136.15 408C1138.15 408 1139.82 408.667 1141.15 410C1142.49 411.333 1143.15 413.033 1143.15 415.1C1143.15 416.967 1142.49 418.567 1141.15 419.9C1139.82 421.233 1138.15 421.9 1136.15 421.9ZM1154.28 472.3C1153.75 472.3 1153.28 472.2 1152.88 472C1152.48 471.733 1152.28 471.4 1152.28 471C1152.28 470.467 1152.45 470.067 1152.78 469.8C1153.18 469.533 1153.68 469.333 1154.28 469.2C1156.02 468.667 1157.15 468.133 1157.68 467.6C1158.28 467.067 1158.58 466.2 1158.58 465V436.7C1157.92 436.7 1157.15 436.7 1156.28 436.7C1155.42 436.633 1154.45 436.567 1153.38 436.5C1153.05 436.433 1152.72 436.1 1152.38 435.5C1152.12 434.9 1151.98 434.367 1151.98 433.9C1151.98 433.7 1152.08 433.533 1152.28 433.4C1152.48 433.267 1152.65 433.167 1152.78 433.1C1153.78 432.633 1154.72 432.2 1155.58 431.8C1156.52 431.4 1157.52 430.967 1158.58 430.5C1158.72 424.967 1159.58 420.333 1161.18 416.6C1162.85 412.867 1164.92 409.9 1167.38 407.7C1169.85 405.433 1172.45 403.833 1175.18 402.9C1177.98 401.9 1180.58 401.4 1182.98 401.4C1187.25 401.4 1190.35 402.033 1192.28 403.3C1194.28 404.5 1195.28 406.267 1195.28 408.6C1195.28 410.067 1194.95 411.233 1194.28 412.1C1193.62 412.9 1192.72 413.3 1191.58 413.3C1190.98 413.3 1190.38 413.067 1189.78 412.6C1189.25 412.067 1188.65 411.4 1187.98 410.6C1186.92 409.533 1185.65 408.467 1184.18 407.4C1182.78 406.333 1180.98 405.8 1178.78 405.8C1175.98 405.8 1173.75 407.033 1172.08 409.5C1170.48 411.967 1169.68 415.8 1169.68 421V429.5C1169.68 429.967 1169.82 430.3 1170.08 430.5C1170.35 430.633 1170.68 430.7 1171.08 430.7H1182.78C1183.25 430.7 1183.62 430.867 1183.88 431.2C1184.15 431.467 1184.28 431.8 1184.28 432.2C1184.28 432.733 1184.22 433.333 1184.08 434C1183.95 434.6 1183.75 435.1 1183.48 435.5C1183.22 436.033 1182.95 436.3 1182.68 436.3H1172.68C1171.48 436.3 1170.68 436.467 1170.28 436.8C1169.88 437.067 1169.68 437.567 1169.68 438.3V463.9C1169.68 465.5 1170.08 466.667 1170.88 467.4C1171.68 468.067 1173.45 468.633 1176.18 469.1C1177.58 469.367 1178.28 469.967 1178.28 470.9C1178.28 471.3 1178.12 471.633 1177.78 471.9C1177.45 472.167 1177.02 472.3 1176.48 472.3C1174.48 472.3 1172.38 472.2 1170.18 472C1167.98 471.867 1166.02 471.8 1164.28 471.8C1163.15 471.8 1162.08 471.833 1161.08 471.9C1160.08 471.967 1159.02 472.033 1157.88 472.1C1156.82 472.233 1155.62 472.3 1154.28 472.3Z" fill="#FF5E3A"/>
</svg>
